<svg width="1243" height="1441" viewBox="0 0 1243 1441" fill="none" xmlns="http://www.w3.org/2000/svg">
<g clip-path="url(#clip0_6_5)">
<path d="M813.208 -208.418C712.558 -203.864 613.805 -172.41 532.861 -112.517C353.317 20.335 280.311 307.355 427.838 489.643C565.656 659.934 837.166 692.281 995.272 531.981C1081.8 444.249 1161.88 357.24 1296.9 381.854C1324.45 386.875 1351.24 395.987 1379.06 399.134C1531.48 416.371 1421.3 210.72 1389.97 150.603C1318.86 14.17 1204.78 -102.299 1062.39 -163.449C984.344 -196.962 898.102 -212.259 813.208 -208.418Z" fill="#1877BA"/>
<path d="M644.706 1440.49C745.355 1435.94 844.109 1404.48 925.053 1344.59C1104.6 1211.74 1177.6 924.717 1030.08 742.429C892.258 572.138 620.748 539.791 462.641 700.091C376.109 787.823 296.036 874.832 161.01 850.218C133.464 845.197 106.678 836.085 78.8489 832.938C-73.5661 815.701 36.6129 1021.35 67.9469 1081.47C139.056 1217.9 253.13 1334.37 395.529 1395.52C473.569 1429.03 559.812 1444.33 644.706 1440.49Z" fill="#1877BA"/>
</g>
<defs>
<clipPath id="clip0_6_5">
<rect width="1243" height="1444" fill="white" transform="translate(0 -3)"/>
</clipPath>
</defs>
</svg>
