<svg width="1117" height="1672" viewBox="0 0 1117 1672" fill="none" xmlns="http://www.w3.org/2000/svg">
<g clip-path="url(#clip0_37_11)">
<path d="M957.462 1514.88C1030.62 1445.61 1084.75 1357.22 1106.81 1258.98C1155.73 1041.05 1023.23 776.183 792.407 734.783C576.775 696.106 350.235 849.218 335.479 1073.89C327.404 1196.85 323.741 1315.04 205.502 1384.73C181.381 1398.95 155.158 1409.58 132.049 1425.4C5.48138 1512.05 223.332 1595.55 286.355 1620.53C429.379 1677.23 591.847 1690.72 739.561 1643.84C820.513 1618.15 895.756 1573.31 957.462 1514.88Z" fill="#1877BA"/>
<path d="M6.45229 157.358C-66.7057 226.633 -120.835 315.017 -142.892 413.264C-191.815 631.191 -59.3147 896.057 171.507 937.458C387.139 976.134 613.679 823.022 628.435 598.352C636.51 475.391 640.173 357.201 758.412 287.506C782.533 273.289 808.756 262.662 831.865 246.841C958.433 160.192 740.582 76.6909 677.559 51.7089C534.535 -4.98614 372.067 -18.4791 224.353 28.3998C143.401 54.091 68.1583 98.9269 6.45229 157.358Z" fill="#1877BA"/>
</g>
<defs>
<clipPath id="clip0_37_11">
<rect width="1117" height="1672" fill="white"/>
</clipPath>
</defs>
</svg>
