<svg width="286" height="336" viewBox="0 0 286 336" fill="none" xmlns="http://www.w3.org/2000/svg">
<g opacity="0.2">
<path d="M285.8 186.7C284.4 164.8 272.3 144.3 254.1 126.2C271.5 144 283.1 164.1 284.4 185.4C289.5 266.7 169.2 334.2 89 334.2C88.7 334.2 88.5 334.2 88.2 334.2C79.4 334.2 71.7 330.9 65.9 325.8C71.9 331.7 80 335.5 89.5 335.5C89.8 335.5 90 335.5 90.3 335.5C170.7 335.5 290.9 268 285.8 186.7Z" fill="white"/>
<path d="M89.1 334.2C169.3 334.2 289.5 266.7 284.5 185.4C283.2 164.1 271.6 144 254.2 126.2C253.8 125.7 253.3 125.3 252.8 124.8C270.2 142.6 281.8 162.7 283.1 184C288.2 265.3 167.9 332.8 87.7 332.8C87.4 332.8 87.2 332.8 86.9 332.8C78.1 332.8 70.4 329.5 64.6 324.4C65.1 324.8 65.5 325.3 66 325.8C71.8 330.9 79.4 334.1 88.3 334.2C88.6 334.2 88.9 334.2 89.1 334.2Z" fill="#F7F8F8"/>
<path d="M87.0001 332.8C87.3001 332.8 87.5 332.8 87.8 332.8C168 332.8 288.2 265.3 283.2 184C281.9 162.7 270.3 142.6 252.9 124.8C252.5 124.3 252 123.9 251.5 123.4C268.9 141.2 280.5 161.3 281.8 182.6C286.9 263.9 166.6 331.4 86.4001 331.4C86.1001 331.4 85.9001 331.4 85.6001 331.4C76.8001 331.4 69.1 328.1 63.3 323C63.8 323.4 64.2001 323.9 64.7001 324.4C70.5001 329.5 78.2001 332.8 87.0001 332.8Z" fill="#F3F3F3"/>
<path d="M85.7 331.4C86 331.4 86.2 331.4 86.5 331.4C166.7 331.4 286.9 263.9 281.9 182.6C280.6 161.3 269 141.2 251.6 123.4C251.2 122.9 250.7 122.5 250.2 122C267.6 139.8 279.2 159.9 280.5 181.2C285.6 262.5 165.3 330 85.1 330C84.8 330 84.6 330 84.3 330C75.5 330 67.8 326.7 62 321.6C62.5 322 62.9 322.5 63.4 323C69.2 328.2 76.8 331.4 85.7 331.4Z" fill="#EBEBEB"/>
<path d="M84.3 330.1C84.6 330.1 84.8 330.1 85.1 330.1C165.3 330.1 285.5 262.6 280.5 181.3C279.2 160 267.6 139.9 250.2 122.1C249.8 121.6 249.3 121.2 248.8 120.7C266.2 138.5 277.8 158.6 279.1 179.9C284.2 261.2 163.9 328.7 83.7 328.7C83.4 328.7 83.2 328.7 82.9 328.7C74.1 328.7 66.4 325.4 60.6 320.3C61.1 320.7 61.5 321.2 62 321.7C67.8 326.8 75.5 330.1 84.3 330.1Z" fill="#E5E5E5"/>
<path d="M83.0001 328.7C83.3001 328.7 83.5 328.7 83.8 328.7C164 328.7 284.2 261.2 279.2 179.9C277.9 158.6 266.3 138.5 248.9 120.7C248.5 120.2 248 119.8 247.5 119.3C264.9 137.1 276.5 157.2 277.8 178.5C282.9 259.8 162.6 327.3 82.4001 327.3C82.1001 327.3 81.9001 327.3 81.6001 327.3C72.8001 327.3 65.1 324 59.3 318.9C59.8 319.3 60.2001 319.8 60.7001 320.3C66.5001 325.5 74.1001 328.7 83.0001 328.7Z" fill="#E0E0DF"/>
<path d="M81.6 327.4C81.9 327.4 82.1 327.4 82.4 327.4C162.6 327.4 282.8 259.9 277.8 178.6C276.5 157.3 264.9 137.2 247.5 119.4C247.1 118.9 246.6 118.5 246.1 118C263.5 135.8 275.1 155.9 276.4 177.2C281.5 258.5 161.2 326 81 326C80.7 326 80.5 326 80.2 326C71.4 326 63.7 322.7 57.9 317.6C58.4 318 58.8 318.5 59.3 319C65.1 324.1 72.8 327.3 81.6 327.4Z" fill="#D9D9D8"/>
<path d="M80.3 326C80.6 326 80.8 326 81.1 326C161.3 326 281.5 258.5 276.5 177.2C275.2 155.9 263.6 135.8 246.2 118C245.8 117.5 245.3 117.1 244.8 116.6C262.2 134.4 273.8 154.5 275.1 175.8C280.2 257.1 159.9 324.6 79.7 324.6C79.4 324.6 79.2 324.6 78.9 324.6C70.1 324.6 62.4 321.3 56.6 316.2C57.1 316.6 57.5 317.1 58 317.6C63.8 322.8 71.4 326 80.3 326Z" fill="#D3D3D3"/>
<path d="M78.8999 324.7C79.1999 324.7 79.4 324.7 79.7 324.7C159.9 324.7 280.1 257.2 275.1 175.9C273.8 154.6 262.2 134.5 244.8 116.7C244.4 116.2 243.9 115.8 243.4 115.3C260.8 133.1 272.4 153.2 273.7 174.5C278.8 255.8 158.5 323.3 78.2999 323.3C77.9999 323.3 77.7999 323.3 77.4999 323.3C68.6999 323.3 61 320 55.2 314.9C55.7 315.3 56.0999 315.8 56.5999 316.3C62.3999 321.4 70.0999 324.6 78.8999 324.7Z" fill="#CCCCCC"/>
<path d="M77.6 323.3C77.9 323.3 78.1 323.3 78.4 323.3C158.6 323.3 278.8 255.8 273.8 174.5C272.5 153.2 260.9 133.1 243.5 115.3C243.1 114.8 242.6 114.4 242.1 113.9C259.5 131.7 271.1 151.8 272.4 173.1C277.4 254.5 157.1 322 77 322C76.7 322 76.5 322 76.2 322C67.4 322 59.7 318.7 53.9 313.6C54.4 314 54.8 314.5 55.3 315C61.1 320.1 68.7 323.3 77.6 323.3Z" fill="#C7C6C5"/>
<path d="M76.2 322C76.5 322 76.7 322 77 322C157.2 322 277.4 254.5 272.4 173.2C271.1 151.9 259.5 131.8 242.1 114C241.7 113.5 241.2 113.1 240.7 112.6C258.1 130.4 269.7 150.5 271 171.8C276.1 253.1 155.8 320.6 75.6 320.6C75.3 320.6 75.1 320.6 74.8 320.6C66 320.6 58.3 317.3 52.5 312.2C53 312.6 53.4 313.1 53.9 313.6C59.7 318.7 67.4 321.9 76.2 322Z" fill="#C1C0C0"/>
<path d="M74.8 320.6C75.1 320.6 75.3 320.6 75.6 320.6C155.8 320.6 276 253.1 271 171.8C269.7 150.5 258.1 130.4 240.7 112.6C240.3 112.1 239.8 111.7 239.3 111.2C256.7 129 268.3 149.1 269.6 170.4C274.7 251.7 154.4 319.2 74.2 319.2C73.9 319.2 73.7 319.2 73.4 319.2C64.6 319.2 56.9 315.9 51.1 310.8C51.6 311.2 52 311.7 52.5 312.2C58.4 317.4 66 320.6 74.8 320.6Z" fill="#BBBBBB"/>
<path d="M73.5 319.3C73.8 319.3 74 319.3 74.3 319.3C154.5 319.3 274.7 251.8 269.7 170.5C268.4 149.2 256.8 129.1 239.4 111.3C239 110.8 238.5 110.4 238.1 110C255.5 127.8 267.1 147.9 268.4 169.2C273.5 250.5 153.2 318 73 318C72.7 318 72.5 318 72.2 318C63.4 318 55.7 314.7 49.9 309.6C50.4 310 50.8 310.5 51.3 311C57 316 64.7 319.2 73.5 319.3Z" fill="#B4B4B4"/>
<path d="M72.1 317.9C72.4 317.9 72.6 317.9 72.9 317.9C153.1 317.9 273.3 250.4 268.3 169.1C267 147.8 255.4 127.7 238 109.9C237.6 109.4 237.1 109 236.6 108.5C254 126.3 265.6 146.4 266.9 167.7C272 249 151.7 316.5 71.5 316.5C71.2 316.5 71 316.5 70.7 316.5C61.9 316.5 54.2 313.2 48.4 308.1C48.9 308.5 49.3 309 49.8 309.5C55.7 314.6 63.3 317.9 72.1 317.9Z" fill="#AEAEAE"/>
<path d="M70.8 316.6C71.1 316.6 71.3 316.6 71.6 316.6C151.8 316.6 272 249.1 267 167.8C265.7 146.5 254.1 126.4 236.7 108.6C236.3 108.1 235.8 107.7 235.3 107.2C252.7 125 264.3 145.1 265.6 166.4C270.7 247.7 150.4 315.2 70.2 315.2C69.9 315.2 69.7 315.2 69.4 315.2C60.6 315.2 52.9 311.9 47.1 306.8C47.6 307.2 48 307.7 48.5 308.2C54.3 313.3 61.9 316.5 70.8 316.6Z" fill="#A8A7A7"/>
<path d="M69.3999 315.2C69.6999 315.2 69.9 315.2 70.2 315.2C150.4 315.2 270.6 247.7 265.6 166.4C264.3 145.1 252.7 125 235.3 107.2C234.9 106.7 234.4 106.3 233.9 105.8C251.3 123.6 262.9 143.7 264.2 165C269.3 246.3 149 313.8 68.7999 313.8C68.4999 313.8 68.2999 313.8 67.9999 313.8C59.1999 313.8 51.5 310.5 45.7 305.4C46.2 305.8 46.5999 306.3 47.0999 306.8C52.9999 311.9 60.5999 315.2 69.3999 315.2Z" fill="#A1A0A0"/>
<path d="M68.1 313.9C68.4 313.9 68.6 313.9 68.9 313.9C149.1 313.9 269.3 246.4 264.3 165.1C263 143.8 251.4 123.7 234 105.9C233.6 105.4 233.1 105 232.6 104.5C250 122.3 261.6 142.4 262.9 163.7C268 245 147.7 312.5 67.5 312.5C67.2 312.5 67 312.5 66.7 312.5C57.9 312.5 50.2 309.2 44.4 304.1C44.9 304.5 45.3 305 45.8 305.5C51.6 310.6 59.2 313.8 68.1 313.9Z" fill="#9A9A9A"/>
<path d="M66.7 312.5C67 312.5 67.2 312.5 67.5 312.5C147.7 312.5 267.9 245 262.9 163.7C261.6 142.4 250 122.3 232.6 104.5C232.2 104 231.7 103.6 231.2 103.1C248.6 120.9 260.2 141 261.5 162.3C266.6 243.6 146.3 311.1 66.1 311.1C65.8 311.1 65.6 311.1 65.3 311.1C56.5 311.1 48.8 307.8 43 302.7C43.5 303.1 43.9 303.6 44.4 304.1C50.3 309.2 57.9 312.5 66.7 312.5Z" fill="#959494"/>
<path d="M65.4001 311.2C65.7001 311.2 65.9001 311.2 66.2001 311.2C146.4 311.2 266.6 243.7 261.6 162.4C260.3 141.1 248.7 121 231.3 103.2C230.9 102.7 230.4 102.3 230 101.9C247.4 119.7 259 139.8 260.3 161.1C265.4 242.4 145.1 309.9 64.9001 309.9C64.6001 309.9 64.4001 309.9 64.1001 309.9C55.3001 309.9 47.6 306.6 41.8 301.5C42.3 301.9 42.7001 302.4 43.2001 302.9C48.9001 307.9 56.5001 311.1 65.4001 311.2Z" fill="#8F8F8F"/>
<path d="M64.0001 309.8C64.3001 309.8 64.5 309.8 64.8 309.8C145 309.8 265.2 242.3 260.2 161C258.9 139.7 247.3 119.6 229.9 101.8C229.5 101.3 229 100.9 228.5 100.4C245.9 118.2 257.5 138.3 258.8 159.6C263.9 240.9 143.6 308.4 63.4001 308.4C63.1001 308.4 62.9001 308.4 62.6001 308.4C53.8001 308.4 46.1 305.1 40.3 300C40.8 300.4 41.2001 300.9 41.7001 301.4C47.6001 306.5 55.2001 309.8 64.0001 309.8Z" fill="#888888"/>
<path d="M62.7 308.5C63 308.5 63.2 308.5 63.5 308.5C143.7 308.5 263.9 241 258.9 159.7C257.6 138.4 246 118.3 228.6 100.5C228.2 100 227.7 99.6 227.2 99.1C244.6 116.9 256.2 137 257.5 158.3C262.6 239.6 142.3 307.1 62.1 307.1C61.8 307.1 61.6 307.1 61.3 307.1C52.5 307.1 44.8 303.8 39 298.7C39.5 299.1 39.9 299.6 40.4 300.1C46.2 305.2 53.8 308.4 62.7 308.5Z" fill="#838383"/>
<path d="M61.3 307.1C61.6 307.1 61.8 307.1 62.1 307.1C142.3 307.1 262.5 239.6 257.5 158.3C256.2 137 244.6 116.9 227.2 99.1C226.8 98.6 226.3 98.2 225.8 97.7C243.2 115.5 254.8 135.6 256.1 156.9C261.2 238.2 140.9 305.7 60.7 305.7C60.4 305.7 60.2 305.7 59.9 305.7C51.1 305.7 43.4 302.4 37.6 297.3C38.1 297.7 38.5 298.2 39 298.7C44.9 303.8 52.5 307.1 61.3 307.1Z" fill="#7D7D7D"/>
<path d="M60.0001 305.8C60.3001 305.8 60.5 305.8 60.8 305.8C141 305.8 261.2 238.3 256.2 157C254.9 135.7 243.3 115.6 225.9 97.8C225.5 97.3 225 96.9 224.5 96.4C241.9 114.2 253.5 134.3 254.8 155.6C259.9 236.9 139.6 304.4 59.4001 304.4C59.1001 304.4 58.9001 304.4 58.6001 304.4C49.8001 304.4 42.1 301.1 36.3 296C36.8 296.4 37.2001 296.9 37.7001 297.4C43.5001 302.5 51.1001 305.7 60.0001 305.8Z" fill="#777777"/>
<path d="M58.6 304.4C58.9 304.4 59.1 304.4 59.4 304.4C139.6 304.4 259.8 236.9 254.8 155.6C253.5 134.3 241.9 114.2 224.5 96.4C224.1 95.9 223.6 95.5 223.1 95C240.5 112.8 252.1 132.9 253.4 154.2C258.5 235.5 138.2 303 58 303C57.7 303 57.5 303 57.2 303C48.4 303 40.7 299.7 34.9 294.6C35.4 295 35.8 295.5 36.3 296C42.2 301.1 49.8 304.4 58.6 304.4Z" fill="#717171"/>
<path d="M57.3 303.1C57.6 303.1 57.8 303.1 58.1 303.1C138.3 303.1 258.5 235.6 253.5 154.3C252.2 133 240.6 112.9 223.2 95.1C222.8 94.6 222.3 94.2 221.8 93.7C239.2 111.5 250.8 131.6 252.1 152.9C257.2 234.2 136.9 301.7 56.7 301.7C56.4 301.7 56.2 301.7 55.9 301.7C47.1 301.7 39.4 298.4 33.6 293.3C34.1 293.7 34.5 294.2 35 294.7C40.8 299.8 48.4 303 57.3 303.1Z" fill="#6B6B6B"/>
<path d="M55.8999 301.7C56.1999 301.7 56.4 301.7 56.7 301.7C136.9 301.7 257.1 234.2 252.1 152.9C250.8 131.6 239.2 111.5 221.8 93.7C221.4 93.2 220.9 92.8 220.4 92.3C237.8 110.1 249.4 130.2 250.7 151.5C255.8 232.8 135.5 300.3 55.2999 300.3C54.9999 300.3 54.7999 300.3 54.4999 300.3C45.6999 300.3 38 297 32.2 291.9C32.7 292.3 33.0999 292.8 33.5999 293.3C39.3999 298.4 47.0999 301.7 55.8999 301.7Z" fill="#656565"/>
<path d="M54.6 300.4C54.9 300.4 55.1 300.4 55.4 300.4C135.6 300.4 255.8 232.9 250.8 151.6C249.5 130.3 237.9 110.2 220.5 92.4C220.1 91.9 219.6 91.5 219.1 91C236.5 108.8 248.1 128.9 249.4 150.2C254.4 231.5 134.2 299 54 299C53.7 299 53.5 299 53.2 299C44.4 299 36.7 295.7 30.9 290.6C31.4 291 31.8 291.5 32.3 292C38.1 297.1 45.7 300.3 54.6 300.4Z" fill="#5E5E5E"/>
<path d="M53.2 299C53.5 299 53.7 299 54 299C134.2 299 254.4 231.5 249.4 150.2C248.1 128.9 236.5 108.8 219.1 91C218.7 90.5 218.2 90.1 217.7 89.6C235.1 107.4 246.7 127.5 248 148.8C253.1 230.1 132.8 297.6 52.6 297.6C52.3 297.6 52.1 297.6 51.8 297.6C43 297.6 35.3 294.3 29.5 289.2C30 289.6 30.4 290.1 30.9 290.6C36.7 295.7 44.4 299 53.2 299Z" fill="#575858"/>
<path d="M51.8999 297.7C52.1999 297.7 52.4 297.7 52.7 297.7C132.9 297.7 253.1 230.2 248.1 148.9C246.8 127.6 235.2 107.5 217.8 89.7C217.4 89.2 216.9 88.8 216.4 88.3C233.8 106.1 245.4 126.2 246.7 147.5C251.8 228.8 131.5 296.3 51.2999 296.3C50.9999 296.3 50.7999 296.3 50.4999 296.3C41.6999 296.3 34 293 28.2 287.9C28.7 288.3 29.0999 288.8 29.5999 289.3C35.3999 294.4 42.9999 297.6 51.8999 297.7Z" fill="#525252"/>
<path d="M50.5001 296.3C50.8001 296.3 51 296.3 51.3 296.3C131.5 296.3 251.7 228.8 246.7 147.5C245.4 126.2 233.8 106.1 216.4 88.3C216 87.8 215.5 87.4 215 86.9C232.4 104.7 244 124.8 245.3 146.1C250.4 227.4 130.1 295 49.9001 295C49.6001 295 49.4001 295 49.1001 295C40.3001 295 32.6 291.7 26.8 286.6C27.3 287 27.7001 287.5 28.2001 288C34.0001 293 41.7001 296.3 50.5001 296.3Z" fill="#4C4C4C"/>
<path d="M49.2 294.9C49.5 294.9 49.7 294.9 50 294.9C130.2 294.9 250.4 227.4 245.4 146.1C244.1 124.8 232.5 104.7 215.1 86.9C214.7 86.4 214.2 86 213.7 85.5C231.1 103.3 242.7 123.4 244 144.7C249.1 226 128.8 293.5 48.6 293.5C48.3 293.5 48.1 293.5 47.8 293.5C39 293.5 31.3 290.2 25.5 285.1C26 285.5 26.4 286 26.9 286.5C32.7 291.7 40.3 294.9 49.2 294.9Z" fill="#454545"/>
<path d="M47.7999 293.6C48.0999 293.6 48.2999 293.6 48.5999 293.6C128.8 293.6 249 226.1 244 144.8C242.7 123.5 231.1 103.4 213.7 85.6C213.3 85.1 212.8 84.7 212.4 84.3C229.8 102.1 241.4 122.2 242.7 143.5C247.8 224.8 127.5 292.3 47.2999 292.3C46.9999 292.3 46.7999 292.3 46.4999 292.3C37.6999 292.3 30 289 24.2 283.9C24.7 284.3 25.0999 284.8 25.5999 285.3C31.2999 290.3 38.9999 293.6 47.7999 293.6Z" fill="#3F3F3F"/>
<path d="M46.5001 292.2C46.8001 292.2 47 292.2 47.3 292.2C127.5 292.2 247.7 224.7 242.7 143.4C241.4 122.1 229.8 102 212.4 84.2C212 83.7 211.5 83.3 211 82.8C228.4 100.6 240 120.7 241.3 142C246.4 223.3 126.1 290.8 45.9001 290.8C45.6001 290.8 45.4001 290.8 45.1001 290.8C36.3001 290.8 28.6 287.5 22.8 282.4C23.3 282.8 23.7001 283.3 24.2001 283.8C30.0001 289 37.6001 292.2 46.5001 292.2Z" fill="#383938"/>
<path d="M45.1 290.9C45.4 290.9 45.6 290.9 45.9 290.9C126.1 290.9 246.3 223.4 241.3 142.1C240 120.8 228.4 100.7 211 82.9C210.6 82.4 210.1 82 209.6 81.5C227 99.3 238.6 119.4 239.9 140.7C245 222 124.7 289.5 44.5 289.5C44.2 289.5 44 289.5 43.7 289.5C34.9 289.5 27.2 286.2 21.4 281.1C21.9 281.5 22.3 282 22.8 282.5C28.6 287.6 36.3 290.8 45.1 290.9Z" fill="#333232"/>
<path d="M43.8 289.5C44.1 289.5 44.3 289.5 44.6 289.5C124.8 289.5 245 222 240 140.7C238.7 119.4 227.1 99.3 209.7 81.5C209.3 81 208.8 80.6 208.3 80.1C225.7 97.9 237.3 118 238.6 139.3C243.7 220.6 123.4 288.1 43.2 288.1C42.9 288.1 42.7 288.1 42.4 288.1C33.6 288.1 25.9 284.8 20.1 279.7C20.6 280.1 21 280.6 21.5 281.1C27.3 286.3 34.9 289.5 43.8 289.5Z" fill="#2D2D2C"/>
<path d="M42.3999 288.2C42.6999 288.2 42.9 288.2 43.2 288.2C123.4 288.2 243.6 220.7 238.6 139.4C237.3 118.1 225.7 98 208.3 80.2C207.9 79.7 207.4 79.3 206.9 78.8C224.3 96.6 235.9 116.7 237.2 138C242.3 219.3 122 286.8 41.7999 286.8C41.4999 286.8 41.2999 286.8 40.9999 286.8C32.1999 286.8 24.5 283.5 18.7 278.4C19.2 278.8 19.5999 279.3 20.0999 279.8C25.8999 284.9 33.5999 288.1 42.3999 288.2Z" fill="#262525"/>
<path d="M41.1 286.8C41.4 286.8 41.6 286.8 41.9 286.8C122.1 286.8 242.3 219.3 237.3 138C236 116.7 224.4 96.6 207 78.8C206.6 78.3 206.1 77.9 205.6 77.4C223 95.2 234.6 115.3 235.9 136.6C241 217.9 120.7 285.4 40.5 285.4C40.2 285.4 40 285.4 39.7 285.4C30.9 285.4 23.2 282.1 17.4 277C17.9 277.4 18.3 277.9 18.8 278.4C24.6 283.6 32.2 286.8 41.1 286.8Z" fill="#1F2020"/>
<path d="M39.7 285.5C40 285.5 40.2 285.5 40.5 285.5C120.7 285.5 240.9 218 235.9 136.7C234.6 115.4 223 95.3 205.6 77.5C205.2 77 204.7 76.6 204.3 76.2C221.7 94 233.3 114.1 234.6 135.4C239.7 216.7 119.4 284.2 39.2 284.2C38.9 284.2 38.7 284.2 38.4 284.2C29.6 284.2 21.9 280.9 16.1 275.8C16.6 276.2 17 276.7 17.5 277.2C23.2 282.2 30.9 285.4 39.7 285.5Z" fill="#191919"/>
<path d="M38.3 284.1C38.6 284.1 38.8 284.1 39.1 284.1C119.3 284.1 239.5 216.6 234.5 135.3C233.2 114 221.6 93.9 204.2 76.1C203.8 75.6 203.3 75.2 202.8 74.7C220.2 92.5 231.8 112.6 233.1 133.9C238.2 215.2 117.9 282.7 37.7 282.7C37.4 282.7 37.2 282.7 36.9 282.7C28.1 282.7 20.4 279.4 14.6 274.3C15.1 274.7 15.5 275.2 16 275.7C21.9 280.9 29.5 284.1 38.3 284.1Z" fill="#151515"/>
<path d="M37.0001 282.8C37.3001 282.8 37.5 282.8 37.8 282.8C118 282.8 238.2 215.3 233.2 134C231.9 112.7 220.3 92.6 202.9 74.8C202.5 74.3 202 73.9 201.5 73.4C218.9 91.2 230.5 111.3 231.8 132.6C236.9 213.9 116.6 281.4 36.4001 281.4C36.1001 281.4 35.9001 281.4 35.6001 281.4C26.8001 281.4 19.1 278.1 13.3 273C13.8 273.4 14.2001 273.9 14.7001 274.4C20.5001 279.5 28.2001 282.7 37.0001 282.8Z" fill="#0D0E0E"/>
<path d="M35.6 281.4C35.9 281.4 36.1 281.4 36.4 281.4C116.6 281.4 236.8 213.9 231.8 132.6C230.5 111.3 218.9 91.2 201.5 73.4C201.1 72.9 200.6 72.5 200.1 72C217.5 89.8 229.1 109.9 230.4 131.2C235.5 212.5 115.2 280 35 280C34.7 280 34.5 280 34.2 280C25.4 280 17.7 276.7 11.9 271.6C12.4 272 12.8 272.5 13.3 273C19.2 278.1 26.8 281.4 35.6 281.4Z" fill="#080808"/>
<path d="M34.3 280.1C34.6 280.1 34.8 280.1 35.1 280.1C115.3 280.1 235.5 212.6 230.5 131.3C229.2 110 217.6 89.9 200.2 72.1C161.4 32.5 93.7 4.60001 46.2 0.900008C42.6 0.600008 39.1 0.500014 35.6 0.500014C6.60001 0.400014 -10.2 33.3 7.20002 56.4C24.8 79.8 35.2 108.8 35.2 140.3C35.2 171.8 24.8 200.9 7.20002 224.2C-4.59998 239.8 -0.699979 260.4 12.2 271.7C17.8 276.8 25.4 280 34.3 280.1Z" fill="#010101"/>
</g>
<path d="M46.1 0.900008C42.5 0.600008 39 0.500014 35.5 0.500014C6.50004 0.400014 -10.3 33.3 7.10005 56.4C24.7 79.8 35.1 108.8 35.1 140.3C35.1 171.8 24.7 200.9 7.10005 224.2C-9.99995 246.9 5.90003 279.9 34.3 280.1C34.6 280.1 34.8 280.1 35.1 280.1C115.3 280.1 235.5 212.6 230.5 131.3C226.1 62.4 114.9 6.20001 46.1 0.900008Z" fill="#0A8FCF"/>
</svg>
