<svg width="743" height="597" viewBox="0 0 743 597" fill="none" xmlns="http://www.w3.org/2000/svg">
<path d="M685.2 124.5C714.085 124.5 737.5 101.085 737.5 72.2002C737.5 43.3157 714.085 19.9001 685.2 19.9001C656.316 19.9001 632.9 43.3157 632.9 72.2002C632.9 101.085 656.316 124.5 685.2 124.5Z" fill="#0091D5"/>
<path d="M737.5 310.1H632.9" stroke="#0091D5" stroke-width="10.9389" stroke-miterlimit="10" stroke-linecap="round" stroke-linejoin="round"/>
<path d="M605.3 591H423.6" stroke="#0091D5" stroke-width="10.9389" stroke-miterlimit="10" stroke-linecap="round" stroke-linejoin="round"/>
<path d="M511.7 89.8H456.6" stroke="#0091D5" stroke-width="10.9389" stroke-miterlimit="10" stroke-linecap="round" stroke-linejoin="round"/>
<path d="M244.6 65.0001H145.4" stroke="black" stroke-width="1.5" stroke-miterlimit="10" stroke-linecap="round" stroke-linejoin="round"/>
<path d="M283.1 65.0001H266.6" stroke="black" stroke-width="1.5" stroke-miterlimit="10" stroke-linecap="round" stroke-linejoin="round"/>
<path d="M414.2 59.5001C414.2 68.6001 406.8 76.0001 397.7 76.0001C388.6 76.0001 381.2 68.6001 381.2 59.5001C381.2 50.4001 388.6 43.0001 397.7 43.0001C406.8 43.0001 414.2 50.4001 414.2 59.5001Z" stroke="black" stroke-width="1.5" stroke-miterlimit="10" stroke-linecap="round" stroke-linejoin="round"/>
<path d="M145.4 150.4C145.4 158 139.2 164.2 131.6 164.2C124 164.2 117.8 158 117.8 150.4C117.8 142.8 124 136.6 131.6 136.6C139.2 136.6 145.4 142.8 145.4 150.4Z" stroke="black" stroke-width="1.5" stroke-miterlimit="10" stroke-linecap="round" stroke-linejoin="round"/>
<path d="M678.6 391.8L637.8 402.7C636.4 403.1 635.9 404.8 637 405.8L666.9 435.7C667.9 436.7 669.7 436.3 670 434.9L680.9 394.1C681.3 392.7 680 391.5 678.6 391.8Z" fill="#0091D5"/>
<path d="M107.9 357.1H135.5" stroke="black" stroke-width="1.5" stroke-miterlimit="10" stroke-linecap="round" stroke-linejoin="round"/>
<path d="M121.7 370.9V343.3" stroke="black" stroke-width="1.5" stroke-miterlimit="10" stroke-linecap="round" stroke-linejoin="round"/>
<path d="M564 549.7H200.5" stroke="black" stroke-width="1.5" stroke-miterlimit="10" stroke-linecap="round" stroke-linejoin="round"/>
<path d="M613.6 549.7H597.1" stroke="black" stroke-width="1.5" stroke-miterlimit="10" stroke-linecap="round" stroke-linejoin="round"/>
<path d="M338.2 522.2H668.7" stroke="black" stroke-width="1.5" stroke-miterlimit="10" stroke-linecap="round" stroke-linejoin="round"/>
<path d="M294.1 522.2H305.1" stroke="black" stroke-width="1.5" stroke-miterlimit="10" stroke-linecap="round" stroke-linejoin="round"/>
<path d="M712.7 241.2H608.1" stroke="black" stroke-width="1.5" stroke-miterlimit="10" stroke-linecap="round" stroke-linejoin="round"/>
<path d="M685.2 268.8H646.6" stroke="black" stroke-width="1.5" stroke-miterlimit="10" stroke-linecap="round" stroke-linejoin="round"/>
<path d="M297.5 108.1H317.7" stroke="black" stroke-width="1.5" stroke-miterlimit="10" stroke-linecap="round" stroke-linejoin="round"/>
<path d="M307.6 118.2V98.0001" stroke="black" stroke-width="1.5" stroke-miterlimit="10" stroke-linecap="round" stroke-linejoin="round"/>
<path d="M191.7 2.30009L199.7 32.1001C200 33.1001 201.3 33.5001 202 32.7001L223.8 10.9001C224.5 10.2001 224.2 8.9001 223.2 8.6001L193.4 0.600096C192.4 0.400096 191.5 1.30009 191.7 2.30009Z" fill="#0091D5"/>
<path d="M167 552.7C167 560.3 160.8 566.5 153.2 566.5C145.6 566.5 139.4 560.3 139.4 552.7C139.4 545.1 145.6 538.9 153.2 538.9C160.8 538.9 167 545.1 167 552.7Z" fill="#0091D5"/>
<path d="M594.6 120.6H623.2" stroke="black" stroke-width="1.5" stroke-miterlimit="10" stroke-linecap="round" stroke-linejoin="round"/>
<path d="M644.2 120.6H650.7" stroke="black" stroke-width="1.5" stroke-miterlimit="10" stroke-linecap="round" stroke-linejoin="round"/>
<path d="M572.5 98.6001H667.2" stroke="black" stroke-width="1.5" stroke-miterlimit="10" stroke-linecap="round" stroke-linejoin="round"/>
<path d="M121.3 468.6H127.8" stroke="black" stroke-width="1.5" stroke-miterlimit="10" stroke-linecap="round" stroke-linejoin="round"/>
<path d="M270.395 472.292C320.03 422.657 320.03 342.183 270.395 292.548C220.76 242.913 140.285 242.912 90.6502 292.548C41.0151 342.183 41.0151 422.657 90.6503 472.292C140.285 521.928 220.76 521.928 270.395 472.292Z" fill="#0091D5"/>
<path d="M87.6 205.4H21.5" stroke="#0091D5" stroke-width="10.9389" stroke-miterlimit="10" stroke-linecap="round" stroke-linejoin="round"/>
<path d="M222.5 92.5001H68.3" stroke="black" stroke-width="1.5" stroke-miterlimit="10" stroke-linecap="round" stroke-linejoin="round"/>
<path d="M27.6001 446.6H44.6001" stroke="black" stroke-width="1.5" stroke-miterlimit="10" stroke-linecap="round" stroke-linejoin="round"/>
<path d="M44.2002 468.6H100.3" stroke="black" stroke-width="1.5" stroke-miterlimit="10" stroke-linecap="round" stroke-linejoin="round"/>
<path d="M66.7002 446.6H155.4" stroke="black" stroke-width="1.5" stroke-miterlimit="10" stroke-linecap="round" stroke-linejoin="round"/>
<path d="M477 501.4H533.1" stroke="black" stroke-width="1.5" stroke-miterlimit="10" stroke-linecap="round" stroke-linejoin="round"/>
<path d="M554.1 501.4H560.6" stroke="black" stroke-width="1.5" stroke-miterlimit="10" stroke-linecap="round" stroke-linejoin="round"/>
<path d="M577.9 361.4H594.4" stroke="black" stroke-width="1.5" stroke-miterlimit="10" stroke-linecap="round" stroke-linejoin="round"/>
<path d="M586.2 369.7V353.1" stroke="black" stroke-width="1.5" stroke-miterlimit="10" stroke-linecap="round" stroke-linejoin="round"/>
<path d="M298.8 429.8H246C240.2 429.8 235.5 434.5 235.5 440.3V442.6V477.4C235.5 480.9 238.3 483.8 241.9 483.8H303C306.5 483.8 309.4 480.9 309.4 477.4V442.6V440.3C309.3 434.5 304.6 429.8 298.8 429.8Z" fill="white"/>
<path d="M485.2 382.8C469.6 382.8 456.9 370.1 456.9 354.5C456.9 338.9 469.6 326.2 485.2 326.2C500.8 326.2 513.5 338.9 513.5 354.5C513.4 370.1 500.8 382.8 485.2 382.8Z" stroke="black" stroke-width="1.5" stroke-miterlimit="10" stroke-linecap="round" stroke-linejoin="round"/>
<path d="M490 420.2L480.5 453.6L476.2 468.7L472.3 482.2H552.1L556.4 466.9L560.4 453L569.7 420.2H490Z" fill="#0091D5" stroke="black" stroke-width="1.5" stroke-miterlimit="10" stroke-linecap="round" stroke-linejoin="round"/>
<path d="M484.2 440H463.4C461.7 440 460.3 438.6 460.3 436.9V425.6" stroke="black" stroke-width="1.5" stroke-miterlimit="10" stroke-linecap="round" stroke-linejoin="round"/>
<path d="M472.3 482.2H404.1" stroke="black" stroke-width="1.5" stroke-miterlimit="10" stroke-linecap="round" stroke-linejoin="round"/>
<path d="M412 398.9H405.7C404.9 396 403.7 393.3 402.3 390.7L406.7 386.3C408.2 384.8 408.2 382.3 406.7 380.8L396.8 370.9C395.3 369.4 392.8 369.4 391.3 370.9L386.9 375.3C384.3 373.9 381.6 372.7 378.7 371.9V365.7C378.7 363.6 377 361.8 374.8 361.8H360.9C358.8 361.8 357 363.5 357 365.7V371.8C354.1 372.6 351.3 373.8 348.7 375.2L344.4 370.9C342.9 369.4 340.4 369.4 338.9 370.9L329 380.8C327.5 382.3 327.5 384.8 329 386.3L333.3 390.6C331.8 393.2 330.7 396 329.8 398.9H323.8C321.7 398.9 319.9 400.6 319.9 402.8V416.7C319.9 418.8 321.6 420.6 323.8 420.6H329.8C330.6 423.5 331.8 426.3 333.3 428.9L329 433.2C327.5 434.7 327.5 437.2 329 438.7L338.9 448.6C340.4 450.1 342.9 450.1 344.4 448.6L348.7 444.3C351.3 445.7 354.1 446.9 357 447.7V453.8C357 455.9 358.7 457.7 360.9 457.7H375C377.1 457.7 378.9 456 378.9 453.8V447.6C381.8 446.8 384.5 445.6 387.1 444.2L391.5 448.6C393 450.1 395.5 450.1 397 448.6L406.9 438.7C408.4 437.2 408.4 434.7 406.9 433.2L402.5 428.8C403.9 426.2 405 423.5 405.9 420.6H412.2C414.3 420.6 416.1 418.9 416.1 416.7V402.8C415.9 400.6 414.1 398.9 412 398.9ZM368 428.6C357.6 428.6 349.1 420.1 349.1 409.7C349.1 399.3 357.6 390.8 368 390.8C378.4 390.8 386.9 399.3 386.9 409.7C386.9 420.2 378.5 428.6 368 428.6Z" fill="#0091D5" stroke="black" stroke-width="1.5" stroke-miterlimit="10" stroke-linecap="round" stroke-linejoin="round"/>
<path d="M384.2 482.2H376.6" stroke="black" stroke-width="1.5" stroke-miterlimit="10" stroke-linecap="round" stroke-linejoin="round"/>
<path d="M552.1 482.2H593.4" stroke="black" stroke-width="1.5" stroke-miterlimit="10" stroke-linecap="round" stroke-linejoin="round"/>
<path d="M529.1 408.4C523.9 400.5 515.1 395.4 505 395.4H465.4C449.5 395.4 436.6 408.3 436.6 424.2V447.1C436.6 456.2 444 463.6 453.1 463.6H477.7" stroke="black" stroke-width="1.5" stroke-miterlimit="10" stroke-linecap="round" stroke-linejoin="round"/>
<path d="M297.9 347.5H190.5C179.1 347.5 169.9 338.3 169.9 326.9V219.5C169.9 208.1 179.1 198.9 190.5 198.9H297.9C309.3 198.9 318.5 208.1 318.5 219.5V327C318.5 338.3 309.3 347.5 297.9 347.5Z" fill="white" stroke="black" stroke-width="1.5" stroke-miterlimit="10" stroke-linecap="round" stroke-linejoin="round"/>
<path d="M284.3 324.8H204C197.7 324.8 192.6 319.7 192.6 313.4V233.1C192.6 226.8 197.7 221.7 204 221.7H284.3C290.6 221.7 295.7 226.8 295.7 233.1V313.4C295.7 319.7 290.6 324.8 284.3 324.8Z" fill="#0091D5" stroke="black" stroke-width="1.5" stroke-miterlimit="10" stroke-linecap="round" stroke-linejoin="round"/>
<path d="M197.5 199V187" stroke="black" stroke-width="1.5" stroke-miterlimit="10" stroke-linecap="round" stroke-linejoin="round"/>
<path d="M216.1 199V187" stroke="black" stroke-width="1.5" stroke-miterlimit="10" stroke-linecap="round" stroke-linejoin="round"/>
<path d="M234.8 199V187" stroke="black" stroke-width="1.5" stroke-miterlimit="10" stroke-linecap="round" stroke-linejoin="round"/>
<path d="M253.5 199V187" stroke="black" stroke-width="1.5" stroke-miterlimit="10" stroke-linecap="round" stroke-linejoin="round"/>
<path d="M272.2 199V187" stroke="black" stroke-width="1.5" stroke-miterlimit="10" stroke-linecap="round" stroke-linejoin="round"/>
<path d="M290.9 199V187" stroke="black" stroke-width="1.5" stroke-miterlimit="10" stroke-linecap="round" stroke-linejoin="round"/>
<path d="M197.5 359.5V347.5" stroke="black" stroke-width="1.5" stroke-miterlimit="10" stroke-linecap="round" stroke-linejoin="round"/>
<path d="M216.1 359.5V347.5" stroke="black" stroke-width="1.5" stroke-miterlimit="10" stroke-linecap="round" stroke-linejoin="round"/>
<path d="M234.8 359.5V347.5" stroke="black" stroke-width="1.5" stroke-miterlimit="10" stroke-linecap="round" stroke-linejoin="round"/>
<path d="M253.5 359.5V347.5" stroke="black" stroke-width="1.5" stroke-miterlimit="10" stroke-linecap="round" stroke-linejoin="round"/>
<path d="M272.2 359.5V347.5" stroke="black" stroke-width="1.5" stroke-miterlimit="10" stroke-linecap="round" stroke-linejoin="round"/>
<path d="M290.9 359.5V347.5" stroke="black" stroke-width="1.5" stroke-miterlimit="10" stroke-linecap="round" stroke-linejoin="round"/>
<path d="M169.9 320H157.9" stroke="black" stroke-width="1.5" stroke-miterlimit="10" stroke-linecap="round" stroke-linejoin="round"/>
<path d="M169.9 301.3H157.9" stroke="black" stroke-width="1.5" stroke-miterlimit="10" stroke-linecap="round" stroke-linejoin="round"/>
<path d="M169.9 282.6H157.9" stroke="black" stroke-width="1.5" stroke-miterlimit="10" stroke-linecap="round" stroke-linejoin="round"/>
<path d="M169.9 263.9H157.9" stroke="black" stroke-width="1.5" stroke-miterlimit="10" stroke-linecap="round" stroke-linejoin="round"/>
<path d="M169.9 245.2H157.9" stroke="black" stroke-width="1.5" stroke-miterlimit="10" stroke-linecap="round" stroke-linejoin="round"/>
<path d="M169.9 226.5H157.9" stroke="black" stroke-width="1.5" stroke-miterlimit="10" stroke-linecap="round" stroke-linejoin="round"/>
<path d="M330.4 320H318.5" stroke="black" stroke-width="1.5" stroke-miterlimit="10" stroke-linecap="round" stroke-linejoin="round"/>
<path d="M330.4 301.3H318.5" stroke="black" stroke-width="1.5" stroke-miterlimit="10" stroke-linecap="round" stroke-linejoin="round"/>
<path d="M330.4 282.6H318.5" stroke="black" stroke-width="1.5" stroke-miterlimit="10" stroke-linecap="round" stroke-linejoin="round"/>
<path d="M330.4 263.9H318.5" stroke="black" stroke-width="1.5" stroke-miterlimit="10" stroke-linecap="round" stroke-linejoin="round"/>
<path d="M330.4 245.2H318.5" stroke="black" stroke-width="1.5" stroke-miterlimit="10" stroke-linecap="round" stroke-linejoin="round"/>
<path d="M330.4 226.5H318.5" stroke="black" stroke-width="1.5" stroke-miterlimit="10" stroke-linecap="round" stroke-linejoin="round"/>
<path d="M243.8 230.2H244.8" stroke="black" stroke-width="1.5" stroke-miterlimit="10" stroke-linecap="round" stroke-linejoin="round"/>
<path d="M256.7 230.2H257.7" stroke="black" stroke-width="1.5" stroke-miterlimit="10" stroke-linecap="round" stroke-linejoin="round"/>
<path d="M269.6 230.2H270.6" stroke="black" stroke-width="1.5" stroke-miterlimit="10" stroke-linecap="round" stroke-linejoin="round"/>
<path d="M282.5 230.2H283.5" stroke="black" stroke-width="1.5" stroke-miterlimit="10" stroke-linecap="round" stroke-linejoin="round"/>
<path d="M218 230.2H219" stroke="black" stroke-width="1.5" stroke-miterlimit="10" stroke-linecap="round" stroke-linejoin="round"/>
<path d="M230.9 230.2H231.9" stroke="black" stroke-width="1.5" stroke-miterlimit="10" stroke-linecap="round" stroke-linejoin="round"/>
<path d="M243.8 238.8H244.8" stroke="black" stroke-width="1.5" stroke-miterlimit="10" stroke-linecap="round" stroke-linejoin="round"/>
<path d="M256.7 238.8H257.7" stroke="black" stroke-width="1.5" stroke-miterlimit="10" stroke-linecap="round" stroke-linejoin="round"/>
<path d="M269.6 238.8H270.6" stroke="black" stroke-width="1.5" stroke-miterlimit="10" stroke-linecap="round" stroke-linejoin="round"/>
<path d="M282.5 238.8H283.5" stroke="black" stroke-width="1.5" stroke-miterlimit="10" stroke-linecap="round" stroke-linejoin="round"/>
<path d="M218 238.8H219" stroke="black" stroke-width="1.5" stroke-miterlimit="10" stroke-linecap="round" stroke-linejoin="round"/>
<path d="M243.8 247.4H244.8" stroke="black" stroke-width="1.5" stroke-miterlimit="10" stroke-linecap="round" stroke-linejoin="round"/>
<path d="M256.7 247.4H257.7" stroke="black" stroke-width="1.5" stroke-miterlimit="10" stroke-linecap="round" stroke-linejoin="round"/>
<path d="M269.6 247.4H270.6" stroke="black" stroke-width="1.5" stroke-miterlimit="10" stroke-linecap="round" stroke-linejoin="round"/>
<path d="M230.9 247.4H231.9" stroke="black" stroke-width="1.5" stroke-miterlimit="10" stroke-linecap="round" stroke-linejoin="round"/>
<path d="M243.8 256H244.8" stroke="black" stroke-width="1.5" stroke-miterlimit="10" stroke-linecap="round" stroke-linejoin="round"/>
<path d="M269.6 256H270.6" stroke="black" stroke-width="1.5" stroke-miterlimit="10" stroke-linecap="round" stroke-linejoin="round"/>
<path d="M282.5 256H283.5" stroke="black" stroke-width="1.5" stroke-miterlimit="10" stroke-linecap="round" stroke-linejoin="round"/>
<path d="M230.9 256H231.9" stroke="black" stroke-width="1.5" stroke-miterlimit="10" stroke-linecap="round" stroke-linejoin="round"/>
<path d="M204.8 230.2H205.9" stroke="black" stroke-width="1.5" stroke-miterlimit="10" stroke-linecap="round" stroke-linejoin="round"/>
<path d="M204.8 238.8H205.9" stroke="black" stroke-width="1.5" stroke-miterlimit="10" stroke-linecap="round" stroke-linejoin="round"/>
<path d="M217.7 247.4H218.8" stroke="black" stroke-width="1.5" stroke-miterlimit="10" stroke-linecap="round" stroke-linejoin="round"/>
<path d="M204.8 256H205.9" stroke="black" stroke-width="1.5" stroke-miterlimit="10" stroke-linecap="round" stroke-linejoin="round"/>
<path d="M243.8 264.7H244.8" stroke="black" stroke-width="1.5" stroke-miterlimit="10" stroke-linecap="round" stroke-linejoin="round"/>
<path d="M256.7 264.7H257.7" stroke="black" stroke-width="1.5" stroke-miterlimit="10" stroke-linecap="round" stroke-linejoin="round"/>
<path d="M269.6 264.7H270.6" stroke="black" stroke-width="1.5" stroke-miterlimit="10" stroke-linecap="round" stroke-linejoin="round"/>
<path d="M282.5 264.7H283.5" stroke="black" stroke-width="1.5" stroke-miterlimit="10" stroke-linecap="round" stroke-linejoin="round"/>
<path d="M218 264.7H219" stroke="black" stroke-width="1.5" stroke-miterlimit="10" stroke-linecap="round" stroke-linejoin="round"/>
<path d="M230.9 264.7H231.9" stroke="black" stroke-width="1.5" stroke-miterlimit="10" stroke-linecap="round" stroke-linejoin="round"/>
<path d="M243.8 273.3H244.8" stroke="black" stroke-width="1.5" stroke-miterlimit="10" stroke-linecap="round" stroke-linejoin="round"/>
<path d="M256.7 273.3H257.7" stroke="black" stroke-width="1.5" stroke-miterlimit="10" stroke-linecap="round" stroke-linejoin="round"/>
<path d="M269.6 273.3H270.6" stroke="black" stroke-width="1.5" stroke-miterlimit="10" stroke-linecap="round" stroke-linejoin="round"/>
<path d="M282.5 273.3H283.5" stroke="black" stroke-width="1.5" stroke-miterlimit="10" stroke-linecap="round" stroke-linejoin="round"/>
<path d="M243.8 281.9H244.8" stroke="black" stroke-width="1.5" stroke-miterlimit="10" stroke-linecap="round" stroke-linejoin="round"/>
<path d="M256.7 281.9H257.7" stroke="black" stroke-width="1.5" stroke-miterlimit="10" stroke-linecap="round" stroke-linejoin="round"/>
<path d="M269.6 281.9H270.6" stroke="black" stroke-width="1.5" stroke-miterlimit="10" stroke-linecap="round" stroke-linejoin="round"/>
<path d="M230.9 281.9H231.9" stroke="black" stroke-width="1.5" stroke-miterlimit="10" stroke-linecap="round" stroke-linejoin="round"/>
<path d="M243.8 290.5H244.8" stroke="black" stroke-width="1.5" stroke-miterlimit="10" stroke-linecap="round" stroke-linejoin="round"/>
<path d="M269.6 290.5H270.6" stroke="black" stroke-width="1.5" stroke-miterlimit="10" stroke-linecap="round" stroke-linejoin="round"/>
<path d="M282.5 290.5H283.5" stroke="black" stroke-width="1.5" stroke-miterlimit="10" stroke-linecap="round" stroke-linejoin="round"/>
<path d="M230.9 290.5H231.9" stroke="black" stroke-width="1.5" stroke-miterlimit="10" stroke-linecap="round" stroke-linejoin="round"/>
<path d="M217.7 256.1H218.8" stroke="black" stroke-width="1.5" stroke-miterlimit="10" stroke-linecap="round" stroke-linejoin="round"/>
<path d="M204.8 264.7H205.9" stroke="black" stroke-width="1.5" stroke-miterlimit="10" stroke-linecap="round" stroke-linejoin="round"/>
<path d="M204.8 273.3H205.9" stroke="black" stroke-width="1.5" stroke-miterlimit="10" stroke-linecap="round" stroke-linejoin="round"/>
<path d="M217.7 273.3H218.8" stroke="black" stroke-width="1.5" stroke-miterlimit="10" stroke-linecap="round" stroke-linejoin="round"/>
<path d="M217.7 281.9H218.8" stroke="black" stroke-width="1.5" stroke-miterlimit="10" stroke-linecap="round" stroke-linejoin="round"/>
<path d="M204.8 290.5H205.9" stroke="black" stroke-width="1.5" stroke-miterlimit="10" stroke-linecap="round" stroke-linejoin="round"/>
<path d="M243.8 299.2H244.8" stroke="black" stroke-width="1.5" stroke-miterlimit="10" stroke-linecap="round" stroke-linejoin="round"/>
<path d="M256.7 299.2H257.7" stroke="black" stroke-width="1.5" stroke-miterlimit="10" stroke-linecap="round" stroke-linejoin="round"/>
<path d="M269.6 299.2H270.6" stroke="black" stroke-width="1.5" stroke-miterlimit="10" stroke-linecap="round" stroke-linejoin="round"/>
<path d="M282.5 299.2H283.5" stroke="black" stroke-width="1.5" stroke-miterlimit="10" stroke-linecap="round" stroke-linejoin="round"/>
<path d="M218 299.2H219" stroke="black" stroke-width="1.5" stroke-miterlimit="10" stroke-linecap="round" stroke-linejoin="round"/>
<path d="M230.9 299.2H231.9" stroke="black" stroke-width="1.5" stroke-miterlimit="10" stroke-linecap="round" stroke-linejoin="round"/>
<path d="M243.8 307.8H244.8" stroke="black" stroke-width="1.5" stroke-miterlimit="10" stroke-linecap="round" stroke-linejoin="round"/>
<path d="M256.7 307.8H257.7" stroke="black" stroke-width="1.5" stroke-miterlimit="10" stroke-linecap="round" stroke-linejoin="round"/>
<path d="M269.6 307.8H270.6" stroke="black" stroke-width="1.5" stroke-miterlimit="10" stroke-linecap="round" stroke-linejoin="round"/>
<path d="M282.5 307.8H283.5" stroke="black" stroke-width="1.5" stroke-miterlimit="10" stroke-linecap="round" stroke-linejoin="round"/>
<path d="M218 307.8H219" stroke="black" stroke-width="1.5" stroke-miterlimit="10" stroke-linecap="round" stroke-linejoin="round"/>
<path d="M243.8 316.4H244.8" stroke="black" stroke-width="1.5" stroke-miterlimit="10" stroke-linecap="round" stroke-linejoin="round"/>
<path d="M256.7 316.4H257.7" stroke="black" stroke-width="1.5" stroke-miterlimit="10" stroke-linecap="round" stroke-linejoin="round"/>
<path d="M269.6 316.4H270.6" stroke="black" stroke-width="1.5" stroke-miterlimit="10" stroke-linecap="round" stroke-linejoin="round"/>
<path d="M230.9 316.4H231.9" stroke="black" stroke-width="1.5" stroke-miterlimit="10" stroke-linecap="round" stroke-linejoin="round"/>
<path d="M204.8 299.2H205.9" stroke="black" stroke-width="1.5" stroke-miterlimit="10" stroke-linecap="round" stroke-linejoin="round"/>
<path d="M204.8 307.8H205.9" stroke="black" stroke-width="1.5" stroke-miterlimit="10" stroke-linecap="round" stroke-linejoin="round"/>
<path d="M217.7 316.4H218.8" stroke="black" stroke-width="1.5" stroke-miterlimit="10" stroke-linecap="round" stroke-linejoin="round"/>
<path d="M307.8 442.6V477.4C307.8 480.1 305.6 482.2 303 482.2H241.9C239.2 482.2 237.1 480 237.1 477.4V442.6" stroke="black" stroke-width="1.5" stroke-miterlimit="10" stroke-linecap="round" stroke-linejoin="round"/>
<path d="M298.8 431.3H246C241 431.3 237 435.3 237 440.3V442.6C237 450.2 243.2 456.5 250.9 456.4H258.7H267.6H277.1H287.5H293.9C301.5 456.4 307.8 450.2 307.8 442.5V440.2C307.8 435.3 303.7 431.3 298.8 431.3Z" fill="#0091D5" stroke="black" stroke-width="1.5" stroke-miterlimit="10" stroke-linecap="round" stroke-linejoin="round"/>
<path d="M286 431.3V429C286 424 281.9 419.9 276.9 419.9H269.3C264.3 419.9 260.2 424 260.2 429V431.3" stroke="black" stroke-width="1.5" stroke-miterlimit="10" stroke-linecap="round" stroke-linejoin="round"/>
<path d="M237.1 475.5H307.7" stroke="black" stroke-width="1.5" stroke-miterlimit="10" stroke-linecap="round" stroke-linejoin="round"/>
<path d="M272.4 463.6C269.8 463.6 267.6 461.5 267.6 458.8V452.8C267.6 451.3 268.8 450.1 270.3 450.1H274.5C276 450.1 277.2 451.3 277.2 452.8V458.8C277.1 461.5 275 463.6 272.4 463.6Z" fill="white" stroke="black" stroke-width="1.5" stroke-miterlimit="10" stroke-linecap="round" stroke-linejoin="round"/>
<path d="M459.2 187C492.5 187 515.5 220.9 515.5 220.9C515.5 220.9 492.4 254.8 459.2 254.8C425.9 254.8 402.9 220.9 402.9 220.9C402.9 220.9 425.9 187 459.2 187Z" stroke="black" stroke-width="1.5" stroke-miterlimit="10" stroke-linecap="round" stroke-linejoin="round"/>
<path d="M479.9 220.9C479.9 209.8 470.9 200.8 459.8 200.8C448.7 200.8 439.7 209.8 439.7 220.9C439.7 232 448.7 241 459.8 241C470.9 241 479.9 232 479.9 220.9Z" fill="#0091D5" stroke="black" stroke-width="1.5" stroke-miterlimit="10" stroke-linecap="round" stroke-linejoin="round"/>
<path d="M471.4 221.4C471.4 215 466.2 209.9 459.9 209.9" stroke="black" stroke-width="1.5" stroke-miterlimit="10" stroke-linecap="round" stroke-linejoin="round"/>
<path d="M412.3 195.5V185.4C412.3 184 411.1 182.8 409.7 182.8H396.6C395.2 182.8 394 181.6 394 180.2V175" stroke="black" stroke-width="1.5" stroke-miterlimit="10" stroke-linecap="round" stroke-linejoin="round"/>
<path d="M459.5 176.5V146.9" stroke="black" stroke-width="1.5" stroke-miterlimit="10" stroke-linecap="round" stroke-linejoin="round"/>
<path d="M399.8 168.9C399.8 172.1 397.2 174.6 394.1 174.6C390.9 174.6 388.4 172 388.4 168.9C388.4 165.8 391 163.2 394.1 163.2C397.2 163.1 399.8 165.7 399.8 168.9Z" fill="#0091D5" stroke="black" stroke-width="1.5" stroke-miterlimit="10" stroke-linecap="round" stroke-linejoin="round"/>
<path d="M396.1 211.7V201.6C396.1 200.2 394.9 199 393.5 199H383.1" stroke="black" stroke-width="1.5" stroke-miterlimit="10" stroke-linecap="round" stroke-linejoin="round"/>
<path d="M434.9 181.5V168.6C434.9 167.2 433.7 166 432.3 166H426.2C424.8 166 423.6 164.8 423.6 163.4V155.4" stroke="black" stroke-width="1.5" stroke-miterlimit="10" stroke-linecap="round" stroke-linejoin="round"/>
<path d="M429.4 149.2C429.4 152.4 426.8 154.9 423.7 154.9C420.5 154.9 418 152.3 418 149.2C418 146 420.6 143.5 423.7 143.5C426.8 143.4 429.4 146 429.4 149.2Z" stroke="black" stroke-width="1.5" stroke-miterlimit="10" stroke-linecap="round" stroke-linejoin="round"/>
<path d="M377.1 204.8C380.248 204.8 382.8 202.248 382.8 199.1C382.8 195.952 380.248 193.4 377.1 193.4C373.952 193.4 371.4 195.952 371.4 199.1C371.4 202.248 373.952 204.8 377.1 204.8Z" stroke="black" stroke-width="1.5" stroke-miterlimit="10" stroke-linecap="round" stroke-linejoin="round"/>
<path d="M506 195.5V185.4C506 184 507.2 182.8 508.6 182.8H521.7C523.1 182.8 524.3 181.6 524.3 180.2V175" stroke="black" stroke-width="1.5" stroke-miterlimit="10" stroke-linecap="round" stroke-linejoin="round"/>
<path d="M453.8 140.7C453.8 143.9 456.4 146.4 459.5 146.4C462.7 146.4 465.2 143.8 465.2 140.7C465.2 137.5 462.6 135 459.5 135C456.4 135 453.8 137.5 453.8 140.7Z" fill="#0091D5" stroke="black" stroke-width="1.5" stroke-miterlimit="10" stroke-linecap="round" stroke-linejoin="round"/>
<path d="M518.6 168.9C518.6 172.1 521.2 174.6 524.3 174.6C527.5 174.6 530 172 530 168.9C530 165.8 527.4 163.2 524.3 163.2C521.2 163.1 518.6 165.7 518.6 168.9Z" fill="#0091D5" stroke="black" stroke-width="1.5" stroke-miterlimit="10" stroke-linecap="round" stroke-linejoin="round"/>
<path d="M522.2 211.7V201.6C522.2 200.2 523.4 199 524.8 199H535.2" stroke="black" stroke-width="1.5" stroke-miterlimit="10" stroke-linecap="round" stroke-linejoin="round"/>
<path d="M483.5 181.5V168.6C483.5 167.2 484.7 166 486.1 166H492.2C493.6 166 494.8 164.8 494.8 163.4V155.4" stroke="black" stroke-width="1.5" stroke-miterlimit="10" stroke-linecap="round" stroke-linejoin="round"/>
<path d="M489 149.2C489 152.4 491.6 154.9 494.7 154.9C497.9 154.9 500.4 152.3 500.4 149.2C500.4 146 497.8 143.5 494.7 143.5C491.6 143.4 489 146 489 149.2Z" stroke="black" stroke-width="1.5" stroke-miterlimit="10" stroke-linecap="round" stroke-linejoin="round"/>
<path d="M541.2 204.8C544.348 204.8 546.9 202.248 546.9 199.1C546.9 195.952 544.348 193.4 541.2 193.4C538.052 193.4 535.5 195.952 535.5 199.1C535.5 202.248 538.052 204.8 541.2 204.8Z" stroke="black" stroke-width="1.5" stroke-miterlimit="10" stroke-linecap="round" stroke-linejoin="round"/>
<path d="M506 246.2V256.3C506 257.7 507.2 258.9 508.6 258.9H521.7C523.1 258.9 524.3 260.1 524.3 261.5V266.8" stroke="black" stroke-width="1.5" stroke-miterlimit="10" stroke-linecap="round" stroke-linejoin="round"/>
<path d="M458.8 265.3V294.9" stroke="black" stroke-width="1.5" stroke-miterlimit="10" stroke-linecap="round" stroke-linejoin="round"/>
<path d="M518.6 272.9C518.6 269.7 521.2 267.2 524.3 267.2C527.5 267.2 530 269.8 530 272.9C530 276.1 527.4 278.6 524.3 278.6C521.2 278.6 518.6 276.1 518.6 272.9Z" stroke="black" stroke-width="1.5" stroke-miterlimit="10" stroke-linecap="round" stroke-linejoin="round"/>
<path d="M522.2 230V240.1C522.2 241.5 523.4 242.7 524.8 242.7H535.2" stroke="black" stroke-width="1.5" stroke-miterlimit="10" stroke-linecap="round" stroke-linejoin="round"/>
<path d="M483.5 260.3V273.2C483.5 274.6 484.7 275.8 486.1 275.8H492.2C493.6 275.8 494.8 277 494.8 278.4V286.4" stroke="black" stroke-width="1.5" stroke-miterlimit="10" stroke-linecap="round" stroke-linejoin="round"/>
<path d="M489 292.6C489 289.4 491.6 286.9 494.7 286.9C497.9 286.9 500.4 289.5 500.4 292.6C500.4 295.8 497.8 298.3 494.7 298.3C491.6 298.4 489 295.8 489 292.6Z" fill="#0091D5" stroke="black" stroke-width="1.5" stroke-miterlimit="10" stroke-linecap="round" stroke-linejoin="round"/>
<path d="M535.5 242.7C535.5 239.5 538.1 237 541.2 237C544.4 237 546.9 239.6 546.9 242.7C546.9 245.9 544.3 248.4 541.2 248.4C538.1 248.5 535.5 245.9 535.5 242.7Z" fill="#0091D5" stroke="black" stroke-width="1.5" stroke-miterlimit="10" stroke-linecap="round" stroke-linejoin="round"/>
<path d="M412.3 246.2V256.3C412.3 257.7 411.1 258.9 409.7 258.9H396.6C395.2 258.9 394 260.1 394 261.5V266.8" stroke="black" stroke-width="1.5" stroke-miterlimit="10" stroke-linecap="round" stroke-linejoin="round"/>
<path d="M458.8 306.8C461.948 306.8 464.5 304.248 464.5 301.1C464.5 297.952 461.948 295.4 458.8 295.4C455.652 295.4 453.1 297.952 453.1 301.1C453.1 304.248 455.652 306.8 458.8 306.8Z" stroke="black" stroke-width="1.5" stroke-miterlimit="10" stroke-linecap="round" stroke-linejoin="round"/>
<path d="M399.8 272.9C399.8 269.7 397.2 267.2 394.1 267.2C390.9 267.2 388.4 269.8 388.4 272.9C388.4 276.1 391 278.6 394.1 278.6C397.2 278.6 399.8 276.1 399.8 272.9Z" stroke="black" stroke-width="1.5" stroke-miterlimit="10" stroke-linecap="round" stroke-linejoin="round"/>
<path d="M396.1 230V240.1C396.1 241.5 394.9 242.7 393.5 242.7H383.1" stroke="black" stroke-width="1.5" stroke-miterlimit="10" stroke-linecap="round" stroke-linejoin="round"/>
<path d="M434.9 260.3V273.2C434.9 274.6 433.7 275.8 432.3 275.8H426.2C424.8 275.8 423.6 277 423.6 278.4V286.4" stroke="black" stroke-width="1.5" stroke-miterlimit="10" stroke-linecap="round" stroke-linejoin="round"/>
<path d="M429.4 292.6C429.4 289.4 426.8 286.9 423.7 286.9C420.5 286.9 418 289.5 418 292.6C418 295.8 420.6 298.3 423.7 298.3C426.8 298.4 429.4 295.8 429.4 292.6Z" fill="#0091D5" stroke="black" stroke-width="1.5" stroke-miterlimit="10" stroke-linecap="round" stroke-linejoin="round"/>
<path d="M382.9 242.7C382.9 239.5 380.3 237 377.2 237C374 237 371.5 239.6 371.5 242.7C371.5 245.9 374.1 248.4 377.2 248.4C380.3 248.5 382.9 245.9 382.9 242.7Z" fill="#0091D5" stroke="black" stroke-width="1.5" stroke-miterlimit="10" stroke-linecap="round" stroke-linejoin="round"/>
</svg>
