<svg width="806" height="712" viewBox="0 0 806 712" fill="none" xmlns="http://www.w3.org/2000/svg">
<g opacity="0.4">
<path d="M739 213.9L672.4 175.4L739 136.9L805.6 175.4L739 213.9ZM677.1 175.4L739 211.1L800.9 175.4L739 139.7L677.1 175.4Z" fill="white"/>
<path d="M610.5 213.8L609.9 213.5L543.9 175.4L610.5 136.9L611.1 137.2L677.1 175.3L610.5 213.8ZM548.6 175.4L610.5 211.1L672.4 175.4L610.5 139.7L548.6 175.4Z" fill="white"/>
<path d="M674.8 250.9L608.2 212.4L674.8 173.9L741.4 212.4L674.8 250.9ZM612.9 212.5L674.8 248.2L736.7 212.5L674.8 176.8L612.9 212.5Z" fill="white"/>
<path d="M739 288L738.4 287.7L672.4 249.6L739 211.1L739.6 211.4L805.6 249.5L739 288ZM677.1 249.6L739 285.3L800.9 249.6L739 213.9L677.1 249.6Z" fill="white"/>
<path d="M482 213.8L481.4 213.5L415.4 175.4L482 136.9L482.6 137.2L548.6 175.3L482 213.8ZM420.1 175.4L482 211.1L543.9 175.4L482 139.6L420.1 175.4Z" fill="white"/>
<path d="M546.3 250.9L479.7 212.4L546.3 173.9L546.9 174.2L612.9 212.3L546.3 250.9ZM484.4 212.5L546.3 248.2L608.2 212.5L546.3 176.8L484.4 212.5Z" fill="white"/>
<path d="M610.5 288L609.9 287.7L543.9 249.6L610.5 211.1L677.1 249.6L610.5 288ZM548.6 249.6L610.5 285.3L672.4 249.6L610.5 213.9L548.6 249.6Z" fill="white"/>
<path d="M674.8 325.1L608.2 286.6L674.8 248.1L675.4 248.4L741.4 286.5L674.8 325.1ZM612.9 286.7L674.8 322.4L736.7 286.7L674.8 251L612.9 286.7Z" fill="white"/>
<path d="M739 362.2L738.4 361.9L672.4 323.8L739 285.3L805.6 323.8L739 362.2ZM677.1 323.8L739 359.5L800.9 323.8L739 288L677.1 323.8Z" fill="white"/>
<path d="M353.5 213.8L352.9 213.5L286.9 175.4L353.5 136.9L354.1 137.2L420.1 175.3L353.5 213.8ZM291.6 175.4L353.5 211.1L415.4 175.4L353.5 139.7L291.6 175.4Z" fill="white"/>
<path d="M417.7 250.9L417.1 250.6L351.1 212.5L417.7 174L418.3 174.3L484.3 212.4L417.7 250.9ZM355.8 212.5L417.7 248.2L479.6 212.5L417.7 176.8L355.8 212.5Z" fill="white"/>
<path d="M482 288L481.4 287.7L415.4 249.6L482 211.1L548.6 249.6L482 288ZM420.1 249.6L482 285.3L543.9 249.6L482 213.8L420.1 249.6Z" fill="white"/>
<path d="M546.3 325.1L479.7 286.6L546.3 248.1L546.9 248.4L612.9 286.5L546.3 325.1ZM484.4 286.7L546.3 322.4L608.2 286.7L546.3 251L484.4 286.7Z" fill="white"/>
<path d="M610.5 362.2L543.9 323.7L610.5 285.2L677.1 323.7L610.5 362.2ZM548.6 323.8L610.5 359.5L672.4 323.8L610.5 288L548.6 323.8Z" fill="white"/>
<path d="M674.8 399.3L674.2 399L608.2 360.9L674.8 322.4L675.4 322.7L741.4 360.8L674.8 399.3ZM612.9 360.9L674.8 396.6L736.7 360.9L674.8 325.2L612.9 360.9Z" fill="white"/>
<path d="M739 436.4L738.4 436.1L672.4 398L739 359.5L739.6 359.8L805.6 397.9L739 436.4ZM677.1 398L739 433.7L800.9 398L739 362.2L677.1 398Z" fill="white"/>
<path d="M225 213.8L224.4 213.5L158.4 175.4L225 136.9L225.6 137.2L291.6 175.3L225 213.8ZM163.1 175.4L225 211.1L286.9 175.4L225 139.6L163.1 175.4Z" fill="white"/>
<path d="M289.2 250.9L222.6 212.4L289.2 173.9L289.8 174.2L355.8 212.3L289.2 250.9ZM227.3 212.5L289.2 248.2L351.1 212.5L289.2 176.8L227.3 212.5Z" fill="white"/>
<path d="M353.5 288L352.9 287.7L286.9 249.6L353.5 211.1L354.1 211.4L420.1 249.5L353.5 288ZM291.6 249.6L353.5 285.3L415.4 249.6L353.5 213.9L291.6 249.6Z" fill="white"/>
<path d="M417.7 325.1L417.1 324.8L351.1 286.7L417.7 248.2L418.3 248.5L484.3 286.6L417.7 325.1ZM355.8 286.7L417.7 322.4L479.6 286.7L417.7 251L355.8 286.7Z" fill="white"/>
<path d="M482 362.2L481.4 361.9L415.4 323.8L482 285.3L548.6 323.8L482 362.2ZM420.1 323.8L482 359.5L543.9 323.8L482 288L420.1 323.8Z" fill="white"/>
<path d="M546.3 399.3L479.7 360.8L546.3 322.3L612.9 360.8L546.3 399.3ZM484.4 360.9L546.3 396.6L608.2 360.9L546.3 325.2L484.4 360.9Z" fill="white"/>
<path d="M610.5 436.4L543.9 398L610.5 359.5L611.1 359.8L677.1 397.9L610.5 436.4ZM548.6 398L610.5 433.7L672.4 398L610.5 362.3L548.6 398Z" fill="white"/>
<path d="M674.8 473.5L674.2 473.2L608.2 435.1L674.8 396.6L675.4 396.9L741.4 435L674.8 473.5ZM612.9 435.1L674.8 470.8L736.7 435.1L674.8 399.4L612.9 435.1Z" fill="white"/>
<path d="M739 510.6L738.4 510.3L672.4 472.2L739 433.7L739.6 434L805.6 472.1L739 510.6ZM677.1 472.2L739 507.9L800.9 472.2L739 436.4L677.1 472.2Z" fill="white"/>
<path d="M96.4999 213.8L95.8999 213.5L29.8999 175.4L96.4999 136.9L97.0999 137.2L163.1 175.3L96.4999 213.8ZM34.5999 175.4L96.4999 211.1L158.4 175.4L96.4999 139.7L34.5999 175.4Z" fill="white"/>
<path d="M160.7 250.9L160.1 250.6L94.0996 212.5L160.7 174L161.3 174.3L227.3 212.4L160.7 250.9ZM98.7996 212.5L160.7 248.2L222.6 212.5L160.7 176.8L98.7996 212.5Z" fill="white"/>
<path d="M225 288L224.4 287.7L158.4 249.6L225 211.1L291.6 249.6L225 288ZM163.1 249.6L225 285.3L286.9 249.6L225 213.8L163.1 249.6Z" fill="white"/>
<path d="M289.2 325.1L222.6 286.6L289.2 248.1L289.8 248.4L355.8 286.5L289.2 325.1ZM227.3 286.7L289.2 322.4L351.1 286.7L289.2 251L227.3 286.7Z" fill="white"/>
<path d="M353.5 362.2L352.9 361.9L286.9 323.8L353.5 285.3L354.1 285.6L420.1 323.7L353.5 362.2ZM291.6 323.8L353.5 359.5L415.4 323.8L353.5 288L291.6 323.8Z" fill="white"/>
<path d="M417.7 399.3L417.1 399L351.1 360.9L417.7 322.4L418.3 322.7L484.3 360.8L417.7 399.3ZM355.8 360.9L417.7 396.6L479.6 360.9L417.7 325.2L355.8 360.9Z" fill="white"/>
<path d="M482 436.4L481.4 436.1L415.4 398L482 359.5L548.6 398L482 436.4ZM420.1 398L482 433.7L543.9 398L482 362.2L420.1 398Z" fill="white"/>
<path d="M546.3 473.5L479.7 435L546.3 396.5L612.9 435L546.3 473.5ZM484.4 435.1L546.3 470.8L608.2 435.1L546.3 399.4L484.4 435.1Z" fill="white"/>
<path d="M610.5 510.6L543.9 472.1L610.5 433.6L611.1 433.9L677.1 472L610.5 510.6ZM548.6 472.2L610.5 507.9L672.4 472.2L610.5 436.5L548.6 472.2Z" fill="white"/>
<path d="M674.8 547.7L674.2 547.4L608.2 509.3L674.8 470.8L675.4 471.1L741.4 509.2L674.8 547.7ZM612.9 509.3L674.8 545L736.7 509.3L674.8 473.6L612.9 509.3Z" fill="white"/>
<path d="M739 584.8L738.4 584.5L672.4 546.4L739 507.9L739.6 508.2L805.6 546.3L739 584.8ZM677.1 546.4L739 582.1L800.9 546.4L739 510.6L677.1 546.4Z" fill="white"/>
<path d="M96.4999 288L95.8999 287.7L29.8999 249.6L96.4999 211.1L97.0999 211.4L163.1 249.5L96.4999 288ZM34.5999 249.6L96.4999 285.3L158.4 249.6L96.4999 213.9L34.5999 249.6Z" fill="white"/>
<path d="M160.7 325.1L160.1 324.8L94.0996 286.7L160.7 248.2L161.3 248.5L227.3 286.6L160.7 325.1ZM98.7996 286.7L160.7 322.4L222.6 286.7L160.7 251L98.7996 286.7Z" fill="white"/>
<path d="M225 362.2L224.4 361.9L158.4 323.8L225 285.3L291.6 323.8L225 362.2ZM163.1 323.8L225 359.5L286.9 323.8L225 288L163.1 323.8Z" fill="white"/>
<path d="M289.2 399.3L288.6 399L222.6 360.9L289.2 322.4L289.8 322.7L355.8 360.8L289.2 399.3ZM227.3 360.9L289.2 396.6L351.1 360.9L289.2 325.2L227.3 360.9Z" fill="white"/>
<path d="M353.5 436.4L286.9 398L353.5 359.5L354.1 359.8L420.1 397.9L353.5 436.4ZM291.6 398L353.5 433.7L415.4 398L353.5 362.3L291.6 398Z" fill="white"/>
<path d="M417.8 473.5L417.2 473.2L351.2 435.1L417.8 396.6L418.4 396.9L484.4 435L417.8 473.5ZM355.9 435.1L417.8 470.8L479.7 435.1L417.8 399.4L355.9 435.1Z" fill="white"/>
<path d="M482 510.6L415.4 472.1L482 433.6L548.6 472.1L482 510.6ZM420.1 472.2L482 507.9L543.9 472.2L482 436.4L420.1 472.2Z" fill="white"/>
<path d="M546.3 547.7L545.7 547.4L479.7 509.3L546.3 470.8L612.9 509.3L546.3 547.7ZM484.4 509.3L546.3 545L608.2 509.3L546.3 473.6L484.4 509.3Z" fill="white"/>
<path d="M610.5 584.8L609.9 584.5L543.9 546.4L610.5 507.9L611.1 508.2L677.1 546.3L610.5 584.8ZM548.6 546.4L610.5 582.1L672.4 546.4L610.5 510.7L548.6 546.4Z" fill="white"/>
<path d="M674.8 621.9L608.2 583.4L674.8 544.9L675.4 545.2L741.4 583.3L674.8 621.9ZM612.9 583.5L674.8 619.2L736.7 583.5L674.8 547.8L612.9 583.5Z" fill="white"/>
<path d="M739 659L738.4 658.7L672.4 620.6L739 582.1L739.6 582.4L805.6 620.5L739 659ZM677.1 620.6L739 656.3L800.9 620.6L739 584.8L677.1 620.6Z" fill="white"/>
<path d="M96.4999 362.2L29.8999 323.7L96.4999 285.2L97.0999 285.5L163.1 323.6L96.4999 362.2ZM34.5999 323.8L96.4999 359.5L158.4 323.8L96.4999 288L34.5999 323.8Z" fill="white"/>
<path d="M160.7 399.3L160.1 399L94.0996 360.9L160.7 322.4L161.3 322.7L227.3 360.8L160.7 399.3ZM98.7996 360.9L160.7 396.6L222.6 360.9L160.7 325.2L98.7996 360.9Z" fill="white"/>
<path d="M225 436.4L224.4 436.1L158.4 398L225 359.5L225.6 359.8L291.6 397.9L225 436.4ZM163.1 398L225 433.7L286.9 398L225 362.2L163.1 398Z" fill="white"/>
<path d="M289.2 473.5L288.6 473.2L222.6 435.1L289.2 396.6L355.8 435.1L289.2 473.5ZM227.3 435.1L289.2 470.8L351.1 435.1L289.2 399.4L227.3 435.1Z" fill="white"/>
<path d="M353.5 510.6L352.9 510.3L286.9 472.2L353.5 433.7L354.1 434L420.1 472.1L353.5 510.6ZM291.6 472.2L353.5 507.9L415.4 472.2L353.5 436.5L291.6 472.2Z" fill="white"/>
<path d="M417.8 547.7L351.2 509.2L417.8 470.7L484.4 509.2L417.8 547.7ZM355.9 509.3L417.8 545L479.7 509.3L417.8 473.6L355.9 509.3Z" fill="white"/>
<path d="M482 584.8L481.4 584.5L415.4 546.4L482 507.9L482.6 508.2L548.6 546.3L482 584.8ZM420.1 546.4L482 582.1L543.9 546.4L482 510.6L420.1 546.4Z" fill="white"/>
<path d="M546.3 621.9L545.7 621.6L479.7 583.5L546.3 545L546.9 545.3L612.9 583.4L546.3 621.9ZM484.4 583.5L546.3 619.2L608.2 583.5L546.3 547.8L484.4 583.5Z" fill="white"/>
<path d="M610.5 659L609.9 658.7L543.9 620.6L610.5 582.1L677.1 620.6L610.5 659ZM548.6 620.6L610.5 656.3L672.4 620.6L610.5 584.9L548.6 620.6Z" fill="white"/>
<path d="M96.4998 436.4L29.7998 398L96.3998 359.5L96.9998 359.8L163 397.9L96.4998 436.4ZM34.5998 398L96.4998 433.7L158.4 398L96.4998 362.3L34.5998 398Z" fill="white"/>
<path d="M160.7 473.5L160.1 473.2L94.0996 435.1L160.7 396.6L161.3 396.9L227.3 435L160.7 473.5ZM98.7996 435.1L160.7 470.8L222.6 435.1L160.7 399.4L98.7996 435.1Z" fill="white"/>
<path d="M225 510.6L224.4 510.3L158.4 472.2L225 433.7L225.6 434L291.6 472.1L225 510.6ZM163.1 472.2L225 507.9L286.9 472.2L225 436.4L163.1 472.2Z" fill="white"/>
<path d="M289.2 547.7L288.6 547.4L222.6 509.3L289.2 470.8L289.8 471.1L355.8 509.2L289.2 547.7ZM227.3 509.3L289.2 545L351.1 509.3L289.2 473.6L227.3 509.3Z" fill="white"/>
<path d="M353.5 584.8L352.9 584.5L286.9 546.4L353.5 507.9L420.1 546.4L353.5 584.8ZM291.6 546.4L353.5 582.1L415.4 546.4L353.5 510.7L291.6 546.4Z" fill="white"/>
<path d="M417.8 621.9L351.2 583.4L417.8 544.9L418.4 545.2L484.4 583.3L417.8 621.9ZM355.9 583.5L417.8 619.2L479.7 583.5L417.8 547.8L355.9 583.5Z" fill="white"/>
<path d="M482 659L481.4 658.7L415.4 620.6L482 582.1L482.6 582.4L548.6 620.5L482 659ZM420.1 620.6L482 656.3L543.9 620.6L482 584.8L420.1 620.6Z" fill="white"/>
<path d="M96.4999 510.6L95.8999 510.3L29.8999 472.2L96.4999 433.7L97.0999 434L163.1 472.1L96.4999 510.6ZM34.5999 472.2L96.4999 507.9L158.4 472.2L96.4999 436.5L34.5999 472.2Z" fill="white"/>
<path d="M160.7 547.7L94.0996 509.2L160.7 470.7L161.3 471L227.3 509.1L160.7 547.7ZM98.7996 509.3L160.7 545L222.6 509.3L160.7 473.6L98.7996 509.3Z" fill="white"/>
<path d="M225 584.8L224.4 584.5L158.4 546.4L225 507.9L225.6 508.2L291.6 546.3L225 584.8ZM163.1 546.4L225 582.1L286.9 546.4L225 510.6L163.1 546.4Z" fill="white"/>
<path d="M289.2 621.9L288.6 621.6L222.6 583.5L289.2 545L289.8 545.3L355.8 583.4L289.2 621.9ZM227.3 583.5L289.2 619.2L351.1 583.5L289.2 547.8L227.3 583.5Z" fill="white"/>
<path d="M353.5 659L286.9 620.5L353.5 582L420.1 620.5L353.5 659ZM291.6 620.6L353.5 656.3L415.4 620.6L353.5 584.9L291.6 620.6Z" fill="white"/>
<path d="M96.4999 584.8L95.8999 584.5L29.8999 546.4L96.4999 507.9L163.1 546.4L96.4999 584.8ZM34.5999 546.4L96.4999 582.1L158.4 546.4L96.4999 510.7L34.5999 546.4Z" fill="white"/>
<path d="M160.7 621.9L160.1 621.6L94.0996 583.5L160.7 545L161.3 545.3L227.3 583.4L160.7 621.9ZM98.7996 583.5L160.7 619.2L222.6 583.5L160.7 547.8L98.7996 583.5Z" fill="white"/>
<path d="M225 659L158.4 620.5L225 582L225.6 582.3L291.6 620.4L225 659ZM163.1 620.6L225 656.3L286.9 620.6L225 584.8L163.1 620.6Z" fill="white"/>
<path d="M96.4999 659L95.8999 658.7L29.8999 620.6L96.4999 582.1L97.0999 582.4L163.1 620.5L96.4999 659ZM34.5999 620.6L96.4999 656.3L158.4 620.6L96.4999 584.9L34.5999 620.6Z" fill="white"/>
</g>
<path d="M410.2 93.0999C408.9 93.7999 407.7 94.6999 406.6 95.7999C406.1 79.4999 394.3 72.9999 379.8 81.3999C368 88.1999 358 102.8 354.4 117.2C351.5 116.8 348.1 117.6 344.4 119.7C333.8 125.8 325.2 140.7 325.2 152.9C325.2 165.1 333.8 170.1 344.4 164L410.3 125.9C418.1 121.4 424.5 110.4 424.5 101.4C424.4 92.1999 418 88.4999 410.2 93.0999Z" fill="white"/>
<path d="M227.4 684.1C227.4 688.1 224.6 692.9 221.2 694.9C217.8 696.9 215 695.3 215 691.3C215 687.3 217.8 682.5 221.2 680.5C224.6 678.5 227.4 680.1 227.4 684.1Z" fill="white"/>
<path d="M247.6 672.4C247.6 676.4 244.8 681.2 241.4 683.2C238 685.2 235.2 683.6 235.2 679.6C235.2 675.6 238 670.8 241.4 668.8C244.8 666.9 247.6 668.5 247.6 672.4Z" fill="white"/>
<path d="M267.7 660.8C267.7 664.8 264.9 669.6 261.5 671.6C258.1 673.6 255.3 672 255.3 668C255.3 664 258.1 659.2 261.5 657.2C264.9 655.2 267.7 656.8 267.7 660.8Z" fill="white"/>
<path d="M287.9 649.2C287.9 653.2 285.1 658 281.7 660C278.3 662 275.5 660.4 275.5 656.4C275.5 652.4 278.3 647.6 281.7 645.6C285.1 643.6 287.9 645.2 287.9 649.2Z" fill="white"/>
<path d="M479.7 58.9C479.7 62.9 476.9 67.7 473.5 69.7C470.1 71.7 467.3 70.1 467.3 66.1C467.3 62.1 470.1 57.3 473.5 55.3C476.9 53.3 479.7 54.9 479.7 58.9Z" fill="white"/>
<path d="M496.8 49.0001C496.8 53.0001 494 57.8001 490.6 59.8001C487.2 61.8001 484.4 60.2001 484.4 56.2001C484.4 52.2001 487.2 47.4001 490.6 45.4001C494 43.4001 496.8 45.0001 496.8 49.0001Z" fill="white"/>
<path d="M479.7 39.0999C479.7 43.0999 476.9 47.8999 473.5 49.8999C470.1 51.8999 467.3 50.2999 467.3 46.2999C467.3 42.2999 470.1 37.4999 473.5 35.4999C476.9 33.4999 479.7 35.0999 479.7 39.0999Z" fill="white"/>
<path d="M496.8 29.2C496.8 33.2 494 38 490.6 40C487.2 42 484.4 40.4 484.4 36.4C484.4 32.4 487.2 27.6 490.6 25.6C494 23.6 496.8 25.2 496.8 29.2Z" fill="white"/>
<path d="M179.1 576.7C176.9 578 174.8 579.8 173 581.9C172.7 569.9 164.1 565.1 153.5 571.3C150.1 573.3 146.9 576.1 144.1 579.5C139.4 571.3 129.6 569.4 118.3 575.9C102.4 585.1 89.4999 607.4 89.4999 625.8C89.4999 627.3 89.5999 628.7 89.7999 630.1C87.4999 629.5 84.7999 630 81.6999 631.7C74.0999 636.1 67.8999 646.8 67.8999 655.6C67.8999 664.4 74.0999 667.9 81.6999 663.6L178.9 607.5C186.2 603.3 192.1 593 192.1 584.6C192.1 576.2 186.4 572.5 179.1 576.7Z" fill="white"/>
<path opacity="0.4" d="M761.6 545C759.5 546.2 757.5 547.9 755.8 550C755.5 538.6 747.3 534 737.2 539.8C734 541.7 730.9 544.4 728.3 547.6C723.8 539.7 714.5 537.9 703.7 544.1C688.5 552.9 676.2 574.2 676.2 591.8C676.2 593.2 676.3 594.6 676.5 595.9C674.3 595.3 671.7 595.8 668.8 597.5C661.5 601.7 655.6 611.9 655.6 620.3C655.6 628.7 661.5 632.1 668.8 627.9L761.8 574.2C768.8 570.2 774.5 560.3 774.5 552.3C774.3 544.2 768.6 541 761.6 545Z" fill="white"/>
<path d="M635.8 538.8L512.4 467.6C507.9 465 508.4 460.4 513.7 457.4L644.5 381.7C649.7 378.7 657.6 378.4 662.1 381L785.5 452.2C790 454.8 789.5 459.4 784.2 462.4L653.4 538.1C648.2 541.1 640.3 541.4 635.8 538.8Z" fill="#7EC1E8"/>
<path d="M643.5 515.4C640 515.4 636.6 514.7 634 513.2L510.6 442C507.5 440.2 505.7 437.4 505.7 434.4C505.7 431 507.9 427.7 511.8 425.5L642.6 349.8C648.9 346.1 658.3 345.8 663.9 349.1L787.3 420.3C790.4 422.1 792.2 424.9 792.2 427.9C792.2 431.3 790 434.6 786.1 436.8L655.3 512.5C651.9 514.4 647.6 515.4 643.5 515.4ZM637.6 506.9C641 508.9 647.5 508.5 651.6 506.2L782.4 430.5C784.2 429.4 784.9 428.4 784.9 427.9C784.9 427.6 784.5 427.1 783.7 426.6L660.3 355.4C656.9 353.4 650.4 353.8 646.3 356.1L515.5 431.8C513.7 432.9 513 433.9 513 434.4C513 434.7 513.4 435.2 514.2 435.7L637.6 506.9Z" fill="white"/>
<path d="M644.7 163.9C644.7 163.9 577 170.4 536.2 173.5L644.4 481.6L787.5 399.1C787.5 399.1 787.5 399.1 787.6 399.1L787.9 399C789.7 397.9 790.8 395.4 790.8 391.9V90.6999C790.8 87.4999 789.8 84.0999 788.3 81.0999L644.7 163.9Z" fill="#0A8FCF"/>
<path d="M781.9 73.6999L656 1.09993C653.8 -0.200074 651.8 -0.300074 650.3 0.599926L506.6 83.4999L513.4 108.6L549.4 211.2L556.2 215.1L788.3 81.0999C786.7 77.8999 784.4 75.1999 781.9 73.6999Z" fill="url(#paint0_linear_2419_1012)"/>
<path d="M638.3 481.4L512.4 408.7C507.5 405.9 503.5 398.3 503.5 391.8V90.6C503.5 84.1 507.5 81.1 512.4 83.9L638.3 156.6C643.2 159.4 647.2 167 647.2 173.5V474.7C647.2 481.2 643.2 484.2 638.3 481.4Z" fill="#5892CE"/>
<path d="M641 155L515.1 82.2999C512.3 80.6999 509.8 80.9999 508.1 82.7999C509.4 82.5999 510.8 82.8999 512.4 83.7999L638.3 156.5C643.2 159.3 647.2 166.9 647.2 173.4V474.6C647.2 477.3 646.5 479.5 645.3 480.8C648 480.4 649.9 477.6 649.9 473.1V172C649.9 165.4 645.9 157.9 641 155Z" fill="white"/>
<path d="M630.4 463.2L520.4 399.7C516.1 397.2 512.7 390.6 512.7 384.9V105.2C512.7 99.5 516.2 96.9 520.4 99.3L630.4 162.8C634.7 165.3 638.1 171.9 638.1 177.6V457.3C638.1 463.1 634.7 465.7 630.4 463.2Z" fill="url(#paint1_linear_2419_1012)"/>
<path d="M630.4 463.2L520.4 399.7C516.1 397.2 512.7 390.6 512.7 384.9V105.2C512.7 99.5 516.2 96.9 520.4 99.3L630.4 162.8C634.7 165.3 638.1 171.9 638.1 177.6V457.3C638.1 463.1 634.7 465.7 630.4 463.2Z" fill="url(#paint2_linear_2419_1012)"/>
<path d="M630.4 463.2L520.4 399.7C516.1 397.2 512.7 390.6 512.7 384.9V105.2C512.7 99.5 516.2 96.9 520.4 99.3L630.4 162.8C634.7 165.3 638.1 171.9 638.1 177.6V457.3C638.1 463.1 634.7 465.7 630.4 463.2Z" fill="#1F3F7A"/>
<path d="M634 461.1L524 397.6C519.7 395.1 516.3 388.5 516.3 382.8V103.1C516.3 101.2 516.7 99.5999 517.4 98.3999C514.6 98.3999 512.7 100.9 512.7 105.2V384.9C512.7 390.6 516.2 397.2 520.4 399.7L630.4 463.2C633.2 464.8 635.7 464.2 637 462C636.1 462.1 635.1 461.8 634 461.1Z" fill="#396EAB"/>
<path d="M630.4 334.8L589.5 311.2L524.3 348.9L638.2 414.6V349.6C638.1 343.9 634.7 337.3 630.4 334.8Z" fill="#1F3F7A"/>
<path d="M630.4 277.5L589.5 253.9L524.3 291.6L638.2 357.3V292.3C638.1 286.6 634.7 280 630.4 277.5Z" fill="#1F3F7A"/>
<path d="M630.4 220.2L589.5 196.6L524.3 234.3L638.1 300V235C638.1 229.3 634.7 222.7 630.4 220.2Z" fill="#1F3F7A"/>
<path d="M630.4 162.9L589.5 139.3L524.3 177L638.2 242.7V177.7C638.1 172 634.7 165.3 630.4 162.9Z" fill="#1F3F7A"/>
<path d="M630.4 162.9L539.9 110.6L524.3 119.6L638.2 185.3V177.6C638.1 172 634.7 165.3 630.4 162.9Z" fill="#1F3F7A"/>
<path d="M638.1 185.3L524.3 119.6V155.8L638.1 221.6V185.3Z" fill="#5892CE"/>
<path d="M638.1 242.7L524.3 176.9V213.1L638.1 278.9V242.7Z" fill="#5892CE"/>
<path d="M638.1 300L524.3 234.2V270.5L638.1 336.2V300Z" fill="#5892CE"/>
<path d="M638.1 357.3L524.3 291.5V327.8L638.1 393.5V357.3Z" fill="#5892CE"/>
<path d="M638.1 414.6L524.3 348.9V385.1L638.1 450.8V414.6Z" fill="#5892CE"/>
<path d="M628.1 208.7L542.3 159.2C539.9 157.8 537.9 154.1 537.9 150.8V141.1C537.9 137.9 539.9 136.4 542.3 137.8L628.1 187.3C630.5 188.7 632.5 192.4 632.5 195.7V205.4C632.5 208.6 630.5 210 628.1 208.7Z" fill="#1F3F7A"/>
<path opacity="0.3" d="M546.7 157.3C544.3 155.9 542.3 152.2 542.3 148.9V139.2C542.3 138.7 542.4 138.2 542.5 137.8L542.4 137.7C540 136.3 538 137.8 538 141V150.7C538 153.9 540 157.7 542.4 159.1L628.2 208.6C630.2 209.8 631.9 208.9 632.4 206.7L546.7 157.3Z" fill="#10123C"/>
<path d="M601.2 182.1L549.6 152.3C548.7 151.8 548.1 150.5 548.1 149.4C548.1 148.3 548.8 147.7 549.6 148.2L601.2 178C602.1 178.5 602.7 179.8 602.7 180.9C602.7 182 602 182.6 601.2 182.1Z" fill="white"/>
<path d="M628.1 265.6L542.3 216.1C539.9 214.7 537.9 211 537.9 207.7V198C537.9 194.8 539.9 193.3 542.3 194.7L628.1 244.2C630.5 245.6 632.5 249.3 632.5 252.6V262.3C632.5 265.5 630.5 267 628.1 265.6Z" fill="#1F3F7A"/>
<path opacity="0.3" d="M546.7 214.2C544.3 212.8 542.3 209.1 542.3 205.8V196.1C542.3 195.6 542.4 195.1 542.5 194.7L542.4 194.6C540 193.2 538 194.7 538 197.9V207.6C538 210.8 540 214.6 542.4 216L628.2 265.5C630.2 266.7 631.9 265.8 632.4 263.6L546.7 214.2Z" fill="#10123C"/>
<path d="M601.2 239L549.6 209.2C548.7 208.7 548.1 207.4 548.1 206.3C548.1 205.2 548.8 204.6 549.6 205.1L601.2 234.9C602.1 235.4 602.7 236.7 602.7 237.8C602.7 239 602 239.5 601.2 239Z" fill="white"/>
<path d="M628.1 323.1L542.3 273.6C539.9 272.2 537.9 268.5 537.9 265.2V255.5C537.9 252.3 539.9 250.8 542.3 252.2L628.1 301.7C630.5 303.1 632.5 306.8 632.5 310.1V319.8C632.5 323 630.5 324.5 628.1 323.1Z" fill="#1F3F7A"/>
<path opacity="0.3" d="M546.7 271.7C544.3 270.3 542.3 266.6 542.3 263.3V253.6C542.3 253.1 542.4 252.6 542.5 252.2L542.4 252.1C540 250.7 538 252.2 538 255.4V265.1C538 268.3 540 272.1 542.4 273.5L628.2 323C630.2 324.2 631.9 323.3 632.4 321.1L546.7 271.7Z" fill="#10123C"/>
<path d="M601.2 296.5L549.6 266.7C548.7 266.2 548.1 264.9 548.1 263.8C548.1 262.7 548.8 262.1 549.6 262.6L601.2 292.4C602.1 292.9 602.7 294.2 602.7 295.3C602.7 296.5 602 297 601.2 296.5Z" fill="#D4E9F9"/>
<path d="M628.1 381.1L542.3 331.6C539.9 330.2 537.9 326.5 537.9 323.2V313.5C537.9 310.3 539.9 308.8 542.3 310.2L628.1 359.7C630.5 361.1 632.5 364.8 632.5 368.1V377.8C632.5 381.1 630.5 382.5 628.1 381.1Z" fill="#1F3F7A"/>
<path opacity="0.3" d="M546.7 329.8C544.3 328.4 542.3 324.7 542.3 321.4V311.7C542.3 311.2 542.4 310.7 542.5 310.3L542.4 310.2C540 308.8 538 310.3 538 313.5V323.2C538 326.4 540 330.2 542.4 331.6L628.2 381.1C630.2 382.3 631.9 381.4 632.4 379.2L546.7 329.8Z" fill="#10123C"/>
<path d="M601.2 354.5L549.6 324.7C548.7 324.2 548.1 322.9 548.1 321.8C548.1 320.7 548.8 320.1 549.6 320.6L601.2 350.4C602.1 350.9 602.7 352.2 602.7 353.3C602.7 354.5 602 355 601.2 354.5Z" fill="#ED3995"/>
<path d="M628.1 438L542.3 388.5C539.9 387.1 537.9 383.4 537.9 380.1V370.4C537.9 367.2 539.9 365.7 542.3 367.1L628.1 416.6C630.5 418 632.5 421.7 632.5 425V434.7C632.5 437.9 630.5 439.4 628.1 438Z" fill="#1F3F7A"/>
<path opacity="0.3" d="M546.7 386.6C544.3 385.2 542.3 381.5 542.3 378.2V368.5C542.3 368 542.4 367.5 542.5 367.1L542.4 367C540 365.6 538 367.1 538 370.3V380C538 383.2 540 387 542.4 388.4L628.2 437.9C630.2 439.1 631.9 438.2 632.4 436L546.7 386.6Z" fill="#10123C"/>
<path d="M601.2 411.4L549.6 381.6C548.7 381.1 548.1 379.8 548.1 378.7C548.1 377.6 548.8 377 549.6 377.5L601.2 407.3C602.1 407.8 602.7 409.1 602.7 410.2C602.7 411.4 602 411.9 601.2 411.4Z" fill="#D4E9F9"/>
<path opacity="0.5" d="M524.3 119.6L533.2 124.8V161L524.3 155.8V119.6Z" fill="#1F3F7A"/>
<path opacity="0.5" d="M524.3 176.9L533.2 182.1V218.3L524.3 213.1V176.9Z" fill="#1F3F7A"/>
<path opacity="0.5" d="M524.3 234.2L533.2 239.4V275.6L524.3 270.5V234.2Z" fill="#1F3F7A"/>
<path opacity="0.5" d="M524.3 291.5L533.2 296.7V333L524.3 327.8V291.5Z" fill="#1F3F7A"/>
<path opacity="0.5" d="M524.3 348.9L533.2 354V390.3L524.3 385.1V348.9Z" fill="#1F3F7A"/>
<path d="M611.3 185.6C611.3 186.8 610.5 187.2 609.5 186.6C608.5 186 607.7 184.6 607.7 183.5C607.7 182.3 608.5 181.9 609.5 182.5C610.5 183.1 611.3 184.5 611.3 185.6Z" fill="#D4E9F9"/>
<path d="M619 190.1C619 191.3 618.2 191.7 617.2 191.1C616.2 190.5 615.4 189.1 615.4 188C615.4 186.8 616.2 186.4 617.2 187C618.2 187.5 619 188.9 619 190.1Z" fill="#ED3995"/>
<path d="M626.7 194.5C626.7 195.7 625.9 196.1 624.9 195.5C623.9 194.9 623.1 193.5 623.1 192.4C623.1 191.2 623.9 190.8 624.9 191.4C625.9 192 626.7 193.4 626.7 194.5Z" fill="#D4E9F9"/>
<path d="M611.3 242.9C611.3 244.1 610.5 244.5 609.5 243.9C608.5 243.3 607.7 241.9 607.7 240.8C607.7 239.6 608.5 239.2 609.5 239.8C610.5 240.4 611.3 241.8 611.3 242.9Z" fill="#ED3995"/>
<path d="M619 247.4C619 248.6 618.2 249 617.2 248.4C616.2 247.8 615.4 246.4 615.4 245.3C615.4 244.2 616.2 243.7 617.2 244.3C618.2 244.8 619 246.2 619 247.4Z" fill="#D4E9F9"/>
<path d="M626.7 251.8C626.7 253 625.9 253.4 624.9 252.8C623.9 252.2 623.1 250.8 623.1 249.7C623.1 248.5 623.9 248.1 624.9 248.7C625.9 249.2 626.7 250.7 626.7 251.8Z" fill="white"/>
<path d="M611.3 300.6C611.3 301.8 610.5 302.2 609.5 301.6C608.5 301 607.7 299.6 607.7 298.5C607.7 297.3 608.5 296.9 609.5 297.5C610.5 298.1 611.3 299.5 611.3 300.6Z" fill="white"/>
<path d="M619 305.1C619 306.3 618.2 306.7 617.2 306.1C616.2 305.5 615.4 304.1 615.4 303C615.4 301.8 616.2 301.4 617.2 302C618.2 302.5 619 303.9 619 305.1Z" fill="#ED3995"/>
<path d="M626.7 309.5C626.7 310.7 625.9 311.1 624.9 310.5C623.9 309.9 623.1 308.5 623.1 307.4C623.1 306.2 623.9 305.8 624.9 306.4C625.9 307 626.7 308.4 626.7 309.5Z" fill="white"/>
<path d="M611.3 357.5C611.3 358.7 610.5 359.1 609.5 358.5C608.5 357.9 607.7 356.5 607.7 355.4C607.7 354.2 608.5 353.8 609.5 354.4C610.5 355 611.3 356.4 611.3 357.5Z" fill="white"/>
<path d="M619 362C619 363.2 618.2 363.6 617.2 363C616.2 362.4 615.4 361 615.4 359.9C615.4 358.7 616.2 358.3 617.2 358.9C618.2 359.4 619 360.8 619 362Z" fill="#D4E9F9"/>
<path d="M626.7 366.4C626.7 367.6 625.9 368 624.9 367.4C623.9 366.8 623.1 365.4 623.1 364.3C623.1 363.1 623.9 362.7 624.9 363.3C625.9 363.9 626.7 365.3 626.7 366.4Z" fill="#D4E9F9"/>
<path d="M611.3 415.2C611.3 416.4 610.5 416.8 609.5 416.2C608.5 415.6 607.7 414.2 607.7 413.1C607.7 411.9 608.5 411.5 609.5 412.1C610.5 412.6 611.3 414 611.3 415.2Z" fill="white"/>
<path d="M619 419.6C619 420.8 618.2 421.2 617.2 420.6C616.2 420 615.4 418.6 615.4 417.5C615.4 416.4 616.2 415.9 617.2 416.5C618.2 417.1 619 418.5 619 419.6Z" fill="#ED3995"/>
<path d="M626.7 424.1C626.7 425.3 625.9 425.7 624.9 425.1C623.9 424.5 623.1 423.1 623.1 422C623.1 420.8 623.9 420.4 624.9 421C625.9 421.5 626.7 422.9 626.7 424.1Z" fill="#D4E9F9"/>
<path d="M666.1 440.7V184.2L666.6 183.9L773.8 122V378.5L773.3 378.8L666.1 440.7ZM668.2 185.4V437L771.7 377.3V125.7L668.2 185.4Z" fill="#1F3F7A"/>
<path d="M746 237.4L697.9 265.1C694.7 267 692.1 265 692.1 260.7V234.1C692.1 229.8 694.7 224.8 697.9 222.9L746 195.2C749.2 193.3 751.8 195.3 751.8 199.6V226.2C751.8 230.5 749.2 235.5 746 237.4Z" fill="#1F3F7A"/>
<path d="M747.2 194.7C747.5 195.4 747.6 196.3 747.6 197.4V224C747.6 228.3 745 233.3 741.8 235.2L693.7 262.9C693.3 263.1 692.9 263.3 692.5 263.4C693.4 265.8 695.5 266.6 697.9 265.1L746 237.4C749.2 235.5 751.8 230.5 751.8 226.2V199.6C751.8 195.8 749.8 193.8 747.2 194.7Z" fill="#5892CE"/>
<path d="M737.2 221.4C738.1 220.9 738.8 221.3 738.8 222.3V228.4C738.8 229.4 738.1 230.7 737.2 231.2C736.3 231.7 735.6 231.3 735.6 230.3V224.2C735.6 223.1 736.3 221.9 737.2 221.4Z" fill="white"/>
<path d="M730.3 226.1C731.2 225.6 731.9 226 731.9 227V232.3C731.9 233.3 731.2 234.6 730.3 235.1C729.4 235.6 728.7 235.2 728.7 234.2V228.9C728.7 227.9 729.4 226.6 730.3 226.1Z" fill="#D4E9F9"/>
<path d="M723.4 224.1C724.3 223.6 725 224 725 225V236.2C725 237.2 724.3 238.5 723.4 239C722.5 239.5 721.8 239.1 721.8 238.1V226.9C721.8 225.9 722.5 224.7 723.4 224.1Z" fill="#ED3995"/>
<path d="M716.5 221.7C717.4 221.2 718.1 221.6 718.1 222.6V240.3C718.1 241.3 717.4 242.6 716.5 243.1C715.6 243.6 714.9 243.2 714.9 242.2V224.5C714.9 223.4 715.6 222.2 716.5 221.7Z" fill="#D4E9F9"/>
<path d="M709.6 227.5C710.5 227 711.2 227.4 711.2 228.4V244.3C711.2 245.3 710.5 246.6 709.6 247.1C708.7 247.6 708 247.2 708 246.2V230.3C708 229.3 708.7 228 709.6 227.5Z" fill="#D4E9F9"/>
<path d="M702.7 238.7C703.6 238.2 704.3 238.6 704.3 239.6V248.2C704.3 249.2 703.6 250.5 702.7 251C701.8 251.5 701.1 251.1 701.1 250.1V241.5C701.1 240.5 701.8 239.2 702.7 238.7Z" fill="white"/>
<path d="M735.6 218.3C735.6 219.3 736.3 219.7 737.2 219.2C738.1 218.7 738.8 217.5 738.8 216.5C738.8 215.5 738.1 215.1 737.2 215.6C736.3 216.1 735.6 217.3 735.6 218.3Z" fill="#ED3995"/>
<path d="M735.6 212.6C735.6 213.6 736.3 214 737.2 213.5C738.1 213 738.8 211.8 738.8 210.8C738.8 209.8 738.1 209.4 737.2 209.9C736.3 210.3 735.6 211.6 735.6 212.6Z" fill="white"/>
<path d="M373.8 676L136.4 539.1L205.6 499.1L443 636L373.8 676Z" fill="#7EC1E8"/>
<path d="M373.8 644.5C373.2 644.5 372.5 644.3 372 644L134.6 507.1C133.5 506.4 132.8 505.2 132.8 503.9C132.8 502.6 133.5 501.4 134.6 500.7L203.8 460.8C204.9 460.1 206.3 460.1 207.5 460.8L444.9 597.7C446 598.4 446.7 599.6 446.7 600.9C446.7 602.2 446 603.4 444.9 604.1L375.6 644C375.1 644.3 374.4 644.5 373.8 644.5ZM143.7 503.9L373.8 636.6L435.7 600.9L205.6 468.2L143.7 503.9Z" fill="white"/>
<path d="M247.2 532C245.6 532 244.3 530.7 244.3 529.1V436.4C244.3 434.8 245.6 433.5 247.2 433.5C248.8 433.5 250.1 434.8 250.1 436.4V529.1C250.1 530.7 248.8 532 247.2 532Z" fill="#396EAB"/>
<path d="M232.7 425.9V488.5C232.7 490.6 234.1 492.8 236.9 494.4C242.6 497.7 251.7 497.7 257.4 494.4C260.2 492.8 261.6 490.6 261.6 488.5V425.9H232.7Z" fill="url(#paint3_radial_2419_1012)"/>
<path d="M232.7 436.2V457.4C241.2 461.3 253.2 461.3 261.7 457.4V436.2C253.2 432.3 241.2 432.3 232.7 436.2Z" fill="#396EAB"/>
<path d="M270.7 338.6H223.7V436.8C223.7 440.3 226 443.7 230.6 446.4C239.8 451.7 254.7 451.7 263.8 446.4C268.4 443.8 270.7 440.3 270.7 436.8V338.6Z" fill="url(#paint4_radial_2419_1012)"/>
<path d="M243.1 479C243.1 481.9 241.1 483 238.6 481.6C236.1 480.2 234.1 476.7 234.1 473.8C234.1 470.9 236.1 469.8 238.6 471.2C241.1 472.6 243.1 476.1 243.1 479Z" fill="#D4E9F9"/>
<path d="M338.3 584.7C336.7 584.7 335.4 583.4 335.4 581.8V489.1C335.4 487.5 336.7 486.2 338.3 486.2C339.9 486.2 341.2 487.5 341.2 489.1V581.8C341.3 583.4 339.9 584.7 338.3 584.7Z" fill="#396EAB"/>
<path d="M323.8 478.6V541.2C323.8 543.3 325.2 545.5 328 547.1C333.7 550.4 342.8 550.4 348.5 547.1C351.3 545.5 352.7 543.3 352.7 541.2V478.6H323.8Z" fill="url(#paint5_radial_2419_1012)"/>
<path d="M323.8 488.9V510.1C332.3 514 344.3 514 352.8 510.1V488.9C344.3 485 332.3 485 323.8 488.9Z" fill="#396EAB"/>
<path d="M361.8 391.3H314.8V489.5C314.8 493 317.1 496.4 321.7 499.1C330.9 504.4 345.8 504.4 354.9 499.1C359.5 496.5 361.8 493 361.8 489.5V391.3Z" fill="url(#paint6_radial_2419_1012)"/>
<path d="M334.2 531.7C334.2 534.6 332.2 535.7 329.7 534.3C327.2 532.9 325.2 529.4 325.2 526.5C325.2 523.6 327.2 522.5 329.7 523.9C332.2 525.3 334.2 528.8 334.2 531.7Z" fill="#D4E9F9"/>
<path d="M157.1 267.6L219.5 231.7C219.5 231.7 217.2 267.5 217.2 267.6C217.2 267.7 181.4 278.7 181.4 278.7L157.1 267.6Z" fill="#5892CE"/>
<path d="M491.299 474.2C491.299 449 473.599 418.4 451.799 405.8C447.099 403.1 442.499 401.5 438.299 400.8C431.999 367.7 408.999 332.6 381.599 316.8C373.299 312 365.5 309.5 358.4 308.9C354.7 268.8 326.8 223.3 293 203.7C275.3 193.5 259.3 192.3 247.5 198.5L246.9 198.8C246.6 199 246.3 199.1 246 199.3L209.2 221L221.4 230.7C210.4 235.5 203.5 247.8 203.5 266C203.5 299.6 227.1 340.4 256.1 357.1L435.5 485.2L441 522.5L479.799 499.7C479.799 499.7 479.9 499.7 479.9 499.6L480.099 499.5C486.999 495.4 491.299 486.6 491.299 474.2Z" fill="#1A4B7E"/>
<path d="M205.2 251.3L289.7 202C273.3 193.5 258.5 192.7 247.4 198.6L246.8 198.9C246.5 199.1 246.2 199.2 245.9 199.4L209.1 221.1L221.3 230.8C213.7 234.1 208 241.2 205.2 251.3Z" fill="#5892CE"/>
<path d="M361.2 396.5L422.8 360.3C412.2 342 397.7 326.1 381.6 316.7C379.5 315.5 377.4 314.4 375.3 313.5L296.9 359.3L361.2 396.5Z" fill="#5892CE"/>
<path d="M226.5 225.2L254 241.1L304.299 211.5C300.599 208.6 296.9 206.1 293 203.8C286.9 200.3 281 197.9 275.4 196.4L226.5 225.2Z" fill="#D4E9F9"/>
<path d="M416 349.7L366.8 378.7L383.9 397.8L428.5 371.4C425.1 363.8 420.8 356.5 416 349.7Z" fill="#D4E9F9"/>
<path d="M413.2 428.5C408.5 425.8 403.9 424.2 399.7 423.5C393.4 390.4 370.4 355.3 343 339.5C334.7 334.7 326.9 332.2 319.8 331.6C316.1 291.5 288.2 246 254.4 226.4C218 205.4 188.5 222.4 188.5 264.4C188.5 265.8 188.5 267.3 188.6 268.7C162 256.4 141.2 270.3 141.2 301.8C141.2 335.4 164.8 376.2 193.8 392.9L413.3 519.6C435.1 532.2 452.8 522 452.8 496.8C452.7 471.8 435 441.1 413.2 428.5Z" fill="url(#paint7_linear_2419_1012)"/>
<path d="M188.5 268.8C188.4 267.4 188.4 265.9 188.4 264.5C188.4 264.4 188.4 264.4 188.4 264.3C173.7 258.6 161.1 261.1 153.1 270.2C161.8 263.2 174.3 262.2 188.5 268.8Z" fill="white"/>
<path d="M416.4 425.4C411.7 422.7 407.1 421.1 402.9 420.4C396.6 387.3 373.6 352.2 346.2 336.4C337.9 331.6 330.1 329.1 323 328.5C319.3 288.4 291.4 242.9 257.6 223.3C234.9 210.2 214.9 211.9 203.1 225.2C215.2 214.9 233.7 214.5 254.4 226.5C288.2 246 316.1 291.6 319.8 331.7C326.9 332.2 334.8 334.8 343 339.6C370.4 355.4 393.4 390.6 399.7 423.6C403.9 424.3 408.5 425.9 413.2 428.6C435 441.2 452.7 471.8 452.7 497C452.7 506.1 450.4 513.2 446.4 518C452.3 513.4 455.9 505.2 455.9 493.8C455.9 468.6 438.2 438 416.4 425.4Z" fill="white"/>
<path d="M183.9 278.8L200.4 286.4L199.6 268.2C199.5 266.9 199.5 265.7 199.5 264.4C199.5 248.2 204.4 236.4 213.3 231.3C222.2 226.2 234.8 227.8 248.9 235.9C279.1 253.3 305.4 295.8 308.9 332.5L309.8 341.8L319.1 342.5C324.8 342.9 331 345.1 337.6 348.9C361.6 362.7 383.2 394.9 389 425.4L390.5 433L398.2 434.2C401.3 434.7 404.5 435.9 407.9 437.9C426.3 448.5 441.9 475.5 441.9 496.8C441.9 504.8 439.7 510.6 435.8 512.8C432 515 425.8 514 418.9 510L199.2 383.5C173.7 368.8 152.1 331.4 152.1 301.9C152.1 290.3 155.5 281.5 161.5 277.7C163.9 276.1 166.9 275.4 170.2 275.4C174.3 275.4 178.9 276.6 183.9 278.8Z" fill="#0A8FCF"/>
<path d="M293.4 416.4L299.2 413.5L293.5 409.2L293.4 416.4Z" fill="#5892CE"/>
<path d="M276 338.2L281.6 335.3L281.7 338.3L276 338.2Z" fill="#5892CE"/>
<path d="M309.9 398.1L315.8 395.2L304.5 384.4L309.9 398.1Z" fill="#5892CE"/>
<path d="M297.5 413.3L270.1 397.2C268.7 396.4 267.6 394.3 267.6 392.6L267.7 360.9L300.1 380L300 411.7C300 413.4 298.9 414.1 297.5 413.3Z" fill="#5892CE"/>
<path d="M281.6 335.4L252 354.4C250.7 355.2 251.8 358.2 253.7 359.3L283.9 377.1L314.1 394.9C316 396 317 394.2 315.8 391.9L286.4 338.1C285.1 335.9 282.9 334.6 281.6 335.4Z" fill="#5892CE"/>
<path d="M291.6 416.3L264.2 400.2C262.8 399.4 261.7 397.3 261.7 395.6L261.8 363.9L294.2 383L294.1 414.7C294.2 416.3 293 417.1 291.6 416.3Z" fill="#D4E9F9"/>
<path d="M275.7 338.3L246.1 357.3C244.8 358.1 245.9 361.1 247.8 362.2L278 380L308.2 397.8C310.1 398.9 311.1 397.1 309.9 394.8L280.5 341C279.3 338.9 277 337.5 275.7 338.3Z" fill="#D4E9F9"/>
<path d="M411.9 712C411.4 712 410.9 711.9 410.4 711.6C409.5 711.1 408.9 710.1 408.9 709V670.5C408.9 669.4 409.5 668.4 410.4 667.9L443.8 648.6C444.7 648.1 445.9 648.1 446.8 648.6C447.7 649.1 448.3 650.1 448.3 651.2V689.7C448.3 690.8 447.7 691.8 446.8 692.3L413.4 711.6C413 711.9 412.4 712 411.9 712ZM414.9 672.2V703.8L442.2 688V656.4L414.9 672.2Z" fill="white"/>
<path d="M52.1 533.7L4 505.9L52.1 478.1L100.2 505.9L52.1 533.7Z" fill="#7EC1E8"/>
<path d="M52.0999 516.5C51.4999 516.5 50.7999 516.3 50.2999 516L2.19991 488.2C1.09991 487.5 0.399902 486.3 0.399902 485C0.399902 483.7 1.09991 482.5 2.19991 481.8L50.2999 454C51.3999 453.3 52.7999 453.3 53.9999 454L102.1 481.8C103.2 482.5 103.9 483.7 103.9 485C103.9 486.3 103.2 487.5 102.1 488.2L53.8999 516C53.3999 516.3 52.6999 516.5 52.0999 516.5ZM11.2999 485L52.0999 508.5L92.8999 485L52.0999 461.5L11.2999 485Z" fill="white"/>
<path d="M100.2 463.3L52.1001 491.1V435.6L100.2 407.8V463.3Z" fill="#1A4B7E"/>
<path d="M52.1 435.6L4 407.8L52.1 380L100.2 407.8L52.1 435.6Z" fill="url(#paint8_linear_2419_1012)"/>
<path d="M52.1 491.1L4 463.3V407.8L52.1 435.6V491.1Z" fill="#0A8FCF"/>
<path d="M34.7998 461.1L21.2998 453.3V437.8L34.7998 445.6V461.1Z" fill="white"/>
<path d="M548 680.5L499.9 652.8L548 625L596.1 652.8L548 680.5Z" fill="#7EC1E8"/>
<path d="M548 663.3C547.4 663.3 546.7 663.1 546.2 662.8L498.1 635C497 634.3 496.3 633.1 496.3 631.8C496.3 630.5 497 629.3 498.1 628.6L546.2 600.8C547.3 600.1 548.7 600.1 549.9 600.8L598 628.6C599.1 629.3 599.8 630.5 599.8 631.8C599.8 633.1 599.1 634.3 598 635L549.9 662.8C549.3 663.2 548.7 663.3 548 663.3ZM507.2 631.9L548 655.4L588.8 631.9L548 608.4L507.2 631.9Z" fill="white"/>
<path d="M596.1 610.2L548 638V582.4L596.1 554.7V610.2Z" fill="#1A4B7E"/>
<path d="M548 582.4L499.9 554.7L548 526.9L596.1 554.7L548 582.4Z" fill="url(#paint9_linear_2419_1012)"/>
<path d="M548 638L499.9 610.2V554.7L548 582.4V638Z" fill="#0A8FCF"/>
<path d="M530.7 608L517.2 600.2V584.7L530.7 592.4V608Z" fill="white"/>
<path d="M422.8 309.6L374.7 281.8L422.8 254L470.9 281.8L422.8 309.6Z" fill="#7EC1E8"/>
<path d="M422.8 292.4C422.2 292.4 421.5 292.2 421 291.9L372.9 264.1C371.8 263.4 371.1 262.2 371.1 260.9C371.1 259.6 371.8 258.4 372.9 257.7L421 230C422.1 229.3 423.5 229.3 424.7 230L472.8 257.8C473.9 258.5 474.6 259.7 474.6 261C474.6 262.3 473.9 263.5 472.8 264.2L424.7 292C424.1 292.2 423.5 292.4 422.8 292.4ZM382 260.9L422.8 284.4L463.6 260.9L422.8 237.4L382 260.9Z" fill="white"/>
<path d="M470.9 239.2L422.8 267V211.5L470.9 183.7V239.2Z" fill="#1A4B7E"/>
<path d="M422.8 211.5L374.7 183.7L422.8 155.9L470.9 183.7L422.8 211.5Z" fill="url(#paint10_linear_2419_1012)"/>
<path d="M422.8 267L374.7 239.2V183.7L422.8 211.5V267Z" fill="#0A8FCF"/>
<path d="M405.5 237L392.1 229.2V213.7L405.5 221.5V237Z" fill="white"/>
<defs>
<linearGradient id="paint0_linear_2419_1012" x1="514.721" y1="50.4709" x2="755.261" y2="197.027" gradientUnits="userSpaceOnUse">
<stop stop-color="#D4E9F9"/>
<stop offset="0.2389" stop-color="#D1E7F7"/>
<stop offset="0.4608" stop-color="#C5DFF3"/>
<stop offset="0.6758" stop-color="#B2D2ED"/>
<stop offset="0.8853" stop-color="#98C2E4"/>
<stop offset="1" stop-color="#87B8DF"/>
</linearGradient>
<linearGradient id="paint1_linear_2419_1012" x1="507.754" y1="262.685" x2="622.215" y2="244.971" gradientUnits="userSpaceOnUse">
<stop stop-color="#47419A"/>
<stop offset="1" stop-color="#5E52A3"/>
</linearGradient>
<linearGradient id="paint2_linear_2419_1012" x1="507.754" y1="262.685" x2="622.215" y2="244.971" gradientUnits="userSpaceOnUse">
<stop stop-color="#47419A"/>
<stop offset="1" stop-color="#5E52A3"/>
</linearGradient>
<radialGradient id="paint3_radial_2419_1012" cx="0" cy="0" r="1" gradientUnits="userSpaceOnUse" gradientTransform="translate(230.859 485.409) scale(27.1089 27.1089)">
<stop stop-color="#6A9CCF"/>
<stop offset="0.2089" stop-color="#6698CB"/>
<stop offset="0.5041" stop-color="#5A8AC1"/>
<stop offset="0.8489" stop-color="#4577B2"/>
<stop offset="1" stop-color="#396EAB"/>
</radialGradient>
<radialGradient id="paint4_radial_2419_1012" cx="0" cy="0" r="1" gradientUnits="userSpaceOnUse" gradientTransform="translate(215.698 456.31) scale(42.8649 42.8649)">
<stop stop-color="#6A9CCF"/>
<stop offset="0.2089" stop-color="#6698CB"/>
<stop offset="0.5041" stop-color="#5A8AC1"/>
<stop offset="0.8489" stop-color="#4577B2"/>
<stop offset="1" stop-color="#396EAB"/>
</radialGradient>
<radialGradient id="paint5_radial_2419_1012" cx="0" cy="0" r="1" gradientUnits="userSpaceOnUse" gradientTransform="translate(322.012 538.097) scale(27.1089 27.1089)">
<stop stop-color="#6A9CCF"/>
<stop offset="0.2089" stop-color="#6698CB"/>
<stop offset="0.5041" stop-color="#5A8AC1"/>
<stop offset="0.8489" stop-color="#4577B2"/>
<stop offset="1" stop-color="#396EAB"/>
</radialGradient>
<radialGradient id="paint6_radial_2419_1012" cx="0" cy="0" r="1" gradientUnits="userSpaceOnUse" gradientTransform="translate(306.85 508.999) scale(42.8649 42.8649)">
<stop stop-color="#6A9CCF"/>
<stop offset="0.2089" stop-color="#6698CB"/>
<stop offset="0.5041" stop-color="#5A8AC1"/>
<stop offset="0.8489" stop-color="#4577B2"/>
<stop offset="1" stop-color="#396EAB"/>
</radialGradient>
<linearGradient id="paint7_linear_2419_1012" x1="141.113" y1="371.328" x2="452.709" y2="371.328" gradientUnits="userSpaceOnUse">
<stop stop-color="#D4E9F9"/>
<stop offset="0.2389" stop-color="#D1E7F7"/>
<stop offset="0.4608" stop-color="#C5DFF3"/>
<stop offset="0.6758" stop-color="#B2D2ED"/>
<stop offset="0.8853" stop-color="#98C2E4"/>
<stop offset="1" stop-color="#87B8DF"/>
</linearGradient>
<linearGradient id="paint8_linear_2419_1012" x1="3.9979" y1="407.804" x2="130.86" y2="407.804" gradientUnits="userSpaceOnUse">
<stop stop-color="#D4E9F9"/>
<stop offset="0.2389" stop-color="#D1E7F7"/>
<stop offset="0.4608" stop-color="#C5DFF3"/>
<stop offset="0.6758" stop-color="#B2D2ED"/>
<stop offset="0.8853" stop-color="#98C2E4"/>
<stop offset="1" stop-color="#87B8DF"/>
</linearGradient>
<linearGradient id="paint9_linear_2419_1012" x1="499.916" y1="554.658" x2="626.778" y2="554.658" gradientUnits="userSpaceOnUse">
<stop stop-color="#D4E9F9"/>
<stop offset="0.2389" stop-color="#D1E7F7"/>
<stop offset="0.4608" stop-color="#C5DFF3"/>
<stop offset="0.6758" stop-color="#B2D2ED"/>
<stop offset="0.8853" stop-color="#98C2E4"/>
<stop offset="1" stop-color="#87B8DF"/>
</linearGradient>
<linearGradient id="paint10_linear_2419_1012" x1="374.729" y1="183.688" x2="501.591" y2="183.688" gradientUnits="userSpaceOnUse">
<stop stop-color="#D4E9F9"/>
<stop offset="0.2389" stop-color="#D1E7F7"/>
<stop offset="0.4608" stop-color="#C5DFF3"/>
<stop offset="0.6758" stop-color="#B2D2ED"/>
<stop offset="0.8853" stop-color="#98C2E4"/>
<stop offset="1" stop-color="#87B8DF"/>
</linearGradient>
</defs>
</svg>
