<svg width="766" height="865" viewBox="0 0 766 865" fill="none" xmlns="http://www.w3.org/2000/svg">
<g opacity="0.45">
<path d="M413.6 63.5C434.5 91 463 113.3 497.8 126.4C546.2 144.6 585 129.1 642.7 150.8C740.7 187.7 790.2 297 753.4 395.1C731 454.6 681.9 496 624.9 511.3C624.9 511.7 535.7 528.6 503.2 615.1C489 652.9 492.1 684.2 477.8 722.2C434.9 836.1 307.9 893.7 194 850.8C80 807.9 22.4 680.9 65.3 567C82.1 522.4 113.9 502.6 134.3 448.4C154.4 395.1 144.7 337.9 113.6 294.9C113.8 294.7 57.1 224.9 95.1 123.9C132 25.9 241.3 -23.7 339.4 13.2C368.7 24.2 393.5 41.8 413.1 63.5C413.3 63.5 413.5 63.5 413.6 63.5Z" fill="#ECF2FA"/>
<path d="M110.4 409.5C114.6 369.4 88.3 333.7 51.6 329.9C14.9 326.1 6.30002 359.6 2.10002 399.7C-2.09998 439.8 -0.299999 471.4 36.4 475.2C73.1 479.1 106.2 449.6 110.4 409.5Z" fill="#ECF2FA"/>
</g>
<path d="M471.5 182.6C488 182.6 501.5 196.1 501.5 212.6L501.7 650.7C501.7 667.2 488.3 680.7 471.7 680.7L275.8 680.8C259.3 680.8 245.8 667.4 245.8 650.8L245.6 212.7C245.6 196.1 259 182.7 275.6 182.7L471.5 182.6Z" fill="#EBEBEB"/>
<path d="M247.3 650.8C247.3 666.5 260.2 679.4 275.9 679.4L471.8 679.3C487.5 679.3 500.4 666.4 500.4 650.7L500.2 212.6C500.2 196.9 487.3 184 471.6 184L275.7 184.1C260 184.1 247.1 197 247.1 212.7L247.3 650.8Z" fill="#0A8FCF"/>
<path d="M255.4 642.1L492.1 642L491.9 221.3L255.2 221.4L255.4 642.1Z" fill="white"/>
<path d="M279 77.6C280.2 77.3 280.8 77.2 282.4 77.2H282.5H282.6C284.2 77.2 284.8 77.2 286 77.6C286.9 77.8 287.6 78.0999 288.4 78.3999C288.4 78.1999 288.5 78 288.5 77.8V73.6C288.5 70.3 285.8 67.7 282.6 67.7C279.3 67.7 276.7 70.4 276.7 73.6V77.8C276.7 78 276.7 78.1999 276.8 78.3999C277.4 78.0999 278.1 77.8 279 77.6Z" fill="#F05762"/>
<path d="M282.6 129C282.5 129 282.4 129 282.4 129H272.9V129.7C272.9 134.7 277.2 138.7 282.5 138.7C287.8 138.7 292.2 134.7 292.2 129.7V129H282.6Z" fill="#F05762"/>
<path d="M307 124.5C305.2 122.5 301.6 118 301.6 118C301.6 118 301.6 101.5 301.6 96.8C301.6 88.7 297.8 80.6 286 77.6C284.8 77.3 284.2 77.2 282.6 77.2H282.5H282.4C280.8 77.2 280.2 77.2 279 77.6C267.2 80.6 263.4 88.7 263.4 96.8C263.4 101.5 263.4 118 263.4 118C263.4 118 259.9 122.5 258 124.5C256.2 126.5 256.3 129.1 259.5 129.1H282.3C282.3 129.1 282.4 129.1 282.5 129.1H305.3C308.7 129 308.8 126.4 307 124.5Z" fill="url(#paint0_linear_2419_1414)"/>
<path opacity="0.3" d="M301.6 118C301.6 118 301.6 101.5 301.6 96.7999C301.6 89.6999 298.7 82.5999 290 78.8999C291.8 80.5999 298 86.7999 298 94.2999V110C298 113.5 295.4 119 285.9 119C285 119 285.1 119.8 285.9 119.8H303.2C302.3 118.8 301.6 118 301.6 118Z" fill="url(#paint1_linear_2419_1414)"/>
<path d="M284.5 156.1C284.5 157.2 283.6 158.1 282.5 158.1C281.4 158.1 280.6 157.2 280.6 156.1V146.5C280.6 145.4 281.5 144.6 282.5 144.6C283.6 144.6 284.5 145.5 284.5 146.5V156.1Z" fill="url(#paint2_linear_2419_1414)"/>
<path d="M302.6 149C303.4 149.8 303.4 151 302.6 151.8C301.8 152.6 300.6 152.6 299.8 151.8L293 145C292.2 144.2 292.2 143 293 142.2C293.8 141.4 295 141.4 295.8 142.2L302.6 149Z" fill="url(#paint3_linear_2419_1414)"/>
<path d="M262.5 149C261.7 149.8 261.7 151 262.5 151.8C263.3 152.6 264.5 152.6 265.3 151.8L272.1 145C272.9 144.2 272.9 143 272.1 142.2C271.3 141.4 270.1 141.4 269.3 142.2L262.5 149Z" fill="url(#paint4_linear_2419_1414)"/>
<path d="M189.7 751.6C189.7 757.7 194.7 762.7 200.8 762.7C206.9 762.7 211.9 757.7 211.9 751.6C211.9 745.5 206.9 740.5 200.8 740.5C194.7 740.5 189.7 745.5 189.7 751.6ZM194.3 751.6C194.3 748 197.2 745 200.8 745C204.4 745 207.4 747.9 207.4 751.6C207.4 755.2 204.5 758.2 200.8 758.2C197.2 758.2 194.3 755.2 194.3 751.6Z" fill="#0A8FCF"/>
<path d="M446.3 63.1C446.3 69.7 451.7 75 458.2 75C464.8 75 470.1 69.7 470.1 63.1C470.1 56.5 464.7 51.2 458.2 51.2C451.7 51.2 446.3 56.5 446.3 63.1ZM451.2 63.1C451.2 59.2 454.4 56.1 458.2 56.1C462.1 56.1 465.2 59.3 465.2 63.1C465.2 67 462 70.1 458.2 70.1C454.3 70.1 451.2 67 451.2 63.1Z" fill="#0A8FCF"/>
<path d="M214.9 168.4H208.2V161.7C208.2 160.2 207 159 205.5 159C204 159 202.8 160.2 202.8 161.7V168.4H196.1C194.6 168.4 193.4 169.6 193.4 171.1C193.4 172.6 194.6 173.8 196.1 173.8H202.8V180.5C202.8 182 204 183.2 205.5 183.2C207 183.2 208.2 182 208.2 180.5V173.8H214.9C216.4 173.8 217.6 172.6 217.6 171.1C217.6 169.6 216.4 168.4 214.9 168.4Z" fill="#0A8FCF"/>
<path d="M706.4 522.4H699.7V515.7C699.7 514.2 698.5 513 697 513C695.5 513 694.3 514.2 694.3 515.7V522.4H687.6C686.1 522.4 684.9 523.6 684.9 525.1C684.9 526.6 686.1 527.8 687.6 527.8H694.3V534.5C694.3 536 695.5 537.2 697 537.2C698.5 537.2 699.7 536 699.7 534.5V527.8H706.4C707.9 527.8 709.1 526.6 709.1 525.1C709.1 523.6 707.9 522.4 706.4 522.4Z" fill="#0A8FCF"/>
<path d="M52 380.1L64.8 358C65.2 357.3 65.2 356.4 64.8 355.6C64.4 354.9 63.6 354.4 62.8 354.4H37.3C36.5 354.4 35.7 354.8 35.3 355.6C34.9 356.3 34.9 357.2 35.3 358L48.1 380.1C48.5 380.8 49.3 381.3 50.2 381.3C50.8 381.3 51.6 380.8 52 380.1ZM49.9 374.2C47.6 370.2 43.6 363.2 41.2 359.2C45.9 359.2 53.9 359.2 58.5 359.2C56.3 363.2 52.3 370.1 49.9 374.2Z" fill="#0A8FCF"/>
<path d="M694.4 199.1C693.5 200 693.5 201.5 694.4 202.5L708.3 216.4C709.2 217.3 710.7 217.3 711.7 216.4L725.6 202.5C726.5 201.6 726.5 200.1 725.6 199.1L711.7 185.2C710.8 184.3 709.3 184.3 708.3 185.2L694.4 199.1ZM710 190.2C712.2 192.4 718.3 198.5 720.5 200.7C718.3 202.9 712.2 209 710 211.2C707.8 209 701.7 202.9 699.5 200.7C701.6 198.5 707.7 192.4 710 190.2Z" fill="#0A8FCF"/>
<path opacity="0.2" d="M456.257 236.806C456.823 234.613 455.505 232.377 453.312 231.811C451.12 231.244 448.884 232.563 448.317 234.755C447.751 236.947 449.069 239.184 451.262 239.75C453.454 240.316 455.69 238.998 456.257 236.806Z" fill="#0A8FCF"/>
<path opacity="0.2" d="M469.23 237.379C470.096 235.287 469.103 232.889 467.011 232.022C464.919 231.156 462.52 232.149 461.654 234.241C460.787 236.333 461.781 238.732 463.873 239.598C465.965 240.465 468.363 239.471 469.23 237.379Z" fill="#0A8FCF"/>
<path opacity="0.2" d="M481.703 238.457C483.186 236.745 483 234.156 481.289 232.674C479.577 231.191 476.988 231.377 475.505 233.089C474.023 234.8 474.208 237.39 475.92 238.872C477.632 240.354 480.221 240.169 481.703 238.457Z" fill="#0A8FCF"/>
<path opacity="0.2" d="M265 235.2C265 237 266.5 238.5 268.3 238.5H289.2C291 238.5 292.5 237 292.5 235.2C292.5 233.4 291 231.9 289.2 231.9H268.3C266.5 231.9 265 233.4 265 235.2Z" fill="#0A8FCF"/>
<path opacity="0.2" d="M300.2 235.2C300.2 237 301.7 238.5 303.5 238.5H324.4C326.2 238.5 327.7 237 327.7 235.2C327.7 233.4 326.2 231.9 324.4 231.9H303.5C301.7 231.9 300.2 233.4 300.2 235.2Z" fill="#0A8FCF"/>
<path opacity="0.3" fill-rule="evenodd" clip-rule="evenodd" d="M370.5 451.8C386.1 450.4 398.9 455.2 407.8 462.6C410.3 464.7 413.5 467.2 412.4 470.9C411.9 472.7 410 473.5 408.7 473.7C404.8 474.1 403.5 471 401.3 469.4C394.8 464.6 387.5 460.8 375.8 460.8C364.2 460.8 356.9 464.5 350.2 469.4C348.1 470.9 346.5 473.9 343.1 473.7C340.9 473.6 339 472.2 338.8 469.7C338.5 466.5 341.6 464.5 344 462.6C351 457 359.9 452.7 370.5 451.8Z" fill="#0A8FCF"/>
<path opacity="0.3" fill-rule="evenodd" clip-rule="evenodd" d="M371.8 466.9C379.9 466 387.5 467.9 393.4 471.2C397.6 473.6 403 476.7 402.6 481.1C402.4 483.2 400.9 484.8 399.2 485.1C395.4 485.8 395.3 484 393.7 482.6C390 479.6 384.8 476.4 378.3 475.8C368.4 474.9 363.1 478.7 358.3 482.6C356.7 483.9 355.7 485.4 352.8 485.1C350.7 484.9 348.9 482.8 348.8 480.8C348.7 477.8 352.6 475 354.3 473.7C359.2 470 364.1 467.7 371.8 466.9Z" fill="#0A8FCF"/>
<path opacity="0.3" fill-rule="evenodd" clip-rule="evenodd" d="M372.5 481.9C378 481.1 383.5 482.3 387.6 485C390 486.6 393.1 489 392.8 492.1C392.6 494.6 390.7 496.3 388.5 496.4C385.3 496.5 383.9 492.8 380.2 491.5C377.2 490.4 373.6 490.9 371.3 491.8C368 493.1 366.2 496.4 363.6 496.4C361 496.4 358.7 494.1 358.7 491.8C358.4 486.7 367.9 482.6 372.5 481.9Z" fill="#0A8FCF"/>
<path opacity="0.3" fill-rule="evenodd" clip-rule="evenodd" d="M381 502.9C381 505.8 378.6 508.2 375.7 508.2C372.8 508.2 370.4 505.8 370.4 502.9C370.4 500 372.8 497.6 375.7 497.6C378.6 497.6 381 500 381 502.9Z" fill="#0A8FCF"/>
<path fill-rule="evenodd" clip-rule="evenodd" d="M424 572.6C424 584.4 414.4 593.9 402.7 593.9H344.9C333.1 593.9 323.6 584.3 323.6 572.6V566.2C323.6 554.4 333.2 544.9 344.9 544.9H402.7C414.5 544.9 424 554.5 424 566.2V572.6Z" fill="#0A8FCF"/>
<path d="M361.2 557V573.6C361.2 575 361 576.3 360.5 577.3C360 578.4 359.4 579.3 358.5 580C357.7 580.7 356.7 581.3 355.6 581.6C354.5 582 353.3 582.1 352 582.1C350.7 582.1 349.4 581.9 348.3 581.6C347.2 581.2 346.2 580.7 345.4 580C344.6 579.3 343.9 578.4 343.5 577.3C343 576.2 342.8 575 342.8 573.6V557H347.1V573.6C347.1 574.5 347.2 575.3 347.5 575.9C347.7 576.5 348.1 577.1 348.5 577.5C348.9 577.9 349.5 578.2 350.1 578.4C350.7 578.6 351.4 578.7 352.2 578.7C353 578.7 353.7 578.6 354.3 578.4C354.9 578.2 355.4 577.9 355.9 577.5C356.3 577.1 356.7 576.5 356.9 575.9C357.1 575.3 357.3 574.5 357.3 573.6V557H361.2Z" fill="white"/>
<path d="M379.6 575.4C379.6 574.9 379.5 574.5 379.4 574.1C379.3 573.7 379 573.4 378.6 573C378.2 572.7 377.7 572.4 377 572.1C376.3 571.8 375.4 571.5 374.3 571.2C373.1 570.8 372 570.4 371 570C370 569.5 369.1 569 368.4 568.4C367.7 567.8 367.1 567.1 366.7 566.3C366.3 565.5 366.1 564.6 366.1 563.6C366.1 562.6 366.3 561.7 366.7 560.8C367.1 560 367.7 559.2 368.5 558.6C369.3 558 370.2 557.5 371.3 557.2C372.4 556.9 373.6 556.7 374.9 556.7C376.3 556.7 377.6 556.9 378.7 557.3C379.8 557.7 380.8 558.3 381.5 558.9C382.3 559.6 382.9 560.4 383.3 561.3C383.7 562.2 383.9 563.2 383.9 564.2H379.6C379.6 563.6 379.5 563 379.3 562.5C379.1 562 378.8 561.6 378.4 561.2C378 560.8 377.5 560.5 376.9 560.3C376.3 560.1 375.6 560 374.8 560C374 560 373.4 560.1 372.8 560.3C372.2 560.5 371.8 560.7 371.4 561C371 561.3 370.8 561.7 370.6 562.1C370.4 562.5 370.3 563 370.3 563.5C370.3 564.4 370.7 565.2 371.6 565.8C372.5 566.4 373.8 567 375.6 567.5C377 567.9 378.2 568.4 379.2 568.9C380.2 569.4 381.1 570 381.7 570.6C382.4 571.2 382.9 571.9 383.2 572.7C383.5 573.5 383.7 574.4 383.7 575.4C383.7 576.4 383.5 577.4 383.1 578.2C382.7 579 382.1 579.7 381.3 580.3C380.5 580.9 379.6 581.3 378.5 581.6C377.4 581.9 376.2 582.1 374.9 582.1C373.7 582.1 372.5 581.9 371.4 581.6C370.2 581.3 369.2 580.8 368.3 580.1C367.4 579.4 366.6 578.6 366.1 577.7C365.5 576.7 365.3 575.6 365.3 574.3H369.6C369.6 575.1 369.7 575.8 370 576.3C370.3 576.9 370.7 577.3 371.1 577.7C371.6 578.1 372.2 578.3 372.8 578.5C373.5 578.7 374.2 578.7 374.9 578.7C376.4 578.7 377.5 578.4 378.3 577.8C379.2 577.3 379.6 576.4 379.6 575.4Z" fill="white"/>
<path d="M403.1 570.8H392.9V578.4H404.8V581.8H388.6V557H404.7V560.5H392.9V567.4H403.1V570.8Z" fill="white"/>
<path d="M617.6 339.2L636.8 305.9H632.2V221.6C632.2 220.4 631.2 219.5 630.1 219.5C628.9 219.5 628 220.5 628 221.6V309.9C628 311.1 627 312 625.9 312C624.7 312 623.8 311.1 623.8 309.9V211.4C623.8 210.2 622.8 209.3 621.7 209.3C620.5 209.3 619.6 210.3 619.6 211.4V302.1C619.6 303.3 618.6 304.2 617.5 304.2C616.3 304.2 615.4 303.2 615.4 302.1V215.7C615.4 214.5 614.5 213.6 613.3 213.6C612.1 213.6 611.2 214.6 611.2 215.7V309.7C611.2 310.9 610.2 311.8 609.1 311.8C607.9 311.8 607 310.8 607 309.7L607.1 234C607.1 232.8 606.1 231.9 605 231.9C603.8 231.9 602.9 232.9 602.9 234V306H598.4L617.6 339.2Z" fill="#0A8FCF"/>
<path d="M611 208.6C611 207.4 612 206.4 613.2 206.4C614.4 206.4 615.4 207.4 615.4 208.6C615.4 209.8 614.4 210.8 613.2 210.8C612 210.7 611 209.8 611 208.6Z" fill="#0A8FCF"/>
<path d="M619.7 200.1C619.7 198.9 620.6 198 621.8 198C623 198 623.9 198.9 623.9 200.1V204.5C623.9 205.7 623 206.6 621.8 206.6C620.6 206.6 619.7 205.7 619.7 204.5V200.1Z" fill="#0A8FCF"/>
<path d="M602.9 225C602.9 223.8 603.8 222.9 605 222.9C606.2 222.9 607.1 223.8 607.1 225V227.6C607.1 228.8 606.2 229.7 605 229.7C603.8 229.7 602.9 228.8 602.9 227.6V225Z" fill="#0A8FCF"/>
<path d="M569.4 160.7L550.2 194H554.8V278.3C554.8 279.5 555.8 280.4 556.9 280.4C558.1 280.4 559 279.4 559 278.3V190C559 188.8 560 187.9 561.1 187.9C562.3 187.9 563.2 188.8 563.2 190V288.5C563.2 289.7 564.2 290.6 565.3 290.6C566.5 290.6 567.4 289.6 567.4 288.5V197.8C567.4 196.6 568.4 195.7 569.5 195.7C570.7 195.7 571.6 196.7 571.6 197.8V284.2C571.6 285.4 572.5 286.3 573.7 286.3C574.9 286.3 575.8 285.3 575.8 284.2V190.2C575.8 189 576.8 188.1 577.9 188.1C579.1 188.1 580 189.1 580 190.2L579.9 265.9C579.9 267.1 580.9 268 582 268C583.2 268 584.1 267 584.1 265.9V193.9H588.6L569.4 160.7Z" fill="#0A8FCF"/>
<path d="M576 291.3C576 292.5 575 293.5 573.8 293.5C572.6 293.5 571.6 292.5 571.6 291.3C571.6 290.1 572.6 289.1 573.8 289.1C575.1 289.2 576 290.2 576 291.3Z" fill="#0A8FCF"/>
<path d="M567.4 299.9C567.4 301.1 566.5 302 565.3 302C564.1 302 563.2 301.1 563.2 299.9V295.5C563.2 294.3 564.1 293.4 565.3 293.4C566.5 293.4 567.4 294.3 567.4 295.5V299.9Z" fill="#0A8FCF"/>
<path d="M584.2 274.9C584.2 276.1 583.3 277 582.1 277C580.9 277 580 276.1 580 274.9V272.3C580 271.1 580.9 270.2 582.1 270.2C583.3 270.2 584.2 271.1 584.2 272.3V274.9Z" fill="#0A8FCF"/>
<path d="M84.8 507.5L76.7 517L68.5 507.5L76.7 498.1L84.8 507.5Z" fill="#0A8FCF"/>
<path d="M66.8002 525.9L63.0002 530.4L59.2002 525.9L63.0002 521.5L66.8002 525.9Z" fill="#0A8FCF"/>
<path d="M92.0002 528.8L86.8002 534.8L81.7002 528.8L86.8002 522.8L92.0002 528.8Z" fill="#0A8FCF"/>
<path d="M353.8 781.6L345.7 791.1L337.5 781.6L345.7 772.1L353.8 781.6Z" fill="#0A8FCF"/>
<path d="M309.2 773.4L305.4 777.8L301.6 773.4L305.4 769L309.2 773.4Z" fill="#0A8FCF"/>
<path d="M540.3 319.5L535.2 325.5L530 319.5L535.2 313.5L540.3 319.5Z" fill="#0A8FCF"/>
<path d="M707.8 307.7L702.7 313.7L697.5 307.7L702.7 301.7L707.8 307.7Z" fill="#0A8FCF"/>
<path d="M641.8 608.4L636.7 614.4L631.5 608.4L636.7 602.4L641.8 608.4Z" fill="#0A8FCF"/>
<path d="M607.5 401C607.5 426 587.3 446.2 562.2 446.2C537.2 446.2 517 425.9 517 401C517 376 537.3 355.8 562.2 355.8C587.2 355.7 607.5 376 607.5 401Z" fill="#01B8A4"/>
<path d="M587.2 390.7L577.4 396.4V391.4C577.4 387.9 574.5 385 571 385H541.7C538.2 385 535.3 387.9 535.3 391.4V410.7C535.3 414.2 538.2 417.1 541.7 417.1H571C574.5 417.1 577.4 414.2 577.4 410.7V405.7L587.2 411.4C589.5 412.8 591.4 413.5 591.4 410.8V391.6C591.4 388.8 589.5 389.3 587.2 390.7Z" fill="white"/>
<path d="M378.1 397.7C373 399.4 367.5 396.6 365.8 391.5C364.1 386.4 366.9 380.9 372 379.2C377.1 377.5 478.2 363.7 478.2 363.7C478.2 363.7 383.2 396.1 378.1 397.7Z" fill="#404040"/>
<path d="M438.6 351.4L465.1 337.4C457.1 323.4 446 311.5 432.7 302.5L416.6 327.7C425.2 334.2 432.7 342.2 438.6 351.4Z" fill="#A81F23"/>
<path d="M289.6 329.9L300.4 336.9C309.7 327.4 320.9 320 333.4 315.3L324.3 298.2C310.5 306 298.6 316.9 289.6 329.9Z" fill="#EE6D23"/>
<path d="M428.3 299.7C413.4 290.8 396.1 285.5 377.6 285V311C390.2 313 402 317.8 412.3 324.7L428.3 299.7Z" fill="#D1202B"/>
<path d="M271.5 385.5H275.4C278.6 368.5 286.1 353.2 296.9 340.8L286.8 334.3C277.6 349.2 272.1 366.7 271.5 385.5Z" fill="#FEC610"/>
<path d="M271.5 390.7C271.7 398 272.6 405.2 274.2 412.1C273.9 409.2 273.8 406.3 273.8 403.3C273.8 399 274.1 394.8 274.6 390.7H271.5Z" fill="#EAE73E"/>
<path d="M338.4 313.6C346.4 311.2 354.9 309.8 363.7 309.8C366.6 309.8 369.5 310 372.4 310.2V285C356.8 285.4 342.1 289.2 328.9 295.8L338.4 313.6Z" fill="#EC3B24"/>
<path d="M474.3 359.1C472.5 353.1 470.3 347.3 467.5 341.9L441.3 355.8C442.8 358.4 444.1 361 445.3 363.7L474.3 359.1Z" fill="#8D191B"/>
<path d="M380.5 388.6C380.5 391.7 378 394.3 374.8 394.3C371.7 394.3 369.1 391.8 369.1 388.6C369.1 385.5 371.6 382.9 374.8 382.9C378 382.9 380.5 385.5 380.5 388.6Z" fill="#B2B2B2"/>
<path d="M290.2 396.2L292.7 375.6H316.3V382.9H300.3L299.4 390.9C299.6 390.8 299.9 390.6 300.3 390.5C300.7 390.3 301.1 390.2 301.7 390C302.2 389.8 302.8 389.7 303.4 389.6C304 389.5 304.6 389.4 305.3 389.4C307.3 389.4 309.1 389.7 310.6 390.3C312.2 390.9 313.5 391.8 314.5 392.9C315.6 394.1 316.4 395.5 316.9 397.2C317.5 398.9 317.7 400.8 317.7 403C317.7 404.7 317.4 406.4 316.9 408.1C316.3 409.7 315.5 411.2 314.3 412.4C313.2 413.7 311.7 414.7 309.9 415.4C308.1 416.2 306.1 416.5 303.7 416.5C301.9 416.5 300.1 416.2 298.4 415.7C296.7 415.1 295.2 414.3 293.8 413.3C292.5 412.3 291.4 411 290.6 409.5C289.8 408 289.4 406.3 289.4 404.5H298.8C298.9 406 299.4 407.2 300.2 408C301.1 408.9 302.2 409.3 303.6 409.3C304.5 409.3 305.3 409.1 305.9 408.7C306.5 408.3 307 407.8 307.4 407.2C307.8 406.6 308 405.8 308.2 405C308.3 404.1 308.4 403.2 308.4 402.3C308.4 401.3 308.3 400.4 308.1 399.6C307.9 398.8 307.5 398.1 307.1 397.6C306.7 397.1 306 396.6 305.3 396.3C304.6 396 303.7 395.8 302.7 395.8C302 395.8 301.4 395.9 300.9 396C300.4 396.1 299.9 396.3 299.5 396.5C299.1 396.7 298.8 396.9 298.5 397.2C298.2 397.4 298 397.7 297.8 397.9L290.2 396.2Z" fill="#404040"/>
<path d="M354.7 411C354.2 411.6 353.5 412.2 352.5 412.8C351.6 413.4 350.4 414 349.1 414.6C347.8 415.2 346.2 415.6 344.5 416C342.8 416.4 340.8 416.5 338.6 416.5C335.9 416.5 333.5 416.1 331.3 415.2C329.1 414.3 327.3 413.1 325.7 411.4C324.1 409.7 322.9 407.7 322.1 405.3C321.3 402.9 320.8 400.1 320.8 396.9V394.7C320.8 391.6 321.2 388.8 322.1 386.3C323 383.9 324.1 381.8 325.7 380.1C327.2 378.4 329 377.2 331.2 376.3C333.3 375.4 335.6 375 338.1 375C340.9 375 343.3 375.3 345.3 376C347.3 376.7 349 377.6 350.3 378.8C351.6 380 352.6 381.5 353.4 383.2C354.1 384.9 354.6 386.7 354.8 388.8H345.4C345.3 387.8 345 386.9 344.7 386.1C344.4 385.3 344 384.7 343.4 384.1C342.9 383.6 342.2 383.2 341.4 382.9C340.6 382.6 339.6 382.5 338.5 382.5C337.3 382.5 336.3 382.8 335.3 383.3C334.3 383.8 333.5 384.6 332.9 385.6C332.2 386.6 331.7 387.9 331.4 389.4C331 390.9 330.9 392.7 330.9 394.7V397C330.9 401 331.6 404.1 333 406.1C334.4 408.1 336.5 409.1 339.5 409.1C340.3 409.1 341 409 341.6 408.9C342.2 408.8 342.7 408.7 343.2 408.5C343.7 408.3 344.1 408.1 344.4 407.9C344.7 407.7 345 407.5 345.2 407.3V401H338.4V394.3H354.9V411H354.7Z" fill="#404040"/>
<path opacity="0.2" d="M149.3 283.5L108 355.1H117.8V487.4C117.8 489.9 119.8 492 122.4 492C124.9 492 127 490 127 487.4L126.9 346.7C126.9 344.2 128.9 342.1 131.5 342.1C134 342.1 136.1 344.1 136.1 346.7L136 509.4C136 511.9 138 514 140.6 514C143.1 514 145.2 512 145.2 509.4L145.1 363.4C145.1 360.9 147.1 358.8 149.7 358.8C152.2 358.8 154.3 360.9 154.3 363.4L153.9 500C153.9 502.5 155.9 504.6 158.5 504.6C161 504.6 163.1 502.6 163.1 500L163 347C163 344.5 165 342.4 167.6 342.4C170.1 342.4 172.2 344.4 172.2 347L172 460.8C172 463.3 174 465.4 176.6 465.4C179.1 465.4 181.2 463.3 181.2 460.8V355.1H190.8L149.3 283.5Z" fill="#0A8FCF"/>
<path opacity="0.2" d="M163.5 515.2C163.5 517.8 161.4 519.8 158.9 519.8C156.4 519.8 154.3 517.7 154.3 515.2C154.3 512.6 156.4 510.6 158.9 510.6C161.4 510.6 163.5 512.6 163.5 515.2Z" fill="#0A8FCF"/>
<path opacity="0.2" d="M144.9 533.5C144.9 536 142.9 538 140.4 538C137.9 538 135.9 536 135.9 533.5V524C135.9 521.5 137.9 519.5 140.4 519.5C142.9 519.5 144.9 521.5 144.9 524V533.5Z" fill="#0A8FCF"/>
<path opacity="0.2" d="M181 479.8C181 482.3 179 484.3 176.5 484.3C174 484.3 172 482.3 172 479.8V474.2C172 471.7 174 469.6 176.5 469.6C179 469.6 181 471.6 181 474.2V479.8Z" fill="#0A8FCF"/>
<path d="M180 357.3L201.2 363C202.8 356.7 203.8 341 203.8 333.8C203.8 303 184.4 281.4 184.4 281.4C184.4 281.4 165 303.1 165 333.8C165 340.9 166 351 167.6 357.3H180Z" fill="#0A8FCF"/>
<path opacity="0.3" d="M165.1 333.8C165.1 340.9 166.1 351 167.7 357.3H180L185.1 358.7C190.8 327.8 190 300 189.3 287.9C186.5 283.7 184.5 281.4 184.5 281.4C184.5 281.4 165.1 303 165.1 333.8Z" fill="#BCA1C8"/>
<path d="M118.6 357.3L97.3998 363C95.7998 356.7 94.7998 341 94.7998 333.8C94.7998 303 114.2 281.4 114.2 281.4C114.2 281.4 133.6 303.1 133.6 333.8C133.6 340.9 132.6 351 131 357.3H118.6Z" fill="#0A8FCF"/>
<path opacity="0.3" d="M133.5 333.8C133.5 340.9 132.5 351 130.9 357.3H118.6L113.5 358.7C107.8 327.8 108.6 300 109.3 287.9C112.1 283.7 114.1 281.4 114.1 281.4C114.1 281.4 133.5 303 133.5 333.8Z" fill="#BCA1C8"/>
<path d="M171.4 372.1C171.4 404.5 149.3 430.8 149.3 430.8C149.3 430.8 127.2 404.5 127.2 372.1C127.2 339.7 149.3 341.6 149.3 341.6C149.3 341.6 171.4 339.7 171.4 372.1Z" fill="#0A8FCF"/>
<path d="M149.5 345.9H149.3H149.1C148.9 345.9 143.9 345.6 139.6 349.5C135.5 353.3 133.4 359.8 133.4 368.7C133.4 389.3 144.8 407.1 149.3 413.3C153.8 407.1 165.2 389.3 165.2 368.7C165.2 359.8 163.1 353.3 159 349.5C154.7 345.6 149.7 345.9 149.5 345.9Z" fill="url(#paint5_linear_2419_1414)"/>
<path d="M180.1 357.3C183 341 185 314.7 185 296.1C185 215.9 149.4 159.4 149.4 159.4C149.4 159.4 113.8 215.9 113.8 296.1C113.8 314.7 115.7 341 118.7 357.3H180.1Z" fill="url(#paint6_linear_2419_1414)"/>
<path d="M149.5 282.2H149.3H149.1C148.9 282.2 143.9 281.8 139.6 286.9C135.5 291.9 133.4 300.3 133.4 311.9C133.4 338.7 144.8 361.8 149.3 369.9C153.8 361.8 165.2 338.7 165.2 311.9C165.2 300.3 163.1 291.9 159 286.9C154.7 281.8 149.7 282.2 149.5 282.2Z" fill="#0A8FCF"/>
<path opacity="0.3" d="M159 286.9C154.7 281.7 149.7 282.2 149.5 282.2H149.3V369.9C153.8 361.8 165.2 338.7 165.2 311.9C165.2 300.3 163.1 291.9 159 286.9Z" fill="#BCA1C8"/>
<path d="M166.4 195.7C157.8 172.8 149.3 159.4 149.3 159.4C149.3 159.4 140.9 172.8 132.2 195.7H166.4Z" fill="#01B8A4"/>
<path opacity="0.5" d="M168.8 244.4C168.8 255.2 160 264 149.2 264C138.4 264 129.6 255.2 129.6 244.4C129.6 233.6 138.4 224.8 149.2 224.8C160 224.9 168.8 233.6 168.8 244.4Z" fill="#D2B4D6"/>
<path opacity="0.5" d="M165.1 244.4C165.1 253.2 158 260.3 149.2 260.3C140.4 260.3 133.3 253.2 133.3 244.4C133.3 235.6 140.4 228.5 149.2 228.5C158 228.5 165.1 235.6 165.1 244.4Z" fill="#D2B4D6"/>
<path d="M140.4 654.5C132.7 654.5 126.4 648.2 126.4 640.5C126.4 632.8 132.7 626.5 140.4 626.5C148.1 626.5 154.4 632.8 154.4 640.5C154.4 648.2 148.2 654.5 140.4 654.5ZM140.4 629.9C134.6 629.9 129.8 634.6 129.8 640.4C129.8 646.2 134.5 650.9 140.4 650.9C146.2 650.9 150.9 646.2 150.9 640.4C151 634.6 146.2 629.9 140.4 629.9Z" fill="#0A8FCF"/>
<path d="M147.8 689.4H133C132.1 689.4 131.3 688.6 131.3 687.7V675.2C128.3 674.4 125.2 673.1 122.3 671.4L113.5 680.3C112.9 680.9 111.7 680.9 111.1 680.3L100.7 669.9C100 669.2 100 668.1 100.7 667.4L109.5 658.5C107.9 655.7 106.6 652.7 105.8 649.5H93.4002C92.4002 649.5 91.7002 648.7 91.7002 647.8V633.1C91.7002 632.1 92.5002 631.4 93.4002 631.4H105.8C106.7 628.2 107.9 625.2 109.5 622.4L100.7 613.6C100 612.9 100 611.8 100.7 611.1L111.1 600.7C111.8 600 112.9 600 113.5 600.7L122.3 609.5C125.2 607.8 128.2 606.6 131.3 605.7V593.3C131.3 592.3 132.1 591.5 133 591.5H147.7C148.7 591.5 149.4 592.3 149.4 593.3V605.7C152.5 606.5 155.5 607.8 158.4 609.5L167.2 600.7C167.9 600 169 600 169.7 600.7L180.1 611.1C180.4 611.4 180.6 611.9 180.6 612.3C180.6 612.8 180.4 613.2 180.1 613.5L171.2 622.3C172.9 625.1 174.1 628.1 175 631.3H187.5C188.5 631.3 189.2 632.1 189.2 633V647.7C189.2 648.7 188.4 649.4 187.5 649.4H175C174.2 652.6 172.9 655.6 171.2 658.4L180.1 667.3C180.8 668 180.8 669.1 180.1 669.8L169.7 680.2C169.1 680.8 167.9 680.8 167.2 680.2L158.4 671.3C155.5 673 152.4 674.3 149.4 675.1V687.6C149.5 688.6 148.7 689.4 147.8 689.4ZM134.8 685.9H146V673.8C146 673 146.6 672.3 147.4 672.1C151 671.4 154.5 669.9 157.9 667.7C158.6 667.3 159.5 667.4 160.1 667.9L168.7 676.5L176.6 668.6L168 660C167.4 659.4 167.3 658.5 167.8 657.8C169.8 654.7 171.3 651.2 172.1 647.4C172.3 646.6 173 646 173.8 646H185.9V634.7H173.8C173 634.7 172.3 634.1 172.1 633.3C171.3 629.6 169.8 626.1 167.8 622.9C167.4 622.2 167.4 621.3 168 620.7L176.6 612.1L168.7 604.2L160.1 612.8C159.5 613.4 158.6 613.5 157.9 613C154.6 610.9 151.1 609.4 147.5 608.6C146.7 608.4 146.1 607.7 146.1 606.9V595H134.9V607.1C134.9 607.9 134.3 608.6 133.5 608.8C129.9 609.6 126.3 611.1 123.1 613.2C122.4 613.6 121.5 613.5 120.9 613L112.3 604.4L104.3 612.3L112.9 620.9C113.5 621.5 113.6 622.4 113.1 623.1C111.1 626.3 109.6 629.8 108.8 633.5C108.6 634.3 107.9 634.9 107.1 634.9H95.0002V646.2H107C107.8 646.2 108.5 646.8 108.7 647.6C109.5 651.4 111 654.9 113 658C113.5 658.7 113.3 659.6 112.8 660.2L104.2 668.8L112.2 676.8L120.8 668.2C121.4 667.6 122.3 667.5 123 668C126.4 670.1 129.9 671.6 133.4 672.4C134.2 672.6 134.8 673.3 134.8 674.1V685.9Z" fill="#0A8FCF"/>
<path d="M708.8 401C708.8 426 688.6 446.2 663.6 446.2C638.6 446.2 618.4 425.9 618.4 401C618.4 376 638.7 355.8 663.6 355.8C688.6 355.7 708.8 376 708.8 401Z" fill="#0A8FCF"/>
<path d="M644 383.5L654 373.3C654 373.3 677.8 373.3 679.7 373.3C681.7 373.3 683.1 374.7 683.1 376.6C683.1 378.6 683.1 423 683.1 425.3C683.1 427.5 681.7 428.6 679.4 428.6C670.7 428.6 649.4 428.6 647.7 428.6C645.5 428.6 644 427.6 644 425C644 422.5 644 383.5 644 383.5Z" fill="white"/>
<path d="M644 383.5H653.9L654 373.3L644 383.5Z" fill="#086CB4"/>
<path d="M677.2 391.1C677.2 391.5 676.9 391.9 676.4 391.9H650.6C650.2 391.9 649.8 391.6 649.8 391.1C649.8 390.7 650.1 390.3 650.6 390.3H676.4C676.9 390.4 677.2 390.7 677.2 391.1Z" fill="#6592CC"/>
<path d="M677.2 396.7C677.2 397.1 676.9 397.5 676.4 397.5H650.6C650.2 397.5 649.8 397.2 649.8 396.7C649.8 396.3 650.1 395.9 650.6 395.9H676.4C676.9 396 677.2 396.3 677.2 396.7Z" fill="#6592CC"/>
<path d="M677.2 402.3C677.2 402.7 676.9 403.1 676.4 403.1H650.6C650.2 403.1 649.8 402.8 649.8 402.3C649.8 401.9 650.1 401.5 650.6 401.5H676.4C676.9 401.5 677.2 401.9 677.2 402.3Z" fill="#6592CC"/>
<path d="M677.2 407.9C677.2 408.3 676.9 408.7 676.4 408.7H650.6C650.2 408.7 649.8 408.4 649.8 407.9C649.8 407.5 650.1 407.1 650.6 407.1H676.4C676.9 407.1 677.2 407.5 677.2 407.9Z" fill="#6592CC"/>
<path d="M677.2 413.5C677.2 413.9 676.9 414.3 676.4 414.3H650.6C650.2 414.3 649.8 414 649.8 413.5C649.8 413.1 650.1 412.7 650.6 412.7H676.4C676.9 412.7 677.2 413 677.2 413.5Z" fill="#6592CC"/>
<path opacity="0.2" d="M405 125.6C378.9 125.6 375 145.4 375 157.2V184H377.5V157.2C377.5 146.3 381.1 128.1 405 128.1H509.9V125.6H405Z" fill="#0A8FCF"/>
<path opacity="0.2" d="M509.9 112.8H346.8V115.3H509.9V112.8Z" fill="#0A8FCF"/>
<path opacity="0.2" d="M347.9 114.2C347.9 116.1 346.4 117.7 344.4 117.7C342.5 117.7 340.9 116.2 340.9 114.2C340.9 112.3 342.4 110.7 344.4 110.7C346.4 110.7 347.9 112.3 347.9 114.2Z" fill="#0A8FCF"/>
<path opacity="0.2" d="M430.1 138.4C416.2 138.4 408.5 146.1 408.5 160V168.1H411V160C411 147.5 417.6 141 430 141H523.8V138.5H430.1V138.4Z" fill="#0A8FCF"/>
<path opacity="0.2" d="M413.3 171.2C413.3 173.1 411.8 174.7 409.8 174.7C407.9 174.7 406.3 173.2 406.3 171.2C406.3 169.3 407.8 167.7 409.8 167.7C411.7 167.7 413.3 169.3 413.3 171.2Z" fill="#0A8FCF"/>
<path d="M654 486.4C654 522.2 613.1 563.7 613.1 563.7C613.1 563.7 572.2 523.3 572.2 486.4C572.2 463.8 590.5 445.5 613.1 445.5C635.8 445.5 654 463.8 654 486.4Z" fill="#F05762"/>
<path d="M642.1 486.4C642.1 502.4 629.1 515.3 613.2 515.3C597.2 515.3 584.3 502.3 584.3 486.4C584.3 470.4 597.3 457.5 613.2 457.5C629.2 457.4 642.1 470.4 642.1 486.4Z" fill="white"/>
<path fill-rule="evenodd" clip-rule="evenodd" d="M610 469.1C619.7 468.2 627.6 471.2 633.1 475.8C634.7 477.1 636.6 478.6 636 481C635.7 482.1 634.5 482.6 633.7 482.7C631.3 483 630.5 481 629.1 480C625.1 477 620.5 474.7 613.3 474.7C606.1 474.7 601.6 477 597.4 480C596.1 480.9 595.1 482.8 593 482.7C591.7 482.6 590.5 481.7 590.3 480.2C590.1 478.2 592.1 477 593.6 475.8C597.9 472.4 603.4 469.8 610 469.1Z" fill="#F05762"/>
<path fill-rule="evenodd" clip-rule="evenodd" d="M610.8 478.5C615.8 478 620.6 479.1 624.2 481.2C626.8 482.7 630.2 484.6 629.9 487.3C629.8 488.6 628.8 489.6 627.8 489.8C625.4 490.2 625.4 489.1 624.4 488.3C622.1 486.4 618.9 484.4 614.8 484.1C608.7 483.6 605.4 485.9 602.4 488.3C601.4 489.1 600.8 490 599 489.8C597.7 489.7 596.6 488.4 596.5 487.1C596.4 485.2 598.8 483.5 599.9 482.7C602.9 480.5 606 479 610.8 478.5Z" fill="#F05762"/>
<path fill-rule="evenodd" clip-rule="evenodd" d="M611.2 487.9C614.6 487.4 618 488.2 620.6 489.8C622.1 490.8 624 492.3 623.8 494.2C623.7 495.7 622.5 496.8 621.1 496.9C619.1 497 618.2 494.7 615.9 493.8C614 493.2 611.8 493.4 610.4 494C608.4 494.8 607.2 496.8 605.6 496.9C604 496.9 602.6 495.5 602.5 494C602.5 490.8 608.3 488.3 611.2 487.9Z" fill="#F05762"/>
<path fill-rule="evenodd" clip-rule="evenodd" d="M616.5 500.9C616.5 502.7 615 504.2 613.2 504.2C611.4 504.2 609.9 502.7 609.9 500.9C609.9 499.1 611.4 497.6 613.2 497.6C615 497.6 616.5 499.1 616.5 500.9Z" fill="#F05762"/>
<path d="M527.1 144.8C514.3 144.8 504 134.5 504 121.7C504 108.9 514.3 98.6 527.1 98.6C530.2 98.6 533.1 99.2 535.7 100.3C535.4 98.6 535.2 96.9 535.2 95.2C535.2 81.5 546.3 70.4 560 70.4C566.3 70.4 572.1 72.9 576.4 76.8C580.1 61.7 593.7 50.5 610 50.5C629.1 50.5 644.6 66 644.6 85.1C644.6 88 644.2 90.7 643.5 93.4C644.9 93.2 646.4 93 647.9 93C662.2 93 673.7 104.5 673.7 118.8C673.7 133 662.2 144.6 647.9 144.6L527.1 144.8Z" fill="url(#paint7_linear_2419_1414)"/>
<defs>
<linearGradient id="paint0_linear_2419_1414" x1="282.522" y1="91.4571" x2="282.522" y2="124.826" gradientUnits="userSpaceOnUse">
<stop stop-color="#FDBC4B"/>
<stop offset="1" stop-color="#FBAE33"/>
</linearGradient>
<linearGradient id="paint1_linear_2419_1414" x1="294.189" y1="82.7161" x2="294.189" y2="118.732" gradientUnits="userSpaceOnUse">
<stop stop-color="#FDBC4B"/>
<stop offset="1" stop-color="#FBAE33"/>
</linearGradient>
<linearGradient id="paint2_linear_2419_1414" x1="288.387" y1="141.6" x2="280.314" y2="154.921" gradientUnits="userSpaceOnUse">
<stop stop-color="#FDBC4B"/>
<stop offset="1" stop-color="#FBAE33"/>
</linearGradient>
<linearGradient id="paint3_linear_2419_1414" x1="295.121" y1="136.048" x2="298.833" y2="151.177" gradientUnits="userSpaceOnUse">
<stop stop-color="#FDBC4B"/>
<stop offset="1" stop-color="#FBAE33"/>
</linearGradient>
<linearGradient id="paint4_linear_2419_1414" x1="269.922" y1="136.049" x2="266.211" y2="151.177" gradientUnits="userSpaceOnUse">
<stop stop-color="#FDBC4B"/>
<stop offset="1" stop-color="#FBAE33"/>
</linearGradient>
<linearGradient id="paint5_linear_2419_1414" x1="133.456" y1="379.607" x2="165.193" y2="379.607" gradientUnits="userSpaceOnUse">
<stop stop-color="#01B8A4"/>
<stop offset="1" stop-color="#0A8FCF"/>
</linearGradient>
<linearGradient id="paint6_linear_2419_1414" x1="149.323" y1="377.232" x2="149.323" y2="240.571" gradientUnits="userSpaceOnUse">
<stop stop-color="#01B8A4"/>
<stop offset="1" stop-color="#0A8FCF"/>
</linearGradient>
<linearGradient id="paint7_linear_2419_1414" x1="504.023" y1="97.572" x2="673.738" y2="97.572" gradientUnits="userSpaceOnUse">
<stop stop-color="#01B8A4"/>
<stop offset="1" stop-color="#0A8FCF"/>
</linearGradient>
</defs>
</svg>
