<svg width="869" height="775" viewBox="0 0 869 775" fill="none" xmlns="http://www.w3.org/2000/svg">
<path d="M620.2 748.8C778.4 668.5 839.8 433.2 783.7 266.5C721.5 81.6 534.1 38.6 501.8 32C389.7 8.89997 191.8 20.8 108.1 164C14.9999 323 131.6 526.7 213.9 617.4C235.5 641.2 427.6 846.5 620.2 748.8Z" fill="#EAF1FC"/>
<path opacity="0.2" d="M364.1 598.5L62.7 636.2C55.3 637.1 48.6 631.9 47.7 624.5L1.09999 252C0.199993 244.6 5.4 237.9 12.8 237L314.2 199.3C321.6 198.4 328.3 203.6 329.2 211L375.7 583.5C376.8 590.8 371.5 597.6 364.1 598.5Z" fill="#3B7EBF"/>
<path d="M380.6 579.6L79.2001 617.3C71.8001 618.2 65.1001 613 64.2001 605.6L17.7001 233.1C16.8001 225.7 22.0001 219 29.4001 218.1L330.8 180.4C338.2 179.5 344.9 184.7 345.8 192.1L392.3 564.6C393.2 571.9 388 578.7 380.6 579.6Z" fill="#5897F7"/>
<path d="M376.6 563.7L79.0001 600.9C77.5001 601.1 76.2001 600 76.0001 598.6L29.2001 223C29.0001 221.5 30.1001 220.2 31.5001 220L329 182.8C330.5 182.6 331.8 183.7 332 185.1L379 560.7C379.1 562.1 378.1 563.5 376.6 563.7Z" fill="white"/>
<path d="M81 291.5L61.3 294C58.9 294.3 56.7 292.6 56.4 290.2L53.9 270.5C53.6 268.1 55.3 265.9 57.7 265.6L77.4 263.1C79.8 262.8 82 264.5 82.3 266.9L84.8 286.6C85.1 289 83.4 291.2 81 291.5ZM58.2 269.2C57.8 269.2 57.5 269.6 57.6 270L60.1 289.7C60.1 290.1 60.5 290.4 60.9 290.3L80.6 287.8C81 287.8 81.3 287.4 81.2 287L78.7 267.3C78.7 266.9 78.3 266.6 77.9 266.7L58.2 269.2Z" fill="#E1EAF7"/>
<path d="M87.3001 341.8L67.6001 344.3C65.2001 344.6 63.0001 342.9 62.7001 340.5L60.2001 320.8C59.9001 318.4 61.6001 316.2 64.0001 315.9L83.7001 313.4C86.1001 313.1 88.3001 314.8 88.6001 317.2L91.1001 336.9C91.4001 339.3 89.7001 341.5 87.3001 341.8ZM64.4001 319.4C64.0001 319.4 63.7001 319.8 63.8001 320.2L66.3001 339.9C66.3001 340.3 66.7001 340.6 67.1001 340.5L86.8001 338C87.2001 338 87.5001 337.6 87.4001 337.2L84.9001 317.5C84.9001 317.1 84.5001 316.8 84.1001 316.9L64.4001 319.4Z" fill="#E1EAF7"/>
<path d="M93.6001 392.1L73.9002 394.6C71.5002 394.9 69.3001 393.2 69.0001 390.8L66.5001 371.1C66.2001 368.7 67.9001 366.5 70.3001 366.2L90.0001 363.7C92.4001 363.4 94.6002 365.1 94.9002 367.5L97.4002 387.2C97.7002 389.6 96.0001 391.8 93.6001 392.1ZM70.7002 369.7C70.3002 369.7 70.0001 370.1 70.1001 370.5L72.6001 390.2C72.6001 390.6 73.0002 390.9 73.4002 390.8L93.1001 388.3C93.5001 388.3 93.8002 387.9 93.7002 387.5L91.2002 367.8C91.2002 367.4 90.8002 367.1 90.4002 367.2L70.7002 369.7Z" fill="#E1EAF7"/>
<path d="M99.8001 442.4L80.1001 444.9C77.7001 445.2 75.5001 443.5 75.2001 441.1L72.7001 421.4C72.4001 419 74.1001 416.8 76.5001 416.5L96.2001 414C98.6001 413.7 100.8 415.4 101.1 417.8L103.6 437.5C104 439.8 102.3 442.1 99.8001 442.4ZM77.0001 420C76.6001 420 76.3001 420.4 76.4001 420.8L78.9001 440.5C78.9001 440.9 79.3001 441.2 79.7001 441.1L99.4001 438.6C99.8001 438.6 100.1 438.2 100 437.8L97.5001 418.1C97.5001 417.7 97.1001 417.4 96.7001 417.5L77.0001 420Z" fill="#E1EAF7"/>
<path d="M86.7999 263.7C85.5999 264.3 84.4999 264.9 83.5999 265.5L82.0999 266.5L80.6999 267.6C78.8999 269 77.1999 270.5 75.6999 272.2C74.0999 273.8 72.6999 275.5 71.2999 277.3C70.4999 278.3 69.7999 279.3 69.0999 280.4C68.3999 280.1 67.7999 279.8 67.0999 279.5C66.1999 279.1 65.0999 278.7 64.0999 278.4C63.0999 278.1 62 277.8 60.9 277.6H60.7999C60.6999 277.6 60.5999 277.6 60.5999 277.7C60.4999 277.8 60.4999 277.9 60.5999 278C63.6999 280.6 66.8999 283.1 70.0999 285.6C70.2999 285.7 70.4999 285.7 70.6999 285.5C73.4999 282 76.2 278.5 78.9 275L82.9999 269.7C84.3999 267.9 85.6999 266.1 86.9999 264.3C86.9999 264.2 87.0999 264.2 86.9999 264.1C86.9999 263.7 86.8999 263.7 86.7999 263.7Z" fill="#52CFBB"/>
<path d="M99.2999 363.6C98.0999 364.2 96.9999 364.8 96.0999 365.4L94.5999 366.4L93.1999 367.5C91.3999 368.9 89.6999 370.4 88.1999 372.1C86.5999 373.7 85.1999 375.4 83.7999 377.2C82.9999 378.2 82.2999 379.2 81.5999 380.3C80.8999 380 80.2999 379.7 79.5999 379.4C78.6999 379 77.5999 378.6 76.5999 378.3C75.5999 378 74.5 377.7 73.4 377.5H73.2999C73.1999 377.5 73.0999 377.5 73.0999 377.6C72.9999 377.7 72.9999 377.8 73.0999 377.9C76.1999 380.5 79.3999 383 82.5999 385.5C82.7999 385.6 82.9999 385.6 83.1999 385.4C85.9999 381.9 88.7 378.4 91.4 374.9L95.4999 369.6C96.8999 367.8 98.1999 366 99.4999 364.2C99.4999 364.1 99.5999 364.1 99.4999 364C99.4999 363.6 99.3999 363.5 99.2999 363.6Z" fill="#52CFBB"/>
<path d="M105.6 413.9C104.4 414.5 103.3 415.1 102.4 415.7L100.9 416.7L99.4999 417.8C97.6999 419.2 95.9999 420.7 94.4999 422.4C92.8999 424 91.4999 425.7 90.0999 427.5C89.2999 428.5 88.6 429.5 87.9 430.6C87.2 430.3 86.6 430 85.9 429.7C85 429.3 83.9 428.9 82.9 428.6C81.9 428.3 80.7999 428 79.6999 427.8H79.5999C79.4999 427.8 79.4 427.8 79.4 427.9C79.3 428 79.3 428.1 79.4 428.2C82.5 430.8 85.7 433.3 88.9 435.8C89.1 435.9 89.2999 435.9 89.4999 435.7C92.2999 432.2 94.9999 428.7 97.6999 425.2L101.8 419.9C103.2 418.1 104.5 416.3 105.8 414.5C105.8 414.4 105.9 414.4 105.8 414.3C105.8 413.9 105.7 413.8 105.6 413.9Z" fill="#52CFBB"/>
<path d="M314.4 244.4L110.9 269.8C107.5 270.2 104.4 267.8 104 264.4C103.6 261 106 257.9 109.4 257.5L312.9 232.1C316.3 231.7 319.4 234.1 319.8 237.5C320.2 240.9 317.8 244 314.4 244.4Z" fill="#E1EAF7"/>
<path d="M316.8 263.5L113.3 289C109.9 289.4 106.8 287 106.4 283.6C106 280.2 108.4 277.1 111.8 276.7L315.3 251.3C318.7 250.9 321.8 253.3 322.2 256.7C322.6 260 320.2 263.1 316.8 263.5Z" fill="#E1EAF7"/>
<path d="M320.7 294.7L117.2 320.1C113.8 320.5 110.7 318.1 110.3 314.7C109.9 311.3 112.3 308.2 115.7 307.8L319.2 282.4C322.6 282 325.7 284.4 326.1 287.8C326.5 291.2 324.1 294.2 320.7 294.7Z" fill="#E1EAF7"/>
<path d="M323.1 313.8L119.6 339.2C116.2 339.6 113.1 337.2 112.7 333.8C112.3 330.4 114.7 327.3 118.1 326.9L321.6 301.5C325 301.1 328.1 303.5 328.5 306.9C328.9 310.3 326.5 313.4 323.1 313.8Z" fill="#E1EAF7"/>
<path d="M327 344.9L123.5 370.3C120.1 370.7 117 368.3 116.6 364.9C116.2 361.5 118.6 358.4 122 358L325.5 332.6C328.9 332.2 332 334.6 332.4 338C332.8 341.4 330.4 344.5 327 344.9Z" fill="#E1EAF7"/>
<path d="M329.4 364.1L125.9 389.5C122.5 389.9 119.4 387.5 119 384.1C118.6 380.7 121 377.6 124.4 377.2L327.9 351.8C331.3 351.4 334.4 353.8 334.8 357.2C335.2 360.6 332.8 363.7 329.4 364.1Z" fill="#E1EAF7"/>
<path d="M333.3 395.2L129.8 420.6C126.4 421 123.3 418.6 122.9 415.2C122.5 411.8 124.9 408.7 128.3 408.3L331.8 382.9C335.2 382.5 338.3 384.9 338.7 388.3C339.1 391.7 336.7 394.8 333.3 395.2Z" fill="#E1EAF7"/>
<path d="M335.7 414.4L132.2 439.8C128.8 440.2 125.7 437.8 125.3 434.4C124.9 431 127.3 427.9 130.7 427.5L334.2 402.1C337.6 401.7 340.7 404.1 341.1 407.5C341.5 410.9 339.1 414 335.7 414.4Z" fill="#E1EAF7"/>
<path d="M112.6 544.5L92.9002 547C90.5002 547.3 88.3001 545.6 88.0001 543.2L85.5001 523.5C85.2001 521.1 86.9001 518.9 89.3001 518.6L109 516C111.4 515.7 113.6 517.4 113.9 519.8L116.4 539.5C116.7 542 115 544.2 112.6 544.5ZM89.8001 522.2C89.4001 522.2 89.1002 522.6 89.2002 523L91.7002 542.7C91.7002 543.1 92.1001 543.4 92.5001 543.3L112.2 540.8C112.6 540.8 112.9 540.4 112.8 540L110.3 520.3C110.3 519.9 109.9 519.6 109.5 519.7L89.8001 522.2Z" fill="#E1EAF7"/>
<path d="M118.3 516C117.1 516.6 116 517.2 115.1 517.8L113.6 518.8L112.2 519.9C110.4 521.3 108.7 522.8 107.2 524.5C105.6 526.1 104.2 527.8 102.8 529.6C102 530.6 101.3 531.6 100.6 532.7C99.8999 532.4 99.2999 532.1 98.5999 531.8C97.6999 531.4 96.5999 531 95.5999 530.7C94.5999 530.4 93.5 530.1 92.4 529.9H92.2999C92.1999 529.9 92.0999 529.9 92.0999 530C91.9999 530.1 91.9999 530.2 92.0999 530.3C95.1999 532.9 98.3999 535.4 101.6 537.9C101.8 538 102 538 102.2 537.8C105 534.3 107.7 530.8 110.4 527.3L114.5 522C115.9 520.2 117.2 518.4 118.5 516.6C118.5 516.5 118.6 516.5 118.5 516.4C118.6 516 118.4 516 118.3 516Z" fill="#52CFBB"/>
<path d="M346 497.4L142.5 522.8C139.1 523.2 136 520.8 135.6 517.4C135.2 514 137.6 510.9 141 510.5L344.5 485.1C347.9 484.7 351 487.1 351.4 490.5C351.8 493.9 349.4 497 346 497.4Z" fill="#E1EAF7"/>
<path d="M348.4 516.6L144.9 542C141.5 542.4 138.4 540 138 536.6C137.6 533.2 140 530.1 143.4 529.7L346.9 504.3C350.3 503.9 353.4 506.3 353.8 509.7C354.2 513 351.8 516.1 348.4 516.6Z" fill="#E1EAF7"/>
<path d="M106.3 494.1L86.6001 496.6C84.2001 496.9 82.0001 495.2 81.7001 492.8L79.2001 473.1C78.9001 470.7 80.6001 468.5 83.0001 468.2L102.7 465.7C105.1 465.4 107.3 467.1 107.6 469.5L110.1 489.2C110.4 491.6 108.7 493.8 106.3 494.1ZM83.5001 471.8C83.1001 471.8 82.8001 472.2 82.9001 472.6L85.4001 492.3C85.4001 492.7 85.8001 493 86.2001 492.9L105.9 490.4C106.3 490.4 106.6 490 106.5 489.6L104 469.9C104 469.5 103.6 469.2 103.2 469.3L83.5001 471.8Z" fill="#E1EAF7"/>
<path d="M339.7 447L136.2 472.4C132.8 472.8 129.7 470.4 129.3 467C128.9 463.6 131.3 460.5 134.7 460.1L338.2 434.7C341.6 434.3 344.7 436.7 345.1 440.1C345.5 443.5 343.1 446.6 339.7 447Z" fill="#E1EAF7"/>
<path d="M342.1 466.1L138.6 491.5C135.2 491.9 132.1 489.5 131.7 486.1C131.3 482.7 133.7 479.6 137.1 479.2L340.6 453.8C344 453.4 347.1 455.8 347.5 459.2C347.9 462.6 345.5 465.7 342.1 466.1Z" fill="#E1EAF7"/>
<path d="M359.6 542L90.1999 575.7C89.1999 575.8 88.2998 575.1 88.0998 574.1C87.9998 573.1 88.6999 572.2 89.6999 572L359.1 538.3C360.1 538.2 361 538.9 361.2 539.9C361.4 541 360.6 541.9 359.6 542Z" fill="#52CFBB"/>
<path d="M54.5731 231.578C55.8707 229.203 54.9976 226.226 52.6229 224.929C50.2482 223.631 47.2712 224.504 45.9736 226.879C44.6759 229.253 45.5491 232.23 47.9238 233.528C50.2985 234.826 53.2755 233.953 54.5731 231.578Z" fill="#333333"/>
<path d="M50.5001 231C48.7001 231.2 47.1001 229.9 46.9001 228.2L44.0001 205.2C43.8001 203.4 45.1001 201.8 46.8001 201.6C48.6001 201.4 50.2001 202.7 50.4001 204.4L53.3001 227.4C53.6001 229.2 52.3001 230.8 50.5001 231Z" fill="#474747"/>
<path d="M72.1998 231.4C74.906 231.4 77.0998 229.206 77.0998 226.5C77.0998 223.794 74.906 221.6 72.1998 221.6C69.4936 221.6 67.2998 223.794 67.2998 226.5C67.2998 229.206 69.4936 231.4 72.1998 231.4Z" fill="#333333"/>
<path d="M72.4 228.3C70.6 228.5 68.9999 227.2 68.7999 225.5L65.9 202.5C65.7 200.7 67 199.1 68.7 198.9C70.5 198.7 72.0999 200 72.2999 201.7L75.2 224.7C75.5 226.4 74.2 228.1 72.4 228.3Z" fill="#474747"/>
<path d="M96.1633 228.147C98.6057 226.982 99.641 224.058 98.4757 221.615C97.3104 219.173 94.3858 218.138 91.9435 219.303C89.5011 220.468 88.4659 223.393 89.6312 225.835C90.7965 228.277 93.721 229.313 96.1633 228.147Z" fill="#333333"/>
<path d="M94.2999 225.6C92.4999 225.8 90.8999 224.5 90.6999 222.8L87.7999 199.8C87.5999 198 88.8999 196.4 90.5999 196.2C92.3999 196 93.9999 197.3 94.1999 199L97.0999 222C97.3999 223.7 96.0999 225.3 94.2999 225.6Z" fill="#474747"/>
<path d="M116 225.9C118.706 225.9 120.9 223.706 120.9 221C120.9 218.294 118.706 216.1 116 216.1C113.294 216.1 111.1 218.294 111.1 221C111.1 223.706 113.294 225.9 116 225.9Z" fill="#333333"/>
<path d="M116.2 222.8C114.4 223 112.8 221.7 112.6 220L109.7 197C109.5 195.2 110.8 193.6 112.5 193.4C114.3 193.2 115.9 194.5 116.1 196.2L119 219.2C119.3 221 118 222.6 116.2 222.8Z" fill="#474747"/>
<path d="M141.379 221.758C143.293 219.845 143.293 216.742 141.379 214.829C139.466 212.915 136.363 212.915 134.45 214.829C132.536 216.742 132.536 219.845 134.45 221.758C136.363 223.672 139.466 223.672 141.379 221.758Z" fill="#333333"/>
<path d="M138.1 220.1C136.3 220.3 134.7 219 134.5 217.3L131.6 194.3C131.4 192.5 132.7 190.9 134.4 190.7C136.2 190.5 137.8 191.8 138 193.5L140.9 216.5C141.2 218.2 139.9 219.9 138.1 220.1Z" fill="#474747"/>
<path d="M163.23 218.977C165.163 217.083 165.194 213.98 163.3 212.047C161.406 210.114 158.304 210.082 156.371 211.976C154.438 213.871 154.406 216.973 156.3 218.906C158.194 220.839 161.297 220.871 163.23 218.977Z" fill="#333333"/>
<path d="M160 217.4C158.2 217.6 156.6 216.3 156.4 214.6L153.5 191.6C153.3 189.8 154.6 188.2 156.3 188C158.1 187.8 159.7 189.1 159.9 190.8L162.8 213.8C163.1 215.5 161.8 217.1 160 217.4Z" fill="#474747"/>
<path d="M181.7 217.7C184.406 217.7 186.6 215.506 186.6 212.8C186.6 210.094 184.406 207.9 181.7 207.9C178.994 207.9 176.8 210.094 176.8 212.8C176.8 215.506 178.994 217.7 181.7 217.7Z" fill="#333333"/>
<path d="M181.9 214.6C180.1 214.8 178.5 213.5 178.3 211.8L175.4 188.8C175.2 187 176.5 185.4 178.2 185.2C180 185 181.6 186.3 181.8 188L184.7 211C185 212.8 183.7 214.4 181.9 214.6Z" fill="#474747"/>
<path d="M207.903 212.393C209.206 210.021 208.34 207.042 205.968 205.739C203.596 204.435 200.617 205.301 199.314 207.673C198.011 210.045 198.877 213.024 201.248 214.327C203.62 215.631 206.599 214.764 207.903 212.393Z" fill="#333333"/>
<path d="M203.8 211.9C202 212.1 200.4 210.8 200.2 209.1L197.3 186.1C197.1 184.3 198.4 182.7 200.1 182.5C201.9 182.3 203.5 183.6 203.7 185.3L206.6 208.3C206.9 210 205.6 211.7 203.8 211.9Z" fill="#474747"/>
<path d="M225.5 212.2C228.206 212.2 230.4 210.006 230.4 207.3C230.4 204.594 228.206 202.4 225.5 202.4C222.794 202.4 220.6 204.594 220.6 207.3C220.6 210.006 222.794 212.2 225.5 212.2Z" fill="#333333"/>
<path d="M225.7 209.2C223.9 209.4 222.3 208.1 222.1 206.4L219.2 183.4C219 181.6 220.3 180 222 179.8C223.8 179.6 225.4 180.9 225.6 182.6L228.5 205.6C228.8 207.3 227.5 208.9 225.7 209.2Z" fill="#474747"/>
<path d="M249.043 209.213C251.585 208.285 252.894 205.473 251.967 202.931C251.039 200.388 248.227 199.079 245.684 200.007C243.142 200.934 241.833 203.747 242.761 206.289C243.688 208.831 246.501 210.14 249.043 209.213Z" fill="#333333"/>
<path d="M247.6 206.4C245.8 206.6 244.2 205.3 244 203.6L241.1 180.6C240.9 178.8 242.2 177.2 243.9 177C245.7 176.8 247.3 178.1 247.5 179.8L250.4 202.8C250.7 204.6 249.4 206.2 247.6 206.4Z" fill="#474747"/>
<path d="M269.3 206.8C272.006 206.8 274.2 204.606 274.2 201.9C274.2 199.194 272.006 197 269.3 197C266.594 197 264.4 199.194 264.4 201.9C264.4 204.606 266.594 206.8 269.3 206.8Z" fill="#333333"/>
<path d="M269.5 203.7C267.7 203.9 266.1 202.6 265.9 200.9L263 177.9C262.8 176.1 264.1 174.5 265.8 174.3C267.6 174.1 269.2 175.4 269.4 177.1L272.3 200.1C272.5 201.8 271.3 203.5 269.5 203.7Z" fill="#474747"/>
<path d="M291.813 203.927C294.497 203.583 296.395 201.129 296.051 198.445C295.708 195.76 293.254 193.863 290.569 194.206C287.885 194.55 285.987 197.004 286.331 199.688C286.674 202.372 289.129 204.27 291.813 203.927Z" fill="#333333"/>
<path d="M291.4 200.9C289.6 201.1 288 199.8 287.8 198.1L284.9 175.1C284.7 173.3 286 171.7 287.7 171.5C289.5 171.3 291.1 172.6 291.3 174.3L294.2 197.3C294.4 199.1 293.2 200.7 291.4 200.9Z" fill="#474747"/>
<path d="M314.855 200.955C317.376 199.972 318.623 197.131 317.639 194.61C316.656 192.089 313.815 190.842 311.294 191.826C308.773 192.809 307.526 195.65 308.51 198.171C309.493 200.692 312.334 201.939 314.855 200.955Z" fill="#333333"/>
<path d="M313.3 198.2C311.5 198.4 309.9 197.1 309.7 195.4L306.8 172.4C306.6 170.6 307.9 169 309.6 168.8C311.4 168.6 313 169.9 313.2 171.6L316.1 194.6C316.3 196.4 315.1 198 313.3 198.2Z" fill="#474747"/>
<path opacity="0.2" d="M647.4 166.7L231.4 122.8C225.7 122.2 220.5 126.3 219.9 132.1L163.4 667.6C162.8 673.3 167 678.5 172.7 679.1L588.7 723C594.4 723.6 599.6 719.4 600.2 713.7L656.7 178.2C657.3 172.5 653.1 167.3 647.4 166.7Z" fill="#3B7EBF"/>
<path d="M614 702.2L198 658.3C192.3 657.7 188.1 652.6 188.7 646.8L245.2 111.3C245.8 105.6 250.9 101.4 256.7 102L672.7 145.9C678.4 146.5 682.6 151.6 682 157.4L625.5 692.9C624.8 698.6 619.7 702.8 614 702.2Z" fill="white"/>
<path d="M341.337 230.088L278.783 223.49L264.212 361.626L326.766 368.224L341.337 230.088Z" fill="#0091D5"/>
<path d="M411.995 307.393L349.441 300.795L342.151 369.913L404.705 376.511L411.995 307.393Z" fill="#52CFBB"/>
<path d="M492.789 289.168L430.235 282.57L420.154 378.141L482.709 384.739L492.789 289.168Z" fill="#5897F7"/>
<path d="M529.573 274.255C532.368 272.931 533.561 269.592 532.237 266.797C530.913 264.002 527.573 262.81 524.778 264.134C521.984 265.458 520.791 268.797 522.115 271.592C523.439 274.387 526.778 275.579 529.573 274.255Z" fill="#0091D5"/>
<path d="M624 285L546 276.8C543 276.5 540.7 273.7 541.1 270.7C541.4 267.7 544.2 265.4 547.2 265.8L625.2 274C628.2 274.3 630.5 277.1 630.1 280.1C629.7 283.1 627 285.3 624 285Z" fill="#E1EAF7"/>
<path d="M621.8 305L524.5 294.7C521.5 294.4 519.2 291.6 519.6 288.6C519.9 285.6 522.7 283.3 525.7 283.7L623 294C626 294.3 628.3 297.1 627.9 300.1C627.6 303.1 624.9 305.3 621.8 305Z" fill="#E1EAF7"/>
<path d="M525.823 320.279C528.227 318.334 528.6 314.808 526.654 312.404C524.709 309.999 521.183 309.627 518.778 311.572C516.374 313.518 516.002 317.044 517.947 319.448C519.893 321.853 523.419 322.225 525.823 320.279Z" fill="#52CFBB"/>
<path d="M619 331.7L541 323.5C538 323.2 535.7 320.4 536.1 317.4C536.4 314.4 539.2 312.1 542.2 312.5L620.2 320.7C623.2 321 625.5 323.8 625.1 326.8C624.8 329.8 622.1 332 619 331.7Z" fill="#E1EAF7"/>
<path d="M616.9 351.7L519.6 341.4C516.6 341.1 514.3 338.3 514.7 335.3C515 332.3 517.8 330 520.8 330.4L618.1 340.7C621.1 341 623.4 343.8 623 346.8C622.7 349.8 620 352 616.9 351.7Z" fill="#E1EAF7"/>
<path d="M522.901 363.463C523.353 360.403 521.24 357.556 518.18 357.104C515.121 356.652 512.274 358.765 511.821 361.824C511.369 364.884 513.482 367.731 516.542 368.183C519.601 368.635 522.448 366.522 522.901 363.463Z" fill="#5897F7"/>
<path d="M614.1 378.4L536.1 370.2C533.1 369.9 530.8 367.1 531.2 364.1C531.5 361.1 534.3 358.8 537.3 359.2L615.3 367.4C618.3 367.7 620.6 370.5 620.2 373.5C619.9 376.5 617.1 378.7 614.1 378.4Z" fill="#E1EAF7"/>
<path d="M612 398.4L514.7 388.1C511.7 387.8 509.4 385 509.8 382C510.1 379 512.9 376.7 515.9 377.1L613.2 387.4C616.2 387.7 618.5 390.5 618.1 393.5C617.8 396.5 615 398.7 612 398.4Z" fill="#E1EAF7"/>
<path d="M348 426.4L266.1 417.8C261.8 417.3 258.7 413.5 259.1 409.2C259.6 404.9 263.4 401.8 267.7 402.2L349.6 410.8C353.9 411.3 357 415.1 356.6 419.4C356.2 423.7 352.3 426.8 348 426.4Z" fill="#52CFBB"/>
<path d="M599.8 492.3L262 456.7C257.7 456.2 254.6 452.4 255 448.1C255.5 443.8 259.3 440.7 263.6 441.1L601.4 476.7C605.7 477.2 608.8 481 608.4 485.3C607.9 489.6 604.1 492.8 599.8 492.3Z" fill="#E1EAF7"/>
<path d="M595.7 531.3L257.9 495.7C253.6 495.2 250.5 491.4 250.9 487.1C251.4 482.8 255.2 479.7 259.5 480.1L597.3 515.7C601.6 516.2 604.7 520 604.3 524.3C603.8 528.6 600 531.8 595.7 531.3Z" fill="#E1EAF7"/>
<path d="M591.6 570.3L253.8 534.7C249.5 534.2 246.4 530.4 246.8 526.1C247.3 521.8 251.1 518.7 255.4 519.1L593.2 554.7C597.5 555.2 600.6 559 600.2 563.3C599.7 567.6 595.8 570.8 591.6 570.3Z" fill="#E1EAF7"/>
<path d="M547.6 605.1L249.6 573.7C245.3 573.2 242.2 569.4 242.6 565.1C243.1 560.8 246.9 557.7 251.2 558.1L549.2 589.5C553.5 590 556.6 593.8 556.2 598.1C555.8 602.4 551.9 605.6 547.6 605.1Z" fill="#E1EAF7"/>
<path d="M380.8 173.2L292.9 163.9C288.6 163.4 285.5 159.6 285.9 155.3C286.4 151 290.2 147.9 294.5 148.3L382.4 157.6C386.7 158.1 389.8 161.9 389.4 166.2C389 170.5 385.1 173.7 380.8 173.2Z" fill="#52CFBB"/>
<path d="M627.1 233.7L318.6 201.2C314.3 200.7 311.2 196.9 311.6 192.6C312.1 188.3 315.9 185.2 320.2 185.6L628.7 218.1C633 218.6 636.1 222.4 635.7 226.7C635.2 231 631.4 234.1 627.1 233.7Z" fill="#E1EAF7"/>
<path opacity="0.2" d="M446.2 372.8C396.7 415 390.8 489.4 433.1 538.9C471.7 584.2 537.3 593 586 561.8L605 584L597.5 590.4L700.2 710.7C705.2 716.6 714 717.3 719.9 712.3L738.5 696.5C744.4 691.5 745.1 682.7 740.1 676.8L637.4 556.5L629.9 562.9L610.9 540.7C649.4 497.4 651.1 431.3 612.4 386.1C570.1 336.5 495.7 330.6 446.2 372.8ZM596.1 399.8C630.7 440.3 625.9 501.2 585.3 535.8C544.7 570.4 483.9 565.6 449.3 525C414.7 484.4 419.5 423.5 460.1 388.9C500.6 354.4 561.5 359.3 596.1 399.8Z" fill="#3B7EBF"/>
<path opacity="0.2" d="M528.9 552.2C586.227 552.2 632.7 505.727 632.7 448.4C632.7 391.073 586.227 344.6 528.9 344.6C471.573 344.6 425.1 391.073 425.1 448.4C425.1 505.727 471.573 552.2 528.9 552.2Z" fill="#3B7EBF"/>
<path opacity="0.6" d="M605.6 461.6C605.4 461.6 605.2 461.6 605 461.6C602.5 461.3 600.6 459 600.9 456.5C601.1 454.6 601.2 452.7 601.3 450.8C602.6 410.9 571.2 377.4 531.3 376C524.8 375.8 518.2 376.4 511.9 378C509.4 378.6 506.9 377.1 506.3 374.6C505.7 372.1 507.2 369.6 509.7 369C516.8 367.3 524.2 366.5 531.6 366.8C576.6 368.3 612.1 406.1 610.6 451.1C610.5 453.3 610.4 455.4 610.1 457.5C609.8 459.8 607.9 461.6 605.6 461.6Z" fill="white"/>
<path d="M611.79 520.608L586.988 541.765L615.284 574.936L640.086 553.779L611.79 520.608Z" fill="#4C4C4C"/>
<path d="M452.4 358.8C402.9 401 397 475.4 439.2 524.9C481.4 574.4 555.8 580.3 605.3 538.1C654.8 495.9 660.7 421.5 618.5 372C576.3 322.5 501.9 316.6 452.4 358.8ZM602.3 385.8C636.9 426.3 632.1 487.2 591.5 521.8C550.9 556.4 490.1 551.6 455.5 511C420.9 470.4 425.7 409.5 466.3 374.9C506.8 340.4 567.7 345.3 602.3 385.8Z" fill="#5E5E5E"/>
<path d="M744.6 682.5L726 698.3C720.1 703.3 711.3 702.6 706.3 696.7L603.6 576.4L643.4 542.4L746.1 662.7C751.1 668.7 750.4 677.5 744.6 682.5Z" fill="#5E5E5E"/>
<path opacity="0.2" d="M812.083 280.932C840.63 252.385 840.63 206.101 812.083 177.554C783.536 149.007 737.252 149.007 708.705 177.554C680.158 206.101 680.158 252.385 708.705 280.932C737.252 309.479 783.536 309.479 812.083 280.932Z" fill="#3B7EBF"/>
<path d="M771.2 285.9C811.572 285.9 844.3 253.172 844.3 212.8C844.3 172.428 811.572 139.7 771.2 139.7C730.828 139.7 698.1 172.428 698.1 212.8C698.1 253.172 730.828 285.9 771.2 285.9Z" fill="#0091D5"/>
<path d="M765.7 237.4L778.8 248.9C781.8 251.5 786.4 249.6 786.7 245.6L787.9 228.2C788 226.6 788.9 225.2 790.2 224.4L805.2 215.5C808.6 213.5 808.2 208.4 804.6 207L788.4 200.5C786.9 199.9 785.9 198.6 785.5 197.1L781.7 180.1C780.8 176.2 775.9 175 773.4 178.1L762.2 191.5C761.2 192.7 759.7 193.3 758.1 193.2L740.7 191.6C736.8 191.2 734.1 195.5 736.2 198.9L745.5 213.7C746.3 215 746.5 216.7 745.8 218.1L738.9 234.1C737.3 237.7 740.6 241.6 744.4 240.6L761.3 236.4C762.9 236 764.5 236.4 765.7 237.4Z" fill="white"/>
<path d="M706.5 472.6C703.6 472.6 700.6 472.5 697.7 472.3C696 472.2 694.8 470.7 694.9 469C695 467.3 696.5 466.1 698.2 466.2C701 466.4 703.8 466.5 706.5 466.5C708.7 466.5 710.9 466.4 713.1 466.3C713.4 466.3 713.7 466.3 714 466.2C715.7 466.1 717.1 467.3 717.3 469C717.4 470.7 716.2 472.1 714.5 472.3C714.2 472.3 713.9 472.3 713.6 472.4C711.2 472.6 708.9 472.6 706.5 472.6ZM730.3 470.1C728.9 470.1 727.6 469.1 727.3 467.7C726.9 466.1 728 464.4 729.6 464.1C734.7 463 739.8 461.6 744.9 459.8C746.5 459.2 748.2 460.1 748.8 461.7C749.4 463.3 748.5 465 746.9 465.6C741.6 467.4 736.2 469 730.9 470.1C730.8 470 730.5 470.1 730.3 470.1ZM681.9 469.9C681.7 469.9 681.5 469.9 681.2 469.8C678.1 469.1 675 468.3 671.9 467.3C670.3 466.8 669.4 465.1 669.9 463.5C670.4 461.9 672.1 461 673.7 461.5C676.6 462.4 679.6 463.2 682.6 463.9C684.2 464.3 685.3 465.9 684.9 467.5C684.5 468.9 683.3 469.9 681.9 469.9ZM761 459.4C759.9 459.4 758.8 458.8 758.3 457.7C757.6 456.2 758.2 454.4 759.7 453.6C764.5 451.3 769.2 448.6 773.5 445.8C774.9 444.9 776.8 445.3 777.7 446.7C778.6 448.1 778.2 450 776.8 450.9C772.2 453.9 767.3 456.6 762.3 459.1C762 459.3 761.5 459.4 761 459.4ZM788.2 441.6C787.3 441.6 786.5 441.2 785.9 440.5C784.8 439.2 784.9 437.3 786.2 436.2C790.3 432.7 794.1 428.9 797.4 425C798.5 423.7 800.4 423.6 801.7 424.7C803 425.8 803.1 427.7 802 429C798.5 433.1 794.5 437.1 790.2 440.8C789.7 441.4 789 441.6 788.2 441.6ZM809.2 416.9C808.7 416.9 808.2 416.8 807.7 416.5C806.2 415.7 805.7 413.8 806.6 412.3C807.1 411.4 807.6 410.5 808 409.6C807 409.4 806.2 408.7 805.8 407.7C805.2 406.1 806.1 404.4 807.6 403.8C808.8 403.4 810 402.9 811.2 402.4C811.8 400.9 812.2 399.5 812.7 398C813.2 396.4 814.9 395.5 816.5 395.9C817.8 396.3 818.7 397.5 818.7 398.8C819.7 398.2 820.8 397.6 821.8 397C823.2 396.1 825.1 396.6 826 398C826.9 399.4 826.4 401.3 825 402.2C822.1 404 819.1 405.6 816 406.9C814.8 409.7 813.5 412.5 811.9 415.2C811.2 416.3 810.2 416.9 809.2 416.9ZM780.5 415.1C779.2 415.1 777.8 415.1 776.5 415C774.8 414.9 773.5 413.4 773.7 411.8C773.8 410.1 775.3 408.8 776.9 409C781.7 409.3 786.9 409 792.4 408C794.1 407.7 795.6 408.8 795.9 410.5C796.2 412.2 795.1 413.7 793.4 414C789 414.7 784.6 415.1 780.5 415.1ZM761 411.2C760.6 411.2 760.1 411.1 759.7 410.9C756 409.2 752.7 407 749.7 404.4C748.3 403.2 747 401.8 745.8 400.4C744.7 399.1 744.8 397.2 746.1 396.1C747.4 395 749.3 395.1 750.4 396.4C751.5 397.6 752.6 398.8 753.8 399.8C756.3 402.1 759.2 403.9 762.3 405.3C763.8 406 764.5 407.8 763.8 409.3C763.2 410.5 762.1 411.2 761 411.2ZM836.3 393C835.5 393 834.7 392.7 834.1 392C833 390.8 833 388.8 834.3 387.7C838.1 384.2 841.6 380.2 844.7 376C845.7 374.6 847.6 374.4 849 375.3C850.4 376.3 850.6 378.2 849.7 379.6C846.3 384.2 842.6 388.4 838.5 392.2C837.8 392.7 837 393 836.3 393ZM740 387.4C738.7 387.4 737.6 386.6 737.1 385.3C735.6 381 734.8 376.6 734.8 372.3C734.8 370.8 734.9 369.4 735.1 367.9C735.3 366.2 736.8 365 738.5 365.3C740.2 365.5 741.4 367 741.1 368.7C741 369.9 740.9 371.1 740.9 372.3C740.9 375.9 741.6 379.6 742.8 383.3C743.4 384.9 742.5 386.6 740.9 387.2C740.7 387.4 740.3 387.4 740 387.4ZM818.1 386C816.3 386 815 384.5 815 382.9C815 382.3 815 381.7 815 381C815 376.4 814.5 371.7 813.7 367.3C813.4 365.6 814.5 364 816.1 363.7C817.8 363.4 819.4 364.5 819.7 366.1C820.6 370.9 821.1 376 821.1 380.9C821.1 381.6 821.1 382.3 821.1 382.9C821.1 384.6 819.8 386 818.1 386ZM855.5 366.9C855 366.9 854.6 366.8 854.1 366.6C852.6 365.9 852 364 852.7 362.5C855 357.8 857 352.9 858.4 347.8C858.9 346.2 860.6 345.3 862.2 345.7C863.8 346.2 864.7 347.9 864.3 349.5C862.7 354.8 860.7 360.1 858.2 365.1C857.7 366.3 856.6 366.9 855.5 366.9ZM744 356.3C743.4 356.3 742.8 356.1 742.3 355.8C740.9 354.9 740.5 353 741.5 351.6C744.7 346.9 748.8 342.8 753.7 339.4C755.1 338.4 757 338.8 757.9 340.2C758.9 341.6 758.5 343.5 757.1 344.4C752.8 347.4 749.2 351 746.4 355C745.9 355.9 745 356.3 744 356.3ZM811.6 354.4C810.5 354.4 809.4 353.8 808.9 352.8C806.4 348 803.2 344.2 799.5 341.4C798.1 340.4 797.8 338.5 798.8 337.1C799.8 335.7 801.7 335.4 803.1 336.4C807.6 339.7 811.4 344.2 814.3 349.9C815.1 351.4 814.5 353.2 813 354C812.6 354.3 812.1 354.4 811.6 354.4ZM770.1 337.9C768.8 337.9 767.6 337 767.2 335.7C766.7 334.1 767.7 332.4 769.3 331.9C773.7 330.6 778.1 330 782.4 330C783.8 330 785.2 330.1 786.6 330.2C788.3 330.4 789.5 331.9 789.3 333.5C789.1 335.2 787.6 336.4 786 336.2C784.8 336.1 783.6 336 782.4 336C778.7 336 774.9 336.6 771 337.7C770.7 337.9 770.4 337.9 770.1 337.9ZM864.6 335.8C864.5 335.8 864.4 335.8 864.3 335.8C862.6 335.6 861.4 334.1 861.6 332.4C861.9 329.5 862.1 326.6 862.1 323.7C862.1 321.4 862 319 861.8 316.7C861.7 315 862.9 313.5 864.6 313.4C866.3 313.3 867.8 314.5 867.9 316.2C868.1 318.7 868.2 321.2 868.2 323.7C868.2 326.8 868 329.9 867.7 333C867.5 334.6 866.2 335.8 864.6 335.8ZM862 303.5C860.7 303.5 859.4 302.6 859.1 301.2C857.7 296.2 855.9 291.2 853.7 286.4C853 284.9 853.7 283.1 855.2 282.3C856.7 281.6 858.5 282.3 859.3 283.8C861.7 288.9 863.6 294.2 865.1 299.6C865.5 301.2 864.6 302.9 862.9 303.3C862.5 303.5 862.2 303.5 862 303.5ZM848.4 274.1C847.4 274.1 846.5 273.6 845.9 272.8C843 268.5 839.7 264.3 836 260.4C834.9 259.2 834.9 257.2 836.2 256.1C837.4 255 839.4 255 840.5 256.3C844.3 260.4 847.8 264.8 850.9 269.4C851.8 270.8 851.5 272.7 850.1 273.6C849.6 273.9 849 274.1 848.4 274.1ZM826.3 250.3C825.6 250.3 825 250.1 824.4 249.6C820.3 246.3 815.9 243.3 811.3 240.6C809.8 239.7 809.4 237.9 810.2 236.4C811.1 234.9 812.9 234.5 814.4 235.3C819.2 238.1 823.9 241.3 828.2 244.7C829.5 245.8 829.7 247.7 828.7 249C828.1 249.9 827.2 250.3 826.3 250.3Z" fill="#0091D5"/>
<path d="M337.866 37.9429C346.336 34.4344 350.358 24.7236 346.849 16.2534C343.341 7.78313 333.63 3.76088 325.16 7.26944C316.69 10.778 312.667 20.4888 316.176 28.959C319.685 37.4292 329.395 41.4515 337.866 37.9429Z" fill="#0091D5"/>
<path d="M841.42 572.081C842.925 562.813 836.631 554.081 827.363 552.577C818.095 551.073 809.363 557.367 807.859 566.634C806.355 575.902 812.649 584.634 821.916 586.138C831.184 587.643 839.916 581.349 841.42 572.081Z" fill="#0091D5"/>
<path d="M184.637 750.221C194.321 740.536 194.321 724.833 184.637 715.148C174.952 705.464 159.249 705.464 149.564 715.148C139.879 724.833 139.879 740.536 149.564 750.221C159.249 759.906 174.952 759.906 184.637 750.221Z" fill="#0091D5"/>
</svg>
