<svg width="100" height="100" viewBox="0 0 100 100" fill="none" xmlns="http://www.w3.org/2000/svg">
<g clip-path="url(#clip0_90_6893)">
<path d="M0 37.5L48.15 68.1438C48.7 68.55 49.35 68.75 50 68.75C50.65 68.75 51.3 68.55 51.85 68.1438L100 37.5L51.875 0.625029C51.3337 0.220294 50.6759 0.00158691 50 0.00158691C49.3241 0.00158691 48.6663 0.220294 48.125 0.625029L0 37.5Z" fill="#64B5F6"/>
<path d="M81.25 0H18.75C15.3063 0 12.5 2.80625 12.5 6.25V75C12.5 76.725 13.9 78.125 15.625 78.125H84.375C86.1 78.125 87.5 76.725 87.5 75V6.25C87.5 2.80625 84.7 0 81.25 0Z" fill="#ECEFF1"/>
<path d="M28.125 18.75H71.875C73.6 18.75 75 17.35 75 15.625C75 13.9 73.6 12.5 71.875 12.5H28.125C26.4 12.5 25 13.9 25 15.625C25 17.35 26.4 18.75 28.125 18.75ZM71.875 25H28.125C26.4 25 25 26.4 25 28.125C25 29.85 26.4 31.25 28.125 31.25H71.875C73.6 31.25 75 29.85 75 28.125C75 26.4 73.6 25 71.875 25ZM53.125 37.5H28.125C26.4 37.5 25 38.9 25 40.625C25 42.35 26.4 43.75 28.125 43.75H53.125C54.85 43.75 56.25 42.35 56.25 40.625C56.25 38.9 54.85 37.5 53.125 37.5Z" fill="#90A4AE"/>
<path d="M51.85 68.1437C51.3 68.55 50.65 68.75 50 68.75C49.35 68.75 48.7 68.55 48.15 68.1437L0 37.5V93.75C0 97.2 2.8 100 6.25 100H93.75C97.2 100 100 97.2 100 93.75V37.5L51.85 68.1437Z" fill="#1E88E5"/>
<path d="M93.75 100H6.25C2.74375 100 0 97.2562 0 93.75C0.000279479 93.2596 0.115816 92.7762 0.337288 92.3387C0.558761 91.9011 0.879969 91.5218 1.275 91.2313L48.15 59.9813C48.7 59.575 49.35 59.375 50 59.375C50.65 59.375 51.3 59.575 51.85 59.9813L98.725 91.2313C99.12 91.5218 99.4412 91.9011 99.6627 92.3387C99.8842 92.7762 99.9997 93.2596 100 93.75C100 97.2562 97.2562 100 93.75 100Z" fill="#2196F3"/>
</g>
<defs>
<clipPath id="clip0_90_6893">
<rect width="100" height="100" fill="white"/>
</clipPath>
</defs>
</svg>
