<svg width="100" height="100" viewBox="0 0 100 100" fill="none" xmlns="http://www.w3.org/2000/svg">
<path d="M69.5171 19.6304L58.168 0.115055C57.3003 0.0506234 56.4244 0.0168457 55.5409 0.0168457H14.8313C6.67412 0.0168457 0 6.69097 0 14.848V85.1519C0 93.3091 6.67412 99.9833 14.8313 99.9833H76.0856C84.2428 99.9833 90.9169 93.3091 90.9169 85.1519V35.3927C90.9169 33.5771 90.7781 31.7923 90.5108 30.0486L69.5171 19.6304Z" fill="#ECEFF1"/>
<path d="M31.3358 99.9596C23.1785 99.9596 16.5044 93.2855 16.5044 85.1283V14.8246C16.5044 6.94069 22.7392 0.443265 30.5214 0.0168457H14.8313C6.67413 0.0168457 0 6.69097 0 14.848V85.1519C0 93.3091 6.67413 99.9833 14.8313 99.9833H76.0856C76.3587 99.9833 76.6301 99.9745 76.8998 99.9596H31.3358Z" fill="#D9D9D9"/>
<path d="M29.2502 49.1439C32.5122 49.1439 35.1566 47.0381 35.1566 44.4404C35.1566 41.8428 32.5122 39.7369 29.2502 39.7369C25.9881 39.7369 23.3438 41.8428 23.3438 44.4404C23.3438 47.0381 25.9881 49.1439 29.2502 49.1439Z" fill="#FFA1AC"/>
<path d="M61.2638 49.1439C64.5259 49.1439 67.1703 47.0381 67.1703 44.4404C67.1703 41.8428 64.5259 39.7369 61.2638 39.7369C58.0018 39.7369 55.3574 41.8428 55.3574 44.4404C55.3574 47.0381 58.0018 49.1439 61.2638 49.1439Z" fill="#FFA1AC"/>
<path d="M32.254 41.7313C31.3949 41.7311 30.5458 41.5467 29.764 41.1907C28.9821 40.8346 28.2857 40.3151 27.7215 39.6671C27.4664 39.3743 27.3381 38.9921 27.3648 38.6046C27.3915 38.2171 27.571 37.8562 27.8639 37.601C28.1567 37.3459 28.5389 37.2176 28.9264 37.2443C29.3139 37.271 29.6749 37.4505 29.93 37.7434C30.5165 38.4166 31.3637 38.8028 32.254 38.8028C33.1443 38.8028 33.9915 38.4166 34.5782 37.7432C34.8334 37.4504 35.1944 37.2709 35.5819 37.2443C35.9693 37.2177 36.3515 37.3461 36.6443 37.6012C36.9371 37.8564 37.1166 38.2174 37.1432 38.6049C37.1698 38.9924 37.0414 39.3745 36.7863 39.6673C36.2222 40.3153 35.5257 40.8347 34.7439 41.1908C33.9621 41.5468 33.1131 41.7311 32.254 41.7313ZM58.2611 41.7313C57.402 41.7311 56.5529 41.5467 55.771 41.1907C54.9892 40.8346 54.2927 40.3151 53.7286 39.6671C53.4735 39.3743 53.3452 38.9921 53.3719 38.6046C53.3986 38.2171 53.5781 37.8562 53.871 37.601C54.1638 37.3459 54.546 37.2176 54.9335 37.2443C55.321 37.271 55.6819 37.4505 55.9371 37.7434C56.5236 38.4166 57.3707 38.8028 58.2611 38.8028C59.1514 38.8028 59.9986 38.4166 60.5853 37.7432C60.8405 37.4504 61.2015 37.2709 61.5889 37.2443C61.9764 37.2177 62.3586 37.3461 62.6514 37.6012C62.9442 37.8564 63.1237 38.2174 63.1503 38.6049C63.1769 38.9924 63.0485 39.3745 62.7933 39.6673C62.2293 40.3153 61.5328 40.8347 60.751 41.1908C59.9692 41.5468 59.1201 41.7311 58.2611 41.7313ZM41.9443 46.4289C41.6633 46.4288 41.3882 46.3478 41.152 46.1956C40.9157 46.0434 40.7282 45.8265 40.6119 45.5707C40.4956 45.3149 40.4553 45.031 40.4959 44.7529C40.5364 44.4748 40.6562 44.2143 40.8408 44.0024C41.3905 43.371 42.0691 42.8648 42.831 42.5178C43.5929 42.1709 44.4203 41.9912 45.2574 41.991C46.0946 41.9912 46.9219 42.1709 47.6838 42.5179C48.4456 42.8648 49.1242 43.371 49.6739 44.0024C49.8003 44.1474 49.8969 44.3158 49.9582 44.498C50.0194 44.6803 50.0442 44.8729 50.031 45.0647C50.0179 45.2566 49.967 45.444 49.8814 45.6162C49.7958 45.7884 49.6772 45.942 49.5322 46.0683C49.3872 46.1947 49.2188 46.2913 49.0366 46.3526C48.8543 46.4139 48.6617 46.4387 48.4698 46.4255C48.278 46.4123 48.0906 46.3615 47.9184 46.2759C47.7462 46.1903 47.5926 46.0716 47.4663 45.9266C46.9084 45.2867 46.1034 44.9197 45.2574 44.9197C44.4114 44.9197 43.6064 45.2867 43.0488 45.9266C42.9115 46.0846 42.7418 46.2112 42.5512 46.2979C42.3606 46.3846 42.1536 46.4293 41.9443 46.4289Z" fill="#303646"/>
<path d="M58.168 0.11499V22.9813C58.168 26.8843 61.3319 30.0483 65.2349 30.0483H90.5108C88.0448 13.9521 74.6271 1.33821 58.168 0.11499Z" fill="#D9D9D9"/>
<path d="M62.0094 62.1284H12.978C12.1691 62.1284 11.5137 61.473 11.5137 60.6641C11.5137 59.8552 12.1691 59.1997 12.978 59.1997H62.0094C62.8183 59.1997 63.4738 59.8552 63.4738 60.6641C63.4738 61.473 62.8181 62.1284 62.0094 62.1284ZM59.4862 73.1948H12.978C12.1691 73.1948 11.5137 72.5394 11.5137 71.7305C11.5137 70.9215 12.1691 70.2661 12.978 70.2661H59.4862C60.2951 70.2661 60.9506 70.9215 60.9506 71.7305C60.9506 72.5394 60.2949 73.1948 59.4862 73.1948ZM46.1144 84.5964H24.9834C24.1745 84.5964 23.519 83.941 23.519 83.1321C23.519 82.3232 24.1745 81.6677 24.9834 81.6677H46.1144C46.9233 81.6677 47.5787 82.3232 47.5787 83.1321C47.5787 83.941 46.9231 84.5964 46.1144 84.5964ZM18.4444 84.5964H12.978C12.1691 84.5964 11.5137 83.941 11.5137 83.1321C11.5137 82.3232 12.1691 81.6677 12.978 81.6677H18.4444C19.2533 81.6677 19.9087 82.3232 19.9087 83.1321C19.9087 83.941 19.2531 84.5964 18.4444 84.5964Z" fill="#A7B7BF"/>
<path d="M77.1961 94.1471C89.7901 94.1471 99.9995 83.9376 99.9995 71.3436C99.9995 58.7496 89.7901 48.5402 77.1961 48.5402C64.602 48.5402 54.3926 58.7496 54.3926 71.3436C54.3926 83.9376 64.602 94.1471 77.1961 94.1471Z" fill="#FF8A98"/>
<path d="M68.0032 71.3436C68.0032 61.1199 74.7315 52.4679 84.0014 49.5732C81.8521 48.9021 79.5663 48.5402 77.1961 48.5402C64.602 48.5402 54.3926 58.7496 54.3926 71.3436C54.3926 83.9376 64.602 94.1471 77.1961 94.1471C79.5663 94.1471 81.8521 93.7851 84.0014 93.1141C74.7315 90.2193 68.0032 81.5674 68.0032 71.3436Z" fill="#FD5C6F"/>
<path d="M83.2229 71.3436L87.2411 67.3255C88.9054 65.6612 88.9054 62.9627 87.2411 61.2984C85.5768 59.6341 82.8783 59.6341 81.214 61.2984L77.1958 65.3166L73.1776 61.2984C71.5134 59.6341 68.8148 59.6341 67.1506 61.2984C65.4863 62.9627 65.4863 65.6612 67.1506 67.3255L71.1687 71.3436L67.1506 75.3618C65.4863 77.0261 65.4863 79.7246 67.1506 81.3889C68.8148 83.0532 71.5134 83.0532 73.1776 81.3889L77.1958 77.3707L81.214 81.3889C82.8783 83.0532 85.5768 83.0532 87.2411 81.3889C88.9054 79.7246 88.9054 77.0261 87.2411 75.3618L83.2229 71.3436Z" fill="#F6334C"/>
</svg>
