<svg width="21" height="21" viewBox="0 0 21 21" fill="none" xmlns="http://www.w3.org/2000/svg">
<path d="M15.0007 5.03516C14.4503 5.03516 14.004 5.48157 14.004 6.03208C14.004 6.58211 14.4503 7.02852 15.0007 7.02852C15.551 7.02852 15.9973 6.58211 15.9973 6.03208C15.9973 5.48157 15.551 5.03516 15.0007 5.03516Z" fill="white"/>
<path d="M10.5689 6.31445C8.2603 6.31445 6.38208 8.19258 6.38208 10.5011C6.38208 12.8097 8.2603 14.6878 10.5689 14.6878C12.8775 14.6878 14.7557 12.8097 14.7557 10.5011C14.7557 8.19258 12.8775 6.31445 10.5689 6.31445ZM10.5689 13.1825C9.09032 13.1825 7.88743 11.9798 7.88743 10.5011C7.88743 9.0215 9.09032 7.8188 10.5689 7.8188C12.0474 7.8188 13.2503 9.0215 13.2503 10.5011C13.2503 11.9798 12.0474 13.1825 10.5689 13.1825Z" fill="white"/>
<path d="M13.893 19H7.10604C4.29073 19 2 16.7094 2 13.8934V7.10615C2 4.29065 4.29073 2 7.10604 2H13.893C16.7093 2 19 4.29065 19 7.10615V13.8934C19 16.7094 16.7093 19 13.893 19ZM7.10604 3.59973C5.17229 3.59973 3.59856 5.17234 3.59856 7.10615V13.8934C3.59856 15.8281 5.17229 17.4008 7.10604 17.4008H13.893C15.8277 17.4008 17.4005 15.8281 17.4005 13.8934V7.10615C17.4005 5.17234 15.8277 3.59973 13.893 3.59973H7.10604Z" fill="white"/>
</svg>
