<svg width="24" height="24" viewBox="0 0 24 24" fill="none" xmlns="http://www.w3.org/2000/svg">
<path d="M5.22601 9.521H8.05801V18.6182H5.22601V9.521ZM6.642 5C7.548 5 8.28101 5.73535 8.28101 6.63818C8.28101 7.54297 7.548 8.2793 6.642 8.2793C5.73401 8.2793 5 7.54297 5 6.63818C5 5.73535 5.73401 5 6.642 5Z" fill="white"/>
<path d="M9.83203 9.52002H12.544V10.7642H12.58C12.959 10.0483 13.881 9.29492 15.259 9.29492C18.122 9.29492 18.649 11.1782 18.649 13.6279V18.6172H15.824V14.1943C15.824 13.1382 15.803 11.7822 14.354 11.7822C12.882 11.7822 12.657 12.9312 12.657 14.1172V18.6172H9.83203V9.52002Z" fill="white"/>
</svg>
