<svg width="24" height="24" viewBox="0 0 24 24" fill="none" xmlns="http://www.w3.org/2000/svg">
<path d="M20.9853 16.4791L15.5692 11.0631L12.0463 14.5851L8.76919 11.3267L12.3013 7.79501L6.88528 2.37997C6.63919 2.1329 6.29226 1.98593 5.94729 2.00107C5.60024 2.00693 5.26626 2.15585 5.03225 2.4078C0.881251 6.86679 1.00723 13.7369 5.31729 18.047C7.5242 20.254 10.4032 21.3639 13.2852 21.3639C16.0313 21.3639 18.7803 20.357 20.9562 18.3331C21.2083 18.0977 21.3572 17.7638 21.3632 17.4171C21.3693 17.068 21.2322 16.7257 20.9853 16.4791ZM6.61819 16.7457C3.1492 13.276 2.91921 7.82577 5.99929 4.09482L9.69924 7.79501L7.46829 10.026C7.12319 10.3707 6.93325 10.8297 6.93325 11.318C6.93325 11.8048 7.12319 12.2638 7.46829 12.609L10.7553 15.8961C11.1002 16.2408 11.5592 16.4308 12.0463 16.4308C12.5342 16.4308 12.9932 16.2408 13.3383 15.8961L15.5692 13.6651L19.2692 17.3648C15.5382 20.4439 10.0872 20.2149 6.61819 16.7457Z" fill="white"/>
</svg>
