<svg width="82" height="78" viewBox="0 0 82 78" fill="none" xmlns="http://www.w3.org/2000/svg">
<path d="M81.625 36.8333V61.8333C81.8697 63.9444 81.6338 66.0835 80.9351 68.0906C80.2364 70.0976 79.0929 71.9207 77.5901 73.4235C76.0874 74.9262 74.2643 76.0698 72.2572 76.7685C70.2502 77.4672 68.1111 77.703 66 77.4583H16C13.8889 77.703 11.7498 77.4672 9.74275 76.7685C7.73568 76.0698 5.91258 74.9262 4.40983 73.4235C2.90707 71.9207 1.76357 70.0976 1.06486 68.0906C0.366141 66.0835 0.130305 63.9444 0.374989 61.8333V20.1667C0.130305 18.0556 0.366141 15.9165 1.06486 13.9094C1.76357 11.9024 2.90707 10.0793 4.40983 8.5765C5.91258 7.07375 7.73568 5.93025 9.74275 5.23153C11.7498 4.53282 13.8889 4.29698 16 4.54167H45.1667C45.9955 4.54167 46.7903 4.87091 47.3764 5.45696C47.9624 6.04301 48.2917 6.83786 48.2917 7.66667C48.2917 8.49547 47.9624 9.29032 47.3764 9.87638C46.7903 10.4624 45.9955 10.7917 45.1667 10.7917H16C9.42916 10.7917 6.62499 13.5958 6.62499 20.1667V58.7083L17.2083 48.125C17.995 47.3444 19.0584 46.9063 20.1667 46.9063C21.2749 46.9063 22.3383 47.3444 23.125 48.125L27.0417 52.0417C27.4311 52.4234 27.9547 52.6372 28.5 52.6372C29.0453 52.6372 29.5689 52.4234 29.9583 52.0417L50.5417 31.4583C51.3284 30.6777 52.3917 30.2397 53.5 30.2397C54.6083 30.2397 55.6716 30.6777 56.4583 31.4583L75.375 50.375V36.8333C75.375 36.0045 75.7042 35.2097 76.2903 34.6236C76.8763 34.0376 77.6712 33.7083 78.5 33.7083C79.3288 33.7083 80.1236 34.0376 80.7097 34.6236C81.2957 35.2097 81.625 36.0045 81.625 36.8333ZM24.3042 23.2917C22.9208 23.2955 21.5955 23.8483 20.6193 24.8285C19.6432 25.8088 19.096 27.1364 19.0979 28.5198C19.0998 29.9032 19.6507 31.2292 20.6296 32.2067C21.6085 33.1843 22.9354 33.7333 24.3187 33.7333C25.7021 33.7333 27.029 33.1843 28.0078 32.2067C28.9867 31.2292 29.5376 29.9032 29.5396 28.5198C29.5415 27.1364 28.9943 25.8088 28.0182 24.8285C27.042 23.8483 25.7167 23.2955 24.3333 23.2917H24.3042ZM61.8333 14.9583H67.0416V20.1667C67.0416 20.9955 67.3709 21.7903 67.9569 22.3764C68.543 22.9624 69.3379 23.2917 70.1666 23.2917C70.9955 23.2917 71.7903 22.9624 72.3764 22.3764C72.9624 21.7903 73.2916 20.9955 73.2916 20.1667V14.9583H78.5C79.3288 14.9583 80.1236 14.6291 80.7097 14.043C81.2957 13.457 81.625 12.6621 81.625 11.8333C81.625 11.0045 81.2957 10.2097 80.7097 9.62362C80.1236 9.03757 79.3288 8.70833 78.5 8.70833H73.2916V3.5C73.2916 2.6712 72.9624 1.87634 72.3764 1.29029C71.7903 0.70424 70.9955 0.375 70.1666 0.375C69.3379 0.375 68.543 0.70424 67.9569 1.29029C67.3709 1.87634 67.0416 2.6712 67.0416 3.5V8.70833H61.8333C61.0045 8.70833 60.2097 9.03757 59.6236 9.62362C59.0376 10.2097 58.7083 11.0045 58.7083 11.8333C58.7083 12.6621 59.0376 13.457 59.6236 14.043C60.2097 14.6291 61.0045 14.9583 61.8333 14.9583Z" fill="url(#paint0_linear_84_5807)"/>
<defs>
<linearGradient id="paint0_linear_84_5807" x1="41" y1="0.375" x2="41" y2="77.5521" gradientUnits="userSpaceOnUse">
<stop stop-color="#0096D7"/>
<stop offset="1" stop-color="#004F71"/>
</linearGradient>
</defs>
</svg>
