<svg width="452" height="393" viewBox="0 0 452 393" fill="none" xmlns="http://www.w3.org/2000/svg">
<g clip-path="url(#clip0_45_2)">
<path d="M273.232 72.7189C273.232 72.7189 279.896 57.4529 289.629 63.8089C292.317 65.5629 294.213 68.3629 294.961 71.5089C296.549 78.1819 295.859 89.7589 279.503 94.0599C279.818 94.7569 273.232 72.7189 273.232 72.7189Z" fill="#D17F63"/>
<path d="M217.737 153.497L218.417 83.5219L264.24 105.289L263.548 157.814C263.5 161.396 265.442 164.702 268.574 166.371L290.897 178.27C290.897 178.27 249.373 227.254 185.843 170.287C194.033 167.96 204.539 164.626 211.19 162.478C215.06 161.228 217.697 157.607 217.737 153.497Z" fill="#E99E7F"/>
<path d="M218.1 116.173L218.189 107.078C220.302 100.977 223.873 92.5889 226.223 87.2279L264.24 105.288L263.831 136.324C254.372 137.987 237.226 136.902 218.1 116.173Z" fill="#D17F63"/>
<path d="M207.542 72.8809C209.475 103.772 228.122 125.835 249.269 126.364C281.072 127.158 285.928 98.8719 283.995 67.9819C282.062 37.0909 263.38 13.1469 242.268 14.4989C221.156 15.8519 205.609 41.9909 207.542 72.8809Z" fill="#E99E7F"/>
<path d="M238.523 74.6569C238.782 76.7249 238.139 78.5109 237.085 78.6459C236.033 78.7819 234.968 77.2159 234.707 75.1479C234.448 73.0799 235.091 71.2939 236.144 71.1589C237.198 71.0229 238.263 72.5889 238.523 74.6569Z" fill="#382C2E"/>
<path d="M274.273 72.3669C274.533 74.4349 273.89 76.2209 272.836 76.3559C271.784 76.4919 270.719 74.9259 270.458 72.8579C270.199 70.7899 270.843 69.0039 271.895 68.8679C272.949 68.7329 274.014 70.2979 274.273 72.3669Z" fill="#382C2E"/>
<path d="M283.357 61.6929C281.158 54.2589 275.796 39.9169 260.489 42.5099C255.842 43.2969 251.729 46.0489 247.161 47.2199C236.518 49.9479 224.357 43.9919 219.87 33.8519C217.683 28.9119 216.982 24.1369 215.167 19.0449C216.798 11.0559 224.369 5.0119 231.993 2.35691C248.795 -3.4951 268.837 1.82489 280.637 15.2699C292.435 28.7159 291.087 45.5029 283.357 61.6929Z" fill="#382C2E"/>
<path d="M210.978 78.8509C212.457 72.0069 210.141 64.2389 213.443 57.8549C214.604 55.6099 216.046 53.5209 217.177 51.2589C220.164 45.2859 222.897 37.2369 221.061 30.8059C219.802 26.3919 219.858 22.8199 217.287 19.0329C217.248 16.4319 212.219 13.2749 209.725 12.6429C207.229 12.0139 204.576 12.6679 202.231 13.7369C191.891 18.4489 186.599 30.4809 185.604 41.9109C185.264 45.7979 185.32 49.7749 186.381 53.5269C188.349 60.4949 193.524 65.9929 198.561 71.1449C202.259 74.9289 206.201 82.3269 210.978 78.8509Z" fill="#382C2E"/>
<path d="M211.556 74.1619C211.556 74.1619 198.738 63.6599 192.947 73.8109C191.347 76.6129 190.924 79.9809 191.678 83.1249C193.276 89.7959 199.115 99.7759 215.607 96.0469C215.641 96.8109 211.556 74.1619 211.556 74.1619Z" fill="#E99E7F"/>
<path d="M210.223 90.0159C209.644 90.0159 209.079 89.7199 208.757 89.1859C204.099 81.4309 196.285 80.9369 196.207 80.9329C195.264 80.8839 194.54 80.0789 194.59 79.1339C194.639 78.1899 195.447 77.4649 196.384 77.5129C196.778 77.5339 206.1 78.1219 211.685 87.4209C212.172 88.2309 211.912 89.2829 211.103 89.7699C210.827 89.9369 210.524 90.0159 210.223 90.0159Z" fill="#2E2626"/>
<path d="M201.04 88.1329C200.633 88.1329 200.225 87.9889 199.899 87.6959C199.196 87.0639 199.137 85.9819 199.768 85.2779L203.145 81.5029C203.775 80.7989 204.856 80.7399 205.558 81.3709C206.261 82.0029 206.32 83.0849 205.689 83.7889L202.312 87.5639C201.975 87.9409 201.509 88.1329 201.04 88.1329Z" fill="#2E2626"/>
<path d="M229.12 66.8789C228.364 66.8789 227.674 66.3729 227.469 65.6069C227.226 64.6929 227.769 63.7549 228.681 63.5119C236.341 61.4689 242.167 62.6099 242.412 62.6599C243.337 62.8479 243.935 63.7509 243.748 64.6779C243.562 65.6029 242.664 66.2029 241.737 66.0169C241.668 66.0029 236.39 64.9999 229.56 66.8209C229.413 66.8599 229.265 66.8789 229.12 66.8789Z" fill="#382C2E"/>
<path d="M265.944 63.7629C265.206 63.7629 264.524 63.2789 264.306 62.5329C264.04 61.6259 264.558 60.6729 265.463 60.4079C271.697 58.5719 278.023 60.3249 278.29 60.3999C279.198 60.6579 279.725 61.6039 279.468 62.5139C279.211 63.4219 278.269 63.9519 277.361 63.6959C277.276 63.6719 271.681 62.1479 266.426 63.6929C266.266 63.7399 266.104 63.7629 265.944 63.7629Z" fill="#382C2E"/>
<path d="M258.236 93.9509C256.717 93.9509 254.941 93.7799 252.896 93.4379C251.965 93.2829 251.336 92.4009 251.491 91.4679C251.647 90.5349 252.527 89.9049 253.457 90.0589C259.435 91.0569 261.13 90.1859 261.5 89.9019C256.963 77.4499 257.096 67.4729 257.104 67.0479C257.121 66.1029 257.905 65.3509 258.845 65.3699C259.788 65.3879 260.538 66.1689 260.52 67.1139C260.517 67.2759 260.417 77.1799 264.869 89.1589C264.899 89.2399 264.923 89.3229 264.941 89.4079C265.095 90.1499 264.935 91.2799 264.026 92.2279C262.923 93.3789 261.011 93.9509 258.236 93.9509Z" fill="#2E2626"/>
<path d="M259.173 107.605C259.129 107.605 259.084 107.603 259.038 107.6C258.668 107.571 249.922 106.819 243.137 100.772C242.431 100.143 242.368 99.0609 242.996 98.3539C243.623 97.6479 244.702 97.5839 245.408 98.2129C251.344 103.503 259.226 104.179 259.305 104.186C260.246 104.26 260.949 105.084 260.875 106.027C260.805 106.924 260.057 107.605 259.173 107.605Z" fill="#2E2626"/>
<path d="M240.498 54.4479C238.406 54.4479 236.425 54.0649 234.633 53.2879C231.844 52.0799 229.328 49.9189 226.715 46.4889C223.981 42.8979 221.792 38.9269 220.212 34.6869C219.881 33.8009 220.329 32.8139 221.214 32.4829C222.1 32.1529 223.082 32.6019 223.413 33.4879C224.876 37.4129 226.902 41.0879 229.433 44.4109C231.675 47.3569 233.759 49.1779 235.989 50.1449C239.959 51.8649 245.268 51.0519 250.554 47.9139C252.909 46.5149 255.166 44.7839 257.35 43.1099C259.585 41.3959 261.897 39.6229 264.393 38.1319C268.7 35.5589 273.594 33.8319 278.548 33.1349C280.658 32.8389 283.363 32.6919 285.573 34.2029C286.353 34.7349 286.554 35.8009 286.022 36.5819C285.491 37.3639 284.429 37.5639 283.648 37.0319C282.405 36.1819 280.523 36.3149 279.023 36.5269C274.516 37.1599 270.062 38.7319 266.143 41.0729C263.817 42.4629 261.585 44.1749 259.426 45.8299C257.164 47.5639 254.826 49.3579 252.296 50.8599C248.3 53.2319 244.223 54.4479 240.498 54.4479Z" fill="#382C2E"/>
<path d="M250.944 240.451C250.944 240.451 381.135 333.553 440.204 299.095C448.87 275.894 394.749 253.529 394.749 253.529L326.928 193.989C326.928 193.989 257.607 204.695 250.944 240.451Z" fill="#00B8A5"/>
<path d="M119.727 189.238C119.727 189.238 20.3479 260.57 1.67356 328.306C1.53986 330.172 62.8448 319.351 62.8448 319.351L137.049 276.041C137.049 276.041 149.936 206.114 119.727 189.238Z" fill="#00B8A5"/>
<path d="M119.727 189.238C127.847 184.806 204.539 164.625 211.19 162.478C215.06 161.228 214.471 148.29 215.458 143.985L265.608 144.447C267.053 150.229 266.556 162.319 269.582 164.176C292.266 178.089 328.497 187.218 354.047 216.051C354.081 216.591 313.855 260.71 309.857 438.088C296.843 441.902 220.354 470.345 125.435 429.491C126.236 427.083 138.533 232.735 119.727 189.238Z" fill="#00B8A5"/>
<path d="M130.285 272.165C129.376 272.165 128.62 271.447 128.58 270.527C128.552 269.888 125.712 206.367 118.663 191.11C118.267 190.252 118.64 189.234 119.496 188.837C120.353 188.44 121.368 188.813 121.765 189.671C129.095 205.538 131.879 267.738 131.994 270.378C132.034 271.323 131.304 272.122 130.361 272.163C130.336 272.165 130.31 272.165 130.285 272.165Z" fill="#2E2626"/>
<path d="M326.753 288.321C326.711 288.321 326.67 288.319 326.627 288.316C325.686 288.248 324.978 287.427 325.047 286.484C327.026 259.267 351.012 217.815 352.033 216.064C352.509 215.247 353.554 214.972 354.37 215.448C355.186 215.924 355.46 216.973 354.985 217.79C354.739 218.212 330.376 260.31 328.455 286.733C328.389 287.634 327.639 288.321 326.753 288.321Z" fill="#2E2626"/>
<path d="M243.306 168.713C233.632 168.713 222.446 167.551 211.728 163.75C210.839 163.434 210.373 162.456 210.687 161.565C211.003 160.673 211.98 160.206 212.869 160.522C238.925 169.762 268.876 162.587 269.175 162.513C270.092 162.288 271.016 162.85 271.242 163.769C271.466 164.687 270.906 165.614 269.989 165.839C269.227 166.026 258.013 168.713 243.306 168.713Z" fill="#2E2626"/>
<path d="M100.782 258.771C100.782 258.771 130.375 236.21 144.233 230.616C144.048 230.938 148.969 272.577 145.057 287.483C137.049 291.042 132.382 297.11 111.258 293.358C111.416 293.452 103.27 297.253 103.27 297.253L95.3745 262.25L100.782 258.771Z" fill="#E99E7F"/>
<path d="M188.938 282.048C188.693 277.797 172.617 275.26 158.773 273.86C158.748 273.847 158.724 273.833 158.7 273.82C156.932 272.839 157.275 270.155 159.215 269.596C160.956 269.094 162.343 268.727 162.372 268.819C196.838 262.572 202.62 258.04 201.988 254.378C201.476 252.877 198.894 252.216 195.164 252.095C200.345 250.153 201.627 248.274 201.426 246.509C199.791 240.645 168.092 244.273 156.293 245.834C155.568 245.931 154.959 245.255 155.147 244.539L155.153 244.518C155.257 244.126 155.572 243.821 155.965 243.74C184.638 237.853 195.458 232.849 195.038 229.182C193.027 221.97 144.233 230.616 144.233 230.616L145.056 287.482L155.289 285.834V285.832C182.878 288.034 188.597 285.429 188.938 282.048Z" fill="#E99E7F"/>
<path d="M155.887 257.903C155.023 257.903 154.281 257.248 154.19 256.368C154.092 255.427 154.773 254.585 155.712 254.487L194.986 250.393C195.932 250.295 196.765 250.978 196.863 251.918C196.961 252.859 196.279 253.701 195.34 253.799L156.066 257.894C156.006 257.9 155.946 257.903 155.887 257.903Z" fill="#2E2626"/>
<path d="M99.1815 254.405C99.1815 254.405 105.339 299.797 108.168 309.706C108.72 309.704 34.3818 383.722 4.92982 354.318C4.96475 354.875 -32.6123 310.346 99.1815 254.405Z" fill="#00B8A5"/>
<path d="M21.6891 306.157C21.234 306.157 20.781 305.976 20.4447 305.619C19.798 304.93 19.8299 303.847 20.5175 303.198C57.1905 268.593 98.1725 252.956 98.5817 252.802C99.0637 252.62 99.6026 252.667 100.047 252.928C100.491 253.189 100.794 253.638 100.871 254.148L101.614 259.066C101.756 260.001 101.114 260.873 100.181 261.015C99.2453 261.157 98.3771 260.513 98.2354 259.578L97.8153 256.799C89.275 260.341 54.4582 275.875 22.8607 305.691C22.5304 306.003 22.1092 306.157 21.6891 306.157Z" fill="#2E2626"/>
<path d="M374.283 161.501C379.251 166.512 381.261 180.614 381.261 180.614L407.448 178.261C407.448 178.261 402.909 163.784 401.087 153.462C399.031 154.72 374.283 161.501 374.283 161.501Z" fill="#E99E7F"/>
<path d="M376.862 163.645L358.941 150.602L348.99 138.666C348.238 137.766 348.689 136.401 349.823 136.104C351.812 135.583 355.229 135.95 359.96 140.964C360.5 141.26 373.039 147.379 373.039 147.379L376.862 163.645Z" fill="#E99E7F"/>
<path d="M360.648 132.942C360.648 132.942 362.112 124.3 376.799 122.176C389.251 120.375 392.99 135.175 392.99 135.175C392.99 135.175 399.903 140.234 402.385 161.213C403.078 161.448 385.869 166.053 374.283 161.501C373.983 161.653 365.543 143.893 360.648 132.942Z" fill="#E99E7F"/>
<path d="M362.896 137.879L345.5 101.709C344.93 100.555 345.357 99.1539 346.474 98.5179C347.578 97.8889 348.979 98.2189 349.688 99.2749L372.556 133.396L362.896 137.879Z" fill="#EEB2A0"/>
<path d="M390.532 152.674C390.159 152.674 389.788 152.515 389.528 152.207C380.84 141.909 367.984 144.769 367.441 144.897C366.735 145.061 366.027 144.622 365.862 143.914C365.695 143.206 366.132 142.498 366.839 142.331C367.444 142.188 381.789 138.95 391.536 150.505C392.005 151.061 391.936 151.893 391.381 152.362C391.134 152.572 390.833 152.674 390.532 152.674Z" fill="#3F3130"/>
<path d="M342.981 127.919L386.127 160.408C388.163 161.941 390.854 162.29 393.212 161.325C397.834 159.432 399.202 153.528 395.883 149.789L367.545 117.867C367.545 117.867 358.478 105 342.981 127.919Z" fill="#F9E4C7"/>
<path d="M450.338 55.8869C454.998 67.3229 449.525 80.3789 438.113 85.0489C426.702 89.7189 413.672 84.2339 409.011 72.7989C404.351 61.3639 409.823 48.3069 421.236 43.6369C432.647 38.9669 445.677 44.4509 450.338 55.8869Z" fill="#A0544B"/>
<path d="M329.553 78.3729C344.046 71.2549 382.663 50.7939 399.78 27.1989C403.936 21.4709 412.753 22.5159 415.516 29.0339C423.967 48.9779 437.337 80.2459 445.845 99.2379C448.718 105.652 443.382 112.728 436.443 111.684C418.71 109.016 387.994 108.64 349.182 125.164C345.734 126.632 341.754 125.016 340.314 121.549C335.257 109.378 329.428 94.8669 326.262 86.9429C324.951 83.6619 326.386 79.9279 329.553 78.3729Z" fill="#F9E4C7"/>
<path d="M309.056 87.1349L323.887 81.0649L342.98 127.918L328.149 133.988C315.238 139.272 300.497 133.067 295.225 120.129C289.952 107.191 296.145 92.4189 309.056 87.1349Z" fill="#A0544B"/>
<path d="M342.981 129.237C342.462 129.237 341.971 128.928 341.763 128.417L322.668 81.5639C322.394 80.8899 322.716 80.1209 323.389 79.8459C324.061 79.5699 324.829 79.8929 325.104 80.5669L344.199 127.42C344.473 128.094 344.151 128.863 343.478 129.139C343.315 129.205 343.147 129.237 342.981 129.237Z" fill="#2E2626"/>
<path d="M367.545 119.185C367.026 119.185 366.535 118.875 366.327 118.365L346.49 69.6899C346.214 69.0159 346.538 68.2459 347.209 67.9709C347.882 67.6959 348.65 68.0189 348.925 68.6929L368.763 117.368C369.037 118.042 368.715 118.811 368.042 119.087C367.88 119.153 367.711 119.185 367.545 119.185Z" fill="#2E2626"/>
<path d="M383.346 118.432C384.62 120.05 382.375 123.026 381.481 124.525C378.43 129.641 373.644 133.435 369.822 137.928C368.92 138.99 367.419 139.31 366.165 138.707C364.452 137.884 363.892 135.713 364.993 134.161C367.724 130.309 369.764 125.988 372.896 122.415C374.413 120.686 376.203 118.948 378.412 118.157C379.612 117.727 382.393 117.224 383.346 118.432Z" fill="#E99E7F"/>
<path d="M388.687 121.323C390.551 122.667 388.931 126.053 388.377 127.71C386.483 133.368 382.303 138.065 379.385 143.26C378.697 144.488 377.136 145.102 375.586 144.756C373.467 144.283 372.231 142.25 372.997 140.5C374.901 136.153 375.91 131.481 378.334 127.331C379.508 125.322 380.98 123.251 383.182 122.031C384.379 121.368 387.294 120.319 388.687 121.323Z" fill="#E99E7F"/>
<path d="M394.802 125.215L394.832 125.244C396.37 126.731 395.648 128.883 395.063 130.572C393.112 136.203 389.195 140.892 386.364 146.069C385.696 147.292 384.291 147.911 382.941 147.576C381.097 147.119 380.108 145.107 380.871 143.364C382.765 139.035 383.886 134.389 386.229 130.254C387.61 127.816 389.617 124.583 392.762 124.514C393.498 124.498 394.263 124.713 394.802 125.215Z" fill="#E99E7F"/>
<path d="M398.876 136.576C397.317 141.336 393.654 145.17 391.139 149.483C390.547 150.502 389.254 150.994 387.994 150.682C386.271 150.255 385.31 148.533 385.98 147.076C387.644 143.46 388.584 139.557 390.668 136.113C391.677 134.446 393.006 132.854 394.765 131.74C398.319 129.488 400.259 132.356 398.876 136.576Z" fill="#E99E7F"/>
<path d="M381.117 193.095L381.115 193.074H381.116C380.558 184.205 380.266 175.321 380.346 166.464C380.434 156.742 395.68 177.224 404.349 172.946C405.564 172.347 414.651 193.3 414.733 193.496C422.909 213.132 428.373 232.039 430.117 245.482C430.761 250.441 430.684 260.102 428.951 265.452C427.264 270.667 423.359 275.169 418.341 277.354C413.324 279.539 407.111 279.537 402.553 276.504C385.643 265.251 381.66 201.705 381.117 193.095Z" fill="#E99E7F"/>
<path d="M368.186 181.99C368.186 181.99 409.836 182.386 420.117 182.55C420.275 182.02 472.893 281.687 436.277 301.395C436.82 301.523 383.407 324.632 368.186 181.99Z" fill="#00B8A5"/>
<path d="M395.13 271.384C395.269 270.969 395.25 270.502 395.04 270.079C375.712 231.091 370.98 193.212 370.075 183.996L372.851 184.399C373.785 184.535 374.652 183.886 374.787 182.951C374.923 182.015 374.276 181.146 373.342 181.011L368.431 180.296C367.921 180.222 367.405 180.382 367.026 180.732C366.648 181.083 366.446 181.585 366.48 182.101C366.508 182.539 369.563 226.382 391.979 271.603C392.399 272.45 393.424 272.795 394.27 272.375C394.693 272.164 394.991 271.801 395.13 271.384Z" fill="#2E2626"/>
</g>
<defs>
<clipPath id="clip0_45_2">
<rect width="452" height="393" fill="white"/>
</clipPath>
</defs>
</svg>
