<?xml version="1.0" encoding="utf-8"?>
<!-- Generator: Adobe Illustrator 27.0.0, SVG Export Plug-In . SVG Version: 6.00 Build 0)  -->
<svg version="1.1" id="Layer_1" xmlns="http://www.w3.org/2000/svg" xmlns:xlink="http://www.w3.org/1999/xlink" x="0px" y="0px"
	 viewBox="0 0 1080 1080" style="enable-background:new 0 0 1080 1080;" xml:space="preserve">
<style type="text/css">
	.st0{fill:#007AC1;}
	.st1{fill:#007B96;}
	.st2{fill:#B2B2B2;}
	.st3{fill:#F15C22;}
	.st4{fill:#FFC40C;}
	.st5{fill:#00A1B5;}
</style>
<g>
	<g>
		<path class="st0" d="M678.2,681.8c-4.9-1.2-9.9-2.4-14.5-3.5c0.2-1.7,0.4-3.5,0.4-5.1c0.6-11,0.9-18.4,0.9-18.4s-0.4-7.4-0.9-18.4
			c0-1.6-0.2-3.4-0.4-5.1c4.6-1.1,9.6-2.3,14.5-3.5c18.7-4.7,37.4-10.3,37.4-10.3s-0.7-4.2-1.6-10.6c-0.5-3.2-1.1-6.9-1.7-10.9
			c-0.8-3.9-2-8.1-3-12.2c-2.3-8.3-3.9-16.7-6.4-22.7c-2.2-6-3.7-10.1-3.7-10.1s-19.1,3.7-38,8.3c-4.9,1.2-9.8,2.4-14.3,3.6
			c-0.6-1.6-1.3-3.3-1.8-4.7c-4.8-10-8-16.6-8-16.6s-0.7-1.7-2.3-4.5c-1.7-2.7-4.1-6.7-6.9-11.4c-0.8-1.3-1.8-2.9-2.7-4.3
			c3.6-3.1,7.3-6.4,11.1-9.8c14.6-13,28.3-26.6,28.3-26.6s-2.5-3.4-6.4-8.6c-3.8-5.2-9-12-14.9-18.2c-11.1-13.1-24.2-24.3-24.2-24.3
			c0,0-15.3,12.2-29.8,24.9c-3.8,3.3-7.6,6.7-11,9.8c-1.3-1.1-2.7-2.3-3.9-3.3c-8.9-6.6-14.7-11-14.7-11s-1.4-1.2-4.2-2.8
			c-2.7-1.7-6.7-4.1-11.4-6.9c-1.4-0.8-2.9-1.7-4.4-2.6c1.7-4.4,3.5-9.1,5.3-13.9c6.8-18.2,12.8-36.6,12.8-36.6s-3.9-1.9-9.7-4.7
			c-2.9-1.4-6.3-3-9.9-4.7c-3.7-1.7-7.8-3-11.8-4.5c-16-6.5-32.8-10.3-32.8-10.3c0,0-7.8,17.9-14.7,36c-1.8,4.7-3.6,9.4-5.2,13.8
			c-1.7-0.4-3.4-0.8-4.9-1.2c-10.9-1.7-18.2-2.8-18.2-2.8s-1.8-0.3-5-0.7c-3.2-0.2-7.8-0.4-13.3-0.7c-1.6-0.1-3.4-0.2-5.1-0.3
			c-0.5-4.7-1.1-9.7-1.8-14.7c-1.2-9.7-2.6-19.4-3.7-26.7c-1.2-7.2-2-12-2-12s-4.3,0.2-10.7,0.5c-6.4,0.5-15,0.3-23.5,1.8
			c-8.5,1.3-17,2.6-23.3,3.6c-6.3,1.5-10.4,2.5-10.4,2.5s1.4,19.5,3.6,38.8c0.6,5,1.2,10,1.8,14.6c-1.7,0.4-3.4,0.9-4.9,1.3
			c-5.4,1.2-9.6,3.3-12.6,4.3c-3,1.1-4.8,1.7-4.8,1.7s-1.7,0.6-4.8,1.7c-3.1,0.9-7.2,3.1-12.2,5.4c-1.4,0.6-3.1,1.5-4.6,2.2
			c-2.6-3.9-5.5-8-8.4-12.2c-11.1-16-23.1-31.6-23.1-31.6s-1,0.5-2.6,1.3c-1.6,1-3.9,2.3-6.7,4c-5.4,3.4-13,7.6-20,12.5
			c-6.9,5.1-13.7,10.3-18.9,14.1c-5,4.1-8,7-8,7s10.3,16.6,21.3,32.7c2.8,4.2,5.7,8.3,8.4,12.1c-1.3,1.1-2.6,2.4-3.8,3.4
			c-4.2,3.6-6.9,7.4-9.2,9.6c-2.2,2.4-3.4,3.7-3.4,3.7s-1.2,1.4-3.4,3.8c-2.3,2.3-4.9,6.1-8.3,10.5c-1,1.2-2,2.7-3.1,4.1
			c-4.1-2.2-8.6-4.6-13.1-6.9c-17.3-9-35.1-17.3-35.1-17.3s-0.7,0.8-1.7,2.4c-1,1.6-2.4,3.9-4.1,6.6c-3.2,5.6-8.1,12.7-11.9,20.4
			c-3.7,7.7-7.4,15.5-10.2,21.3c-2.5,6-3.8,10-3.8,10s16.8,10,34,19.1c4.4,2.4,8.9,4.7,13,6.8c-0.6,1.6-1.2,3.3-1.7,4.8
			c-2.1,5.1-2.7,9.8-3.7,12.8c-0.8,3.1-1.3,4.9-1.3,4.9s-0.5,1.8-1.3,4.9c-1,3.1-1.6,7.6-2.4,13.1c-0.2,1.6-0.5,3.4-0.8,5
			c-4.7,0-9.7,0-14.8,0c-19.5,0.1-39.1,1.1-39.1,1.1s-0.8,4.2-0.9,10.7c-0.3,6.4-0.7,15-1.2,23.5c0.4,8.6,0.8,17.1,1.2,23.5
			c0.2,6.4,1,10.7,1,10.7s19.6,1,39.1,1.1c5,0.1,10.1,0.1,14.8,0c0.3,1.7,0.6,3.5,0.8,5c0.8,5.5,1.5,10,2.4,13.1
			c0.8,3.1,1.3,4.9,1.3,4.9s0.5,1.8,1.3,4.9c1,3.1,1.6,7.7,3.7,12.8c0.5,1.5,1.2,3.2,1.7,4.8c-4.2,2.1-8.6,4.4-13,6.8
			c-17.2,9.1-34,19.1-34,19.1s1.4,4.1,3.8,10c2.8,5.8,6.5,13.6,10.2,21.3c3.8,7.7,8.7,14.8,11.9,20.4c1.7,2.7,3.1,5,4.1,6.6
			c0.9,1.6,1.7,2.4,1.7,2.4s17.8-8.3,35.1-17.3c4.5-2.3,8.9-4.7,13.1-6.9c1,1.4,2.1,2.9,3.1,4.1c3.4,4.4,6,8.2,8.3,10.5
			c2.2,2.4,3.4,3.7,3.4,3.7s1.2,1.4,3.4,3.8c2.3,2.3,5,6.1,9.2,9.6c1.2,1.1,2.5,2.3,3.8,3.4c-2.7,3.8-5.6,7.9-8.4,12.1
			c-11,16-21.3,32.7-21.3,32.7c0,0,3.1,3,8.1,7.1c5.1,3.9,12,9,18.9,14.1c7,4.9,14.6,9.1,20,12.5c2.8,1.7,5.1,3,6.7,4
			c1.7,0.9,2.6,1.3,2.6,1.3c0,0,11.9-15.6,23.1-31.6c2.9-4.1,5.7-8.3,8.4-12.2c1.5,0.7,3.2,1.6,4.6,2.2c5,2.4,9.1,4.5,12.2,5.4
			c3,1.1,4.8,1.7,4.8,1.7s1.7,0.6,4.8,1.7c3.1,1,7.2,3,12.6,4.3c1.5,0.4,3.3,0.8,4.9,1.3c-0.6,4.7-1.2,9.6-1.8,14.6
			c-2.2,19.3-3.6,38.8-3.6,38.8s4.2,1,10.4,2.5c6.4,1,14.8,2.3,23.3,3.6c8.5,1.5,17.1,1.2,23.5,1.8c6.4,0.3,10.7,0.5,10.7,0.5
			s0.8-4.8,2-12c1.1-7.3,2.5-17,3.8-26.7c0.7-5,1.2-10,1.7-14.7c1.7-0.1,3.5-0.2,5.1-0.2c5.5-0.3,10.1-0.5,13.3-0.7
			c3.2-0.4,5-0.7,5-0.7s7.3-1.1,18.2-2.8c1.5-0.4,3.3-0.8,4.9-1.2c1.6,4.4,3.4,9.1,5.2,13.8c6.9,18.1,14.8,35.9,14.8,35.9
			c0,0,16.8-3.8,32.7-10.3c4-1.6,8.1-2.9,11.8-4.5c3.6-1.7,7-3.3,9.9-4.7c5.8-2.8,9.7-4.7,9.7-4.7s-5.9-18.5-12.8-36.6
			c-1.8-4.8-3.6-9.5-5.3-13.9c1.4-0.9,3-1.8,4.4-2.6c4.7-2.9,8.7-5.3,11.4-6.9c2.8-1.6,4.2-2.8,4.2-2.8s5.9-4.4,14.7-11
			c1.2-1,2.5-2.2,3.9-3.3c3.5,3.2,7.2,6.5,11,9.8c14.6,12.8,29.8,24.9,29.8,24.9s13.1-11.2,24.2-24.3c6-6.2,11.1-13,14.9-18.3
			c3.8-5.1,6.4-8.6,6.4-8.6s-13.8-13.6-28.3-26.6c-3.8-3.4-7.6-6.7-11.1-9.8c0.9-1.5,1.8-3,2.7-4.4c2.9-4.7,5.2-8.7,6.9-11.4
			c1.7-2.7,2.3-4.5,2.3-4.5s3.2-6.6,8-16.6c0.6-1.5,1.2-3.1,1.8-4.7c4.5,1.2,9.4,2.4,14.3,3.6c18.8,4.6,38,8.2,38,8.2
			c0,0,1.5-4,3.7-10.1c2.5-6,4.2-14.4,6.4-22.7c1-4.2,2.2-8.3,3-12.2c0.6-4,1.2-7.7,1.7-10.9c0.9-6.4,1.6-10.6,1.6-10.6
			S696.9,686.5,678.2,681.8z M598.1,752.4c-1.4,2.3-3.4,5.5-5.8,9.4c-1.2,2-2.5,4.1-3.8,6.3c-1.6,2.1-3.3,4.3-5,6.6
			c-3.4,4.6-6.9,9.6-11.3,13.9c-7.9,9.4-17.3,17.3-24.1,23.3c-7.3,5.5-12.2,9.1-12.2,9.1c0,0-1.1,1.1-3.5,2.4
			c-2.3,1.4-5.5,3.4-9.5,5.7c-2,1.1-4,2.6-6.3,3.8c-2.4,1.1-4.9,2.3-7.4,3.5c-5.1,2.5-10.6,5.3-16.4,7.1
			c-11.3,4.7-23.3,7.2-32.1,9.4c-9,1.4-15.1,2.3-15.1,2.3s-1.5,0.3-4.1,0.6c-2.7,0.1-6.5,0.3-11.1,0.5c-4.6,0.2-9.9,0.7-15.7,0.1
			c-5.7-0.5-11.9-0.1-17.9-1.3c-6-1-12.1-1.7-17.7-2.8c-5.5-1.4-10.7-2.8-15.1-3.9c-4.5-0.9-7.9-2.8-10.5-3.5
			c-2.5-0.9-3.9-1.4-3.9-1.4s-1.4-0.5-3.9-1.4c-2.6-0.7-6-2.5-10.1-4.5c-8.4-3.6-18.9-9.9-29.1-16.6c-4.9-3.7-9.8-7.3-14.3-10.8
			c-4.2-3.9-8.2-7.5-11.6-10.6c-3.6-2.9-5.7-6.1-7.6-8c-1.8-2-2.8-3.1-2.8-3.1s-1-1.1-2.9-3.1c-1.9-1.8-4.1-5-6.8-8.7
			c-5.8-7.1-12.2-17.5-18.1-28.2c-2.5-5.5-5.4-10.9-7.7-16.2c-2-5.4-3.8-10.4-5.4-14.7c-1.8-4.2-2.2-8.1-3-10.6
			c-0.7-2.6-1-4.1-1-4.1s-0.4-1.5-1.1-4.1c-0.9-2.5-1.4-6.3-2-10.9c-0.5-4.5-1.8-9.8-2.1-15.5c-0.3-5.7-0.6-11.8-0.9-18
			c0.3-6.1,0.6-12.2,0.9-18c0.3-5.7,1.6-10.9,2.1-15.5c0.6-4.5,1.1-8.3,2-10.9c0.7-2.6,1.1-4.1,1.1-4.1s0.4-1.5,1-4
			c0.8-2.5,1.2-6.4,3-10.6c1.6-4.3,3.4-9.3,5.4-14.7c2.3-5.2,5.1-10.6,7.7-16.2c5.9-10.7,12.3-21.1,18.1-28.2
			c2.8-3.6,4.9-6.8,6.8-8.7c1.8-2,2.9-3.1,2.9-3.1s1-1.1,2.8-3.1c1.9-1.9,4.1-5.1,7.6-8c3.4-3.1,7.3-6.7,11.6-10.6
			c4.6-3.4,9.5-7.1,14.3-10.8c10.2-6.7,20.7-13,29.1-16.6c4.1-2,7.5-3.8,10.1-4.5c2.5-0.9,3.9-1.4,3.9-1.4s1.4-0.5,3.9-1.4
			c2.6-0.8,6-2.6,10.5-3.5c4.4-1.1,9.6-2.5,15.1-3.9c5.6-1.1,11.7-1.8,17.7-2.8c6-1.1,12.2-0.7,17.9-1.3c5.7-0.6,11.1-0.1,15.7,0.2
			c4.6,0.2,8.4,0.4,11.1,0.5c2.6,0.3,4.1,0.6,4.1,0.6s6,0.9,15.1,2.3c8.9,2.2,20.9,4.7,32.1,9.4c5.9,1.8,11.3,4.6,16.4,7.1
			c2.6,1.2,5.1,2.4,7.5,3.5c2.3,1.2,4.4,2.6,6.3,3.8c3.9,2.4,7.2,4.3,9.5,5.7c2.3,1.3,3.5,2.4,3.5,2.4c0,0,4.9,3.6,12.2,9.1
			c6.9,6,16.3,13.9,24.2,23.3c4.4,4.3,7.9,9.3,11.3,13.9c1.7,2.3,3.4,4.5,5,6.6c1.4,2.2,2.6,4.4,3.8,6.3c2.4,3.9,4.4,7.2,5.8,9.4
			c1.5,2.3,1.9,3.7,1.9,3.7c0,0,2.7,5.5,6.6,13.7c3.2,8.5,8,19.8,10.5,31.8c0.7,3,1.7,5.9,2.2,8.8c0.4,3,0.9,5.9,1.3,8.7
			c0.9,5.7,1.9,10.9,1.8,15.5c0.5,9.2,0.8,15.3,0.8,15.3s-0.3,6.1-0.8,15.3c0.1,4.6-1,9.9-1.8,15.5c-0.4,2.8-0.8,5.8-1.3,8.7
			c-0.5,3-1.5,5.9-2.2,8.8c-2.5,12-7.3,23.3-10.5,31.8c-4,8.2-6.6,13.7-6.6,13.7S599.6,750.2,598.1,752.4z"/>
		<path class="st0" d="M419.8,490.4c-90.8,0-164.4,73.6-164.4,164.4c0,90.8,73.6,164.4,164.4,164.4c90.8,0,164.5-73.6,164.5-164.4
			C584.2,564,510.6,490.4,419.8,490.4z M419.8,721c-36.6,0-66.2-29.6-66.2-66.2c0-36.6,29.6-66.2,66.2-66.2
			c36.6,0,66.2,29.6,66.2,66.2C486,691.4,456.3,721,419.8,721z"/>
	</g>
	<path class="st1" d="M849.5,343.4c0.2-1.1,0.4-2.3,0.5-3.3c0.6-3.6,0.4-6.7,0.7-8.8c0.1-2.1,0.2-3.4,0.2-3.4s-0.1-1.2-0.2-3.3
		c-0.2-2.1-0.1-5.2-0.7-8.8c-0.1-1-0.3-2.2-0.5-3.3c3.1-0.9,6.4-1.9,9.6-3c12.7-4,25.1-9.1,25.1-9.1s-0.8-3.1-1.9-7.7
		c-1-4.7-3.3-10.6-5.6-16.6c-4.9-11.8-11.9-22.5-11.9-22.5c0,0-12.2,5.1-24.1,11.3c-3.1,1.6-6.1,3.2-8.9,4.7c-0.7-0.9-1.4-1.9-2-2.7
		c-2.1-3-4.4-5-5.7-6.7c-1.4-1.6-2.2-2.5-2.2-2.5s-0.9-0.8-2.5-2.2c-1.7-1.4-3.7-3.7-6.7-5.8c-0.8-0.7-1.8-1.3-2.7-2
		c1.5-2.8,3.2-5.8,4.7-8.9c6.1-11.9,11.3-24.1,11.3-24.1s-10.6-7-22.5-11.9c-6-2.2-11.9-4.6-16.6-5.6c-4.6-1.2-7.7-1.9-7.7-1.9
		s-5,12.4-9.1,25.1c-1.1,3.3-2.1,6.6-3,9.6c-1.1-0.2-2.3-0.4-3.3-0.5c-3.6-0.6-6.7-0.4-8.8-0.6c-2.1-0.1-3.3-0.2-3.3-0.2
		s-1.2,0.1-3.4,0.2c-2.1,0.2-5.2,0.1-8.8,0.6c-1,0.1-2.2,0.3-3.3,0.5c-0.9-3.1-1.9-6.3-3-9.6c-4-12.7-9.1-25.1-9.1-25.1
		s-3.1,0.8-7.7,1.9c-4.7,1-10.6,3.3-16.6,5.6c-11.8,4.9-22.5,11.9-22.5,11.9s5.1,12.2,11.3,24.1c1.6,3.1,3.2,6.1,4.7,8.9
		c-0.9,0.7-1.9,1.4-2.7,2c-3,2.1-5,4.4-6.7,5.8c-1.6,1.4-2.5,2.2-2.5,2.2s-0.8,0.9-2.3,2.5c-1.3,1.7-3.7,3.7-5.8,6.7
		c-0.7,0.8-1.3,1.8-2,2.7c-2.8-1.5-5.9-3.1-8.9-4.7c-11.9-6.1-24.1-11.3-24.1-11.3s-7,10.7-11.9,22.5c-2.2,6-4.5,11.9-5.6,16.6
		c-1.2,4.6-1.9,7.7-1.9,7.7s12.4,5,25.1,9.1c3.3,1.1,6.6,2.1,9.6,3c-0.2,1.1-0.4,2.3-0.5,3.3c-0.6,3.6-0.4,6.7-0.6,8.8
		c-0.1,2.1-0.2,3.3-0.2,3.3s0.1,1.2,0.2,3.4c0.2,2.1,0,5.2,0.6,8.8c0.1,1,0.3,2.2,0.5,3.3c-3.1,0.9-6.4,1.9-9.6,3
		c-12.7,4-25.1,9.1-25.1,9.1s0.8,3.1,1.9,7.7c1,4.7,3.4,10.6,5.6,16.6c4.9,11.8,11.9,22.5,11.9,22.5s12.2-5.1,24.1-11.3
		c3.1-1.6,6.1-3.2,8.9-4.7c0.7,0.9,1.3,1.9,2,2.7c2.1,3,4.4,5,5.8,6.7c1.4,1.6,2.3,2.5,2.3,2.5s0.9,0.8,2.5,2.2
		c1.6,1.4,3.7,3.7,6.7,5.8c0.8,0.7,1.8,1.3,2.7,2c-1.5,2.8-3.2,5.8-4.7,8.9c-6.1,11.9-11.3,24.1-11.3,24.1s10.6,7,22.5,11.9
		c6,2.2,11.9,4.5,16.6,5.6c4.6,1.2,7.7,1.9,7.7,1.9s5-12.4,9.1-25.1c1.1-3.3,2.1-6.6,3-9.6c1.1,0.2,2.3,0.4,3.3,0.5
		c3.6,0.6,6.7,0.4,8.8,0.6c2.1,0.1,3.4,0.2,3.4,0.2s1.2-0.1,3.3-0.2c2.1-0.2,5.2-0.1,8.8-0.6c1-0.1,2.2-0.3,3.3-0.5
		c0.9,3.1,1.9,6.4,3,9.6c4,12.7,9.1,25.1,9.1,25.1s3.1-0.8,7.7-1.9c4.7-1,10.6-3.3,16.6-5.6c11.8-4.9,22.5-11.9,22.5-11.9
		c0,0-5.1-12.2-11.3-24.1c-1.6-3.1-3.2-6.1-4.7-8.9c0.9-0.7,1.9-1.3,2.7-2c3-2.1,5-4.4,6.7-5.8c1.6-1.4,2.5-2.2,2.5-2.2
		s0.8-0.9,2.2-2.5c1.4-1.7,3.7-3.7,5.7-6.7c0.7-0.8,1.4-1.8,2-2.7c2.8,1.5,5.8,3.1,8.9,4.7c11.9,6.1,24.1,11.3,24.1,11.3
		c0,0,7-10.7,11.9-22.5c2.2-6,4.6-11.9,5.6-16.6c1.2-4.6,1.9-7.7,1.9-7.7s-12.4-5-25.1-9.1C855.8,345.3,852.6,344.3,849.5,343.4z
		 M799.8,379.6c-1.2,0.9-2.6,2.7-4.8,4.1c-4,3.4-10.1,6.8-16.4,9.7c-6.4,2.6-13.2,4.2-18.4,4.8c-2.6,0.5-4.8,0.3-6.3,0.5
		c-1.5,0.1-2.4,0.2-2.4,0.2s-0.9-0.1-2.4-0.2c-1.5-0.2-3.7,0-6.3-0.5c-5.2-0.6-12-2.2-18.4-4.8c-6.3-2.8-12.4-6.3-16.4-9.7
		c-2.2-1.4-3.6-3.2-4.8-4.1c-1.1-1-1.8-1.6-1.8-1.6s-0.6-0.7-1.6-1.8c-0.9-1.2-2.7-2.6-4.1-4.8c-3.4-4-6.8-10.1-9.7-16.4
		c-2.6-6.4-4.2-13.2-4.8-18.4c-0.5-2.6-0.3-4.8-0.5-6.3c-0.1-1.5-0.2-2.4-0.2-2.4s0.1-0.9,0.2-2.4c0.2-1.5,0-3.7,0.5-6.3
		c0.6-5.2,2.2-12,4.8-18.4c2.8-6.3,6.3-12.4,9.7-16.4c1.4-2.2,3.2-3.6,4.1-4.8c1-1.1,1.6-1.8,1.6-1.8s0.7-0.6,1.8-1.6
		c1.2-0.9,2.6-2.7,4.8-4.1c4-3.4,10.1-6.8,16.4-9.7c6.4-2.6,13.2-4.2,18.4-4.8c2.6-0.5,4.8-0.3,6.3-0.5c1.5-0.1,2.4-0.2,2.4-0.2
		s0.9,0.1,2.4,0.2c1.5,0.2,3.7,0,6.3,0.5c5.2,0.6,12,2.2,18.4,4.8c6.3,2.8,12.4,6.3,16.4,9.7c2.2,1.4,3.6,3.2,4.8,4.1
		c1.2,1,1.8,1.6,1.8,1.6s0.6,0.7,1.6,1.8c0.9,1.2,2.7,2.6,4.1,4.8c3.4,4,6.8,10.1,9.7,16.4c2.6,6.4,4.1,13.2,4.8,18.4
		c0.5,2.6,0.3,4.8,0.4,6.3c0.1,1.5,0.2,2.4,0.2,2.4s-0.1,0.9-0.2,2.4c-0.2,1.5,0,3.7-0.4,6.3c-0.6,5.2-2.2,12-4.8,18.4
		c-2.8,6.3-6.3,12.4-9.7,16.4c-1.4,2.2-3.2,3.6-4.1,4.8c-1,1.1-1.6,1.8-1.6,1.8S801,378.6,799.8,379.6z"/>
	<g>
		<g>
			<path class="st2" d="M242.8,206.5v-65c0-1.1-0.4-1.6-0.8-1.5c0,0-4.8,1.2-4.9,1.2c-0.8,0.1-1.2-0.3-1.2-2.1v-4.3
				c0-1.5,0.6-1.9,1.3-2.1l12.9-3.4c0.3-0.1,0.5-0.1,0.7-0.1c0.7,0,1.1,0.5,1.1,2.4v75c0,2.4-0.6,3.8-1.4,3.8h-6.4
				C243.3,210.3,242.8,208.9,242.8,206.5z"/>
			<path class="st2" d="M265.5,169.3c0-34,8.5-41.1,18.6-41.1c10.1,0,18.7,6.9,18.7,41.1c0,33.3-8.6,41.8-18.7,41.8
				C274,211.1,265.5,202.5,265.5,169.3z M294.1,169.3c0-24.5-2.8-33.8-10-33.8s-9.9,9.3-9.9,33.8c0,25.2,2.9,34.6,10,34.6
				C291.2,203.8,294.1,194.6,294.1,169.3z"/>
			<path class="st2" d="M314.1,169.3c0-34,8.5-41.1,18.6-41.1c10.1,0,18.7,6.9,18.7,41.1c0,33.3-8.6,41.8-18.7,41.8
				C322.6,211.1,314.1,202.5,314.1,169.3z M342.7,169.3c0-24.5-2.8-33.8-10-33.8s-9.9,9.3-9.9,33.8c0,25.2,2.9,34.6,10,34.6
				C339.8,203.8,342.7,194.6,342.7,169.3z"/>
			<path class="st2" d="M368.2,206.5v-65c0-1.1-0.3-1.6-0.8-1.5c0,0-4.9,1.2-4.9,1.2c-0.8,0.1-1.2-0.3-1.2-2.1v-4.3
				c0-1.5,0.6-1.9,1.3-2.1l12.9-3.4c0.3-0.1,0.5-0.1,0.7-0.1c0.7,0,1.1,0.5,1.1,2.4v75c0,2.4-0.6,3.8-1.4,3.8h-6.4
				C368.7,210.3,368.2,208.9,368.2,206.5z"/>
			<path class="st2" d="M390.9,169.3c0-34,8.5-41.1,18.6-41.1c10.1,0,18.7,6.9,18.7,41.1c0,33.3-8.6,41.8-18.7,41.8
				C399.4,211.1,390.9,202.5,390.9,169.3z M419.4,169.3c0-24.5-2.8-33.8-10-33.8c-7.2,0-9.9,9.3-9.9,33.8c0,25.2,2.9,34.6,10,34.6
				C416.6,203.8,419.4,194.6,419.4,169.3z"/>
			<path class="st2" d="M445,206.5v-65c0-1.1-0.3-1.6-0.8-1.5c0,0-4.9,1.2-4.9,1.2c-0.8,0.1-1.2-0.3-1.2-2.1v-4.3
				c0-1.5,0.6-1.9,1.3-2.1l12.9-3.4c0.3-0.1,0.5-0.1,0.7-0.1c0.7,0,1.1,0.5,1.1,2.4v75c0,2.4-0.6,3.8-1.4,3.8h-6.4
				C445.5,210.3,445,208.9,445,206.5z"/>
			<path class="st2" d="M467.7,169.3c0-34,8.5-41.1,18.6-41.1c10.1,0,18.7,6.9,18.7,41.1c0,33.3-8.6,41.8-18.7,41.8
				C476.2,211.1,467.7,202.5,467.7,169.3z M496.2,169.3c0-24.5-2.8-33.8-10-33.8s-9.9,9.3-9.9,33.8c0,25.2,2.9,34.6,10,34.6
				C493.4,203.8,496.2,194.6,496.2,169.3z"/>
			<path class="st2" d="M521.8,206.5v-65c0-1.1-0.3-1.6-0.8-1.5c0,0-4.9,1.2-4.9,1.2c-0.8,0.1-1.2-0.3-1.2-2.1v-4.3
				c0-1.5,0.6-1.9,1.3-2.1l12.9-3.4c0.3-0.1,0.5-0.1,0.7-0.1c0.7,0,1.1,0.5,1.1,2.4v75c0,2.4-0.6,3.8-1.4,3.8h-6.4
				C522.3,210.3,521.8,208.9,521.8,206.5z"/>
			<path class="st2" d="M544.5,169.3c0-34,8.5-41.1,18.6-41.1c10.1,0,18.7,6.9,18.7,41.1c0,33.3-8.6,41.8-18.7,41.8
				C553,211.1,544.5,202.5,544.5,169.3z M573,169.3c0-24.5-2.8-33.8-10-33.8c-7.2,0-9.9,9.3-9.9,33.8c0,25.2,2.9,34.6,10,34.6
				C570.2,203.8,573,194.6,573,169.3z"/>
		</g>
		<g>
			<path class="st2" d="M237.3,276.2c0-34,8.5-41.1,18.6-41.1c10.1,0,18.7,6.9,18.7,41.1c0,33.3-8.6,41.8-18.7,41.8
				C245.8,318,237.3,309.4,237.3,276.2z M265.9,276.2c0-24.5-2.8-33.8-10-33.8c-7.2,0-9.9,9.3-9.9,33.8c0,25.2,2.9,34.6,10,34.6
				C263,310.7,265.9,301.5,265.9,276.2z"/>
			<path class="st2" d="M291.4,313.4v-65c0-1.1-0.4-1.6-0.8-1.5c0,0-4.8,1.2-4.9,1.2c-0.8,0.1-1.2-0.3-1.2-2.1v-4.4
				c0-1.5,0.6-1.9,1.3-2.1l12.9-3.4c0.3-0.1,0.5-0.1,0.7-0.1c0.7,0,1.1,0.5,1.1,2.4v75c0,2.4-0.6,3.8-1.4,3.8h-6.4
				C291.9,317.2,291.4,315.8,291.4,313.4z"/>
			<path class="st2" d="M319.6,313.4v-65c0-1.1-0.3-1.6-0.8-1.5c0,0-4.9,1.2-4.9,1.2c-0.8,0.1-1.2-0.3-1.2-2.1v-4.4
				c0-1.5,0.6-1.9,1.3-2.1l12.9-3.4c0.3-0.1,0.5-0.1,0.7-0.1c0.7,0,1.1,0.5,1.1,2.4v75c0,2.4-0.6,3.8-1.4,3.8h-6.4
				C320.1,317.2,319.6,315.8,319.6,313.4z"/>
			<path class="st2" d="M342.3,276.2c0-34,8.5-41.1,18.6-41.1c10.1,0,18.7,6.9,18.7,41.1c0,33.3-8.6,41.8-18.7,41.8
				C350.8,318,342.3,309.4,342.3,276.2z M370.9,276.2c0-24.5-2.8-33.8-10-33.8c-7.2,0-9.9,9.3-9.9,33.8c0,25.2,2.9,34.6,10,34.6
				C368,310.7,370.9,301.5,370.9,276.2z"/>
			<path class="st2" d="M396.4,313.4v-65c0-1.1-0.3-1.6-0.8-1.5c0,0-4.9,1.2-4.9,1.2c-0.8,0.1-1.2-0.3-1.2-2.1v-4.4
				c0-1.5,0.6-1.9,1.3-2.1l12.9-3.4c0.3-0.1,0.5-0.1,0.7-0.1c0.7,0,1.1,0.5,1.1,2.4v75c0,2.4-0.6,3.8-1.4,3.8h-6.4
				C396.9,317.2,396.4,315.8,396.4,313.4z"/>
			<path class="st2" d="M419.1,276.2c0-34,8.5-41.1,18.6-41.1c10.1,0,18.7,6.9,18.7,41.1c0,33.3-8.6,41.8-18.7,41.8
				C427.6,318,419.1,309.4,419.1,276.2z M447.6,276.2c0-24.5-2.8-33.8-10-33.8s-9.9,9.3-9.9,33.8c0,25.2,2.9,34.6,10,34.6
				C444.8,310.7,447.6,301.5,447.6,276.2z"/>
			<path class="st2" d="M473.2,313.4v-65c0-1.1-0.3-1.6-0.8-1.5c0,0-4.9,1.2-4.9,1.2c-0.8,0.1-1.2-0.3-1.2-2.1v-4.4
				c0-1.5,0.6-1.9,1.3-2.1l12.9-3.4c0.3-0.1,0.5-0.1,0.7-0.1c0.7,0,1.1,0.5,1.1,2.4v75c0,2.4-0.6,3.8-1.4,3.8h-6.4
				C473.7,317.2,473.2,315.8,473.2,313.4z"/>
			<path class="st2" d="M495.9,276.2c0-34,8.5-41.1,18.6-41.1c10.1,0,18.7,6.9,18.7,41.1c0,33.3-8.6,41.8-18.7,41.8
				C504.4,318,495.9,309.4,495.9,276.2z M524.4,276.2c0-24.5-2.8-33.8-10-33.8c-7.2,0-9.9,9.3-9.9,33.8c0,25.2,2.9,34.6,10,34.6
				C521.6,310.7,524.4,301.5,524.4,276.2z"/>
			<path class="st2" d="M544.5,276.2c0-34,8.5-41.1,18.6-41.1c10.1,0,18.7,6.9,18.7,41.1c0,33.3-8.6,41.8-18.7,41.8
				C553,318,544.5,309.4,544.5,276.2z M573,276.2c0-24.5-2.8-33.8-10-33.8c-7.2,0-9.9,9.3-9.9,33.8c0,25.2,2.9,34.6,10,34.6
				C570.2,310.7,573,301.5,573,276.2z"/>
		</g>
	</g>
	<g>
		<rect x="775" y="524.5" class="st3" width="42.4" height="245.4"/>
		<rect x="832.7" y="550.5" class="st4" width="42.4" height="219.4"/>
		<rect x="890.3" y="619" class="st5" width="42.4" height="150.9"/>
	</g>
	<g>
		<rect x="882" y="819.4" class="st2" width="56.7" height="12.9"/>
		<rect x="806.9" y="819.4" class="st2" width="62.3" height="12.9"/>
		<rect x="769.1" y="819.4" class="st2" width="24.9" height="12.9"/>
		<rect x="853.5" y="848.3" class="st2" width="85.2" height="12.9"/>
		<rect x="769.1" y="848.3" class="st2" width="71.5" height="12.9"/>
		<rect x="891.3" y="877.3" class="st2" width="47.4" height="12.9"/>
		<rect x="802.4" y="877.3" class="st2" width="76" height="12.9"/>
		<rect x="769.1" y="877.3" class="st2" width="20.5" height="12.9"/>
	</g>
</g>
</svg>
