<?xml version="1.0" encoding="utf-8"?>
<!-- Generator: Adobe Illustrator 27.0.0, SVG Export Plug-In . SVG Version: 6.00 Build 0)  -->
<svg version="1.1" id="Layer_1" xmlns="http://www.w3.org/2000/svg" xmlns:xlink="http://www.w3.org/1999/xlink" x="0px" y="0px"
	 viewBox="0 0 1080 1080" style="enable-background:new 0 0 1080 1080;" xml:space="preserve">
<style type="text/css">
	.st0{fill:#007AC1;}
	.st1{fill:#FFFFFF;}
</style>
<g>
	<g>
		<path class="st0" d="M417.1,328.6c-6.2,0-12.4-2.3-17.2-7c-9.7-9.5-9.9-25.1-0.4-34.8c50-51.1,117-79.6,188.6-80.4
			c71.6-0.8,139.2,26.3,190.3,76.3c9.7,9.5,9.9,25.1,0.4,34.8c-9.5,9.7-25.1,9.9-34.8,0.4c-41.7-40.8-96.9-62.9-155.3-62.3
			c-58.5,0.6-113.2,23.9-154,65.6C429.9,326.2,423.5,328.6,417.1,328.6z"/>
		<path class="st0" d="M481.8,391.9c-6.2,0-12.4-2.3-17.2-7c-9.7-9.5-9.9-25.1-0.4-34.8c33.1-33.8,77.5-52.8,124.9-53.3
			c47.4-0.5,92.2,17.4,126,50.6c9.7,9.5,9.9,25.1,0.4,34.8c-9.5,9.7-25.1,9.9-34.8,0.4c-24.4-23.9-56.8-36.9-91.1-36.5
			c-34.3,0.4-66.3,14-90.3,38.5C494.6,389.5,488.2,391.9,481.8,391.9z"/>
	</g>
	<path class="st0" d="M865.6,441.6H331.8c-50.7,0-91.8,41.1-91.8,91.8v30.1c0,2.3-2.6,3.6-4.4,2.2l-69.1-53.1
		c-17.9-13.7-43.8-1-43.8,21.6V781c0,22.6,25.9,35.3,43.8,21.6l69.1-53.1c1.8-1.4,4.4-0.1,4.4,2.2v30.1c0,50.7,41.1,91.8,91.8,91.8
		h533.8c50.7,0,91.8-41.1,91.8-91.8V533.4C957.3,482.7,916.3,441.6,865.6,441.6z"/>
	<g>
		<path class="st1" d="M443.2,695.9v44.4H332.6V574.9h48.9v121H443.2z"/>
		<path class="st1" d="M519.1,574.9v165.4h-48.9V574.9H519.1z"/>
		<path class="st1" d="M712.4,574.9l-55.3,165.4h-60.5l-55.3-165.4h52.9l32.6,117.9l32.6-117.9H712.4z"/>
		<path class="st1" d="M847.1,700.1v40.2H734.6V574.9h110.1v40.4h-61.2v22.5h53.6V676h-53.6v24.1H847.1z"/>
	</g>
	<circle class="st1" cx="881.4" cy="519" r="27.1"/>
</g>
</svg>
