<svg width="271" height="271" viewBox="0 0 271 271" fill="none" xmlns="http://www.w3.org/2000/svg">
<path d="M216.578 270.771H54.6811C24.7111 270.771 0.415039 246.474 0.415039 216.504V54.607C0.415039 24.637 24.7111 0.342041 54.6811 0.342041H216.578C246.548 0.342041 270.844 24.637 270.844 54.607V216.504C270.844 246.474 246.548 270.771 216.578 270.771Z" fill="white"/>
<path d="M105.09 83.016C103.548 83.016 102.004 82.436 100.814 81.272C98.401 78.91 98.359 75.04 100.721 72.626C113.145 59.931 129.794 52.833 147.6 52.64C165.407 52.448 182.205 59.184 194.901 71.608C197.314 73.97 197.356 77.84 194.995 80.254C192.633 82.667 188.763 82.709 186.349 80.347C175.988 70.207 162.263 64.714 147.733 64.867C133.192 65.024 119.6 70.817 109.46 81.178C108.262 82.402 106.677 83.016 105.09 83.016Z" fill="#0F78C0"/>
<path d="M121.166 98.748C119.623 98.748 118.08 98.168 116.89 97.004C114.477 94.642 114.435 90.772 116.797 88.359C125.028 79.948 136.054 75.246 147.843 75.118C159.627 74.994 170.758 79.453 179.169 87.684C181.582 90.046 181.624 93.916 179.262 96.33C176.901 98.743 173.03 98.785 170.617 96.423C164.54 90.476 156.493 87.25 147.976 87.344C139.452 87.436 131.483 90.834 125.536 96.911C124.338 98.134 122.753 98.748 121.166 98.748Z" fill="#0F78C0"/>
<path d="M216.56 111.095H83.8662C71.2682 111.095 61.0552 121.308 61.0552 133.906V141.393C61.0552 141.958 60.4092 142.276 59.9602 141.932L42.7712 128.74C38.3212 125.323 31.8872 128.495 31.8872 134.105V195.467C31.8872 201.075 38.3212 204.249 42.7712 200.833L59.9602 187.639C60.4092 187.295 61.0552 187.615 61.0552 188.179V195.666C61.0552 208.263 71.2682 218.477 83.8662 218.477H216.56C229.159 218.477 239.37 208.263 239.37 195.666V133.906C239.37 121.308 229.159 111.095 216.56 111.095Z" fill="#0F78C0"/>
<path d="M111.578 174.303V185.348H84.084V144.224H96.245V174.303H111.578Z" fill="white"/>
<rect x="118.274" y="144.224" width="12.161" height="41.124" fill="white"/>
<path d="M178.491 144.224L164.744 185.348H149.705L135.958 144.224H149.117L157.224 173.539L165.332 144.224H178.491Z" fill="white"/>
<path d="M211.976 175.361V185.348H184.012V144.225H211.389V154.27H196.173V159.851H209.509V169.369H196.173V175.361H211.976Z" fill="white"/>
<path d="M227.247 130.342C227.247 134.066 224.228 137.086 220.503 137.086C216.779 137.086 213.76 134.066 213.76 130.342C213.76 126.618 216.779 123.598 220.503 123.598C224.228 123.598 227.247 126.618 227.247 130.342Z" fill="white"/>
</svg>
