<svg width="272" height="272" viewBox="0 0 272 272" fill="none" xmlns="http://www.w3.org/2000/svg">
<path d="M216.949 271.362H55.0516C25.0817 271.362 0.785645 247.066 0.785645 217.096V55.199C0.785645 25.229 25.0817 0.932983 55.0516 0.932983H216.949C246.919 0.932983 271.215 25.229 271.215 55.199V217.096C271.215 247.066 246.919 271.362 216.949 271.362Z" fill="white"/>
<path d="M170.004 168.986C168.859 168.698 167.72 168.42 166.647 168.171C166.681 167.776 166.736 167.365 166.736 166.997C166.867 164.44 166.954 162.738 166.954 162.738C166.954 162.738 166.867 161.034 166.736 158.476C166.736 158.108 166.681 157.696 166.643 157.301C167.72 157.054 168.859 156.778 170.004 156.485C174.345 155.4 178.658 154.104 178.658 154.104C178.658 154.104 178.505 153.123 178.288 151.648C178.168 150.911 178.034 150.051 177.889 149.133C177.71 148.22 177.435 147.263 177.194 146.297C176.671 144.379 176.281 142.421 175.703 141.037C175.194 139.638 174.854 138.701 174.854 138.701C174.854 138.701 170.42 139.557 166.062 140.613C164.919 140.883 163.794 141.164 162.744 141.436C162.599 141.068 162.449 140.678 162.317 140.338C161.204 138.034 160.465 136.497 160.465 136.497C160.465 136.497 160.314 136.093 159.921 135.459C159.533 134.823 158.979 133.908 158.316 132.817C158.122 132.507 157.904 132.148 157.697 131.811C158.52 131.092 159.398 130.322 160.276 129.534C163.652 126.519 166.832 123.379 166.832 123.379C166.832 123.379 166.242 122.583 165.352 121.386C164.471 120.183 163.279 118.597 161.901 117.163C159.331 114.129 156.305 111.543 156.309 111.543C156.309 111.543 152.775 114.361 149.406 117.316C148.522 118.085 147.652 118.861 146.847 119.591C146.544 119.331 146.231 119.059 145.954 118.821C143.905 117.287 142.541 116.264 142.541 116.264C142.541 116.264 142.221 115.976 141.57 115.608C140.934 115.218 140.02 114.665 138.927 114.002C138.611 113.82 138.247 113.609 137.913 113.401C138.309 112.381 138.732 111.286 139.145 110.181C140.73 105.967 142.102 101.696 142.102 101.696C142.102 101.696 141.207 101.264 139.863 100.615C139.192 100.295 138.408 99.919 137.567 99.519C136.718 99.135 135.767 98.827 134.84 98.473C131.144 96.964 127.254 96.098 127.254 96.095C127.254 96.095 125.444 100.231 123.841 104.42C123.418 105.509 123.007 106.597 122.632 107.616C122.246 107.523 121.841 107.428 121.489 107.344C118.956 106.955 117.27 106.7 117.27 106.7C117.27 106.7 116.849 106.621 116.111 106.535C115.366 106.496 114.296 106.444 113.02 106.381C112.656 106.361 112.238 106.342 111.84 106.323C111.72 105.237 111.585 104.08 111.429 102.919C111.15 100.673 110.825 98.425 110.564 96.745C110.288 95.081 110.104 93.968 110.104 93.968C110.104 93.968 109.112 94.016 107.627 94.085C106.142 94.205 104.149 94.156 102.194 94.493C100.227 94.796 98.2646 95.096 96.7877 95.325C95.3397 95.678 94.3747 95.915 94.3747 95.915C94.3747 95.915 94.6917 100.436 95.2117 104.9C95.3397 106.063 95.4847 107.21 95.6247 108.286C95.2407 108.386 94.8367 108.491 94.4817 108.581C93.2317 108.86 92.2637 109.346 91.5547 109.565C90.8536 109.821 90.4526 109.969 90.4526 109.969C90.4526 109.969 90.0507 110.115 89.3477 110.367C88.6296 110.587 87.6816 111.074 86.5276 111.628C86.1937 111.773 85.8207 111.965 85.4607 112.137C84.8497 111.238 84.1957 110.279 83.5247 109.322C80.9457 105.621 78.1747 102.015 78.1747 102.015L77.5696 102.327C77.1977 102.549 76.6627 102.869 76.0226 103.252C74.7646 104.044 73.0137 105.006 71.3976 106.152C69.8066 107.344 68.2167 108.531 67.0247 109.425C65.8737 110.366 65.1617 111.056 65.1617 111.056C65.1617 111.056 67.5486 114.912 70.0867 118.623C70.7437 119.588 71.4037 120.54 72.0317 121.427C71.7347 121.693 71.4236 121.975 71.1537 122.221C70.1766 123.052 69.5457 123.924 69.0167 124.454C68.5167 125.006 68.2286 125.318 68.2286 125.318C68.2286 125.318 67.9407 125.637 67.4377 126.188C66.9026 126.714 66.3007 127.595 65.5247 128.615C65.2977 128.9 65.0536 129.241 64.8157 129.559C63.8586 129.043 62.8326 128.498 61.7917 127.963C57.7906 125.875 53.6686 123.962 53.6686 123.962C53.6686 123.962 53.4997 124.15 53.2817 124.526C53.0516 124.896 52.7297 125.426 52.3397 126.058C51.5897 127.345 50.4647 128.993 49.5867 130.773C48.7227 132.565 47.8627 134.356 47.2167 135.702C46.6467 137.08 46.3276 138.021 46.3276 138.021C46.3276 138.021 50.2227 140.328 54.2007 142.434C55.2267 142.988 56.2587 143.523 57.2206 144.014C57.0847 144.389 56.9427 144.782 56.8177 145.125C56.3317 146.314 56.1857 147.384 55.9626 148.095C55.7787 148.819 55.6717 149.232 55.6717 149.232C55.6717 149.232 55.5667 149.643 55.3807 150.367C55.1507 151.079 54.9997 152.135 54.8137 153.401C54.7707 153.764 54.6946 154.177 54.6307 154.57C53.5436 154.561 52.3837 154.559 51.2147 154.566C46.7026 154.59 42.1667 154.821 42.1667 154.821C42.1667 154.821 41.9927 155.804 41.9487 157.291C41.8757 158.777 41.7806 160.759 41.6816 162.739C41.7806 164.719 41.8757 166.699 41.9487 168.185C41.9927 169.672 42.1697 170.655 42.1697 170.655C42.1697 170.655 46.7057 170.884 51.2147 170.903C52.3837 170.916 53.5467 170.915 54.6307 170.903C54.6946 171.293 54.7707 171.71 54.8137 172.07C54.9997 173.337 55.1507 174.395 55.3807 175.11C55.5667 175.831 55.6717 176.244 55.6717 176.244C55.6717 176.244 55.7787 176.658 55.9647 177.379C56.1857 178.09 56.3317 179.16 56.8177 180.346C56.9427 180.692 57.0847 181.085 57.2206 181.458C56.2587 181.952 55.2297 182.487 54.2007 183.039C50.2227 185.146 46.3276 187.455 46.3276 187.455C46.3276 187.455 46.6467 188.395 47.2167 189.772C47.8627 191.118 48.7227 192.91 49.5867 194.702C50.4647 196.481 51.5897 198.128 52.3397 199.414C52.7297 200.05 53.0516 200.579 53.2817 200.949C53.4997 201.327 53.6686 201.515 53.6686 201.515C53.6686 201.515 57.7906 199.602 61.7917 197.513C62.8326 196.978 63.8586 196.431 64.8157 195.914C65.0536 196.235 65.2977 196.575 65.5247 196.86C66.3007 197.882 66.9026 198.762 67.4377 199.285C67.9407 199.839 68.2286 200.151 68.2286 200.151C68.2286 200.151 68.5167 200.468 69.0167 201.022C69.5457 201.548 70.1766 202.423 71.1537 203.252C71.4236 203.498 71.7347 203.781 72.0317 204.049C71.4037 204.935 70.7437 205.888 70.0867 206.853C67.5486 210.561 65.1617 214.415 65.1617 214.415C65.1617 214.418 65.8796 215.107 67.0276 216.05C68.2167 216.943 69.8066 218.132 71.3976 219.323C73.0167 220.468 74.7676 221.432 76.0257 222.221C76.6627 222.608 77.1977 222.926 77.5696 223.149C77.9567 223.347 78.1807 223.46 78.1807 223.46C78.1777 223.46 80.9457 219.855 83.5247 216.149C84.1957 215.194 84.8527 214.234 85.4637 213.335C85.8207 213.508 86.1957 213.7 86.5306 213.845C87.6816 214.403 88.6296 214.884 89.3506 215.102C90.0507 215.361 90.4526 215.507 90.4526 215.507C90.4526 215.507 90.8536 215.653 91.5547 215.909C92.2637 216.132 93.2317 216.613 94.4817 216.893C94.8397 216.983 95.2407 217.088 95.6247 217.185C95.4847 218.263 95.3397 219.413 95.2117 220.573C94.6917 225.041 94.3777 229.559 94.3777 229.559L96.7936 230.15C98.2646 230.376 100.227 230.679 102.194 230.98C104.155 231.317 106.147 231.267 107.627 231.389C109.118 231.456 110.104 231.503 110.104 231.503C110.104 231.503 110.288 230.392 110.564 228.728C110.825 227.044 111.15 224.803 111.435 222.556C111.586 221.392 111.72 220.235 111.84 219.147C112.241 219.129 112.656 219.11 113.02 219.09C114.296 219.029 115.366 218.973 116.111 218.936C116.849 218.85 117.273 218.773 117.273 218.773C117.273 218.773 118.956 218.516 121.489 218.132C121.841 218.045 122.246 217.949 122.632 217.854C123.007 218.875 123.418 219.963 123.841 221.054C125.444 225.241 127.26 229.378 127.26 229.378C127.254 229.378 131.147 228.508 134.84 227.002C135.767 226.643 136.718 226.338 137.567 225.954C138.408 225.557 139.195 225.18 139.863 224.858C141.21 224.208 142.102 223.777 142.102 223.777C142.102 223.777 140.73 219.504 139.145 215.293C138.738 214.185 138.311 213.093 137.913 212.07C138.247 211.867 138.611 211.656 138.927 211.47C140.02 210.806 140.934 210.253 141.57 209.865C142.221 209.499 142.541 209.208 142.541 209.208C142.541 209.208 143.905 208.186 145.954 206.652C146.231 206.414 146.544 206.143 146.847 205.883C147.652 206.613 148.522 207.385 149.406 208.154C152.775 211.114 156.309 213.929 156.309 213.929C156.309 213.929 159.331 211.346 161.901 208.309C163.283 206.878 164.471 205.288 165.352 204.083C166.242 202.891 166.838 202.097 166.838 202.097C166.838 202.097 163.652 198.953 160.276 195.939C159.401 195.152 158.52 194.377 157.697 193.665C157.906 193.325 158.122 192.97 158.316 192.656C158.979 191.562 159.533 190.651 159.921 190.014C160.314 189.381 160.465 188.977 160.465 188.977C160.465 188.977 161.204 187.44 162.317 185.133C162.449 184.796 162.599 184.407 162.744 184.036C163.794 184.308 164.919 184.588 166.062 184.861C170.42 185.915 174.857 186.769 174.854 186.769C174.854 186.769 175.194 185.835 175.708 184.434C176.284 183.055 176.674 181.094 177.2 179.176C177.435 178.211 177.71 177.251 177.889 176.34C178.034 175.418 178.168 174.561 178.288 173.825C178.505 172.35 178.658 171.367 178.658 171.367C178.658 171.367 174.345 170.075 170.004 168.986ZM151.461 185.337C151.133 185.863 150.679 186.617 150.121 187.523C149.845 187.977 149.548 188.466 149.234 188.987C148.868 189.471 148.478 189.981 148.08 190.511C147.289 191.577 146.478 192.734 145.466 193.737C143.643 195.912 141.468 197.747 139.875 199.139C138.174 200.409 137.041 201.254 137.041 201.254C137.041 201.257 136.783 201.506 136.238 201.8C135.71 202.121 134.953 202.577 134.043 203.128C133.59 203.393 133.116 203.729 132.575 204.002C132.028 204.262 131.45 204.539 130.851 204.822C129.664 205.412 128.403 206.047 127.048 206.467C124.437 207.555 121.658 208.13 119.608 208.647C117.515 208.965 116.116 209.176 116.116 209.176C116.116 209.176 115.77 209.244 115.158 209.316C114.538 209.346 113.651 209.384 112.59 209.434C111.528 209.491 110.29 209.603 108.961 209.466C107.644 209.346 106.205 209.438 104.815 209.176C103.42 208.933 102.01 208.779 100.716 208.523C99.4366 208.193 98.2416 207.883 97.2147 207.618C96.1747 207.402 95.3837 206.978 94.7897 206.8C94.2147 206.587 93.8837 206.467 93.8837 206.467C93.8837 206.467 93.5516 206.346 92.9697 206.139C92.3707 205.969 91.5897 205.555 90.6357 205.092C88.6847 204.258 86.2516 202.809 83.8907 201.257C82.7596 200.404 81.6317 199.557 80.5707 198.757C79.5876 197.863 78.6717 197.03 77.8867 196.314C77.0637 195.633 76.5607 194.892 76.1166 194.46C75.7037 194.002 75.4617 193.739 75.4617 193.739C75.4617 193.739 75.2237 193.48 74.8016 193.022C74.3517 192.595 73.8627 191.854 73.2237 191.007C71.8747 189.36 70.3887 186.946 69.0226 184.476C68.4316 183.192 67.7776 181.941 67.2427 180.732C66.7897 179.487 66.3677 178.329 66.0016 177.333C65.5887 176.359 65.4927 175.462 65.3036 174.878L65.0627 173.937C65.0627 173.937 64.9727 173.595 64.8157 172.999C64.6147 172.409 64.5016 171.534 64.3527 170.484C64.2277 169.434 63.9257 168.225 63.8617 166.895C63.7917 165.568 63.7187 164.154 63.6467 162.738C63.7187 161.321 63.7917 159.908 63.8617 158.576C63.9227 157.25 64.2277 156.042 64.3527 154.991C64.5016 153.943 64.6147 153.064 64.8157 152.475C64.9727 151.876 65.0627 151.535 65.0627 151.535C65.0627 151.535 65.1497 151.196 65.3036 150.598C65.4927 150.01 65.5887 149.118 66.0016 148.138C66.3677 147.144 66.7897 145.984 67.2427 144.744C67.7776 143.533 68.4316 142.28 69.0226 140.998C70.3887 138.531 71.8747 136.115 73.2237 134.466C73.8627 133.622 74.3517 132.88 74.8016 132.45C75.2237 131.994 75.4617 131.734 75.4617 131.734C75.4617 131.734 75.7037 131.473 76.1166 131.016C76.5607 130.585 77.0696 129.841 77.8867 129.16C78.6717 128.445 79.5876 127.611 80.5707 126.717C81.6317 125.919 82.7596 125.067 83.8907 124.218C86.2516 122.667 88.6847 121.215 90.6357 120.382C91.5897 119.918 92.3707 119.507 92.9697 119.334C93.5516 119.127 93.8837 119.007 93.8837 119.007C93.8837 119.007 94.2147 118.886 94.7897 118.672C95.3837 118.496 96.1747 118.072 97.2147 117.855C98.2416 117.591 99.4337 117.284 100.716 116.951C102.01 116.692 103.42 116.538 104.815 116.3C106.205 116.037 107.638 116.127 108.961 116.003C110.288 115.871 111.528 115.979 112.59 116.038C113.651 116.087 114.538 116.127 115.158 116.156C115.77 116.231 116.116 116.3 116.116 116.3C116.116 116.3 117.515 116.511 119.608 116.826C121.658 117.345 124.437 117.918 127.048 119.007C128.403 119.427 129.664 120.062 130.848 120.649C131.45 120.933 132.025 121.209 132.575 121.471C133.116 121.744 133.59 122.078 134.043 122.346C134.953 122.892 135.706 123.352 136.238 123.671C136.783 123.968 137.041 124.218 137.041 124.218C137.041 124.218 138.174 125.063 139.872 126.336C141.468 127.727 143.643 129.562 145.466 131.734C146.478 132.735 147.289 133.895 148.08 134.962C148.478 135.492 148.868 136.002 149.234 136.489C149.548 137.008 149.845 137.497 150.121 137.952C150.676 138.857 151.133 139.608 151.458 140.137C151.795 140.659 151.906 140.993 151.906 140.998C151.906 140.998 152.522 142.269 153.439 144.176C154.189 146.153 155.284 148.769 155.869 151.535C156.031 152.223 156.262 152.893 156.374 153.58C156.473 154.27 156.578 154.947 156.668 155.6C156.872 156.91 157.107 158.127 157.096 159.197C157.21 161.321 157.285 162.738 157.285 162.738C157.285 162.738 157.21 164.154 157.096 166.273C157.107 167.346 156.875 168.561 156.668 169.871C156.578 170.529 156.473 171.206 156.374 171.892C156.262 172.579 156.031 173.249 155.869 173.936C155.284 176.705 154.189 179.322 153.444 181.295C152.522 183.206 151.906 184.476 151.906 184.476C151.906 184.476 151.795 184.816 151.461 185.337Z" fill="#0F78C0"/>
<path d="M110.168 124.657C89.1388 124.657 72.0928 141.704 72.0928 162.735C72.0928 183.765 89.1388 200.813 110.168 200.813C131.2 200.813 148.249 183.765 148.249 162.735C148.249 141.704 131.2 124.657 110.168 124.657ZM110.171 178.064C101.705 178.064 94.8398 171.201 94.8398 162.735C94.8398 154.269 101.705 147.406 110.171 147.406C118.637 147.406 125.501 154.269 125.501 162.735C125.501 171.201 118.637 178.064 110.171 178.064Z" fill="#0F78C0"/>
<path d="M209.67 90.623C209.71 90.363 209.759 90.09 209.789 89.85C209.928 89.014 209.89 88.302 209.94 87.812C209.963 87.318 209.978 87.036 209.978 87.036C209.978 87.036 209.963 86.754 209.94 86.261C209.89 85.77 209.928 85.057 209.789 84.223C209.759 83.981 209.71 83.709 209.67 83.449C210.382 83.24 211.141 83.009 211.899 82.759C214.83 81.824 217.711 80.657 217.711 80.657C217.711 80.657 217.534 79.942 217.261 78.869C217.028 77.784 216.487 76.408 215.972 75.025C214.842 72.293 213.211 69.825 213.214 69.825C213.214 69.825 210.379 71.017 207.631 72.439C206.916 72.801 206.215 73.173 205.564 73.528C205.41 73.316 205.25 73.089 205.096 72.902C204.616 72.199 204.078 71.733 203.765 71.351C203.433 70.984 203.247 70.775 203.247 70.775C203.247 70.775 203.035 70.586 202.671 70.254C202.288 69.942 201.819 69.403 201.119 68.923C200.93 68.769 200.703 68.612 200.491 68.456C200.846 67.803 201.221 67.103 201.581 66.39C203 63.64 204.192 60.808 204.192 60.808C204.192 60.808 201.727 59.18 198.993 58.046C197.613 57.532 196.237 56.992 195.15 56.758C194.077 56.488 193.362 56.308 193.362 56.308C193.362 56.308 192.196 59.19 191.26 62.121C191.013 62.88 190.78 63.638 190.571 64.35C190.312 64.309 190.039 64.259 189.798 64.23C188.963 64.092 188.251 64.127 187.759 64.081C187.265 64.054 186.986 64.04 186.986 64.04C186.986 64.04 186.701 64.054 186.207 64.081C185.718 64.127 185.003 64.092 184.169 64.23C183.928 64.259 183.657 64.309 183.398 64.35C183.186 63.638 182.957 62.88 182.709 62.121C181.773 59.19 180.605 56.308 180.605 56.308L178.816 56.758C177.732 56.992 176.357 57.532 174.973 58.046C172.24 59.18 169.775 60.808 169.775 60.808C169.775 60.808 170.967 63.64 172.388 66.39C172.749 67.103 173.121 67.803 173.478 68.455C173.266 68.612 173.039 68.769 172.848 68.923C172.147 69.403 171.679 69.942 171.298 70.254C170.935 70.586 170.725 70.775 170.725 70.775C170.725 70.775 170.536 70.984 170.202 71.351C169.891 71.733 169.35 72.199 168.87 72.902C168.716 73.089 168.559 73.316 168.405 73.528C167.754 73.173 167.05 72.801 166.341 72.439C163.587 71.019 160.756 69.825 160.756 69.825C160.756 69.825 159.131 72.293 157.994 75.025C157.482 76.408 156.941 77.784 156.706 78.869C156.433 79.943 156.255 80.657 156.255 80.657C156.255 80.657 159.136 81.824 162.067 82.759C162.829 83.009 163.587 83.24 164.3 83.449C164.257 83.709 164.207 83.981 164.178 84.223C164.038 85.057 164.076 85.77 164.03 86.261C164.004 86.754 163.989 87.036 163.989 87.036C163.989 87.036 164.004 87.318 164.03 87.812C164.076 88.302 164.038 89.014 164.178 89.85C164.207 90.09 164.257 90.363 164.3 90.623C163.587 90.831 162.829 91.062 162.067 91.311C159.136 92.247 156.255 93.415 156.255 93.415C156.255 93.415 156.433 94.13 156.706 95.203C156.941 96.287 157.482 97.663 157.994 99.048C159.131 101.779 160.756 104.246 160.756 104.246C160.756 104.246 163.587 103.054 166.341 101.632C167.05 101.27 167.754 100.898 168.405 100.543C168.559 100.756 168.716 100.982 168.87 101.17C169.35 101.87 169.891 102.338 170.202 102.721C170.536 103.086 170.725 103.296 170.725 103.296C170.725 103.296 170.935 103.486 171.298 103.817C171.679 104.129 172.147 104.669 172.848 105.149C173.039 105.303 173.266 105.46 173.478 105.617C173.121 106.267 172.749 106.969 172.388 107.682C170.967 110.431 169.775 113.263 169.775 113.263C169.775 113.263 172.24 114.89 174.973 116.025C176.357 116.54 177.732 117.077 178.816 117.313C179.889 117.584 180.605 117.764 180.605 117.764C180.605 117.764 181.773 114.881 182.709 111.95C182.957 111.192 183.186 110.433 183.398 109.72C183.657 109.764 183.928 109.812 184.169 109.841C185.003 109.979 185.718 109.944 186.207 109.991C186.701 110.017 186.986 110.032 186.986 110.032C186.986 110.032 187.265 110.017 187.759 109.991C188.251 109.944 188.963 109.979 189.798 109.841C190.039 109.812 190.312 109.764 190.571 109.72C190.78 110.433 191.013 111.192 191.26 111.95C192.196 114.881 193.362 117.764 193.362 117.764C193.362 117.764 194.077 117.584 195.15 117.313C196.237 117.077 197.613 116.54 198.993 116.025C201.727 114.89 204.192 113.263 204.192 113.265C204.192 113.265 203 110.431 201.581 107.682C201.221 106.969 200.846 106.267 200.491 105.615C200.703 105.46 200.93 105.303 201.119 105.149C201.819 104.669 202.288 104.129 202.671 103.817C203.035 103.486 203.247 103.296 203.247 103.296C203.247 103.296 203.433 103.086 203.765 102.721C204.078 102.338 204.616 101.87 205.096 101.17C205.25 100.982 205.41 100.756 205.564 100.543C206.215 100.898 206.916 101.27 207.631 101.632C210.379 103.053 213.214 104.246 213.214 104.246C213.211 104.246 214.842 101.779 215.972 99.048C216.487 97.663 217.028 96.287 217.261 95.203C217.534 94.13 217.711 93.415 217.711 93.415C217.711 93.415 214.83 92.247 211.899 91.311C211.141 91.062 210.382 90.831 209.67 90.623ZM198.165 99.001C197.886 99.216 197.569 99.623 197.06 99.953C196.127 100.731 194.72 101.533 193.257 102.189C191.766 102.788 190.199 103.151 188.998 103.296C188.402 103.404 187.89 103.357 187.541 103.401C187.184 103.423 186.986 103.438 186.986 103.438C186.986 103.438 186.783 103.423 186.431 103.401C186.079 103.357 185.565 103.404 184.972 103.296C183.77 103.151 182.201 102.788 180.709 102.189C179.247 101.533 177.842 100.731 176.909 99.953C176.401 99.623 176.081 99.216 175.805 99.001C175.54 98.767 175.389 98.633 175.389 98.633C175.389 98.633 175.252 98.482 175.019 98.218C174.804 97.938 174.397 97.62 174.069 97.11C173.289 96.178 172.487 94.772 171.833 93.31C171.231 91.818 170.87 90.25 170.725 89.051C170.615 88.456 170.661 87.941 170.62 87.592C170.597 87.238 170.583 87.036 170.583 87.036C170.583 87.036 170.597 86.834 170.62 86.48C170.661 86.132 170.615 85.616 170.725 85.021C170.87 83.822 171.231 82.253 171.833 80.762C172.487 79.299 173.289 77.892 174.069 76.962C174.397 76.451 174.804 76.133 175.019 75.854C175.252 75.591 175.389 75.438 175.389 75.438C175.389 75.438 175.54 75.304 175.805 75.071C176.081 74.855 176.401 74.448 176.909 74.118C177.842 73.341 179.247 72.54 180.709 71.883C182.201 71.283 183.77 70.92 184.972 70.775C185.565 70.667 186.079 70.714 186.431 70.67C186.783 70.648 186.986 70.634 186.986 70.634C186.986 70.634 187.184 70.648 187.541 70.67C187.89 70.714 188.402 70.667 188.998 70.775C190.199 70.92 191.766 71.283 193.257 71.883C194.72 72.54 196.127 73.341 197.06 74.118C197.569 74.448 197.886 74.855 198.165 75.071C198.432 75.304 198.581 75.438 198.581 75.438C198.581 75.438 198.715 75.591 198.947 75.854C199.165 76.133 199.572 76.451 199.901 76.962C200.677 77.892 201.482 79.299 202.139 80.762C202.738 82.253 203.099 83.822 203.247 85.021C203.352 85.616 203.308 86.132 203.349 86.48C203.372 86.834 203.387 87.036 203.387 87.036C203.387 87.036 203.372 87.238 203.349 87.592C203.308 87.941 203.352 88.456 203.247 89.051C203.099 90.25 202.738 91.818 202.139 93.31C201.482 94.772 200.677 96.178 199.901 97.11C199.572 97.62 199.165 97.938 198.947 98.218C198.715 98.482 198.581 98.633 198.581 98.633C198.581 98.633 198.432 98.767 198.165 99.001Z" fill="#097893"/>
<path d="M69.1967 58.926V43.88C69.1967 43.619 69.1157 43.5 69.0117 43.527C69.0117 43.527 67.8887 43.814 67.8737 43.814C67.6907 43.841 67.5857 43.737 67.5857 43.318V42.311C67.5857 41.969 67.7167 41.865 67.8887 41.825L70.8716 41.041C70.9357 41.028 70.9877 41.015 71.0397 41.015C71.2097 41.015 71.3016 41.133 71.3016 41.564V58.926C71.3016 59.489 71.1707 59.802 70.9877 59.802H69.4957C69.3137 59.802 69.1967 59.489 69.1967 58.926Z" fill="#B1B1B1"/>
<path d="M74.4417 50.304C74.4417 42.428 76.4156 40.793 78.7447 40.793C81.0876 40.793 83.0767 42.389 83.0767 50.304C83.0767 58.01 81.0876 59.986 78.7447 59.986C76.4156 59.986 74.4417 58.01 74.4417 50.304ZM81.0587 50.304C81.0587 44.626 80.4197 42.48 78.7447 42.48C77.0696 42.48 76.4417 44.639 76.4417 50.304C76.4417 56.139 77.1227 58.311 78.7567 58.311C80.3926 58.311 81.0587 56.179 81.0587 50.304Z" fill="#B1B1B1"/>
<path d="M85.6938 50.304C85.6938 42.428 87.6678 40.793 89.9968 40.793C92.3398 40.793 94.3289 42.389 94.3289 50.304C94.3289 58.01 92.3398 59.986 89.9968 59.986C87.6678 59.986 85.6938 58.01 85.6938 50.304ZM92.3109 50.304C92.3109 44.626 91.6719 42.48 89.9968 42.48C88.3218 42.48 87.6938 44.639 87.6938 50.304C87.6938 56.139 88.3749 58.311 90.0089 58.311C91.6448 58.311 92.3109 56.179 92.3109 50.304Z" fill="#B1B1B1"/>
<path d="M98.2247 58.926V43.88C98.2247 43.619 98.1487 43.5 98.0447 43.527C98.0447 43.527 96.9167 43.814 96.9047 43.814C96.7217 43.841 96.6167 43.737 96.6167 43.318V42.311C96.6167 41.969 96.7477 41.865 96.9167 41.825L99.8997 41.041C99.9657 41.028 100.019 41.015 100.071 41.015C100.243 41.015 100.333 41.133 100.333 41.564V58.926C100.333 59.489 100.202 59.802 100.019 59.802H98.5267C98.3438 59.802 98.2247 59.489 98.2247 58.926Z" fill="#B1B1B1"/>
<path d="M103.476 50.304C103.476 42.428 105.45 40.793 107.779 40.793C110.122 40.793 112.111 42.389 112.111 50.304C112.111 58.01 110.122 59.986 107.779 59.986C105.45 59.986 103.476 58.01 103.476 50.304ZM110.093 50.304C110.093 44.626 109.453 42.48 107.779 42.48C106.104 42.48 105.476 44.639 105.476 50.304C105.476 56.139 106.156 58.311 107.79 58.311C109.427 58.311 110.093 56.179 110.093 50.304Z" fill="#B1B1B1"/>
<path d="M116.006 58.926V43.88C116.006 43.619 115.93 43.5 115.826 43.527C115.826 43.527 114.698 43.814 114.686 43.814C114.503 43.841 114.398 43.737 114.398 43.318V42.311C114.398 41.969 114.529 41.865 114.698 41.825L117.681 41.041C117.748 41.028 117.8 41.015 117.852 41.015C118.024 41.015 118.114 41.133 118.114 41.564V58.926C118.114 59.489 117.983 59.802 117.8 59.802H116.308C116.125 59.802 116.006 59.489 116.006 58.926Z" fill="#B1B1B1"/>
<path d="M121.257 50.304C121.257 42.428 123.231 40.793 125.56 40.793C127.903 40.793 129.892 42.389 129.892 50.304C129.892 58.01 127.903 59.986 125.56 59.986C123.231 59.986 121.257 58.01 121.257 50.304ZM127.874 50.304C127.874 44.626 127.234 42.48 125.56 42.48C123.885 42.48 123.257 44.639 123.257 50.304C123.257 56.139 123.937 58.311 125.571 58.311C127.208 58.311 127.874 56.179 127.874 50.304Z" fill="#B1B1B1"/>
<path d="M133.788 58.926V43.88C133.788 43.619 133.712 43.5 133.608 43.527C133.608 43.527 132.48 43.814 132.468 43.814C132.285 43.841 132.18 43.737 132.18 43.318V42.311C132.18 41.969 132.311 41.865 132.48 41.825L135.463 41.041C135.529 41.028 135.582 41.015 135.634 41.015C135.806 41.015 135.896 41.133 135.896 41.564V58.926C135.896 59.489 135.765 59.802 135.582 59.802H134.09C133.907 59.802 133.788 59.489 133.788 58.926Z" fill="#B1B1B1"/>
<path d="M139.038 50.304C139.038 42.428 141.012 40.793 143.341 40.793C145.684 40.793 147.673 42.389 147.673 50.304C147.673 58.01 145.684 59.986 143.341 59.986C141.012 59.986 139.038 58.01 139.038 50.304ZM145.655 50.304C145.655 44.626 145.015 42.48 143.341 42.48C141.666 42.48 141.038 44.639 141.038 50.304C141.038 56.139 141.718 58.311 143.353 58.311C144.989 58.311 145.655 56.179 145.655 50.304Z" fill="#B1B1B1"/>
<path d="M67.9116 75.057C67.9116 67.181 69.8886 65.545 72.2176 65.545C74.5576 65.545 76.5466 67.142 76.5466 75.057C76.5466 82.763 74.5576 84.738 72.2176 84.738C69.8886 84.738 67.9116 82.763 67.9116 75.057ZM74.5346 75.057C74.5346 69.379 73.8926 67.233 72.2176 67.233C70.5426 67.233 69.9146 69.392 69.9146 75.057C69.9146 80.892 70.5956 83.064 72.2326 83.064C73.8656 83.064 74.5346 80.931 74.5346 75.057Z" fill="#B1B1B1"/>
<path d="M80.4487 83.679V68.633C80.4487 68.372 80.3666 68.254 80.2627 68.28C80.2627 68.28 79.1407 68.568 79.1257 68.568C78.9427 68.594 78.8376 68.489 78.8376 68.071V67.063C78.8376 66.723 78.9687 66.618 79.1407 66.579L82.1237 65.794C82.1866 65.781 82.2397 65.768 82.2917 65.768C82.4607 65.768 82.5536 65.886 82.5536 66.317V83.679C82.5536 84.241 82.4227 84.555 82.2397 84.555H80.7477C80.5646 84.555 80.4487 84.241 80.4487 83.679Z" fill="#B1B1B1"/>
<path d="M86.9727 83.679V68.633C86.9727 68.372 86.8967 68.254 86.7927 68.28C86.7927 68.28 85.6637 68.568 85.6527 68.568C85.4697 68.594 85.3647 68.489 85.3647 68.071V67.063C85.3647 66.723 85.4957 66.618 85.6637 66.579L88.6477 65.794C88.7137 65.781 88.7667 65.768 88.8187 65.768C88.9907 65.768 89.0807 65.886 89.0807 66.317V83.679C89.0807 84.241 88.9497 84.555 88.7667 84.555H87.2747C87.0917 84.555 86.9727 84.241 86.9727 83.679Z" fill="#B1B1B1"/>
<path d="M92.2236 75.057C92.2236 67.181 94.1976 65.545 96.5266 65.545C98.8696 65.545 100.859 67.142 100.859 75.057C100.859 82.763 98.8696 84.738 96.5266 84.738C94.1976 84.738 92.2236 82.763 92.2236 75.057ZM98.8406 75.057C98.8406 69.379 98.2016 67.233 96.5266 67.233C94.8516 67.233 94.2236 69.392 94.2236 75.057C94.2236 80.892 94.9036 83.064 96.5386 83.064C98.1746 83.064 98.8406 80.931 98.8406 75.057Z" fill="#B1B1B1"/>
<path d="M104.754 83.679V68.633C104.754 68.372 104.678 68.254 104.574 68.28C104.574 68.28 103.446 68.568 103.434 68.568C103.251 68.594 103.146 68.489 103.146 68.071V67.063C103.146 66.723 103.277 66.618 103.446 66.579L106.429 65.794C106.496 65.781 106.548 65.768 106.6 65.768C106.772 65.768 106.862 65.886 106.862 66.317V83.679C106.862 84.241 106.731 84.555 106.548 84.555H105.056C104.873 84.555 104.754 84.241 104.754 83.679Z" fill="#B1B1B1"/>
<path d="M110.006 75.057C110.006 67.181 111.98 65.545 114.309 65.545C116.652 65.545 118.641 67.142 118.641 75.057C118.641 82.763 116.652 84.738 114.309 84.738C111.98 84.738 110.006 82.763 110.006 75.057ZM116.623 75.057C116.623 69.379 115.983 67.233 114.309 67.233C112.634 67.233 112.006 69.392 112.006 75.057C112.006 80.892 112.686 83.064 114.32 83.064C115.957 83.064 116.623 80.931 116.623 75.057Z" fill="#B1B1B1"/>
<path d="M122.536 83.679V68.633C122.536 68.372 122.46 68.254 122.356 68.28C122.356 68.28 121.228 68.568 121.216 68.568C121.033 68.594 120.928 68.489 120.928 68.071V67.063C120.928 66.723 121.059 66.618 121.228 66.579L124.211 65.794C124.277 65.781 124.33 65.768 124.382 65.768C124.554 65.768 124.644 65.886 124.644 66.317V83.679C124.644 84.241 124.513 84.555 124.33 84.555H122.838C122.655 84.555 122.536 84.241 122.536 83.679Z" fill="#B1B1B1"/>
<path d="M127.787 75.057C127.787 67.181 129.761 65.545 132.09 65.545C134.433 65.545 136.422 67.142 136.422 75.057C136.422 82.763 134.433 84.738 132.09 84.738C129.761 84.738 127.787 82.763 127.787 75.057ZM134.404 75.057C134.404 69.379 133.765 67.233 132.09 67.233C130.415 67.233 129.787 69.392 129.787 75.057C129.787 80.892 130.467 83.064 132.102 83.064C133.738 83.064 134.404 80.931 134.404 75.057Z" fill="#B1B1B1"/>
<path d="M139.038 75.057C139.038 67.181 141.012 65.545 143.341 65.545C145.684 65.545 147.673 67.142 147.673 75.057C147.673 82.763 145.684 84.738 143.341 84.738C141.012 84.738 139.038 82.763 139.038 75.057ZM145.655 75.057C145.655 69.379 145.015 67.233 143.341 67.233C141.666 67.233 141.038 69.392 141.038 75.057C141.038 80.892 141.718 83.064 143.353 83.064C144.989 83.064 145.655 80.931 145.655 75.057Z" fill="#B1B1B1"/>
<rect x="192.42" y="132.559" width="9.82397" height="56.823" fill="#FB6500"/>
<rect x="205.774" y="138.587" width="9.82703" height="50.7949" fill="#FBC604"/>
<rect x="219.124" y="154.441" width="9.82703" height="34.9409" fill="#119DB1"/>
<rect x="217.2" y="200.842" width="13.118" height="2.97705" fill="#B1B1B1"/>
<rect x="199.802" y="200.842" width="14.421" height="2.97705" fill="#B1B1B1"/>
<rect x="191.057" y="200.842" width="5.76794" height="2.97705" fill="#B1B1B1"/>
<rect x="210.594" y="207.54" width="19.724" height="2.97705" fill="#B1B1B1"/>
<rect x="191.057" y="207.54" width="16.5601" height="2.97705" fill="#B1B1B1"/>
<rect x="219.34" y="214.239" width="10.978" height="2.97705" fill="#B1B1B1"/>
<rect x="198.776" y="214.239" width="17.587" height="2.97705" fill="#B1B1B1"/>
<rect x="191.057" y="214.239" width="4.74194" height="2.97705" fill="#B1B1B1"/>
</svg>
