<?xml version="1.0" encoding="utf-8"?>
<!-- Generator: Adobe Illustrator 27.0.0, SVG Export Plug-In . SVG Version: 6.00 Build 0)  -->
<svg version="1.1" id="Layer_1" xmlns="http://www.w3.org/2000/svg" xmlns:xlink="http://www.w3.org/1999/xlink" x="0px" y="0px"
	 viewBox="0 0 1080 1080" style="enable-background:new 0 0 1080 1080;" xml:space="preserve">
<style type="text/css">
	.st0{fill:#CDECFA;}
	.st1{fill:#A3B1B9;}
	.st2{fill:#B9C7CF;}
	.st3{fill:#4498D3;}
	.st4{fill:#0082C1;}
	.st5{fill:#AADCF7;}
	.st6{fill:#F99E1C;}
	.st7{fill:#78C9F1;}
	.st8{fill:#F6BF9B;}
	.st9{fill:#134983;}
	.st10{fill:#0064A2;}
	.st11{fill:#06364B;}
	.st12{fill:#144B68;}
	.st13{fill:#00A1DC;}
	.st14{fill:#006DA1;}
	.st15{fill:#FFFFFF;}
	.st16{fill:#EF4D7D;}
	.st17{fill:#D71F5F;}
	.st18{opacity:0.75;fill:#FFFFFF;}
	.st19{fill:#F9D376;}
	.st20{opacity:0.3;fill:#B0B1B1;}
</style>
<g>
	<g>
		<g>
			<g>
				<path class="st0" d="M950.7,349.1c0-151.3-122.6-273.9-273.9-273.9C546.9,75.2,438.1,165.7,410,287
					c-143.6,8.5-257.5,127.6-257.5,273.4c0,151.3,122.6,273.9,273.9,273.9c129.9,0,238.7-90.4,266.8-211.8
					C836.8,614,950.7,494.9,950.7,349.1z"/>
				<ellipse transform="matrix(0.975 -0.2221 0.2221 0.975 -38.5137 69.5976)" class="st0" cx="290.1" cy="206" rx="87" ry="87"/>
				<circle class="st0" cx="899.7" cy="610.2" r="38.1"/>
				
					<ellipse transform="matrix(0.9855 -0.1694 0.1694 0.9855 -137.6946 41.787)" class="st0" cx="176" cy="827.7" rx="29.3" ry="29.3"/>
			</g>
		</g>
		<g>
			<g>
				<path class="st1" d="M792.7,962.8H457.9c-14,0-25.3-11.3-25.3-25.3V210.8c0-14,11.3-25.3,25.3-25.3h334.9
					c14,0,25.3,11.3,25.3,25.3v726.7C818,951.5,806.7,962.8,792.7,962.8z"/>
				<path class="st2" d="M758,962.8H423.2c-14,0-25.3-11.3-25.3-25.3V210.8c0-14,11.3-25.3,25.3-25.3H758c14,0,25.3,11.3,25.3,25.3
					v726.7C783.3,951.5,772,962.8,758,962.8z"/>
				<path class="st3" d="M416.1,926V222.3c0-10.2,8.3-18.5,18.5-18.5h311.9c10.2,0,18.5,8.3,18.5,18.5V926
					c0,10.2-8.3,18.5-18.5,18.5H434.7C424.4,944.5,416.1,936.2,416.1,926z"/>
				<path class="st4" d="M445.6,894.3V254c0-27.7,22.5-50.2,50.2-50.2h-29.5c-27.7,0-50.2,22.5-50.2,50.2v640.3
					c0,27.7,22.5,50.2,50.2,50.2h29.5C468.1,944.5,445.6,922,445.6,894.3z"/>
				<path class="st2" d="M660.1,202.5h-139l22.1,31.2c4.1,5.8,10.8,9.3,18,9.3H620c7.2,0,13.9-3.5,18-9.3L660.1,202.5z"/>
			</g>
			<g>
				<path class="st5" d="M714.6,382.7H375.5c-1.8,0-3.2,1.4-3.2,3.2V447c0,1.8,1.4,3.2,3.2,3.2h339.1c1.8,0,3.2-1.4,3.2-3.2v-61.1
					C717.8,384.2,716.4,382.7,714.6,382.7z"/>
				<path class="st6" d="M541.3,394.2l6.6,12c0.3,0.6,1,1.1,1.7,1.2l13.5,2.6c1.9,0.4,2.6,2.7,1.3,4.1l-9.4,10
					c-0.5,0.5-0.7,1.3-0.6,2l1.7,13.6c0.2,1.9-1.7,3.3-3.5,2.5l-12.4-5.8c-0.7-0.3-1.4-0.3-2.1,0l-12.4,5.8
					c-1.7,0.8-3.7-0.6-3.5-2.5L524,426c0.1-0.7-0.1-1.4-0.6-2l-9.4-10c-1.3-1.4-0.6-3.7,1.3-4.1l13.5-2.6c0.7-0.1,1.3-0.6,1.7-1.2
					l6.6-12C538,392.5,540.4,392.5,541.3,394.2z"/>
				<path class="st7" d="M475,394.2l6.6,12c0.3,0.6,1,1.1,1.7,1.2l13.5,2.6c1.9,0.4,2.6,2.7,1.3,4.1l-9.4,10c-0.5,0.5-0.7,1.3-0.6,2
					l1.7,13.6c0.2,1.9-1.7,3.3-3.5,2.5l-12.4-5.8c-0.7-0.3-1.4-0.3-2.1,0l-12.4,5.8c-1.7,0.8-3.7-0.6-3.5-2.5l1.7-13.6
					c0.1-0.7-0.1-1.4-0.6-2l-9.4-10c-1.3-1.4-0.6-3.7,1.3-4.1l13.5-2.6c0.7-0.1,1.3-0.6,1.7-1.2l6.6-12
					C471.6,392.5,474,392.5,475,394.2z"/>
				<path class="st7" d="M415.4,394.2l6.6,12c0.3,0.6,1,1.1,1.7,1.2l13.5,2.6c1.9,0.4,2.6,2.7,1.3,4.1l-9.4,10
					c-0.5,0.5-0.7,1.3-0.6,2l1.7,13.6c0.2,1.9-1.7,3.3-3.5,2.5l-12.4-5.8c-0.7-0.3-1.4-0.3-2.1,0l-12.4,5.8
					c-1.7,0.8-3.7-0.6-3.5-2.5l1.7-13.6c0.1-0.7-0.1-1.4-0.6-2l-9.4-10c-1.3-1.4-0.6-3.7,1.3-4.1l13.5-2.6c0.7-0.1,1.3-0.6,1.7-1.2
					l6.6-12C412.1,392.5,414.5,392.5,415.4,394.2z"/>
				<path class="st6" d="M605.3,394.2l6.6,12c0.3,0.6,1,1.1,1.7,1.2l13.5,2.6c1.9,0.4,2.6,2.7,1.3,4.1l-9.4,10
					c-0.5,0.5-0.7,1.3-0.6,2l1.7,13.6c0.2,1.9-1.7,3.3-3.5,2.5l-12.4-5.8c-0.7-0.3-1.4-0.3-2.1,0l-12.4,5.8
					c-1.7,0.8-3.7-0.6-3.5-2.5L588,426c0.1-0.7-0.1-1.4-0.6-2l-9.4-10c-1.3-1.4-0.6-3.7,1.3-4.1l13.5-2.6c0.7-0.1,1.3-0.6,1.7-1.2
					l6.6-12C602,392.5,604.4,392.5,605.3,394.2z"/>
				<path class="st6" d="M676.8,394.2l6.6,12c0.3,0.6,1,1.1,1.7,1.2l13.5,2.6c1.9,0.4,2.6,2.7,1.3,4.1l-9.4,10
					c-0.5,0.5-0.7,1.3-0.6,2l1.7,13.6c0.2,1.9-1.7,3.3-3.5,2.5l-12.4-5.8c-0.7-0.3-1.4-0.3-2.1,0l-12.4,5.8
					c-1.7,0.8-3.7-0.6-3.5-2.5l1.7-13.6c0.1-0.7-0.1-1.4-0.6-2l-9.4-10c-1.3-1.4-0.6-3.7,1.3-4.1l13.5-2.6c0.7-0.1,1.3-0.6,1.7-1.2
					l6.6-12C673.4,392.5,675.9,392.5,676.8,394.2z"/>
			</g>
			<g>
				<path class="st5" d="M714.6,637.6H375.5c-1.8,0-3.2,1.4-3.2,3.2v61.1c0,1.8,1.4,3.2,3.2,3.2h339.1c1.8,0,3.2-1.4,3.2-3.2v-61.1
					C717.8,639.1,716.4,637.6,714.6,637.6z"/>
				<path class="st7" d="M541.3,649.1l6.6,12c0.3,0.6,1,1.1,1.7,1.2l13.5,2.6c1.9,0.4,2.6,2.7,1.3,4.1l-9.4,10
					c-0.5,0.5-0.7,1.3-0.6,2l1.7,13.6c0.2,1.9-1.7,3.3-3.5,2.5l-12.4-5.8c-0.7-0.3-1.4-0.3-2.1,0l-12.4,5.8
					c-1.7,0.8-3.7-0.6-3.5-2.5l1.7-13.6c0.1-0.7-0.1-1.4-0.6-2l-9.4-10c-1.3-1.4-0.6-3.7,1.3-4.1l13.5-2.6c0.7-0.1,1.3-0.6,1.7-1.2
					l6.6-12C538,647.4,540.4,647.4,541.3,649.1z"/>
				<path class="st7" d="M475,649.1l6.6,12c0.3,0.6,1,1.1,1.7,1.2l13.5,2.6c1.9,0.4,2.6,2.7,1.3,4.1l-9.4,10c-0.5,0.5-0.7,1.3-0.6,2
					l1.7,13.6c0.2,1.9-1.7,3.3-3.5,2.5l-12.4-5.8c-0.7-0.3-1.4-0.3-2.1,0l-12.4,5.8c-1.7,0.8-3.7-0.6-3.5-2.5l1.7-13.6
					c0.1-0.7-0.1-1.4-0.6-2l-9.4-10c-1.3-1.4-0.6-3.7,1.3-4.1l13.5-2.6c0.7-0.1,1.3-0.6,1.7-1.2l6.6-12
					C471.6,647.4,474,647.4,475,649.1z"/>
				<path class="st7" d="M415.4,649.1l6.6,12c0.3,0.6,1,1.1,1.7,1.2l13.5,2.6c1.9,0.4,2.6,2.7,1.3,4.1l-9.4,10
					c-0.5,0.5-0.7,1.3-0.6,2l1.7,13.6c0.2,1.9-1.7,3.3-3.5,2.5l-12.4-5.8c-0.7-0.3-1.4-0.3-2.1,0l-12.4,5.8
					c-1.7,0.8-3.7-0.6-3.5-2.5l1.7-13.6c0.1-0.7-0.1-1.4-0.6-2l-9.4-10c-1.3-1.4-0.6-3.7,1.3-4.1l13.5-2.6c0.7-0.1,1.3-0.6,1.7-1.2
					l6.6-12C412.1,647.4,414.5,647.4,415.4,649.1z"/>
				<path class="st6" d="M605.3,649.1l6.6,12c0.3,0.6,1,1.1,1.7,1.2l13.5,2.6c1.9,0.4,2.6,2.7,1.3,4.1l-9.4,10
					c-0.5,0.5-0.7,1.3-0.6,2l1.7,13.6c0.2,1.9-1.7,3.3-3.5,2.5l-12.4-5.8c-0.7-0.3-1.4-0.3-2.1,0l-12.4,5.8
					c-1.7,0.8-3.7-0.6-3.5-2.5l1.7-13.6c0.1-0.7-0.1-1.4-0.6-2l-9.4-10c-1.3-1.4-0.6-3.7,1.3-4.1l13.5-2.6c0.7-0.1,1.3-0.6,1.7-1.2
					l6.6-12C602,647.4,604.4,647.4,605.3,649.1z"/>
				<path class="st6" d="M676.8,649.1l6.6,12c0.3,0.6,1,1.1,1.7,1.2l13.5,2.6c1.9,0.4,2.6,2.7,1.3,4.1l-9.4,10
					c-0.5,0.5-0.7,1.3-0.6,2l1.7,13.6c0.2,1.9-1.7,3.3-3.5,2.5l-12.4-5.8c-0.7-0.3-1.4-0.3-2.1,0l-12.4,5.8
					c-1.7,0.8-3.7-0.6-3.5-2.5l1.7-13.6c0.1-0.7-0.1-1.4-0.6-2l-9.4-10c-1.3-1.4-0.6-3.7,1.3-4.1l13.5-2.6c0.7-0.1,1.3-0.6,1.7-1.2
					l6.6-12C673.4,647.4,675.9,647.4,676.8,649.1z"/>
			</g>
			<g>
				<path class="st6" d="M457,401.4l6.6,12c0.3,0.6,1,1.1,1.7,1.2l13.5,2.6c1.9,0.4,2.6,2.7,1.3,4.1l-9.4,10c-0.5,0.5-0.7,1.2-0.6,2
					l1.7,13.6c0.2,1.9-1.7,3.3-3.5,2.5l-12.4-5.8c-0.7-0.3-1.4-0.3-2.1,0l-12.4,5.8c-1.7,0.8-3.7-0.6-3.5-2.5l1.7-13.6
					c0.1-0.7-0.1-1.4-0.6-2l-9.4-10c-1.3-1.4-0.6-3.7,1.3-4.1l13.5-2.6c0.7-0.1,1.3-0.6,1.7-1.2l6.6-12
					C453.7,399.7,456.1,399.7,457,401.4z"/>
				<g>
					<g>
						<path class="st8" d="M355.5,423c0,0,16.6,50.3-18.4,54.7v11.8h-28.8V454l19.8-37.2L355.5,423z"/>
						<path class="st9" d="M333.4,443.9c0,0-6.4-10.7-9.6-2.1c-3.2,8.6,0.5,14.5,3,17.3c2.5,2.8-21.6,33.9-35.6-3.9
							c-14-37.8,9.1-61.3,36.5-56.9c15.1,2.4,23.8,9.7,28.5,15.8c3.4,4.3,1.8,10.7-3.3,13l-9.9,4.5
							C343.1,431.6,337.9,443.8,333.4,443.9z"/>
					</g>
					<path class="st10" d="M348,941.1v23h55.7c2.5,0,3.5-3.2,1.5-4.6c0,0-24.3-10.7-29.8-18.3H348z"/>
					<path class="st10" d="M280.3,941.1v23H336c2.5,0,3.5-3.2,1.5-4.6c0,0-24.3-10.7-29.8-18.3H280.3z"/>
					<polygon class="st11" points="280,665.1 294.9,804.7 276.3,941.2 309.3,941.2 342.3,804.7 361.5,669.9 					"/>
					<path class="st12" d="M292.3,668.3c0,0,36.2,61.3,41.6,71.4s25,43.2,25,43.2l-14,158.2h30.5l32-158.8l-26.1-122l-85.2,8.5"/>
					<path class="st13" d="M385,673.4c0,0-11.7-101-13.3-110.7c-7.2-43.6-23.3-61.1-34.6-73.1l-28.6-2.9c0,0-13.3,8-18.1,47.9
						c-7.2,59.9-14.7,139.2-14.7,139.2S336.8,691,385,673.4z"/>
					<path class="st14" d="M380.8,522.7c0,0-61-48.1-75.3-6.9c-9.7,28.1,58.5,54.3,58.5,54.3L380.8,522.7z"/>
					<path class="st8" d="M459,464c0,0-33.3,99.9-43.7,103.6c-7.4,2.7-33.9-2.7-48.3-6l11.3-31.9l25,8.3l0.2-0.4l36.6-76.1
						c0,0-0.5-16.5,2.9-16.5s2.7,7.2,2.7,7.2s1.6-4,4.5-10.9c2.9-6.9,12.5-11.2,20.5-7.7C478.7,437.1,459,464,459,464z"/>
				</g>
				<path class="st14" d="M359.1,662.5c1.8-31.5,2.2-77.7-9.8-84.5c-21.6-12.4-36.5-37.2-40.7-44.7c13.3,20.6,55.5,36.8,55.5,36.8
					l5.8-16.2l0.3,0.6c0.6,2.6,1.1,5.4,1.5,8.3c1.6,9.7,13.3,110.7,13.3,110.7c-8.8,3.2-17.9,5.2-27.1,6.4c0.2-3,0.5-6.4,0.7-10.1
					C358.8,667.4,358.9,665,359.1,662.5z"/>
			</g>
			<g>
				<path class="st6" d="M254.7,406.9c5-9.4,7.3-20.3,6-31.9c-2.9-25.3-23.4-45.5-48.7-48c-34.6-3.4-63.4,25.4-60,59.9
					c2.5,25.9,23.7,46.7,49.6,48.9c10.2,0.9,19.8-1.1,28.3-5.1c2.1-1,4.5-1.2,6.8-0.5l18.4,5.3c2.5,0.7,4.7-1.6,4-4L254,414
					C253.3,411.7,253.5,409.1,254.7,406.9z"/>
				<g>
					<path class="st15" d="M189.4,382.5c0,2-1.6,3.6-3.6,3.6c-2,0-3.6-1.6-3.6-3.6s1.6-3.6,3.6-3.6
						C187.8,378.9,189.4,380.5,189.4,382.5z"/>
					<circle class="st15" cx="228.4" cy="382.5" r="3.6"/>
					<circle class="st15" cx="206.7" cy="382.5" r="3.6"/>
				</g>
			</g>
			<g>
				<g>
					<path class="st16" d="M811.4,610.4l-38.8-71.1l-32.5,17.5l38.9,71.2c4.9,9,16.2,12.3,25.2,7.3h0
						C813,630.4,816.2,619.3,811.4,610.4z"/>
					<path class="st6" d="M783,558.4l8.7,15.9l-32.2,18l-9.2-16.8c2.6-0.8,5.2-1.9,7.7-3.3L783,558.4z"/>
					<path class="st16" d="M832,384.9L832,384.9c5.9-3.2,13.2-1,16.4,4.9l72.1,133.6c3.2,5.9,1,13.2-4.9,16.4l0,0
						c-5.9,3.2-13.2,1-16.4-4.9l-72.1-133.6C823.9,395.4,826.1,388.1,832,384.9z"/>
					<g>
						<path class="st2" d="M827.3,401.6l70.9,131.5c-27.5-12-109.3,22.2-109.3,22.2l-40.2-74.5C748.7,480.8,822.3,431.2,827.3,401.6
							z"/>
						<path class="st2" d="M827.3,401.6l70.9,131.5c-27.5-12-109.3,22.2-109.3,22.2l-40.2-74.5C748.7,480.8,822.3,431.2,827.3,401.6
							z"/>
						<path class="st1" d="M887.7,514.2c-26.5-11.6-103.8,19.9-109,22.1l10.3,19c0,0,81.8-34.2,109.3-22.2l-70.9-131.5
							c0,0.2-0.1,0.3-0.1,0.5L887.7,514.2z"/>
						<path class="st16" d="M700.7,555.7L700.7,555.7c11.3,20.3,36.9,27.6,57.2,16.4l30.9-16.9l0.1,0.1l-40.2-74.5L717.3,498
							C696.7,509.3,689.3,535.2,700.7,555.7z"/>
					</g>
					<path class="st16" d="M906.8,455.2c1.6,10-2.2,19.5-9.3,25.7L871.2,432c1-0.3,2-0.5,3-0.7C889.7,428.9,904.3,439.5,906.8,455.2
						z"/>
				</g>
				<path class="st17" d="M783,558.4l8.7,15.9l-32.2,18l-9.2-16.8c2.6-0.8,5.2-1.9,7.7-3.3L783,558.4z"/>
				<path class="st18" d="M753,488.5c0,0,73.2-49.4,78.5-79l-4.3-7.9c-5.1,29.6-78.6,79.2-78.6,79.2l40.2,74.5c0,0,0.1,0,0.1-0.1
					L753,488.5z"/>
			</g>
			<g>
				<path class="st15" d="M472.1,496.8c-1.8,0-3.3-1.5-3.3-3.3c0-1.8,1.5-3.3,3.3-3.3h179.6c1.8,0,3.3,1.5,3.3,3.3
					c0,1.8-1.5,3.3-3.3,3.3H472.1z"/>
				<path class="st15" d="M472.1,531.7c-1.8,0-3.3-1.5-3.3-3.3c0-1.8,1.5-3.3,3.3-3.3h179.6c1.8,0,3.3,1.5,3.3,3.3
					c0,1.8-1.5,3.3-3.3,3.3H472.1z"/>
				<path class="st15" d="M472.1,565.7c-1.8,0-3.3-1.5-3.3-3.3c0-1.8,1.5-3.3,3.3-3.3h112.5c1.8,0,3.3,1.5,3.3,3.3
					c0,1.8-1.5,3.3-3.3,3.3H472.1z"/>
			</g>
			<g>
				<path class="st15" d="M472.1,754.9c-1.8,0-3.3-1.5-3.3-3.3c0-1.8,1.5-3.3,3.3-3.3h179.6c1.8,0,3.3,1.5,3.3,3.3
					c0,1.8-1.5,3.3-3.3,3.3H472.1z"/>
				<path class="st15" d="M472.1,789.8c-1.8,0-3.3-1.5-3.3-3.3c0-1.8,1.5-3.3,3.3-3.3h179.6c1.8,0,3.3,1.5,3.3,3.3
					c0,1.8-1.5,3.3-3.3,3.3H472.1z"/>
				<path class="st15" d="M472.1,823.7c-1.8,0-3.3-1.5-3.3-3.3s1.5-3.3,3.3-3.3h112.5c1.8,0,3.3,1.5,3.3,3.3s-1.5,3.3-3.3,3.3H472.1
					z"/>
			</g>
			<g>
				<path class="st15" d="M680.6,282.8H503.5c-3.9,0-7.1,3.2-7.1,7.1l0,0c0,3.9,3.2,7.1,7.1,7.1h177.1c3.9,0,7.1-3.2,7.1-7.1l0,0
					C687.8,286,684.6,282.8,680.6,282.8z"/>
				<path class="st15" d="M642.9,327.7H541.2c-0.6,0-1.1,0.5-1.1,1.1v12.1c0,0.6,0.5,1.1,1.1,1.1h101.7c0.6,0,1.1-0.5,1.1-1.1v-12.1
					C644,328.2,643.5,327.7,642.9,327.7z"/>
			</g>
			<g>
				
					<ellipse transform="matrix(0.7071 -0.7071 0.7071 0.7071 -28.5241 343.5512)" class="st16" cx="400.4" cy="206.2" rx="81.3" ry="81.3"/>
				<g>
					<rect x="343.6" y="188.3" class="st3" width="23.1" height="48.4"/>
					<g>
						<path class="st19" d="M410.9,156.4c4.5,1.1,7.3,5.6,6.3,10.1l-1.8,8.1c-0.5,4,2.6,7.5,6.7,7.5h17.2c8.1,0,14.1,7.7,12,15.5
							l-9.1,35c-1.4,5.5-6.4,9.3-12,9.3h-33.2c-2.5,0-4.8-1-6.6-2.7l-9.3-9.1h-14.3V194l13.3-0.6c5.6,0,10.6-3.5,12.5-8.9l8.5-22.8
							C402.4,157.7,406.7,155.4,410.9,156.4L410.9,156.4z"/>
					</g>
				</g>
			</g>
			<g>
				
					<ellipse transform="matrix(0.9209 -0.3898 0.3898 0.9209 -250.0322 372.3132)" class="st6" cx="792.4" cy="802.3" rx="81.3" ry="81.3"/>
				<g>
					
						<rect x="821.6" y="769.2" transform="matrix(-1 -1.224647e-16 1.224647e-16 -1 1666.3645 1586.7208)" class="st3" width="23.1" height="48.4"/>
					<g>
						<path class="st19" d="M777.4,849.4c-4.5-1.1-7.3-5.6-6.3-10.1l1.8-8.1c0.5-4-2.6-7.5-6.7-7.5h-17.2c-8.1,0-14.1-7.7-12-15.5
							l9.1-35c1.4-5.5,6.4-9.3,12-9.3h33.2c2.5,0,4.8,1,6.6,2.7l9.3,9.1h14.3v36.2l-13.3,0.6c-5.6,0-10.6,3.5-12.5,8.9l-8.5,22.8
							C785.9,848.1,781.6,850.4,777.4,849.4L777.4,849.4z"/>
					</g>
				</g>
			</g>
		</g>
	</g>
	<ellipse class="st20" cx="502.1" cy="990.5" rx="298.9" ry="14.3"/>
</g>
</svg>
