<?xml version="1.0" encoding="utf-8"?>
<!-- Generator: Adobe Illustrator 27.0.0, SVG Export Plug-In . SVG Version: 6.00 Build 0)  -->
<svg version="1.1" id="Layer_1" xmlns="http://www.w3.org/2000/svg" xmlns:xlink="http://www.w3.org/1999/xlink" x="0px" y="0px"
	 viewBox="0 0 1080 1080" style="enable-background:new 0 0 1080 1080;" xml:space="preserve">
<style type="text/css">
	.st0{fill:#00A54C;}
	.st1{fill:#F7901E;}
	.st2{fill:#008745;}
	.st3{fill:url(#SVGID_1_);}
	.st4{fill:#E71E25;}
	.st5{opacity:0.3;fill:#4E4E4E;}
	.st6{fill:#007AC1;}
	.st7{fill:url(#SVGID_00000030483327566420610750000008153922572691356048_);}
	.st8{fill:#0B395B;}
	.st9{fill:#0D4168;}
	.st10{fill:#005A92;}
	.st11{fill:#1A1A1A;}
	.st12{fill:#F6BF9B;}
	.st13{opacity:0.5;fill:#818181;}
	.st14{fill:#008ED0;}
	.st15{fill:#333333;}
	.st16{fill:#00A1DC;}
	.st17{fill:#EE3554;}
	.st18{fill:#CF2127;}
	.st19{opacity:0.5;fill:#676767;}
	.st20{fill:#006DA1;}
	.st21{fill:#FFFFFF;}
	.st22{fill:#202A60;}
	.st23{opacity:0.3;fill:#B0B1B1;}
</style>
<g>
	<g>
		<path class="st0" d="M401.6,449.3L344,391.7c49-46.4,112.3-72.6,179.7-74.5v81.5C478,400.5,435.2,418.3,401.6,449.3z"/>
		<path class="st1" d="M718.7,391.7l-57.6,57.6c-33.6-31-76.4-48.8-122.1-50.6v-81.5C606.4,319.1,669.7,345.3,718.7,391.7z"/>
		<path class="st2" d="M390.8,460.1c-31,33.6-48.8,76.4-50.6,122.1h-81.5c1.8-67.4,28.1-130.7,74.5-179.7L390.8,460.1z"/>
		<linearGradient id="SVGID_1_" gradientUnits="userSpaceOnUse" x1="426.5789" y1="651.7945" x2="634.7098" y2="446.7422">
			<stop  offset="0" style="stop-color:#E3E3E3"/>
			<stop  offset="0.1146" style="stop-color:#F1F0F0"/>
			<stop  offset="0.2566" style="stop-color:#FBFAFA"/>
			<stop  offset="0.4888" style="stop-color:#FFFFFF"/>
			<stop  offset="0.6922" style="stop-color:#F8F8F8"/>
			<stop  offset="0.9058" style="stop-color:#EBEBEA"/>
			<stop  offset="1" style="stop-color:#E3E3E3"/>
		</linearGradient>
		<path class="st3" d="M663,469c27.6,30.1,45.1,69.6,46.9,113.2H352.8c1.8-43.6,19.3-83.2,46.9-113.2c3.4-3.8,7-7.4,10.8-10.8
			c30.1-27.6,69.6-45.1,113.2-46.9c2.5-0.1,5.1-0.2,7.6-0.2c2.6,0,5.1,0.1,7.6,0.2c43.6,1.8,83.2,19.3,113.2,46.9
			C656,461.6,659.6,465.3,663,469z"/>
		<path class="st4" d="M804,582.2h-81.5c-1.8-45.7-19.5-88.6-50.6-122.1l57.6-57.6C775.9,451.5,802.1,514.8,804,582.2z"/>
		<path class="st5" d="M710.1,589.9c0,98.7-80,178.7-178.7,178.7s-178.7-80-178.7-178.7c0-2.6,0.1-5.1,0.2-7.6
			c1.8-43.6,19.3-83.2,46.9-113.2c3.4-3.8,7-7.4,10.8-10.8c30.1-27.6,69.6-45.1,113.2-46.9c2.5-0.1,5.1-0.2,7.6-0.2
			c2.6,0,5.1,0.1,7.6,0.2c43.6,1.8,83.2,19.3,113.2,46.9c3.8,3.4,7.4,7,10.8,10.8c27.6,30.1,45.1,69.6,46.9,113.2
			C710,584.8,710.1,587.3,710.1,589.9z"/>
		<path class="st6" d="M531.4,763.5c-95.7,0-173.6-77.9-173.6-173.6c0-2.5,0.1-5,0.2-7.4c1.7-40.8,17.9-79.9,45.6-110
			c3.3-3.6,6.9-7.2,10.5-10.5c30.1-27.7,69.2-43.9,110-45.6c2.4-0.1,4.9-0.2,7.4-0.2c2.5,0,5,0.1,7.4,0.2
			c40.8,1.7,79.9,17.9,110,45.6c3.6,3.3,7.2,6.9,10.5,10.5c27.7,30.1,43.9,69.2,45.6,110c0.1,2.4,0.2,4.9,0.2,7.4
			C705,685.6,627.1,763.5,531.4,763.5z"/>
		
			<linearGradient id="SVGID_00000114781125925703039880000003025000965744292526_" gradientUnits="userSpaceOnUse" x1="421.8343" y1="697.7701" x2="640.1993" y2="482.6351">
			<stop  offset="0" style="stop-color:#E3E3E3"/>
			<stop  offset="0.1146" style="stop-color:#F1F0F0"/>
			<stop  offset="0.2566" style="stop-color:#FBFAFA"/>
			<stop  offset="0.4888" style="stop-color:#FFFFFF"/>
			<stop  offset="0.6922" style="stop-color:#F8F8F8"/>
			<stop  offset="0.9058" style="stop-color:#EBEBEA"/>
			<stop  offset="1" style="stop-color:#E3E3E3"/>
		</linearGradient>
		<circle style="fill:url(#SVGID_00000114781125925703039880000003025000965744292526_);" cx="531.4" cy="589.9" r="157.7"/>
		<g>
			<polygon class="st8" points="407.9,578.2 311,497.1 421.7,548.7 			"/>
			<polygon class="st9" points="435.4,519.2 311,497.1 421.7,548.7 			"/>
		</g>
		<circle class="st10" cx="531.4" cy="589.9" r="157.7"/>
		<circle class="st6" cx="531.4" cy="589.9" r="142.5"/>
		<g>
			<g>
				<polygon class="st11" points="763.3,805.9 768,818 779.6,815.3 775.7,804.8 				"/>
				<path class="st11" d="M764,813.5l-18.1,8c-1.9,0.8-1.7,3.9,0.3,4.8l2,0.8c1.9,0.8,3.9,1.2,5.9,1.2l17.9,0l1.1-1.1
					c1.1-1.1,2.8-0.8,3.8,0.6l0.3,0.5l3.5,0c1.2,0,1.9-1.4,1.4-2.6l-2.5-12.1L764,813.5z"/>
			</g>
			<path class="st12" d="M667.1,553.5c-0.3-1.4-0.5-2.9-0.7-4.3c-0.1-0.7-0.1-1.5,0.3-2.1c0.6-0.7,1.7-0.6,2.4-0.1
				c0.7,0.5,1.1,1.3,1.5,2.1c2.4,5.2,3.3,10.5,4.3,16.1c0.6,3.7,5.6,3,8.6,3.5l-1.5,11.4c-2.1-1.1-6.3-1.5-8.7-1.4
				c-3.7,0.1-4.6-4.1-6.1-7.4c-1.4-3-2.1-6.3-2.8-9.5c-0.2-1-0.3-2.2,0.5-2.8c0.7-0.5,1.8-0.1,2.3,0.6c0.5,0.7,0.7,1.6,0.9,2.5
				c0.2,0.9,0.4,1.8,1,2.4c-0.4-0.5,0.1-3,0-3.7c-0.2-1.1-0.5-2.3-0.9-3.4C667.5,556.2,667.3,554.8,667.1,553.5z"/>
			<g>
				<path class="st12" d="M755.6,560.5c0.2,0.2,0.4,0.4,0.6,0.6c0.9,1,1.7,2.2,2.3,3.7c0.4,0.9,0.6,2.5,0.8,4.1
					c0.2,2.1,0.7,6.4,1,7.8l20.5-10.2l-2.9-13l-2.4,0.7l-5.7,1.8L755.6,560.5z"/>
				<path class="st13" d="M756.3,561.1c0.9,1,1.7,2.2,2.3,3.7c0.4,0.9,0.6,2.5,0.8,4.1c4.8-3,9.6-4.6,11.5-6.4
					c0.6-0.6,1.2-5.1,1.2-5.1L756.3,561.1z"/>
				<path class="st12" d="M750.6,563.7c0,0,1.3,1.6,6.4,1.6c0.4,0,0.9,0,1.3-0.1c3-0.2,7.2-1,12.8-2.8c2.1-0.7,4.5-1.5,7.1-2.6
					c0,0,0.1-0.2,0.2-0.6c1.2-4.2,7.9-27.7,2.8-30c-5.6-2.6-22.3-1.9-27.7,1.1C753.4,530.3,745.9,550,750.6,563.7z"/>
				<path class="st11" d="M779.8,561c0,0-0.1-2.9,6.8-12.6c6.9-9.7-2.8-19.4-2.8-19.4s-2.8-13.9-29.1-5.5c0,0-7.2-0.3-8.3-2.6
					c-1.1-2.3-0.9,5.9,4.4,9.5c2.9,1.9,5.3,1.4,6.8,0.4c1.5-0.9,3.6-0.5,4.7,0.9c1,1.2,1.6,2.5,0.4,3.2c-2.5,1.6-1,8-1,10
					s4.2-6.9,6.8-5.6c2.6,1.4,3.2,2.2,0.9,9.6C767.2,556.3,779.8,561,779.8,561L779.8,561z"/>
			</g>
			<polygon class="st14" points="770.4,575.5 730.9,577.1 680.2,567.1 679.4,577.5 728.6,592.1 772,596 			"/>
			<g>
				<polygon class="st11" points="864.2,808.3 867.9,815.8 881.5,817.6 876.9,805.1 				"/>
				<path class="st11" d="M865,814.2l-18.1,8c-1.9,0.8-1.7,3.9,0.3,4.8l2,0.8c1.9,0.8,3.9,1.2,5.9,1.2l17.9-0.1l1.1-1.1
					c1.1-1.1,2.8-0.8,3.8,0.6l0.3,0.5l3.5,0c1.2,0,1.9-1.4,1.3-2.6l-2.5-12.1L865,814.2z"/>
			</g>
			<polygon class="st11" points="878.2,806.2 862.7,809.1 819.3,738.9 808.5,717 804,707.7 800.1,699.7 798.6,696.5 784.3,667.3 
				779.7,657.9 818.2,661.7 824.5,662.3 825.5,662.4 841.4,732.6 			"/>
			<path class="st11" d="M779.9,669.4l-43.1,59.9c-3.1,3.4-3.8,8.3-1.8,12.4l28.3,66.6l13.4-3.2l-18.1-64.7c0,0,65.2-64,65.3-77.9
				L779.9,669.4z"/>
			<polygon class="st15" points="816.2,675.7 808.5,717 808.5,717.3 800.1,699.7 798.6,696.5 			"/>
			<path class="st16" d="M754.5,593.7c-0.2,1-0.3,2-0.3,3c0,0.8,0,1.5,0,2.3c0.1,2.1,1.7,8.9,1.9,9.6c12.5,23.6,19.4,47.4,21.7,59.5
				c0.8,1.8,2.6,2.7,4.4,2.2c11.5,1.4,26.4-1.4,43.5-6.8c2.7-0.4-19-54.8-31.6-83.6c-3.9-9-6.7-12-9.7-13.1
				c-1.1-0.4-2.4-0.5-3.5-0.3c-4.8,1.1-9.4,2.9-13.5,5.3l0,0C759.1,576.9,756,584.4,754.5,593.7z"/>
			<path class="st12" d="M666.2,559.6c-0.3-1.4-0.5-2.9-0.7-4.3c-0.1-0.7-0.1-1.5,0.3-2.1c0.6-0.7,1.7-0.6,2.4-0.1
				c0.7,0.5,1.1,1.3,1.5,2.1c2.4,5.2,3.3,10.5,4.3,16.1c0.6,3.7,5.6,3,8.6,3.5l-1.5,11.4c-2.1-1.1-6.3-1.5-8.7-1.4
				c-3.7,0.1-4.6-4.1-6.1-7.4c-1.4-3-2.1-6.3-2.8-9.5c-0.2-1-0.3-2.2,0.5-2.8c0.7-0.5,1.8-0.1,2.3,0.6c0.5,0.7,0.7,1.6,0.9,2.5
				c0.2,0.9,0.4,1.8,1,2.4c-0.4-0.5,0.1-3,0-3.7c-0.2-1.1-0.5-2.3-0.9-3.4C666.7,562.3,666.5,560.9,666.2,559.6z"/>
			<polygon class="st17" points="749.2,591 750.3,593.7 753.4,593.6 755.9,590.1 751.5,588.5 			"/>
			<polygon class="st18" points="752.7,662.7 759.7,672.2 764.9,661.7 759.7,606.4 759.6,605.4 759.5,604.2 759.5,604.2 
				759.1,600.1 759,598.3 758.8,596.2 758.4,592.3 756.4,592.8 755.8,593 755.7,595.7 755.6,598 755.6,598.6 755.2,606.5 
				755.2,606.6 			"/>
			<polygon class="st19" points="755.2,606.5 755.2,606.6 754.6,616.5 775.1,607.9 776.7,604.7 759.1,600.1 755.6,598.6 			"/>
			<path class="st16" d="M774,576.8l-43,3.5l-48.9-6.3l-1.6,12.6l50.5,11l41.2,9.2c4.8,1.3,9.9-0.5,12.8-4.5
				c3.4-4.7,6.5-11.5,3.1-18C785.3,579.2,779.7,576.3,774,576.8z"/>
			<polygon class="st20" points="781.4,562.9 786.7,568.1 770,577.1 756.7,578.2 			"/>
		</g>
		<g>
			<path class="st21" d="M453.4,622.4c-4,0-7.7-0.7-11.1-2.1c-3.5-1.4-6.5-3.5-9-6.2c-2.5-2.8-4.5-6.1-6-10.2
				c-1.5-4-2.2-8.6-2.2-13.8c0-5.1,0.8-9.7,2.3-13.8c1.5-4.1,3.6-7.5,6.1-10.3c2.6-2.8,5.6-5,9.1-6.4c3.5-1.5,7.2-2.2,11.2-2.2
				c4,0,7.5,0.8,10.6,2.4c3.1,1.6,5.6,3.5,7.6,5.6l-6,7.2c-1.7-1.7-3.5-3-5.4-4c-1.9-1-4.1-1.5-6.5-1.5c-2.6,0-4.9,0.5-7.1,1.6
				c-2.1,1.1-4,2.6-5.6,4.5c-1.6,2-2.8,4.3-3.7,7.2c-0.9,2.8-1.3,6-1.3,9.5c0,7.2,1.6,12.8,4.7,16.9c3.1,4.1,7.3,6.1,12.6,6.1
				c2.8,0,5.3-0.6,7.5-1.8c2.2-1.2,4.2-2.7,6-4.7l6,7c-2.6,2.9-5.5,5.2-8.8,6.8C461.1,621.6,457.5,622.4,453.4,622.4z"/>
			<path class="st21" d="M504.9,622.4c-4.1,0-7.8-0.8-11.2-2.3c-3.4-1.5-6.3-3.7-8.7-6.5c-2.4-2.8-4.3-6.3-5.7-10.3
				c-1.3-4-2-8.6-2-13.7c0-5.1,0.7-9.6,2-13.6c1.3-4,3.2-7.4,5.7-10.1c2.4-2.8,5.3-4.9,8.7-6.3c3.4-1.5,7.1-2.2,11.2-2.2
				c4.1,0,7.8,0.7,11.2,2.2c3.4,1.5,6.3,3.6,8.8,6.3c2.5,2.8,4.4,6.1,5.7,10.1c1.3,4,2,8.5,2,13.6c0,5.1-0.7,9.7-2,13.7
				c-1.3,4-3.3,7.5-5.7,10.3c-2.5,2.8-5.4,5-8.8,6.5C512.7,621.7,509,622.4,504.9,622.4z M504.9,612.7c2.5,0,4.7-0.5,6.7-1.6
				c2-1.1,3.7-2.6,5.1-4.7c1.4-2,2.5-4.5,3.3-7.3c0.8-2.8,1.2-6,1.2-9.6c0-7-1.5-12.6-4.4-16.6c-2.9-4-6.9-6-11.9-6
				c-5,0-8.9,2-11.9,6c-2.9,4-4.4,9.5-4.4,16.6c0,3.5,0.4,6.7,1.2,9.6c0.8,2.8,1.9,5.3,3.3,7.3c1.4,2,3.1,3.6,5.1,4.7
				C500.2,612.2,502.4,612.7,504.9,612.7z"/>
			<path class="st21" d="M563.6,622.4c-4.2,0-8.3-0.8-12.2-2.4c-3.9-1.6-7.4-3.9-10.4-6.8l6.5-7.6c2.2,2.1,4.8,3.8,7.7,5.1
				c2.9,1.3,5.8,2,8.6,2c3.6,0,6.3-0.7,8.2-2.2c1.9-1.5,2.8-3.4,2.8-5.9c0-1.3-0.2-2.4-0.7-3.3c-0.5-0.9-1.2-1.7-2-2.4
				c-0.9-0.7-1.9-1.3-3.1-1.9c-1.2-0.6-2.5-1.2-3.9-1.7l-8.6-3.7c-1.5-0.6-3.1-1.4-4.6-2.4c-1.5-1-2.9-2.1-4.1-3.5
				c-1.2-1.3-2.2-2.9-2.9-4.7c-0.7-1.8-1.1-3.8-1.1-6.1c0-2.5,0.5-4.8,1.6-7c1.1-2.1,2.5-4,4.4-5.6c1.9-1.6,4.1-2.8,6.7-3.7
				c2.6-0.9,5.4-1.3,8.5-1.3c3.6,0,7.2,0.7,10.6,2.2c3.4,1.4,6.3,3.4,8.7,5.8l-5.7,7.1c-2.1-1.7-4.2-3-6.3-3.9
				c-2.2-1-4.6-1.4-7.3-1.4c-3,0-5.4,0.7-7.2,2c-1.8,1.3-2.7,3.1-2.7,5.4c0,1.2,0.3,2.3,0.8,3.1c0.5,0.9,1.3,1.6,2.2,2.3
				c0.9,0.7,2,1.3,3.2,1.8c1.2,0.5,2.5,1.1,3.7,1.6l8.5,3.6c1.9,0.8,3.6,1.7,5.1,2.7c1.5,1,2.9,2.2,4,3.6c1.1,1.3,2,2.9,2.6,4.7
				c0.6,1.8,1,3.8,1,6.1c0,2.6-0.5,5-1.5,7.2c-1,2.2-2.5,4.2-4.5,5.9c-2,1.7-4.3,3-7.1,4C570.3,621.9,567.1,622.4,563.6,622.4z"/>
			<path class="st21" d="M608.3,621.3v-53.4h-18.2v-9.4h47.4v9.4h-18.2v53.4H608.3z"/>
		</g>
		<g>
			<g>
				<path class="st22" d="M90.7,581l0.3-47.9l8.5,0l-0.2,40.7l19.9,0.1l0,7.2L90.7,581z"/>
				<path class="st22" d="M143.8,582.2c-3.1,0-6-0.6-8.6-1.8c-2.6-1.2-4.8-2.8-6.6-5c-1.8-2.2-3.3-4.8-4.3-7.9
					c-1-3.1-1.5-6.6-1.5-10.5c0-3.9,0.6-7.3,1.6-10.4c1-3,2.5-5.6,4.4-7.7c1.9-2.1,4.1-3.7,6.7-4.8c2.6-1.1,5.5-1.7,8.6-1.6
					c3.1,0,6,0.6,8.6,1.7c2.6,1.1,4.8,2.8,6.7,4.9c1.9,2.1,3.3,4.7,4.3,7.8c1,3.1,1.5,6.5,1.5,10.4c0,3.9-0.6,7.4-1.6,10.5
					c-1,3.1-2.5,5.7-4.4,7.9c-1.9,2.2-4.1,3.8-6.7,4.9C149.8,581.6,146.9,582.2,143.8,582.2z M143.8,574.8c1.9,0,3.6-0.4,5.1-1.2
					c1.5-0.8,2.8-2,3.9-3.5c1.1-1.5,1.9-3.4,2.5-5.6c0.6-2.2,0.9-4.6,0.9-7.3c0-5.4-1.1-9.6-3.3-12.7c-2.2-3.1-5.2-4.6-9-4.6
					c-3.8,0-6.8,1.5-9.1,4.5c-2.2,3-3.4,7.2-3.4,12.6c0,2.7,0.3,5.1,0.8,7.3s1.4,4,2.5,5.6c1.1,1.5,2.4,2.7,3.9,3.6
					C140.2,574.3,141.9,574.7,143.8,574.8z"/>
				<path class="st22" d="M179,581.5l-9.3-48l8.7,0l4,24.2c0.4,2.6,0.8,5.2,1.1,7.7c0.4,2.5,0.8,5.1,1.1,7.6l0.3,0
					c0.6-2.5,1.1-5.1,1.6-7.6c0.5-2.6,1.1-5.1,1.6-7.6l6-24.1l7.4,0l5.7,24.2c0.5,2.5,1,5,1.6,7.6c0.5,2.6,1,5.1,1.6,7.7l0.3,0
					c0.4-2.6,0.8-5.1,1.2-7.7c0.4-2.5,0.8-5.1,1.2-7.6l4.3-24.2l8.1,0l-9.4,47.9l-10.6-0.1l-5.8-25.2c-0.4-1.9-0.7-3.7-1.1-5.5
					c-0.4-1.8-0.7-3.7-1-5.5l-0.3,0c-0.4,1.9-0.7,3.7-1.1,5.5c-0.4,1.8-0.8,3.7-1.2,5.5l-5.9,25.2L179,581.5z"/>
			</g>
		</g>
		<g>
			<g>
				<path class="st22" d="M837.7,581.4v-47.9h8.5v19.3h19.4v-19.3h8.5v47.9h-8.5v-21.2h-19.4v21.2H837.7z"/>
				<path class="st22" d="M886.3,581.4v-47.9h8.5v47.9H886.3z"/>
				<path class="st22" d="M927,582.2c-3.2,0-6.2-0.5-9-1.6c-2.8-1.1-5.2-2.7-7.2-4.8c-2-2.1-3.6-4.7-4.7-7.8
					c-1.1-3.1-1.7-6.6-1.7-10.6c0-3.9,0.6-7.4,1.8-10.5c1.2-3.1,2.8-5.7,4.8-7.9c2-2.1,4.4-3.8,7.2-4.9c2.8-1.1,5.7-1.7,8.9-1.7
					c3.4,0,6.3,0.6,8.7,1.9c2.4,1.2,4.3,2.7,5.8,4.2l-4.5,5.5c-1.2-1.2-2.6-2.2-4.1-3c-1.5-0.8-3.4-1.2-5.6-1.2
					c-2.1,0-4.1,0.4-5.8,1.2c-1.7,0.8-3.2,2-4.5,3.4c-1.2,1.5-2.2,3.3-2.9,5.5c-0.7,2.2-1,4.6-1,7.3c0,5.5,1.2,9.8,3.7,12.9
					c2.5,3.1,6.1,4.7,11,4.7c1.4,0,2.7-0.2,3.9-0.5c1.2-0.4,2.2-0.9,3-1.6v-10.3h-9.1v-7h16.7v21.1c-1.6,1.6-3.7,3-6.4,4.1
					C933.2,581.7,930.3,582.2,927,582.2z"/>
				<path class="st22" d="M952.9,581.4v-47.9h8.5v19.3h19.4v-19.3h8.5v47.9h-8.5v-21.2h-19.4v21.2H952.9z"/>
			</g>
		</g>
		<g>
			<g>
				<path class="st22" d="M405.9,283.2v-47.9h9.6l8.5,23.4c0.5,1.5,1,3.1,1.5,4.7c0.5,1.6,1,3.2,1.5,4.7h0.3c0.5-1.6,1-3.1,1.5-4.7
					c0.5-1.6,1-3.1,1.5-4.7l8.3-23.4h9.7v47.9h-7.8v-21.9c0-1.1,0-2.3,0.1-3.7c0.1-1.3,0.2-2.6,0.3-4c0.1-1.3,0.2-2.7,0.4-4
					c0.1-1.3,0.3-2.5,0.4-3.6h-0.3l-3.9,11.1l-7.8,21.5h-5.1l-7.9-21.5l-3.8-11.1h-0.3c0.1,1.1,0.2,2.3,0.3,3.6
					c0.1,1.3,0.2,2.6,0.4,4c0.1,1.3,0.2,2.7,0.3,4c0.1,1.3,0.1,2.5,0.1,3.7v21.9H405.9z"/>
				<path class="st22" d="M460.5,283.2v-47.9h28.9v7.2H469v12.2h17.2v7.2H469V276h21.1v7.2H460.5z"/>
				<path class="st22" d="M499.9,283.2v-47.9h12.8c7.3,0,13,2,17.1,5.9c4.1,4,6.2,9.9,6.2,17.8c0,4-0.5,7.4-1.6,10.5
					c-1.1,3-2.6,5.6-4.5,7.6c-2,2-4.4,3.6-7.2,4.6c-2.8,1-6,1.5-9.6,1.5H499.9z M508.4,276.3h3.7c4.9,0,8.6-1.4,11.2-4.2
					c2.6-2.8,3.9-7.2,3.9-13.1c0-5.9-1.3-10.1-4-12.8c-2.6-2.7-6.4-4-11.2-4h-3.7V276.3z"/>
				<path class="st22" d="M545.7,283.2v-47.9h8.5v47.9H545.7z"/>
				<path class="st22" d="M584.3,284c-2.8,0-5.3-0.4-7.5-1.2c-2.2-0.8-4.1-2.1-5.7-3.8c-1.6-1.8-2.8-4-3.7-6.8
					c-0.9-2.8-1.3-6.1-1.3-10.1v-26.9h8.5v27.5c0,2.6,0.2,4.8,0.7,6.6c0.5,1.8,1.1,3.2,2,4.3c0.9,1.1,1.9,1.8,3,2.3
					c1.2,0.5,2.5,0.7,4,0.7c1.5,0,2.8-0.2,4-0.7c1.2-0.5,2.3-1.2,3.1-2.3c0.9-1.1,1.6-2.5,2.1-4.3c0.5-1.8,0.7-4,0.7-6.6v-27.5h8.1
					v26.9c0,4-0.4,7.3-1.2,10.1c-0.8,2.8-2,5-3.6,6.8c-1.6,1.8-3.5,3-5.7,3.8C589.6,283.6,587.1,284,584.3,284z"/>
				<path class="st22" d="M614.4,283.2v-47.9h9.6l8.5,23.4c0.5,1.5,1,3.1,1.5,4.7c0.5,1.6,1,3.2,1.5,4.7h0.3c0.5-1.6,1-3.1,1.5-4.7
					c0.5-1.6,1-3.1,1.5-4.7l8.3-23.4h9.7v47.9H649v-21.9c0-1.1,0-2.3,0.1-3.7c0.1-1.3,0.2-2.6,0.3-4c0.1-1.3,0.2-2.7,0.4-4
					c0.1-1.3,0.3-2.5,0.4-3.6h-0.3l-3.9,11.1l-7.8,21.5H633l-7.9-21.5l-3.8-11.1H621c0.1,1.1,0.2,2.3,0.3,3.6c0.1,1.3,0.2,2.6,0.4,4
					c0.1,1.3,0.2,2.7,0.3,4c0.1,1.3,0.1,2.5,0.1,3.7v21.9H614.4z"/>
			</g>
		</g>
	</g>
	<ellipse class="st23" cx="563.9" cy="829" rx="330.7" ry="15.8"/>
</g>
</svg>
