<?xml version="1.0" encoding="utf-8"?>
<!-- Generator: Adobe Illustrator 27.0.0, SVG Export Plug-In . SVG Version: 6.00 Build 0)  -->
<svg version="1.1" id="Layer_1" xmlns="http://www.w3.org/2000/svg" xmlns:xlink="http://www.w3.org/1999/xlink" x="0px" y="0px"
	 viewBox="0 0 1080 1080" style="enable-background:new 0 0 1080 1080;" xml:space="preserve">
<style type="text/css">
	.st0{fill:#B981B8;}
	.st1{opacity:0.7;}
	.st2{fill:#9183BD;}
	.st3{fill:#00A1DC;}
	.st4{fill:#FFFFFF;}
	.st5{fill:#F6BF9B;}
	.st6{fill:#006DA1;}
	.st7{fill:#447082;}
	.st8{fill:#3B4047;}
	.st9{fill:#2A2F35;}
	.st10{fill:#E61E25;}
	.st11{fill:#343232;}
</style>
<g>
	<g>
		<g>
			<path class="st0" d="M363.7,334.2c0,16.3-13.2,29.5-29.5,29.5h-60.5c-16.3,0-29.5-13.2-29.5-29.5c0-16.3,13.2-29.5,29.5-29.5
				h60.5C350.5,304.8,363.7,317.9,363.7,334.2z"/>
			<path class="st0" d="M938.2,462.4c0-144.5-117.1-261.6-261.6-261.6c-85.3,0-161,40.8-208.8,104h-49.5
				c-16.3,0-29.5,13.2-29.5,29.5c0,16.3,13.2,29.5,29.5,29.5h111.4c17.7,0,32.1,14.4,32.1,32.1c0,17.7-14.4,32.1-32.1,32.1H417.3
				c0,0.1,0,0.2,0,0.3H147.5c-17.7,0-32.1,14.4-32.1,32.1c0,17.7,14.4,32.1,32.1,32.1h269.3c0,0,0,0,0,0.1h38.9
				c17.7,0,32.1,14.4,32.1,32.1s-14.4,32.1-32.1,32.1h-23c0,0,0,0.1,0,0.1H290.2c-17.7,0-32.1,14.4-32.1,32.1
				c0,17.7,14.4,32.1,32.1,32.1h178.6C516.6,683.7,591.9,724,676.6,724C821.1,724,938.2,606.9,938.2,462.4z"/>
			<circle class="st0" cx="192.1" cy="589.1" r="32.6"/>
		</g>
		<g class="st1">
			<path class="st2" d="M651.5,251.4c0.1,0.5,0.3,1,0.7,1.4c0.4,0.3,1,0.5,1.5,0.4c1.1-0.1,1.9-1.1,1.8-2.2l-2.1-20.4
				c-0.1-0.5-0.3-1-0.7-1.4c-0.4-0.3-1-0.5-1.5-0.4c-1.1,0.1-1.9,1.1-1.8,2.2L651.5,251.4z"/>
			<path class="st2" d="M629.2,255.1c0.1,0.5,0.4,1,0.9,1.3c0.5,0.3,1,0.4,1.5,0.3c1.1-0.2,1.8-1.3,1.6-2.4l-4.3-20
				c-0.1-0.5-0.4-1-0.9-1.3c-0.5-0.3-1-0.4-1.5-0.3c-1.1,0.2-1.8,1.3-1.6,2.4L629.2,255.1z"/>
			<path class="st2" d="M607.5,261.2c0.2,0.5,0.5,0.9,1,1.2c0.5,0.2,1,0.3,1.6,0.1s0.9-0.5,1.2-1c0.2-0.5,0.3-1,0.1-1.6l-6.3-19.5
				c-0.3-1.1-1.5-1.7-2.6-1.3c-0.5,0.2-0.9,0.5-1.2,1c-0.2,0.5-0.3,1-0.1,1.6L607.5,261.2z"/>
			<path class="st2" d="M586.5,269.4c0.5,1,1.7,1.5,2.7,1c0.5-0.2,0.9-0.6,1.1-1.1c0.2-0.5,0.2-1.1,0-1.6l-8.3-18.7
				c-0.2-0.5-0.6-0.9-1.1-1.1c-0.5-0.2-1.1-0.2-1.6,0c-1,0.5-1.5,1.7-1,2.7L586.5,269.4z"/>
			<path class="st2" d="M547.7,292.3c0.3,0.4,0.8,0.7,1.3,0.8c0.5,0.1,1.1,0,1.5-0.4c0.9-0.7,1.1-1.9,0.5-2.9l-12-16.6
				c-0.3-0.4-0.8-0.7-1.3-0.8c-0.5-0.1-1.1,0-1.5,0.4c-0.9,0.7-1.1,1.9-0.5,2.9L547.7,292.3z"/>
			<path class="st2" d="M530.3,306.7c0.4,0.4,0.9,0.6,1.4,0.7c0.5,0,1.1-0.2,1.5-0.5c0.8-0.8,0.9-2.1,0.2-2.9l-13.7-15.2
				c-0.4-0.4-0.9-0.6-1.4-0.7c-0.5,0-1.1,0.2-1.5,0.5c-0.8,0.8-0.9,2.1-0.2,2.9L530.3,306.7z"/>
			<path class="st2" d="M514.5,322.8c0.8,0.8,2.1,0.7,2.9-0.2c0.4-0.4,0.6-0.9,0.5-1.5c0-0.5-0.3-1.1-0.7-1.4L502,306
				c-0.4-0.4-0.9-0.6-1.5-0.5c-0.5,0-1.1,0.3-1.4,0.7c-0.8,0.8-0.7,2.1,0.2,2.9L514.5,322.8z"/>
			<path class="st2" d="M502.9,593.7c0.4-0.3,0.7-0.8,0.8-1.3c0.1-0.5-0.1-1.1-0.4-1.5c-0.7-0.9-1.9-1.1-2.8-0.4l-16.6,12.1
				c-0.4,0.3-0.7,0.8-0.8,1.3c-0.1,0.5,0.1,1.1,0.4,1.5c0.7,0.9,1.9,1.1,2.9,0.4L502.9,593.7z"/>
			<path class="st2" d="M517.3,611.1c0.4-0.4,0.6-0.9,0.7-1.4c0-0.5-0.2-1.1-0.5-1.5c-0.8-0.8-2-0.9-2.9-0.1l-15.2,13.7
				c-0.4,0.4-0.6,0.9-0.7,1.4c0,0.5,0.2,1.1,0.5,1.5c0.8,0.8,2,0.9,2.9,0.1L517.3,611.1z"/>
			<path class="st2" d="M533.4,626.9c0.4-0.4,0.5-0.9,0.5-1.5c0-0.5-0.3-1-0.7-1.4c-0.8-0.8-2.1-0.7-2.9,0.2l-13.7,15.2
				c-0.4,0.4-0.6,0.9-0.5,1.5c0,0.5,0.3,1.1,0.7,1.4c0.8,0.7,2.1,0.7,2.9-0.2L533.4,626.9z"/>
			<path class="st2" d="M551,640.9c0.3-0.4,0.4-1,0.4-1.5c-0.1-0.5-0.4-1-0.8-1.3c-0.9-0.7-2.2-0.5-2.8,0.5l-12,16.6
				c-0.3,0.4-0.5,1-0.4,1.5c0.1,0.5,0.4,1,0.8,1.3c0.9,0.7,2.2,0.5,2.9-0.5L551,640.9z"/>
			<path class="st2" d="M590.2,663.1c0.2-0.5,0.2-1.1,0-1.6c-0.2-0.5-0.6-0.9-1.1-1.1c-1-0.5-2.2,0-2.7,1l-8.3,18.7
				c-0.2,0.5-0.2,1.1,0,1.6c0.2,0.5,0.6,0.9,1.1,1.1c1,0.5,2.2,0,2.7-1L590.2,663.1z"/>
			<path class="st2" d="M611.4,671c0.2-0.5,0.1-1.1-0.1-1.6c-0.2-0.5-0.7-0.8-1.2-1c-1.1-0.3-2.2,0.2-2.6,1.3l-6.3,19.5
				c-0.2,0.5-0.1,1.1,0.1,1.6c0.2,0.5,0.7,0.8,1.2,1c1.1,0.3,2.2-0.2,2.6-1.3L611.4,671z"/>
			<path class="st2" d="M633.2,676.6c0.1-0.5,0-1.1-0.3-1.5c-0.3-0.5-0.8-0.8-1.3-0.9c-1.1-0.2-2.2,0.5-2.4,1.6l-4.3,20.1
				c-0.1,0.5,0,1.1,0.3,1.5c0.3,0.5,0.8,0.8,1.3,0.9c1.1,0.2,2.2-0.5,2.4-1.6L633.2,676.6z"/>
			<path class="st2" d="M655.5,679.9c0.1-0.5-0.1-1.1-0.4-1.5c-0.3-0.4-0.8-0.7-1.4-0.7c-1.1-0.1-2.1,0.7-2.2,1.8l-2.1,20.4
				c-0.1,0.5,0.1,1.1,0.4,1.5c0.3,0.4,0.8,0.7,1.4,0.7c1.1,0.1,2.1-0.7,2.2-1.8L655.5,679.9z"/>
			<path class="st2" d="M700.5,679.5c-0.1-0.5-0.3-1-0.7-1.4c-0.4-0.3-1-0.5-1.5-0.4c-1.1,0.1-1.9,1.1-1.8,2.2l2.2,20.4
				c0.1,0.5,0.3,1,0.7,1.4c0.4,0.3,1,0.5,1.5,0.4c1.1-0.1,1.9-1.1,1.8-2.2L700.5,679.5z"/>
			<path class="st2" d="M722.8,675.7c-0.1-0.5-0.4-1-0.9-1.3c-0.5-0.3-1-0.4-1.5-0.3c-1.1,0.2-1.8,1.3-1.6,2.4l4.3,20.1
				c0.1,0.5,0.4,1,0.9,1.3c0.5,0.3,1,0.4,1.5,0.3c1.1-0.2,1.8-1.3,1.6-2.4L722.8,675.7z"/>
			<path class="st2" d="M744.5,669.7c-0.3-1.1-1.5-1.7-2.6-1.3c-0.5,0.2-0.9,0.5-1.2,1s-0.3,1-0.1,1.6l6.4,19.5
				c0.2,0.5,0.5,0.9,1,1.2c0.5,0.2,1,0.3,1.6,0.1c1.1-0.4,1.6-1.5,1.3-2.6L744.5,669.7z"/>
			<path class="st2" d="M765.5,661.4c-0.2-0.5-0.6-0.9-1.1-1.1c-0.5-0.2-1.1-0.2-1.6,0c-1,0.5-1.5,1.7-1,2.7l8.4,18.7
				c0.2,0.5,0.6,0.9,1.1,1.1s1.1,0.2,1.6,0c1-0.5,1.5-1.7,1-2.7L765.5,661.4z"/>
			<path class="st2" d="M804.3,638.5c-0.7-0.9-1.9-1.1-2.9-0.5c-0.4,0.3-0.7,0.8-0.8,1.3s0,1.1,0.4,1.5l12.1,16.6
				c0.3,0.4,0.8,0.7,1.3,0.8c0.5,0.1,1.1,0,1.5-0.4c0.9-0.7,1.1-1.9,0.4-2.9L804.3,638.5z"/>
			<path class="st2" d="M821.7,624.2c-0.8-0.8-2-0.9-2.9-0.2c-0.4,0.4-0.6,0.9-0.7,1.4c0,0.5,0.2,1.1,0.5,1.5l13.7,15.2
				c0.4,0.4,0.9,0.6,1.4,0.7c0.5,0,1.1-0.2,1.5-0.5c0.8-0.8,0.9-2,0.1-2.9L821.7,624.2z"/>
			<path class="st2" d="M837.5,608.1c-0.8-0.8-2.1-0.7-2.9,0.1c-0.4,0.4-0.6,0.9-0.5,1.5c0,0.5,0.3,1.1,0.7,1.4l15.2,13.7
				c0.4,0.4,0.9,0.6,1.5,0.5c0.5,0,1.1-0.3,1.4-0.7c0.7-0.8,0.7-2.1-0.2-2.9L837.5,608.1z"/>
			<path class="st2" d="M851.5,590.4c-0.9-0.7-2.2-0.5-2.9,0.5c-0.3,0.4-0.5,1-0.4,1.5c0.1,0.5,0.4,1,0.8,1.3l16.6,12
				c0.4,0.3,1,0.4,1.5,0.4c0.5-0.1,1-0.4,1.3-0.8c0.7-0.9,0.5-2.2-0.5-2.8L851.5,590.4z"/>
			<path class="st2" d="M873.6,551.2c-1-0.5-2.2,0-2.7,1c-0.2,0.5-0.2,1.1,0,1.6c0.2,0.5,0.6,0.9,1.1,1.1l18.7,8.3
				c0.5,0.2,1.1,0.2,1.6,0c0.5-0.2,0.9-0.6,1.1-1.1c0.5-1,0-2.2-1-2.7L873.6,551.2z"/>
			<path class="st2" d="M881.5,530.1c-1.1-0.3-2.2,0.2-2.6,1.3c-0.2,0.5-0.1,1.1,0.1,1.6c0.2,0.5,0.7,0.9,1.2,1l19.5,6.3
				c0.5,0.2,1.1,0.1,1.6-0.1c0.5-0.2,0.8-0.7,1-1.2c0.3-1.1-0.2-2.2-1.3-2.6L881.5,530.1z"/>
			<path class="st2" d="M887.2,508.2c-1.1-0.2-2.2,0.5-2.4,1.6c-0.1,0.5,0,1.1,0.3,1.5c0.3,0.5,0.8,0.8,1.3,0.9l20.1,4.3
				c0.5,0.1,1.1,0,1.5-0.3c0.5-0.3,0.8-0.8,0.9-1.3c0.2-1.1-0.5-2.2-1.6-2.4L887.2,508.2z"/>
			<path class="st2" d="M890.5,485.9c-1.1-0.1-2.1,0.7-2.2,1.8c-0.1,0.5,0.1,1.1,0.4,1.5c0.3,0.4,0.8,0.7,1.4,0.7l20.4,2.1
				c0.5,0.1,1.1-0.1,1.5-0.4s0.7-0.8,0.7-1.4c0.1-1.1-0.7-2.1-1.8-2.2L890.5,485.9z"/>
			<path class="st2" d="M890.1,440.9c-1.1,0.1-1.9,1.1-1.8,2.2c0.1,0.5,0.3,1,0.7,1.4c0.4,0.3,1,0.5,1.5,0.4l20.4-2.2
				c0.5-0.1,1-0.3,1.4-0.7c0.3-0.4,0.5-1,0.4-1.5c-0.1-1.1-1.1-1.9-2.2-1.8L890.1,440.9z"/>
			<path class="st2" d="M886.3,418.7c-1.1,0.2-1.8,1.3-1.6,2.4c0.1,0.5,0.4,1,0.9,1.3c0.5,0.3,1,0.4,1.5,0.3l20.1-4.3
				c0.5-0.1,1-0.4,1.3-0.9c0.3-0.5,0.4-1,0.3-1.5c-0.2-1.1-1.3-1.8-2.4-1.6L886.3,418.7z"/>
			<path class="st2" d="M880.3,396.9c-1.1,0.3-1.7,1.5-1.3,2.6c0.2,0.5,0.5,0.9,1,1.2c0.5,0.2,1,0.3,1.6,0.1l19.5-6.4
				c0.5-0.2,0.9-0.5,1.2-1c0.2-0.5,0.3-1,0.1-1.6c-0.3-1.1-1.5-1.7-2.6-1.3L880.3,396.9z"/>
			<path class="st2" d="M872,376c-1,0.5-1.5,1.7-1,2.7c0.2,0.5,0.6,0.9,1.1,1.1c0.5,0.2,1.1,0.2,1.6,0l18.7-8.4
				c0.5-0.2,0.9-0.6,1.1-1.1c0.2-0.5,0.2-1.1,0-1.6c-0.5-1-1.7-1.5-2.7-1L872,376z"/>
			<path class="st2" d="M849.1,337.2c-0.9,0.7-1.1,1.9-0.5,2.9c0.3,0.4,0.8,0.7,1.3,0.8c0.5,0.1,1.1,0,1.5-0.4l16.6-12.1
				c0.4-0.3,0.7-0.8,0.8-1.3c0.1-0.5,0-1.1-0.4-1.5c-0.7-0.9-1.9-1.1-2.8-0.4L849.1,337.2z"/>
			<path class="st2" d="M834.8,319.8c-0.8,0.8-0.9,2-0.2,2.9c0.4,0.4,0.9,0.7,1.4,0.7c0.5,0,1.1-0.2,1.5-0.5l15.2-13.7
				c0.4-0.4,0.6-0.9,0.7-1.4c0-0.5-0.2-1.1-0.5-1.5c-0.8-0.8-2-0.9-2.9-0.1L834.8,319.8z"/>
			<path class="st2" d="M818.7,304c-0.8,0.8-0.7,2.1,0.1,2.9c0.4,0.4,0.9,0.6,1.5,0.5c0.5,0,1.1-0.3,1.4-0.7l13.7-15.3
				c0.4-0.4,0.5-0.9,0.5-1.5c0-0.5-0.3-1-0.7-1.4c-0.8-0.8-2.1-0.7-2.9,0.2L818.7,304z"/>
			<path class="st2" d="M801,289.9c-0.7,0.9-0.5,2.2,0.4,2.9c0.4,0.3,1,0.5,1.5,0.4c0.5-0.1,1-0.4,1.3-0.8l12-16.6
				c0.3-0.4,0.4-1,0.4-1.5c-0.1-0.5-0.4-1-0.8-1.3c-0.9-0.7-2.2-0.5-2.8,0.5L801,289.9z"/>
			<path class="st2" d="M761.8,267.8c-0.5,1,0,2.2,1,2.7c0.5,0.2,1.1,0.2,1.6,0c0.5-0.2,0.9-0.6,1.1-1.1l8.3-18.7
				c0.2-0.5,0.2-1.1,0-1.6c-0.2-0.5-0.6-0.9-1.1-1.1c-1-0.5-2.2,0-2.7,1L761.8,267.8z"/>
			<path class="st2" d="M740.6,259.9c-0.3,1.1,0.2,2.2,1.3,2.6c0.5,0.2,1.1,0.1,1.6-0.1s0.9-0.7,1-1.2l6.3-19.5
				c0.2-0.5,0.1-1.1-0.1-1.6c-0.2-0.5-0.7-0.8-1.2-1c-1.1-0.3-2.2,0.2-2.6,1.3L740.6,259.9z"/>
			<path class="st2" d="M718.8,254.3c-0.2,1.1,0.5,2.2,1.6,2.4c0.5,0.1,1.1,0,1.5-0.3c0.5-0.3,0.8-0.8,0.9-1.3l4.3-20.1
				c0.1-0.5,0-1.1-0.3-1.5c-0.3-0.5-0.8-0.8-1.3-0.9c-1.1-0.2-2.2,0.5-2.4,1.6L718.8,254.3z"/>
			<path class="st2" d="M696.5,251c-0.1,1.1,0.7,2.1,1.8,2.3c0.5,0.1,1.1-0.1,1.5-0.4c0.4-0.3,0.7-0.8,0.8-1.4l2.1-20.4
				c0.1-0.5-0.1-1.1-0.4-1.5c-0.3-0.4-0.8-0.7-1.4-0.7c-1.1-0.1-2.1,0.7-2.2,1.8L696.5,251z"/>
			<path class="st2" d="M683.3,264.5c0,4-3.2,7.2-7.2,7.2c-4,0-7.2-3.2-7.2-7.2v-29.9c0-4,3.2-7.2,7.2-7.2c4,0,7.2,3.2,7.2,7.2
				V264.5z"/>
			<path class="st2" d="M581.9,287.8c1,1.6,1.2,3.6,0.7,5.4c-0.5,1.8-1.7,3.4-3.3,4.4c-3.4,2-7.8,0.8-9.8-2.6l-15-25.9
				c-2-3.4-0.8-7.8,2.6-9.8c1.6-1,3.6-1.2,5.4-0.7c1.8,0.5,3.4,1.7,4.4,3.3L581.9,287.8z"/>
			<path class="st2" d="M569.2,635.8c1-1.6,2.5-2.8,4.4-3.3c1.8-0.5,3.8-0.2,5.4,0.7l0,0c3.4,2,4.6,6.4,2.6,9.8l-15,25.9
				c-1,1.6-2.5,2.8-4.4,3.3c-1.8,0.5-3.8,0.2-5.4-0.7c-3.4-2-4.6-6.4-2.6-9.8L569.2,635.8z"/>
			<path class="st2" d="M668.7,666.4c0-1.9,0.8-3.7,2.1-5.1c1.3-1.3,3.2-2.1,5.1-2.1c4,0,7.2,3.2,7.2,7.2v29.9c0,4-3.2,7.2-7.2,7.2
				c-4,0-7.2-3.2-7.2-7.2L668.7,666.4z"/>
			<path class="st2" d="M770.1,643.1c-1-1.6-1.2-3.6-0.7-5.4c0.5-1.8,1.7-3.4,3.3-4.4c3.4-2,7.8-0.8,9.8,2.6l15,25.9
				c2,3.4,0.8,7.8-2.6,9.8c-3.4,2-7.8,0.8-9.8-2.6L770.1,643.1z"/>
			<path class="st2" d="M846.3,572.2c-1.6-1-2.8-2.5-3.3-4.4c-0.5-1.8-0.2-3.8,0.7-5.4c2-3.4,6.4-4.6,9.8-2.6l25.9,14.9
				c1.6,1,2.8,2.5,3.3,4.4c0.5,1.8,0.2,3.8-0.7,5.4c-2,3.4-6.4,4.6-9.8,2.6L846.3,572.2z"/>
			<path class="st2" d="M876.9,472.7c-1.9,0-3.7-0.8-5.1-2.1c-1.3-1.3-2.1-3.2-2.1-5.1c0-4,3.2-7.2,7.2-7.2h29.9
				c1.9,0,3.7,0.8,5.1,2.1c1.3,1.3,2.1,3.2,2.1,5.1c0,4-3.2,7.2-7.2,7.2L876.9,472.7z"/>
			<path class="st2" d="M853.7,371.3c-1.6,1-3.6,1.2-5.4,0.7c-1.8-0.5-3.4-1.7-4.4-3.3c-2-3.4-0.8-7.8,2.6-9.8l25.9-14.9
				c1.6-1,3.6-1.2,5.4-0.7c1.8,0.5,3.4,1.7,4.4,3.3c2,3.4,0.8,7.8-2.6,9.8L853.7,371.3z"/>
			<path class="st2" d="M782.8,295.1c-1,1.6-2.5,2.8-4.4,3.3c-1.8,0.5-3.8,0.2-5.4-0.7c-1.6-1-2.8-2.5-3.3-4.4
				c-0.5-1.8-0.2-3.8,0.7-5.4l15-25.9c1-1.6,2.5-2.8,4.4-3.3c1.8-0.5,3.8-0.2,5.4,0.7l0,0c3.4,2,4.6,6.4,2.6,9.8L782.8,295.1z"/>
		</g>
	</g>
	<g>
		<g>
			<g>
				<g>
					<g>
						<path class="st3" d="M793.2,549.3c0,0-9.6,18.5-16.5,29.6c-7.2,11.8,7.2,59,7.2,59l-37.5-7.3l2-35.9v-94.4l37.8-2l6.2,0.2
							l4.2,8.3l21.7-9.6l-5.6-15.1l4.1-6.6l15.3-15.8h11.3l7.1,41.2L793.2,549.3z"/>
						<g>
							<polygon class="st4" points="838.1,462.6 825.5,456.3 814.7,464.8 811.9,472.9 818.7,481.4 827.2,480.4 834.3,475.1 
								838.7,468.6 							"/>
							<polygon class="st5" points="829.3,462.9 823.3,453.7 814.3,446.5 809.5,447 807.8,448 807.2,450.2 803.8,449.3 800.7,450.2 
								801,451.9 797.9,451.7 796.4,453.6 796.5,455.4 792.7,456.2 792.1,458.7 795.5,470.7 800.1,475.8 805.7,475.5 812.1,470.6 
								816.4,475.5 824.7,474.4 							"/>
						</g>
					</g>
					<polygon class="st6" points="676.2,644.9 686.6,598.1 686,500.9 738.6,501.9 768.2,515.2 788.9,544.3 765.6,584.8 763.3,630.5 
											"/>
				</g>
				<g>
					<g>
						<g>
							<polygon class="st7" points="597.2,796 566.3,796.5 558.9,823 600.2,819 							"/>
							<g>
								<polygon class="st8" points="541.7,859.6 538,841.6 541.5,816.4 546.6,814 542.3,809.7 547.4,792.3 552.1,788 558.5,788.4 
									563.2,790.4 567,793.1 567.1,793.1 571.5,796.3 567.5,801.8 563.9,811.2 563.1,815.4 561.9,821.9 564.7,830.4 558.1,837.2 
									556.6,839.5 553.6,846 552.5,848.8 550.1,854.8 545.9,856.8 545.8,857.3 545.5,858.9 								"/>
								<polygon class="st9" points="552.5,848.8 550.6,846 552.3,830.2 559.8,818 563.1,815.4 567.2,812.2 571.1,819.1 
									571.7,826.4 564.7,830.4 558.1,837.2 556.6,839.5 553.6,846 								"/>
								<polygon class="st9" points="541.7,859.6 538,841.6 541.5,816.4 546.6,814 542.3,809.7 547.4,792.3 552.1,788 558.5,788.4 
									563.2,790.4 567,793.1 567.1,793.1 560.2,797 553.8,810.1 553.4,814 544.1,822.8 541.5,841.2 543.3,852.5 545.8,857.3 
									545.5,858.9 								"/>
								<polygon class="st8" points="564.2,832.8 562.3,826.7 560.8,822.5 557.2,818 552.8,824.3 555.5,827.2 557,830.6 
									557.9,838.6 								"/>
							</g>
						</g>
						<polygon class="st9" points="688,658.1 693.9,683.6 699.7,691.9 705.2,700.3 708.7,722.7 700.9,777.5 588.5,795.9 
							597.8,832.1 744.7,806.3 763.4,689.7 767.5,624.5 694.9,654.4 						"/>
					</g>
					<g>
						<g>
							<polygon class="st7" points="880.8,749.7 898.9,774.7 924.8,765.4 897.8,733.9 							"/>
							<g>
								<polygon class="st8" points="964.7,758.5 952.1,771.8 929.5,783.5 924.6,780.7 923.5,786.7 906.4,792.5 900.2,791.2 
									896.8,785.8 895.8,780.7 895.7,776.1 895.7,776 895.8,770.5 902.6,770.6 912.3,768.2 916.2,766.4 922.2,763.6 927.6,756.5 
									936.9,758 939.7,757.8 946.7,756.5 949.6,755.8 955.9,754.3 960,756.6 960.4,756.4 961.9,755.7 								"/>
								<polygon class="st9" points="949.6,755.8 948.5,759 934.6,766.7 920.2,767.6 916.2,766.4 911.2,764.9 914.7,757.7 
									920.2,753 927.6,756.5 936.9,758 939.7,757.8 946.7,756.5 								"/>
								<polygon class="st9" points="964.7,758.5 952.1,771.8 929.5,783.5 924.6,780.7 923.5,786.7 906.4,792.5 900.2,791.2 
									896.8,785.8 895.8,780.7 895.7,776.1 895.7,776 902.9,779.3 917.2,777.1 920.6,775.2 933.2,777.7 949.7,769.1 958,761.2 
									960.4,756.4 961.9,755.7 								"/>
								<polygon class="st8" points="929.8,755.5 925.9,760.6 923.3,764.2 921.7,769.7 929.4,769.7 930.2,765.8 932.2,762.6 
									938.2,757.3 								"/>
							</g>
						</g>
						<polygon class="st9" points="693.3,683 738.9,689.8 805.3,661.8 878.8,755.7 904.6,734.5 829.5,624.7 769.3,618.8 
							677.9,621.1 						"/>
					</g>
				</g>
				<g>
					<g>
						<g>
							
								<rect x="448.4" y="567.2" transform="matrix(0.7901 -0.6129 0.6129 0.7901 -286.7609 428.646)" class="st9" width="68.4" height="131.7"/>
							<g>
								<polygon class="st8" points="443,638 434,626.2 434.9,617.4 444,604.2 454,606.9 444.9,620 								"/>
								<polygon class="st8" points="477.5,682.4 467.8,669.8 468.1,658.3 479.6,646.8 489.6,649.4 478.1,660.9 								"/>
								<path class="st8" d="M477.5,643.7l-10.1,11.6l11.6,10.1l10.1-11.6L477.5,643.7z M478.8,663l-9-7.9l7.9-9l9,7.9L478.8,663z"
									/>
							</g>
						</g>
						<g>
							<g>
								<polygon class="st8" points="464.6,639.3 464.7,628.9 480.1,652.7 514.7,634.4 514.7,644.8 478.8,663 								"/>
								<polygon class="st8" points="432.1,594.1 432,583.8 450.1,592.2 466.5,592.1 481.3,592 481.4,602.3 466.6,602.4 
									450.3,602.5 								"/>
								<path class="st8" d="M452.2,589.6l-14-6.4l-6.4,14l14,6.4L452.2,589.6z M434,596.4l5-10.9l10.9,5l-5,10.9L434,596.4z"/>
							</g>
							<g>
								<polygon class="st8" points="559.3,656.9 546.4,640.2 491.5,569.5 478.6,552.8 447.3,570.1 454.7,598.1 509.6,668.8 
									534.8,682.9 								"/>
								<g>
									<g>
										<polygon class="st9" points="542.7,635.4 535.6,626.3 539,625.8 544.1,632.3 										"/>
										<polygon class="st9" points="502.3,583.4 495.3,574.3 498.7,573.8 503.7,580.3 										"/>
									</g>
									<polygon class="st9" points="517.7,576 546.6,613.3 539.4,629.6 542.3,633.3 551.1,613.3 518.8,571.7 497.3,575.3 
										500.1,578.9 									"/>
								</g>
								<polygon class="st9" points="501.2,639.8 476.6,608 489.2,601.4 513.8,633.2 								"/>
							</g>
						</g>
					</g>
					<g>
						<g>
							<polygon class="st5" points="540.1,572 536.2,574.3 530.7,576.2 523.4,583.2 522.7,587.8 522.7,590.4 522.7,593.6 
								524.2,594.9 523.1,597.5 523.2,600.8 524.9,603.1 525.9,605.4 528.7,607.1 530.3,608.2 535.2,608.2 542.6,604.1 547.8,598.5 
								548.8,590.5 552.7,585.2 							"/>
							<polygon class="st4" points="548.5,566 537.1,572.5 549.7,591.9 560.6,587.3 							"/>
						</g>
						<path class="st3" d="M666.6,671.1l54.8-63.2l24.1-13.9l-23.4-65.2l7.1-21.7l11.7-8.9l-62.5-6.3l-26.6,27.3L603,537.5
							l-58.8,27.2c0,0,10.2,27.1,10.1,27.7l97.4-36.9l23-3.9l3.3,18.4l2.3,27.3L666.6,671.1z"/>
					</g>
				</g>
				<g>
					<path class="st3" d="M781.8,620l-31.4-0.8l-4.9-25.2l17.8-40.8l2.9-22l2.4-18.9l1.2-9.9l23.3,47.1c-1,1.9-16.4,29.4-16.4,29.4
						L781.8,620z"/>
					<g>
						<polygon class="st6" points="787.1,548.9 745.5,594 763.3,553.2 766.2,531.2 768.2,515.2 						"/>
						<g>
							<polygon class="st4" points="764.6,518.4 767.6,532.2 768.2,515.2 							"/>
							<g>
								<polygon class="st10" points="757.7,517.9 764.8,518.7 766.1,524.7 762.9,530.7 756,529.2 755.4,523.8 								"/>
								<polygon class="st10" points="755.4,530 723.2,550 664.7,529 646.9,540.1 660.8,553 727.1,561.6 762.7,532 								"/>
								<polygon class="st10" points="755.8,528.4 755.1,530.3 762.8,532.8 763.7,530.3 								"/>
							</g>
							<g>
								<polygon class="st11" points="735.6,499.8 725.6,489 718.9,475.6 721.7,454.2 728.4,450.3 734.7,446.6 746.5,430.5 
									759.3,431.3 778.8,435.5 794.4,432 791.4,443.6 782,455.5 778.6,457.7 768.5,460.8 761,458.7 759.9,467.9 753.5,473.5 
									747.2,479.9 								"/>
								<polygon class="st5" points="733.2,500.9 741.8,488.8 737.5,480.9 738.8,472.2 744.3,469 750.8,474.8 754.5,466.8 
									754.4,457.7 763.1,458.7 771.2,456.2 778.6,457.7 783,465.6 783,470.9 789.9,477.8 786.9,484.4 786.7,491.8 787.3,497.7 
									781.4,502.9 769.7,503.4 763.7,525.8 								"/>
							</g>
							<polygon class="st4" points="734,498.3 729.2,507.1 749.8,532.2 759.3,518.2 							"/>
						</g>
					</g>
				</g>
			</g>
			<g>
				<polygon class="st4" points="454,813.9 773,792.7 775.8,792.5 776.1,798.1 773.4,798.3 				"/>
				<polygon class="st4" points="649.3,736.7 900.4,720.1 902.5,719.9 902.8,724.3 900.6,724.4 				"/>
				<polygon class="st4" points="541.9,697.7 793,681 795.2,680.9 795.4,685.3 793.3,685.4 				"/>
				<polygon class="st4" points="606.3,645.2 744.6,629.1 746.2,628.9 746.5,632.2 744.9,632.3 				"/>
				<polygon class="st4" points="564.2,553.4 702.4,537.4 704,537.2 704.4,540.4 702.7,540.6 				"/>
				<polygon class="st4" points="584.1,788.9 835.2,772.2 837.4,772.1 837.6,776.5 835.5,776.6 				"/>
			</g>
		</g>
		
			<image style="overflow:visible;opacity:0.4;" width="2109" height="227" xlink:href="31423C43789E0CB8.png"  transform="matrix(0.24 0 0 0.24 236.64 824.88)">
		</image>
	</g>
</g>
</svg>
