<svg width="954" height="704" viewBox="0 0 954 704" fill="none" xmlns="http://www.w3.org/2000/svg">
<mask id="mask0_2437_215" style="mask-type:luminance" maskUnits="userSpaceOnUse" x="298" y="56" width="656" height="648">
<path d="M932.9 703.5H319C307.6 703.5 298.3 694.2 298.3 682.8V76.7C298.3 65.3 307.6 56 319 56H932.9C944.3 56 953.6 65.3 953.6 76.7V682.8C953.6 694.2 944.3 703.5 932.9 703.5Z" fill="white"/>
</mask>
<g mask="url(#mask0_2437_215)">
<path d="M460.9 1053.5C461.4 1131.9 486.8 1347.2 486.8 1347.2L581.1 1340.3L578.9 1112.4C577.6 1081.5 581.4 1050.6 590.2 1020.9C618 926.6 669.3 752 662.5 649C653.9 645.6 514.3 645.3 514.3 645.3C514.3 645.3 460.7 1020.5 460.9 1053.5Z" fill="#39524B"/>
<path d="M618.7 868.8C618.7 868.8 645.7 1047.9 654.6 1079.7C675.6 1155.2 758.1 1360.3 758.1 1360.3L845.7 1325L783.9 1105.7C774.6 1076.2 770.2 1045.4 770.8 1014.5C772.9 916.2 776.7 734.2 743.2 636.6C734 635.6 658.7 670.7 599.3 671.9C543.3 672.9 618.7 868.8 618.7 868.8Z" fill="#39524B"/>
<path d="M806.3 1343.1C806.6 1343.1 806.8 1343.1 807.1 1343C808.3 1342.6 808.9 1341.3 808.5 1340.1C782.7 1266.6 761.3 1187.9 736.1 1092.6C731.6 1075.8 728 1060.7 728.5 1045.4C731.5 946.5 724.4 845.4 717.9 778.1C710.9 705.2 703 655 703 654.5C702.8 653.3 701.6 652.4 700.4 652.6C699.2 652.8 698.3 654 698.5 655.2C698.6 655.7 706.4 705.8 713.4 778.6C719.9 845.8 727 946.6 724 1045.2C723.5 1061.1 727.2 1076.5 731.8 1093.7C757.1 1189.1 778.5 1267.9 804.4 1341.6C804.5 1342.5 805.3 1343.1 806.3 1343.1Z" fill="#312626"/>
<path d="M706.4 735.5C707.9 735.5 709.5 735.4 711 735.1C712.2 734.9 713.1 733.7 712.9 732.5C712.7 731.3 711.5 730.4 710.3 730.6C704.2 731.7 699 730.3 694.6 726.5C676.9 711.1 678.3 662.1 678.3 661.6C678.3 660.3 677.4 659.3 676.1 659.2H676C674.8 659.2 673.8 660.2 673.7 661.4C673.6 663.5 672.2 713 691.6 729.9C695.9 733.6 700.9 735.5 706.4 735.5Z" fill="#312626"/>
<path d="M557 202.6C557 202.6 548.1 182.3 535.1 190.7C531.5 193 529 196.8 528 201C525.9 209.9 526.8 225.3 548.6 231C548.2 231.9 557 202.6 557 202.6Z" fill="#DF7A5D"/>
<path d="M631 310.2L630.1 217L569 246L569.9 316C570 320.8 567.4 325.2 563.2 327.4L533.4 343.3C533.4 343.3 588.8 408.6 673.6 332.7C662.7 329.6 648.6 325.2 639.8 322.3C634.6 320.5 631.1 315.7 631 310.2Z" fill="#F79B7A"/>
<path d="M630.599 260.5L630.5 248.4C627.7 240.3 622.899 229.1 619.799 222L569 246L569.5 287.3C582.1 289.5 604.999 288.1 630.599 260.5Z" fill="#DF7A5D"/>
<path d="M644.6 202.8C642 244 617.1 273.3 588.9 274.1C546.4 275.2 540 237.5 542.5 196.3C545.1 155.1 570 123.2 598.2 125C626.5 126.8 647.2 161.6 644.6 202.8Z" fill="#F79B7A"/>
<path d="M603.3 205.1C603 207.9 603.8 210.2 605.2 210.4C606.6 210.6 608 208.5 608.4 205.7C608.7 202.9 607.9 200.6 606.5 200.4C605.1 200.3 603.6 202.4 603.3 205.1Z" fill="#3B2C2E"/>
<path d="M560.677 202.734C561.02 199.993 560.142 197.628 558.717 197.449C557.293 197.271 555.86 199.348 555.517 202.088C555.174 204.828 556.052 207.194 557.476 207.372C558.901 207.551 560.334 205.474 560.677 202.734Z" fill="#3B2C2E"/>
<path d="M543.4 187.9C546.3 178 553.5 158.9 573.9 162.3C580.1 163.3 585.6 167 591.7 168.6C605.9 172.2 622.1 164.3 628.1 150.8C631 144.2 632 137.9 634.4 131.1C632.2 120.5 622.1 112.4 611.9 108.9C589.5 101.1 562.7 108.2 547 126.1C531.3 143.9 533.1 166.3 543.4 187.9Z" fill="#3B2C2E"/>
<path d="M640.1 210.7C638.1 201.6 641.2 191.2 636.8 182.7C635.2 179.7 633.3 176.9 631.8 173.9C627.8 165.9 624.2 155.2 626.6 146.6C628.3 140.7 628.2 136 631.6 130.9C631.7 127.4 638.4 123.2 641.7 122.4C645 121.6 648.6 122.4 651.7 123.9C665.5 130.2 672.6 146.2 673.9 161.4C674.4 166.6 674.3 171.9 672.9 176.9C670.3 186.2 663.4 193.5 656.6 200.4C651.7 205.5 646.4 215.4 640.1 210.7Z" fill="#3B2C2E"/>
<path d="M639.3 204.5C639.3 204.5 656.4 190.5 664.1 204C666.2 207.7 666.8 212.2 665.8 216.4C663.7 225.3 655.9 238.6 633.9 233.6C633.8 234.7 639.3 204.5 639.3 204.5Z" fill="#F79B7A"/>
<path d="M641.1 225.6C641.9 225.6 642.6 225.2 643.1 224.5C649.3 214.2 659.8 213.5 659.9 213.5C661.2 213.4 662.1 212.4 662.1 211.1C662 209.8 661 208.9 659.7 208.9C659.2 208.9 646.7 209.7 639.3 222.1C638.7 223.2 639 224.6 640.1 225.2C640.3 225.5 640.7 225.6 641.1 225.6Z" fill="#312626"/>
<path d="M653.3 223.1C653.8 223.1 654.4 222.9 654.8 222.5C655.7 221.7 655.8 220.2 655 219.3L650.5 214.3C649.7 213.4 648.2 213.3 647.3 214.1C646.4 214.9 646.3 216.4 647.1 217.3L651.6 222.3C652.1 222.8 652.7 223.1 653.3 223.1Z" fill="#312626"/>
<path d="M615.8 194.8C616.8 194.8 617.7 194.1 618 193.1C618.3 191.9 617.6 190.6 616.4 190.3C606.2 187.6 598.4 189.1 598.1 189.2C596.9 189.5 596.1 190.7 596.3 191.9C596.5 193.1 597.7 193.9 599 193.7C599.1 193.7 606.1 192.3 615.3 194.8C615.5 194.8 615.6 194.8 615.8 194.8Z" fill="#3B2C2E"/>
<path d="M566.7 190.6C567.7 190.6 568.6 190 568.9 189C569.3 187.8 568.6 186.5 567.4 186.2C559.1 183.8 550.6 186.1 550.3 186.2C549.1 186.5 548.4 187.8 548.7 189C549 190.2 550.3 190.9 551.5 190.6C551.6 190.6 559.1 188.5 566.1 190.6C566.3 190.6 566.5 190.6 566.7 190.6Z" fill="#3B2C2E"/>
<path d="M577 230.9C579 230.9 581.4 230.7 584.1 230.2C585.3 230 586.2 228.8 586 227.6C585.8 226.4 584.6 225.5 583.4 225.7C575.4 227 573.2 225.9 572.7 225.5C578.8 208.9 578.6 195.6 578.6 195.1C578.6 193.8 577.5 192.8 576.3 192.9C575 192.9 574 194 574.1 195.2C574.1 195.4 574.2 208.6 568.3 224.6C568.3 224.7 568.2 224.8 568.2 224.9C568 225.9 568.2 227.4 569.4 228.7C570.7 230.1 573.3 230.9 577 230.9Z" fill="#312626"/>
<path d="M575.7 249C575.8 249 575.8 249 575.9 249C576.4 249 588.1 248 597.1 239.9C598 239.1 598.1 237.6 597.3 236.7C596.5 235.8 595 235.7 594.1 236.5C586.2 243.5 575.7 244.4 575.5 244.5C574.2 244.6 573.3 245.7 573.4 247C573.5 248.1 574.5 249 575.7 249Z" fill="#312626"/>
<path d="M600.7 178.2C603.5 178.2 606.1 177.7 608.5 176.7C612.2 175.1 615.6 172.2 619.1 167.6C622.8 162.8 625.7 157.5 627.8 151.9C628.2 150.7 627.6 149.4 626.5 149C625.3 148.6 624 149.2 623.6 150.3C621.6 155.5 618.9 160.4 615.6 164.9C612.6 168.8 609.8 171.3 606.8 172.5C601.5 174.8 594.4 173.7 587.4 169.5C584.3 167.6 581.2 165.3 578.3 163.1C575.3 160.8 572.2 158.5 568.9 156.5C563.2 153.1 556.6 150.8 550 149.8C547.2 149.4 543.6 149.2 540.6 151.2C539.6 151.9 539.3 153.3 540 154.4C540.7 155.4 542.1 155.7 543.2 155C544.9 153.9 547.4 154 549.4 154.3C555.4 155.1 561.4 157.2 566.6 160.4C569.7 162.3 572.7 164.5 575.6 166.7C578.6 169 581.7 171.4 585.1 173.4C590.2 176.6 595.7 178.2 600.7 178.2Z" fill="#3B2C2E"/>
<path d="M477.4 370.1C477.4 370.1 316.2 494.1 336.1 578.7C361.1 597.8 408.3 540.2 408.3 540.2L505.7 479.7C505.7 479.7 518.4 391.4 477.4 370.1Z" fill="#01B8A4"/>
<path d="M761.9 357.8C761.9 357.8 894.6 452.8 919.5 543.1C919.7 545.6 837.8 531.2 837.8 531.2L738.7 473.5C738.8 473.4 721.6 380.3 761.9 357.8Z" fill="#01B8A4"/>
<path d="M761.9 357.8C751.1 351.9 648.7 325 639.8 322.1C634.6 320.4 635.4 303.2 634.1 297.5L567.1 298.1C565.2 305.8 565.8 321.9 561.8 324.4C531.5 342.9 483.1 355.1 449 393.5C449 394.2 502.7 453 508 689.3C525.4 694.4 627.5 732.3 754.2 677.8C753.2 674.7 736.8 415.7 761.9 357.8Z" fill="#01B8A4"/>
<path d="M747.8 468.3C749 468.3 750 467.3 750.1 466.1C750.1 465.2 753.9 380.6 763.3 360.3C763.8 359.2 763.3 357.8 762.2 357.3C761.1 356.8 759.7 357.3 759.2 358.4C749.4 379.5 745.7 462.4 745.5 465.9C745.4 467.2 746.4 468.2 747.7 468.3H747.8Z" fill="#312626"/>
<path d="M485.5 489.8C485.6 489.8 485.6 489.8 485.7 489.8C487 489.7 487.9 488.6 487.8 487.4C485.2 451.1 453.1 395.9 451.8 393.6C451.2 392.5 449.8 392.1 448.7 392.8C447.6 393.4 447.2 394.8 447.9 395.9C448.2 396.5 480.8 452.5 483.3 487.7C483.3 488.9 484.3 489.8 485.5 489.8Z" fill="#312626"/>
<path d="M596.9 330.5C609.8 330.5 624.7 329 639.1 323.9C640.3 323.5 640.9 322.2 640.5 321C640.1 319.8 638.8 319.2 637.6 319.6C602.8 331.9 562.8 322.4 562.4 322.3C561.2 322 559.9 322.7 559.6 324C559.3 325.2 560 326.5 561.3 326.8C562.3 326.9 577.3 330.5 596.9 330.5Z" fill="#312626"/>
<path d="M787.2 450.4C787.2 450.4 747.7 420.3 729.2 412.9C729.4 413.3 722.9 468.8 728.1 488.7C738.8 493.4 745 501.5 773.2 496.5C773 496.6 783.9 501.7 783.9 501.7L794.4 455.1L787.2 450.4Z" fill="#F79B7A"/>
<path d="M669.5 481.4C669.8 475.7 691.3 472.4 709.8 470.5C709.8 470.5 709.9 470.5 709.9 470.4C712.3 469.1 711.8 465.5 709.2 464.8C706.9 464.1 705 463.6 705 463.8C659 455.5 651.3 449.4 652.1 444.6C652.8 442.6 656.2 441.7 661.2 441.6C654.3 439 652.6 436.5 652.8 434.2C655 426.4 697.3 431.2 713.1 433.3C714.1 433.4 714.9 432.5 714.6 431.6C714.5 431.1 714 430.7 713.5 430.6C675.2 422.8 660.8 416.1 661.3 411.2C664 401.6 729.1 413.1 729.1 413.1L728 488.9L714.3 486.7C677.6 489.4 669.9 485.9 669.5 481.4Z" fill="#F79B7A"/>
<path d="M713.6 449.3C714.8 449.3 715.7 448.4 715.9 447.3C716 446 715.1 444.9 713.9 444.8L661.5 439.3C660.2 439.2 659.1 440.1 659 441.3C658.9 442.6 659.8 443.7 661 443.8L713.4 449.3C713.5 449.3 713.5 449.3 713.6 449.3Z" fill="#312626"/>
<path d="M789.3 444.6C789.3 444.6 781.1 505.1 777.3 518.3C776.6 518.3 875.8 616.9 915.1 577.7C915.1 578.5 965.3 519.1 789.3 444.6Z" fill="#01B8A4"/>
<path d="M892.8 513.6C893.4 513.6 894 513.4 894.5 512.9C895.4 512 895.3 510.5 894.4 509.7C845.4 463.6 790.7 442.8 790.2 442.6C789.6 442.4 788.8 442.4 788.2 442.8C787.6 443.1 787.2 443.7 787.1 444.4L786.1 451C785.9 452.2 786.8 453.4 788 453.6C789.2 453.8 790.4 452.9 790.6 451.7L791.2 448C802.6 452.7 849.1 473.4 891.3 513.1C891.6 513.4 892.2 513.6 892.8 513.6Z" fill="#312626"/>
<path d="M461.9 457.6C461.9 457.6 497.7 423.1 515.2 413.6C515 414.1 527.9 468.4 525 488.7C514.9 494.7 509.7 503.4 481.1 501.7C481.3 501.8 471.1 508.1 471.1 508.1L455.3 463L461.9 457.6Z" fill="#F79B7A"/>
<path d="M582.4 474.6C581.4 469 559.7 468.2 541.2 468.5H541.1C538.6 467.5 538.7 463.9 541.1 462.8C543.3 461.9 545.1 461.2 545.2 461.3C590 447.7 596.9 440.8 595.5 436C594.6 434.1 591.1 433.6 586.1 434C592.7 430.6 594.1 427.9 593.6 425.6C590.5 418.1 549.1 427.8 533.6 431.7C532.7 431.9 531.7 431.1 531.9 430.2C532 429.7 532.3 429.2 532.9 429C570 416.7 583.6 408.4 582.5 403.6C578.7 394.4 515.3 413.4 515.3 413.4L525.1 488.5L538.4 484.7C575.2 483.5 582.4 479.2 582.4 474.6Z" fill="#F79B7A"/>
<path d="M534.6 447.8C534.8 447.8 534.9 447.8 535.1 447.7L586.6 436.2C587.8 435.9 588.6 434.7 588.3 433.5C588 432.3 586.8 431.5 585.6 431.8L534.1 443.3C532.9 443.6 532.1 444.8 532.4 446C532.6 447.1 533.6 447.8 534.6 447.8Z" fill="#312626"/>
<path d="M462.8 449.9C462.8 449.9 479.9 502.8 484.1 515.9C484.8 515.9 381.2 624.6 340.8 586.6C340.8 587.3 289 529.4 462.8 449.9Z" fill="#01B8A4"/>
<path d="M361.2 521.8C361.8 521.8 362.4 521.6 362.8 521.1C403.9 480.2 449.7 458.2 461 453.1L461.7 456.8C461.9 458 463.1 458.9 464.3 458.6C465.5 458.4 466.4 457.2 466.1 456L464.9 449.5C464.8 448.8 464.4 448.2 463.8 447.9C463.2 447.6 462.5 447.5 461.8 447.8C461.3 448 407.2 470.4 359.5 517.9C358.6 518.8 358.6 520.2 359.5 521.1C360.1 521.5 360.7 521.8 361.2 521.8Z" fill="#312626"/>
</g>
<path d="M130.2 65.4C88.6999 78.3 78.1999 88.8 65.2999 130.3C52.3999 88.8 41.8999 78.3 0.399902 65.4C41.8999 52.5 52.3999 42 65.2999 0.5C78.1999 42 88.6999 52.5 130.2 65.4Z" fill="#01B8A4"/>
<path d="M340.5 152.7C299 165.6 288.5 176.1 275.6 217.6C262.7 176.1 252.2 165.6 210.7 152.7C252.2 139.8 262.7 129.3 275.6 87.8C288.5 129.3 299 139.8 340.5 152.7Z" fill="#01B8A4"/>
<path d="M802.5 65.1H727.5C719 65.1 711.9 71.7 711.3 80.2L709 114.8C709 115.2 709 115.6 709 116L703.8 151.9L722.3 131.7C723.3 131.9 724.3 132 725.4 132L802.7 131.3C811.6 131.2 818.7 124 818.7 115.1V81.2C818.7 72.4 811.4 65.1 802.5 65.1Z" fill="#01B8A4"/>
<path d="M711.7 95.2C711.1 95.2 710.6 94.7 710.6 94.1V82.3C710.6 77.4 712.5 72.8 715.9 69.2C719.3 65.7 723.9 63.7 728.9 63.6L755.9 63.2C756.5 63.2 757 63.7 757 64.3C757 64.9 756.5 65.5 755.9 65.5L728.9 65.9C720.1 66 712.9 73.4 712.9 82.2V94C712.8 94.7 712.3 95.2 711.7 95.2Z" fill="#0A8FCF"/>
<path d="M741.1 106.4C745.684 106.4 749.4 102.684 749.4 98.1C749.4 93.516 745.684 89.8 741.1 89.8C736.516 89.8 732.8 93.516 732.8 98.1C732.8 102.684 736.516 106.4 741.1 106.4Z" fill="white"/>
<path d="M764.9 106.4C769.484 106.4 773.2 102.684 773.2 98.1C773.2 93.516 769.484 89.8 764.9 89.8C760.316 89.8 756.6 93.516 756.6 98.1C756.6 102.684 760.316 106.4 764.9 106.4Z" fill="white"/>
<path d="M788.6 106.4C793.184 106.4 796.9 102.684 796.9 98.1C796.9 93.516 793.184 89.8 788.6 89.8C784.016 89.8 780.3 93.516 780.3 98.1C780.3 102.684 784.016 106.4 788.6 106.4Z" fill="white"/>
</svg>
