<svg width="620" height="838" viewBox="0 0 620 838" fill="none" xmlns="http://www.w3.org/2000/svg">
<mask id="mask0_2446_425" style="mask-type:luminance" maskUnits="userSpaceOnUse" x="0" y="0" width="620" height="838">
<path d="M562.1 837.8H57.9001C26.3001 837.8 0.600098 812.1 0.600098 780.5V57.5C0.600098 25.9 26.3001 0.200012 57.9001 0.200012H562C593.6 0.200012 619.3 25.9 619.3 57.5V780.4C619.4 812.1 593.7 837.8 562.1 837.8Z" fill="white"/>
</mask>
<g mask="url(#mask0_2446_425)">
<path d="M396.7 166.5C407.1 163.9 418.1 163.6 428.8 165.4C434.5 166.4 440.6 168.3 444.2 172.7C446.6 175.6 447.6 179.4 449.9 182.3C454 187.5 461.2 189.3 466.3 193.7C473.2 199.6 474.7 209 473.3 217.6C471.4 228.7 470.2 236.2 474.6 247.2C477.8 255.2 481.7 263.4 480.8 271.9C480.3 275.8 478.1 278.9 475.5 281.7C460.9 297.7 467.6 307.3 481 320.2C485.8 324.8 490.3 330.8 489.5 337.4C488.5 345 480.9 349.9 473.8 352.5C469.4 354.1 464 356.1 463.2 360.7C462.8 363.2 463.8 365.6 464.2 368.1C465.4 376.5 457.7 384.1 449.4 385.7C441.1 387.3 432.6 384.2 425 380.5C417.4 376.8 409.9 372.4 401.6 370.9C385.8 368 373.7 374.4 358.4 366.2C354.3 364 350.5 361.3 346.2 359.6C337.3 356.2 327.3 357.9 317.8 357.3C306.8 356.6 296.1 352.7 287.2 346.3C284 344 280.8 340.8 281 336.9C281.3 329.6 292.4 327.2 294.1 320.1C295.6 314 289.6 308.9 287.5 303C284.5 294.7 289.8 285.6 296.5 279.8C303.2 274 311.3 269.9 317 263.1C330.1 247.5 326.1 224.7 337.8 207.8C341 203.2 347.8 200.7 352.7 197.8C358 194.6 363.1 195 367.4 190C371.9 184.7 373.1 177.2 378.3 172.5C382.6 167.9 390.2 168.1 396.7 166.5Z" fill="#3B2C2E"/>
<path d="M359.4 765.8C356.3 688.5 326.1 636.1 319.4 646.7C319.4 646.7 230.4 677.2 225.9 681C196.8 805.6 182.6 1059.2 182.6 1059.2C174 1134.5 162.2 1276.1 145.2 1352.5C142.1 1364 137.8 1375.4 132.2 1382.9C129.8 1386.1 124.1 1403.3 116.9 1409.9C124.5 1430.3 182.4 1397.7 194.7 1380.9C197.5 1339.6 266.6 1210.2 271 1068.8C281.9 1027.3 362.8 850.7 359.4 765.8Z" fill="#F79B7A"/>
<path d="M454.8 1382.3C450.3 1371.5 450.4 1366 449.8 1360.9C445.9 1282.3 457.4 1142.5 461.3 1067.6C461.3 1067.6 460.9 847.6 452.7 719.9C448.9 715.4 351 673.4 335.2 749.2C317.8 832.4 368.6 1019.9 372.6 1062.7C359.5 1204.1 397.9 1304.2 395 1381.8C395.9 1390.9 403.2 1402.8 403 1403C417.4 1423.1 477.2 1401.3 477.2 1401.3C454.1 1393.9 456.4 1386 454.8 1382.3Z" fill="#F79B7A"/>
<path d="M505.5 1078.8C492.8 844.8 458.7 646.2 430.4 600.7C307.3 612.8 262.2 549.8 238.6 593.6C209.2 648.3 172.5 828.4 142.6 1067.5C188.1 1096.7 388.8 1102.3 505.5 1078.8Z" fill="#1A4B7E"/>
<path d="M338.4 684.3C347.4 684.3 356.2 684 365 683.3C395.1 681 423.9 674.8 450.4 664.9C451.5 664.5 452.1 663.2 451.7 662C451.3 660.9 450 660.3 448.8 660.7C389.6 682.9 330.3 681.7 291 676.8C248.4 671.5 219.6 660.8 219.3 660.7C218.2 660.3 216.9 660.9 216.4 662C216 663.1 216.6 664.4 217.7 664.9C218 665 247.3 675.9 290.4 681.3C306.6 683.3 322.6 684.3 338.4 684.3Z" fill="#312626"/>
<path d="M319.5 1091.9C320.7 1091.9 321.7 1090.9 321.7 1089.7L330.4 682.1C330.4 680.9 329.5 679.9 328.2 679.8C327 679.8 326 680.7 325.9 682L317.2 1089.6C317.3 1090.9 318.3 1091.9 319.5 1091.9Z" fill="#312626"/>
<path d="M341 723.4C343.762 723.4 346 721.161 346 718.4C346 715.639 343.762 713.4 341 713.4C338.239 713.4 336 715.639 336 718.4C336 721.161 338.239 723.4 341 723.4Z" fill="#312626"/>
<path d="M344.554 797.512C346.506 795.56 346.506 792.394 344.554 790.441C342.601 788.489 339.435 788.489 337.483 790.441C335.53 792.394 335.53 795.56 337.483 797.512C339.435 799.465 342.601 799.465 344.554 797.512Z" fill="#312626"/>
<path d="M565 480.2C544 469.6 492.8 380.2 435.1 373C409.2 393.6 332.3 442.3 334.2 445.7C356.1 476.3 396.2 473.2 436.4 504.1C452 516 490.2 548 514 553.9C528.9 557.6 562.3 483.7 565 480.2Z" fill="#01B8A4"/>
<path d="M164.8 448.1L125.4 470.5L116.7 536.8C116.7 536.8 169.9 542.7 230.8 484.6C232.2 482.9 164.8 448.1 164.8 448.1Z" fill="#F79B7A"/>
<path d="M257.4 354C257.4 354 196.1 372.4 142.9 438C141.1 445.3 145.2 498.1 184.7 524.3C206.7 516.2 249.2 496.9 274.2 459.9C293.8 431 295.3 388 257.4 354Z" fill="#01B8A4"/>
<path d="M419.6 510.2C420.5 510.2 421.4 509.6 421.7 508.7C422.1 507.5 421.5 506.3 420.3 505.9L403 500.2C400.2 499.3 397.2 498.3 395.1 496.4C390.4 492.3 390.7 485 391 482C391.3 479.1 392 476.3 392.8 473.2C393.5 470.4 394.2 467.6 394.6 464.7C396.5 450.7 390.6 435.9 379.5 427C378.5 426.2 377.1 426.4 376.4 427.3C375.6 428.3 375.8 429.7 376.7 430.4C386.6 438.3 391.8 451.5 390.1 464.1C389.7 466.8 389.1 469.4 388.4 472.2C387.7 475.2 386.9 478.3 386.5 481.5C385.6 489.2 387.6 495.9 392.1 499.7C394.9 502.2 398.5 503.3 401.6 504.4L418.9 510.1C419.1 510.2 419.4 510.2 419.6 510.2Z" fill="#3B2C2E"/>
<path d="M169.2 392.7C170.1 377.7 170.6 362.8 170.5 347.9C170.4 331.5 144.7 366 130 358.8C128 357.8 112.6 393 112.5 393.4C98.7002 426.4 89.5002 458.2 86.6002 480.9C85.5002 489.2 85.6002 505.5 88.6002 514.5C91.4002 523.3 98.0002 530.8 106.5 534.5C115 538.2 125.4 538.2 133.1 533.1C161.5 514.1 168.2 407.2 169.2 392.7Z" fill="#F79B7A"/>
<path d="M437.7 376.2C437.5 376.1 401.6 372.9 369 371C346.1 362.8 319.6 347.7 295.2 348.3C262.8 349.1 248.5 353.2 227.9 377.2C248.3 494.9 205.8 632.5 223.6 636.8C272.4 650.5 378 662.7 443.5 636.8C458.1 627.2 454.9 455.7 437.7 376.2Z" fill="#01B8A4"/>
<path d="M452.7 526.5H452.8C454 526.4 455 525.4 454.9 524.2C453.9 507.5 463.3 430 471.8 410.2C472.3 409.1 471.8 407.8 470.6 407.3C469.5 406.8 468.2 407.3 467.7 408.5C459 428.7 449.4 507.6 450.5 524.6C450.6 525.6 451.6 526.5 452.7 526.5Z" fill="#312626"/>
<path d="M231.8 500.3C232.9 500.3 233.8 499.5 234 498.5C240.1 463.3 236.1 403.3 229 392.1C228.3 391.1 227 390.8 225.9 391.4C224.9 392.1 224.6 393.4 225.2 394.5C231.3 404.1 235.8 462.1 229.6 497.8C229.4 499 230.2 500.2 231.4 500.4C231.5 500.2 231.6 500.3 231.8 500.3Z" fill="#312626"/>
<path d="M153 502.2C154 502.2 154.9 501.5 155.1 500.6L163.6 468.8C163.9 467.6 163.2 466.4 162 466.1C160.8 465.8 159.6 466.5 159.3 467.7L150.8 499.5C150.5 500.7 151.2 501.9 152.4 502.2C152.6 502.2 152.8 502.2 153 502.2Z" fill="#312626"/>
<path d="M180.4 339.8C172 348.2 168.6 372 168.6 372L124.5 368C124.5 368 132.2 343.6 135.2 326.3C138.7 328.4 180.4 339.8 180.4 339.8Z" fill="#F79B7A"/>
<path d="M176.1 343.4L206.3 321.5L223.1 301.4C224.4 299.9 223.6 297.6 221.7 297.1C218.3 296.2 212.6 296.8 204.6 305.3C203.7 305.8 182.6 316.1 182.6 316.1L176.1 343.4Z" fill="#F79B7A"/>
<path d="M203.4 291.8C203.4 291.8 200.9 277.3 176.2 273.7C155.2 270.7 148.9 295.6 148.9 295.6C148.9 295.6 137.2 304.1 133.1 339.4C131.9 339.8 160.9 347.5 180.5 339.9C181 340.1 195.2 310.2 203.4 291.8Z" fill="#F79B7A"/>
<path d="M199.6 300.1L228.9 239.3C229.9 237.4 229.1 235 227.3 233.9C225.4 232.8 223.1 233.4 221.9 235.2L183.3 292.6L199.6 300.1Z" fill="#F9AF9D"/>
<path d="M153.1 325C153.7 325 154.4 324.7 154.8 324.2C169.4 306.9 191.1 311.7 192 311.9C193.2 312.2 194.4 311.4 194.7 310.2C195 309 194.2 307.8 193.1 307.5C192.1 307.3 167.9 301.8 151.5 321.3C150.7 322.2 150.8 323.6 151.8 324.4C152 324.8 152.6 325 153.1 325Z" fill="#423130"/>
<path d="M233.2 283.3L160.5 338C157.1 340.6 152.5 341.2 148.6 339.5C140.8 336.3 138.5 326.4 144.1 320.1L191.9 266.4C191.8 266.4 207.1 244.8 233.2 283.3Z" fill="#FDE3C3"/>
<path d="M113.706 202.957C128.39 188.273 128.39 164.466 113.706 149.783C99.0229 135.099 75.2161 135.099 60.5325 149.783C45.8489 164.466 45.8489 188.273 60.5325 202.957C75.2161 217.64 99.0229 217.64 113.706 202.957Z" fill="#AD5048"/>
<path d="M255.9 200C231.5 188 166.4 153.6 137.5 113.9C130.5 104.3 115.6 106 111 117C96.8002 150.6 74.2002 203.2 59.9002 235.1C55.1002 245.9 64.1002 257.8 75.7002 256C105.6 251.5 157.4 250.9 222.8 278.7C228.6 281.2 235.3 278.4 237.8 272.6C246.3 252.1 256.1 227.7 261.5 214.4C263.6 208.9 261.2 202.6 255.9 200Z" fill="#FDE3C3"/>
<path d="M290.4 214.7L265.4 204.5L233.2 283.3L258.2 293.5C280 302.4 304.8 292 313.7 270.2C322.6 248.4 312.2 223.6 290.4 214.7Z" fill="#AD5048"/>
<path d="M233.2 285.5C234.1 285.5 234.9 285 235.3 284.1L267.5 205.3C268 204.2 267.4 202.9 266.3 202.4C265.2 201.9 263.9 202.5 263.4 203.6L231.2 282.4C230.7 283.5 231.3 284.8 232.4 285.3C232.7 285.5 232.9 285.5 233.2 285.5Z" fill="#312626"/>
<path d="M191.8 268.6C192.7 268.6 193.5 268.1 193.9 267.2L227.3 185.3C227.8 184.2 227.2 182.9 226.1 182.4C225 181.9 223.7 182.5 223.2 183.6L189.8 265.5C189.3 266.6 189.9 267.9 191 268.4C191.2 268.6 191.5 268.6 191.8 268.6Z" fill="#312626"/>
<path d="M165.2 267.3C163.1 270 166.8 275 168.3 277.5C173.4 286.1 181.5 292.5 188 300C189.5 301.8 192.1 302.3 194.2 301.3C197.1 299.9 198 296.3 196.2 293.7C191.6 287.2 188.2 279.9 182.9 273.9C180.3 271 177.3 268.1 173.6 266.7C171.5 266.2 166.8 265.3 165.2 267.3Z" fill="#F79B7A"/>
<path d="M156.2 272.2C153.1 274.5 155.8 280.2 156.7 282.9C159.9 292.4 166.9 300.3 171.9 309.1C173.1 311.2 175.7 312.2 178.3 311.6C181.9 310.8 184 307.4 182.7 304.4C179.5 297.1 177.8 289.2 173.7 282.2C171.7 278.8 169.2 275.3 165.5 273.3C163.4 272.3 158.5 270.5 156.2 272.2Z" fill="#F79B7A"/>
<path d="M145.9 278.8C145.8 278.8 145.8 278.8 145.9 278.8C143.3 281.4 144.5 285 145.5 287.8C148.8 297.3 155.4 305.2 160.2 313.9C161.3 316 163.7 317 166 316.4C169.1 315.6 170.8 312.2 169.5 309.3C166.3 302 164.4 294.2 160.5 287.2C158.2 283.1 154.8 277.7 149.5 277.5C148.1 277.6 146.8 277.9 145.9 278.8Z" fill="#F79B7A"/>
<path d="M139 297.9C141.6 305.9 147.8 312.4 152 319.6C153 321.3 155.2 322.1 157.3 321.6C160.2 320.9 161.8 318 160.7 315.5C157.9 309.4 156.3 302.9 152.8 297.1C151.1 294.3 148.9 291.6 145.9 289.7C139.9 285.9 136.7 290.8 139 297.9Z" fill="#F79B7A"/>
<path d="M368.6 170.5C366 173.4 364.1 176.9 361 179.3C358.2 181.4 354.6 182.5 352.1 184.9C346.6 190.1 348.4 199 345.5 205.8C344.4 208.3 342.7 210.6 341.5 213.1C339.2 218 339 223.8 341.1 228.8C342.2 231.5 344.2 234.1 347.1 234.9C349.7 235.6 352.4 234.6 354.7 233.4C358.9 231.3 362.6 228.4 365.6 224.9C368.8 221.3 371.1 217.1 373.8 213.2C378.2 206.9 383.7 201.2 390 196.6C392.5 194.7 395.2 193 397.4 190.7C402.6 185 404.3 170.9 396.9 165.6C388.7 159.7 374.5 164.1 368.6 170.5Z" fill="#3B2C2E"/>
<path d="M364.8 238.1C364.8 238.1 360.9 218 347.4 223C343.7 224.4 340.6 227.2 338.9 230.7C335.2 238.2 332.9 252.3 351.5 261.9C350.8 262.7 364.8 238.1 364.8 238.1Z" fill="#814D3C"/>
<path d="M402.8 346.4L419.7 268.2L362.5 280.8L350 339.5C349.2 343.5 346.1 346.7 342.2 347.8L314.5 350.6C314.5 350.6 351 420.6 437 373.2C428.3 368.5 414.9 362.1 407.9 358C403.9 355.7 401.8 351 402.8 346.4Z" fill="#F79B7A"/>
<path d="M411.8 304.7L414 294.5C413.2 287.2 411.2 276.9 409.9 270.3L362.4 280.7L355 315.4C365.4 319.8 385 322.9 411.8 304.7Z" fill="#DF7A5D"/>
<path d="M438 255.8C427.3 292.2 398.8 313.5 373.1 308.3C334.4 300.6 336.2 265.4 346.9 229C357.6 192.6 386.6 169.1 411.8 176.5C437 184 448.7 219.5 438 255.8Z" fill="#F79B7A"/>
<path d="M398 244.6C397.4 247.1 397.9 249.3 399.2 249.7C400.5 250 402 248.3 402.6 245.8C403.2 243.3 402.7 241.1 401.4 240.7C400.2 240.3 398.6 242.1 398 244.6Z" fill="#3B2C2E"/>
<path d="M357.5 236.7C356.9 239.2 357.4 241.4 358.7 241.8C360 242.1 361.5 240.4 362.1 237.9C362.7 235.4 362.2 233.2 360.9 232.8C359.6 232.5 358.1 234.2 357.5 236.7Z" fill="#3B2C2E"/>
<path d="M413.1 241.8C413.8 241.8 414.4 241.5 414.8 241C415.6 240 415.4 238.6 414.5 237.9C407.2 232 396 229.5 390.5 232.4C389.4 233 389 234.3 389.6 235.4C390.2 236.5 391.5 236.9 392.6 236.3C395.6 234.7 404.8 235.8 411.7 241.3C412.1 241.6 412.6 241.8 413.1 241.8Z" fill="#3B2C2E"/>
<path d="M371 230.9C371.7 230.9 372.3 230.6 372.7 230.1C373.5 229.1 373.3 227.7 372.3 227C363.8 220.3 355.2 223.4 354.8 223.5C353.7 223.9 353.1 225.2 353.5 226.4C353.9 227.5 355.2 228.1 356.3 227.7C356.6 227.6 363 225.4 369.5 230.5C370 230.8 370.5 230.9 371 230.9Z" fill="#3B2C2E"/>
<path d="M377.8 267.6C379 267.6 379.9 266.7 380 265.5C380.1 264.3 379.1 263.2 377.9 263.2C371.3 262.8 370 261.2 369.7 260.7C369.4 260.2 369.7 259.6 369.7 259.5C378.9 245.5 379.8 235 379.8 234.6C379.9 233.4 379 232.3 377.8 232.2C376.6 232.1 375.5 233 375.4 234.2C375.4 234.3 374.5 244.1 365.9 257.1C365.9 257.1 365.9 257.2 365.8 257.2C365.6 257.5 364.2 260 365.7 262.8C367.2 265.7 371.1 267.3 377.5 267.7C377.7 267.6 377.8 267.6 377.8 267.6Z" fill="#312626"/>
<path d="M432.9 255.8C432.9 255.8 451.2 246.7 455.5 260.5C456.7 264.3 456.3 268.4 454.5 272C450.8 279.5 441 289.9 422.1 280.9C421.8 281.7 432.9 255.8 432.9 255.8Z" fill="#F79B7A"/>
<path d="M430.7 275.3C431.3 275.3 431.9 275.1 432.3 274.6C440 266.6 449.5 268.2 449.6 268.2C450.8 268.4 452 267.6 452.2 266.4C452.4 265.2 451.6 264 450.4 263.8C449.9 263.7 438.4 261.9 429.1 271.5C428.2 272.4 428.3 273.8 429.2 274.6C429.6 275 430.1 275.3 430.7 275.3Z" fill="#312626"/>
<path d="M442.3 275.5C442.7 275.5 443 275.4 443.4 275.2C444.5 274.6 444.8 273.2 444.2 272.2L441.1 266.8C440.5 265.7 439.1 265.4 438.1 266C437 266.6 436.7 268 437.3 269L440.4 274.4C440.8 275.1 441.5 275.5 442.3 275.5Z" fill="#312626"/>
<path d="M387 169.1C386.2 175.8 385.7 189.8 390.9 194.5C396.8 199.7 406.1 202.9 407.3 210.4C407.8 213.5 406.7 216.6 407.4 219.7C409.3 228.4 423.2 229.7 427.4 237.7C429.2 241.1 428.9 245 430.2 248.6C431.5 252.1 435.9 255.4 439.2 253.4C443.7 243.9 448 235 448.9 224.5C449.8 214.1 447.2 202.9 439.8 195.1C435.4 190.5 438.4 180.5 432.6 177.6C420.9 171.7 399.4 165 387 169.1Z" fill="#3B2C2E"/>
<path d="M353.7 218.8C355.3 218 356.8 217.1 358.2 215.7C363.5 210.5 363.8 204.7 366.8 198.6C368.2 195.6 371.6 194.1 374.8 193.3C378 192.5 381.4 192 384.2 190.2C387.6 187.9 389.4 183.3 388.5 179.2C384.3 176.7 380.4 172.8 375.5 173C370.6 173.2 365.7 175.6 363.3 179.8C360.8 184.2 361 190.4 356.8 193.1C355.4 194 353.7 194.4 352.1 195C345.8 197.5 341.9 205 343.6 211.5C343.9 212.9 344.5 214.2 344.8 215.6C345.2 217.9 344.9 220.3 346.4 222.1C348.7 220.7 351.3 220 353.7 218.8Z" fill="#3B2C2E"/>
<path d="M469 348C469.1 348 469.2 348 469.4 348C474.6 347.1 480.6 346 485.7 342.9C491.5 339.4 495.2 333.6 495.3 327.9C495.4 323.6 493.5 319.1 490 314.8C488.2 312.7 486.2 310.8 484.2 309C483 307.9 481.8 306.8 480.7 305.7C476.2 301.1 473.4 296.3 472.6 291.6C471.7 286.1 473.6 280.6 477.5 277.9C478.5 277.2 478.7 275.8 478 274.8C477.3 273.8 475.9 273.6 474.9 274.3C469.7 278 467 285.2 468.2 292.4C469.2 298 472.3 303.5 477.5 308.8C478.7 310 479.9 311.2 481.1 312.3C483 314.1 484.9 315.8 486.5 317.7C488.5 320.1 490.9 323.8 490.8 327.8C490.7 332.8 486.9 336.9 483.3 339.1C478.9 341.8 473.6 342.8 468.6 343.6C467.4 343.8 466.6 344.9 466.8 346.1C467 347.2 467.9 348 469 348Z" fill="#3B2C2E"/>
<path d="M379.9 280.6L355 275.7C355.1 275.7 361.1 299 379.9 280.6Z" fill="white"/>
<path d="M429 418.9C429 418.9 392.3 391.9 375.2 385.3C375.4 385.7 369.9 436.3 374.9 454.4C384.8 458.6 390.6 465.9 416.5 461.1C416.3 461.2 426.4 465.7 426.4 465.7L435.7 423.1L429 418.9Z" fill="#F79B7A"/>
<path d="M320.9 448.3C321.1 443.1 340.9 439.8 357.9 438H358C360.2 436.8 359.7 433.5 357.3 432.9C355.2 432.3 353.4 431.9 353.4 432C310.9 424.9 303.8 419.4 304.5 415C305.1 413.2 308.3 412.3 312.9 412.1C306.5 409.8 304.9 407.5 305.1 405.4C307 398.3 346 402.2 360.6 404C361.5 404.1 362.2 403.3 362 402.4C361.9 401.9 361.5 401.6 361 401.5C325.7 394.7 312.3 388.8 312.8 384.3C315.2 375.5 375.3 385.4 375.3 385.4L375 454.5L362.4 452.6C328.4 455.5 321.4 452.4 320.9 448.3Z" fill="#F79B7A"/>
<path d="M361.2 418.7C362.3 418.7 363.3 417.8 363.4 416.7C363.5 415.5 362.6 414.4 361.4 414.3L313.1 409.8C311.9 409.7 310.8 410.6 310.7 411.8C310.6 413 311.5 414.1 312.7 414.2L361 418.7C361.1 418.7 361.1 418.7 361.2 418.7Z" fill="#312626"/>
<path d="M429 418.9C429 418.9 419.9 449 416.6 461.1C436.2 471.9 530.4 587 565.3 539.1C574.8 519.8 588.8 481.7 429 418.9Z" fill="#F79B7A"/>
</g>
</svg>
